<svg width="419" height="304" viewBox="0 0 419 304" fill="none" xmlns="http://www.w3.org/2000/svg">
<g clip-path="url(#clip0_667_7153)">
<path d="M267.008 227.898V301.181H83.5833C62.6846 301.181 45.6812 284.743 45.6812 264.539C45.6812 244.336 62.6846 227.898 83.5833 227.898H267.008Z" fill="#F2F2F2"/>
<path d="M271.513 300.618C271.513 301.366 271.216 302.083 270.688 302.611C270.16 303.14 269.444 303.437 268.698 303.437H80.3165C70.0852 303.437 60.2729 299.369 53.0383 292.127C45.8036 284.886 41.7393 275.064 41.7393 264.823C41.7393 254.582 45.8036 244.76 53.0383 237.519C60.2729 230.277 70.0852 226.209 80.3165 226.209H268.698C269.444 226.209 270.161 226.506 270.689 227.035C271.217 227.563 271.513 228.28 271.513 229.028C271.513 229.775 271.217 230.492 270.689 231.021C270.161 231.549 269.444 231.846 268.698 231.846H80.3165C71.5788 231.846 63.199 235.32 57.0205 241.505C50.842 247.689 47.371 256.077 47.371 264.823C47.371 273.569 50.842 281.957 57.0205 288.141C63.199 294.326 71.5788 297.8 80.3165 297.8H268.698C269.444 297.8 270.16 298.097 270.688 298.626C271.216 299.154 271.513 299.871 271.513 300.618Z" fill="#A77700"/>
<path d="M267.008 244.811H69.8976C69.7483 244.811 69.605 244.752 69.4994 244.646C69.3938 244.54 69.3345 244.397 69.3345 244.247C69.3345 244.098 69.3938 243.954 69.4994 243.849C69.605 243.743 69.7483 243.684 69.8976 243.684H267.008C267.157 243.684 267.3 243.743 267.406 243.849C267.512 243.954 267.571 244.098 267.571 244.247C267.571 244.397 267.512 244.54 267.406 244.646C267.3 244.752 267.157 244.811 267.008 244.811Z" fill="#A77700"/>
<path d="M267.008 258.34H69.8976C69.7483 258.34 69.605 258.281 69.4994 258.175C69.3938 258.069 69.3345 257.926 69.3345 257.777C69.3345 257.627 69.3938 257.484 69.4994 257.378C69.605 257.272 69.7483 257.213 69.8976 257.213H267.008C267.157 257.213 267.3 257.272 267.406 257.378C267.512 257.484 267.571 257.627 267.571 257.777C267.571 257.926 267.512 258.069 267.406 258.175C267.3 258.281 267.157 258.34 267.008 258.34Z" fill="#F0F3F1"/>
<path d="M267.008 271.87H69.8976C69.7483 271.87 69.605 271.81 69.4994 271.704C69.3938 271.599 69.3345 271.455 69.3345 271.306C69.3345 271.156 69.3938 271.013 69.4994 270.907C69.605 270.802 69.7483 270.742 69.8976 270.742H267.008C267.157 270.742 267.3 270.802 267.406 270.907C267.512 271.013 267.571 271.156 267.571 271.306C267.571 271.455 267.512 271.599 267.406 271.704C267.3 271.81 267.157 271.87 267.008 271.87Z" fill="#A77700"/>
<path d="M267.008 285.397H69.8976C69.7483 285.397 69.605 285.338 69.4994 285.232C69.3938 285.126 69.3345 284.983 69.3345 284.833C69.3345 284.684 69.3938 284.54 69.4994 284.435C69.605 284.329 69.7483 284.27 69.8976 284.27H267.008C267.157 284.27 267.3 284.329 267.406 284.435C267.512 284.54 267.571 284.684 267.571 284.833C267.571 284.983 267.512 285.126 267.406 285.232C267.3 285.338 267.157 285.397 267.008 285.397Z" fill="#F0F3F1"/>
<path d="M408.768 241.694L362.833 298.757L220.004 183.563C203.731 170.438 200.794 146.96 213.458 131.228C226.122 115.496 249.666 113.375 265.939 126.5L408.768 241.694Z" fill="#F2F2F2"/>
<path d="M366.695 301.149C366.226 301.73 365.545 302.102 364.803 302.182C364.061 302.262 363.317 302.044 362.735 301.575L216.047 183.268C208.08 176.843 202.989 167.512 201.895 157.33C200.8 147.148 203.792 136.947 210.211 128.973C216.631 120.998 225.952 115.903 236.125 114.808C246.297 113.712 256.488 116.707 264.455 123.132L411.144 241.439C411.432 241.671 411.671 241.958 411.849 242.283C412.026 242.608 412.138 242.964 412.178 243.332C412.217 243.701 412.184 244.073 412.08 244.428C411.976 244.784 411.803 245.115 411.571 245.403C411.339 245.691 411.052 245.931 410.727 246.109C410.403 246.286 410.046 246.398 409.678 246.437C409.311 246.477 408.939 246.443 408.584 246.339C408.229 246.234 407.898 246.061 407.61 245.828L260.922 127.522C257.553 124.802 253.682 122.774 249.53 121.553C245.378 120.332 241.026 119.941 236.723 120.403C232.421 120.866 228.251 122.172 224.453 124.248C220.654 126.324 217.302 129.129 214.587 132.502C211.871 135.875 209.847 139.75 208.628 143.906C207.41 148.063 207.021 152.419 207.485 156.726C207.948 161.032 209.255 165.205 211.331 169.006C213.406 172.808 216.209 176.162 219.58 178.879L366.269 297.185C366.85 297.655 367.221 298.336 367.301 299.079C367.381 299.822 367.163 300.566 366.695 301.149Z" fill="#A77700"/>
<path d="M398.168 254.862L244.682 131.073C244.624 131.027 244.577 130.969 244.541 130.904C244.506 130.839 244.483 130.768 244.475 130.694C244.467 130.621 244.474 130.546 244.495 130.475C244.516 130.404 244.55 130.338 244.597 130.28C244.643 130.223 244.7 130.175 244.765 130.139C244.83 130.104 244.902 130.081 244.975 130.074C245.049 130.066 245.123 130.072 245.194 130.093C245.265 130.114 245.331 130.149 245.389 130.195L398.875 253.984C398.932 254.03 398.98 254.088 399.016 254.153C399.051 254.218 399.074 254.289 399.082 254.363C399.09 254.436 399.083 254.511 399.062 254.582C399.041 254.653 399.007 254.719 398.96 254.777C398.914 254.835 398.856 254.883 398.792 254.918C398.727 254.954 398.655 254.976 398.582 254.984C398.508 254.992 398.434 254.985 398.363 254.964C398.292 254.943 398.225 254.908 398.168 254.862Z" fill="#A77700"/>
<path d="M389.687 265.397L236.201 141.608C236.085 141.514 236.011 141.378 235.995 141.229C235.98 141.081 236.023 140.932 236.117 140.815C236.21 140.699 236.346 140.625 236.495 140.609C236.643 140.593 236.792 140.636 236.908 140.73L390.394 264.519C390.452 264.565 390.5 264.622 390.535 264.687C390.571 264.752 390.593 264.824 390.601 264.897C390.609 264.971 390.602 265.046 390.582 265.117C390.561 265.188 390.526 265.254 390.48 265.312C390.433 265.369 390.376 265.417 390.311 265.453C390.246 265.488 390.175 265.511 390.101 265.519C390.028 265.526 389.953 265.52 389.882 265.499C389.811 265.478 389.745 265.443 389.687 265.397Z" fill="#F0F3F1"/>
<path d="M381.207 275.932L227.721 152.143C227.605 152.049 227.53 151.913 227.514 151.765C227.498 151.616 227.542 151.467 227.636 151.351C227.73 151.234 227.866 151.16 228.014 151.144C228.163 151.128 228.311 151.172 228.428 151.265L381.914 275.054C381.971 275.101 382.019 275.158 382.055 275.223C382.09 275.288 382.112 275.359 382.12 275.433C382.128 275.507 382.121 275.581 382.101 275.652C382.08 275.723 382.045 275.789 381.999 275.847C381.952 275.905 381.895 275.952 381.83 275.988C381.765 276.023 381.694 276.046 381.62 276.054C381.547 276.062 381.473 276.055 381.402 276.034C381.331 276.013 381.264 275.979 381.207 275.932Z" fill="#F0F3F1"/>
<path d="M372.727 286.467L219.241 162.678C219.184 162.632 219.136 162.575 219.1 162.51C219.065 162.445 219.042 162.373 219.034 162.3C219.027 162.226 219.033 162.152 219.054 162.081C219.075 162.01 219.11 161.943 219.156 161.886C219.202 161.828 219.26 161.78 219.325 161.745C219.389 161.709 219.461 161.687 219.534 161.679C219.608 161.671 219.682 161.678 219.753 161.699C219.824 161.719 219.89 161.754 219.948 161.801L373.434 285.589C373.491 285.636 373.539 285.693 373.575 285.758C373.61 285.823 373.633 285.894 373.641 285.968C373.649 286.042 373.642 286.116 373.621 286.187C373.6 286.258 373.566 286.325 373.519 286.382C373.473 286.44 373.416 286.488 373.351 286.524C373.286 286.559 373.214 286.581 373.141 286.589C373.067 286.597 372.993 286.59 372.922 286.569C372.851 286.549 372.785 286.514 372.727 286.467Z" fill="#A77700"/>
<path d="M418.437 304H0.563172C0.41381 304 0.270564 303.941 0.164949 303.835C0.0593336 303.73 0 303.586 0 303.437C0 303.287 0.0593336 303.144 0.164949 303.038C0.270564 302.932 0.41381 302.873 0.563172 302.873H418.437C418.586 302.873 418.729 302.932 418.835 303.038C418.941 303.144 419 303.287 419 303.437C419 303.586 418.941 303.73 418.835 303.835C418.729 303.941 418.586 304 418.437 304Z" fill="#F0F3F1"/>
<path d="M190.398 220.198L183.959 220.197L180.897 195.34L190.4 195.341L190.398 220.198Z" fill="#FFB8B8"/>
<path d="M179.36 218.355H191.777V226.181H171.542C171.542 225.153 171.745 224.136 172.138 223.186C172.53 222.237 173.106 221.374 173.832 220.647C174.558 219.921 175.42 219.344 176.369 218.951C177.317 218.558 178.334 218.355 179.36 218.355Z" fill="#2F2E41"/>
<path d="M124.622 220.198L118.184 220.197L115.122 195.34L124.624 195.341L124.622 220.198Z" fill="#FFB8B8"/>
<path d="M113.585 218.355H126.002V226.181H105.767C105.767 225.153 105.969 224.136 106.362 223.186C106.755 222.237 107.331 221.374 108.057 220.647C108.783 219.921 109.645 219.344 110.593 218.951C111.542 218.558 112.558 218.355 113.585 218.355Z" fill="#2F2E41"/>
<path d="M146.127 35.8146V32.996C146.127 28.1745 148.04 23.5504 151.447 20.1411C154.853 16.7318 159.472 14.8164 164.289 14.8164C169.106 14.8164 173.726 16.7318 177.132 20.1411C180.538 23.5504 182.452 28.1745 182.452 32.996V35.8146C182.452 39.2906 181.072 42.6242 178.617 45.0821C176.161 47.54 172.83 48.9208 169.358 48.9208H159.221C157.501 48.9208 155.799 48.5818 154.21 47.9232C152.621 47.2645 151.178 46.2991 149.962 45.0821C148.746 43.8651 147.782 42.4202 147.124 40.8301C146.466 39.24 146.127 37.5357 146.127 35.8146Z" fill="#F0F3F1"/>
<path d="M164.289 49.8897C171.928 49.8897 178.121 43.691 178.121 36.0445C178.121 28.398 171.928 22.1992 164.289 22.1992C156.65 22.1992 150.457 28.398 150.457 36.0445C150.457 43.691 156.65 49.8897 164.289 49.8897Z" fill="#FFB8B8"/>
<path d="M89.0516 83.6301C89.6129 83.0996 90.2836 82.6987 91.0165 82.4557C91.7493 82.2127 92.5265 82.1334 93.2932 82.2236C94.06 82.3137 94.7977 82.5711 95.4543 82.9775C96.111 83.3838 96.6706 83.9294 97.0938 84.5757L108.951 82.3306L112.072 89.2104L95.2823 92.1455C94.1505 92.7852 92.8235 92.9871 91.5529 92.7129C90.2823 92.4387 89.1563 91.7076 88.3883 90.6579C87.6203 89.6083 87.2636 88.3131 87.3859 87.0179C87.5081 85.7226 88.1008 84.5172 89.0516 83.6301Z" fill="#FFB8B8"/>
<path d="M153.66 58.8446L134.216 71.6658L101.407 82.1527C100.972 82.2925 100.599 82.579 100.351 82.9632C100.104 83.3474 99.9965 83.8057 100.048 84.26L100.764 90.4307C100.796 90.7038 100.884 90.9672 101.024 91.2041C101.163 91.441 101.351 91.6462 101.574 91.8064C101.797 91.9666 102.051 92.0783 102.32 92.1344C102.589 92.1905 102.867 92.1898 103.135 92.1322L134.014 85.5071C135.508 85.1883 136.921 84.5656 138.165 83.6776L160.009 68.121C160.801 67.5539 161.433 66.7914 161.844 65.9076C162.254 65.0238 162.429 64.0487 162.351 63.0772C162.271 62.1044 161.94 61.1691 161.389 60.3636C160.838 59.558 160.087 58.9098 159.21 58.4827C158.333 58.0557 157.361 57.8645 156.387 57.9279C155.414 57.9914 154.474 58.3073 153.66 58.8446Z" fill="#F0F3F1"/>
<path d="M184.075 213.143C183.581 213.143 183.097 212.999 182.683 212.729C182.269 212.459 181.943 212.074 181.745 211.621L152.229 138.62C152.16 138.462 152.044 138.328 151.897 138.238C151.75 138.147 151.579 138.104 151.407 138.113C151.235 138.123 151.069 138.185 150.934 138.292C150.798 138.398 150.698 138.544 150.647 138.709L126.567 209.778C126.465 210.109 126.297 210.415 126.073 210.678C125.848 210.942 125.572 211.156 125.262 211.309C124.952 211.461 124.614 211.549 124.269 211.566C123.923 211.583 123.578 211.529 123.254 211.408L115.179 208.377C114.741 208.214 114.357 207.932 114.069 207.563C113.781 207.195 113.6 206.753 113.548 206.288C109.915 174.612 141.594 94.6573 141.914 93.8535L142.003 93.6309L170.881 100.025L170.941 100.09C182.462 112.671 191.932 192.021 193.714 207.8C193.78 208.37 193.651 208.946 193.347 209.432C193.042 209.919 192.582 210.287 192.041 210.476L184.913 212.999C184.644 213.095 184.36 213.143 184.075 213.143Z" fill="#292D32"/>
<path d="M159.193 102.598C152.196 102.598 144.396 101.201 141.995 95.4382L141.94 95.3058L142.014 95.183C143.91 92.0705 146.414 86.761 145.068 85.7643C142.416 83.8015 141.129 80.5726 141.243 76.167C141.491 66.6032 148.002 58.1121 157.443 55.0378C160.079 54.1936 162.761 53.5024 165.476 52.9677C167.455 52.5679 169.499 52.6119 171.459 53.0964C173.419 53.581 175.248 54.4941 176.814 55.7703C178.4 57.0547 179.681 58.6748 180.567 60.514C181.453 62.3533 181.921 64.3661 181.937 66.4078C182.036 76.6283 180.464 90.8633 172.412 100.636C172.035 101.09 171.51 101.395 170.929 101.499C167.056 102.201 163.129 102.568 159.193 102.598Z" fill="#F0F3F1"/>
<path d="M156.591 102.216C156.971 100.849 157.876 99.6876 159.107 98.9841C160.339 98.2807 161.798 98.0922 163.167 98.4596C163.447 98.5378 163.72 98.6389 163.983 98.7618L172.986 90.5605L179.247 94.7829L166.372 106.187C165.791 107.236 164.876 108.061 163.772 108.529C162.669 108.998 161.44 109.084 160.283 108.773C159.608 108.588 158.977 108.271 158.426 107.841C157.874 107.41 157.414 106.875 157.07 106.265C156.727 105.656 156.508 104.984 156.426 104.289C156.343 103.594 156.399 102.889 156.591 102.216Z" fill="#FFB8B8"/>
<path d="M171.56 102.319C170.976 102.32 170.41 102.118 169.958 101.747L166.407 98.843C166.111 98.6009 165.874 98.2949 165.713 97.9479C165.552 97.601 165.471 97.2221 165.477 96.8396C165.483 96.457 165.575 96.0808 165.747 95.739C165.919 95.3972 166.165 95.0987 166.469 94.8659L181.36 83.434C181.536 83.2978 181.652 83.0975 181.682 82.8764C181.712 82.6554 181.653 82.4314 181.519 82.2532L172.328 70.0905C171.26 68.6822 170.725 66.941 170.816 65.1754C170.908 63.4097 171.62 61.7334 172.828 60.4431C174.1 59.0681 175.842 58.222 177.708 58.0726C179.574 57.9232 181.428 58.4815 182.902 59.6366L182.96 59.698L192.558 73.4538C193.596 74.2683 194.431 75.3119 194.999 76.5031C195.568 77.6944 195.853 79.001 195.834 80.3209C195.814 81.6409 195.49 82.9384 194.886 84.1121C194.283 85.2859 193.416 86.3042 192.355 87.0874L173.069 101.822C172.632 102.145 172.103 102.319 171.56 102.319Z" fill="#F0F3F1"/>
<path d="M152.037 32.1504V25.281L164.289 19.9258L175.972 25.281V32.1504C175.972 32.4495 175.853 32.7362 175.642 32.9476C175.431 33.1591 175.144 33.2779 174.846 33.2779H153.163C152.865 33.2779 152.578 33.1591 152.367 32.9476C152.156 32.7362 152.037 32.4495 152.037 32.1504Z" fill="#F0F3F1"/>
<path d="M163.727 15.7272C161.925 9.95571 165.709 3.34126 171.302 1.05673C176.895 -1.22779 183.586 0.369162 188.306 4.14354C193.025 7.91792 195.954 13.5712 197.505 19.4151C199.057 25.2589 199.351 31.3526 199.638 37.3925C206.51 38.656 211.184 46.8145 208.804 53.3896C206.423 59.9647 197.612 63.2313 191.527 59.7946C185.442 56.358 183.679 47.1199 188.071 41.6806C190.149 39.1068 191.31 35.9127 191.37 32.604C191.429 29.2954 190.384 26.0614 188.401 23.4142C186.417 20.767 183.607 18.858 180.417 17.9895C177.227 17.121 173.838 17.3427 170.788 18.6194C167.402 20.0371 163.152 16.3537 163.727 15.7272Z" fill="#F0F3F1"/>
<path d="M86.5112 56.9806C78.2836 56.9266 70.1589 55.1454 62.6619 51.7523C62.2157 51.5532 61.8369 51.2285 61.5717 50.8177C61.3065 50.407 61.1664 49.9279 61.1685 49.4388V28.9097C61.1692 28.2372 61.4365 27.5924 61.9116 27.1168C62.3867 26.6413 63.0309 26.3738 63.7028 26.373H109.32C109.992 26.3738 110.636 26.6413 111.111 27.1169C111.586 27.5924 111.853 28.2372 111.854 28.9097V49.4389C111.856 49.9279 111.716 50.407 111.451 50.8178C111.186 51.2285 110.807 51.5532 110.361 51.7523C102.864 55.1455 94.7388 56.9266 86.5112 56.9806Z" fill="#A77700"/>
<path d="M86.5049 40.3507C86.1667 40.351 85.8319 40.2836 85.5201 40.1526L49.3465 24.8763C48.88 24.6793 48.4832 24.347 48.2071 23.9221C47.9311 23.4973 47.7885 22.9995 47.7978 22.4928C47.8071 21.9861 47.9678 21.4938 48.2592 21.0793C48.5506 20.6649 48.9593 20.3474 49.4327 20.1676L85.6068 6.43133C86.1894 6.20907 86.8336 6.21044 87.4153 6.43518L123.105 20.1714C123.575 20.3526 123.981 20.6703 124.271 21.0837C124.56 21.4971 124.72 21.9876 124.729 22.4923C124.738 22.997 124.597 23.493 124.323 23.9168C124.049 24.3407 123.655 24.6731 123.191 24.8716L87.5017 40.1476C87.1865 40.2819 86.8475 40.351 86.5049 40.3507Z" fill="#A77700"/>
<path d="M65.3922 53.1493C67.2584 53.1493 68.7712 51.635 68.7712 49.767C68.7712 47.8991 67.2584 46.3848 65.3922 46.3848C63.526 46.3848 62.0132 47.8991 62.0132 49.767C62.0132 51.635 63.526 53.1493 65.3922 53.1493Z" fill="#3F3D56"/>
<path opacity="0.2" d="M123.315 22.703L87.6251 37.979C87.3468 38.0981 87.0475 38.1599 86.7449 38.1606C86.4422 38.1613 86.1426 38.101 85.8638 37.9833L49.6902 22.7074C49.2359 22.5202 48.8569 22.1867 48.613 21.7598C48.4535 22.0366 48.3547 22.3443 48.3231 22.6623C48.2915 22.9803 48.3278 23.3014 48.4297 23.6043C48.5315 23.9072 48.6966 24.1849 48.9139 24.4191C49.1313 24.6532 49.3959 24.8384 49.6902 24.9623L85.8638 40.2381C86.1426 40.3558 86.4422 40.4162 86.7449 40.4154C87.0475 40.4147 87.3468 40.3529 87.6251 40.2338L123.315 24.9578C123.608 24.8328 123.871 24.647 124.087 24.4128C124.302 24.1786 124.466 23.9012 124.567 23.599C124.668 23.2967 124.703 22.9765 124.672 22.6595C124.64 22.3425 124.541 22.0358 124.382 21.7598C124.14 22.1833 123.765 22.5149 123.315 22.703Z" fill="#F0F3F1"/>
<path d="M65.676 49.7544C65.8253 49.7544 65.9686 49.695 66.0742 49.5893C66.1798 49.4836 66.2391 49.3402 66.2391 49.1907V30.3282L84.8132 23.5552C84.9626 23.5574 85.1067 23.5001 85.2139 23.396C85.3211 23.2918 85.3826 23.1493 85.3848 22.9998C85.387 22.8503 85.3298 22.7061 85.2258 22.5988C85.1217 22.4915 84.9794 22.43 84.83 22.4277L66.2559 29.2008C66.1064 29.1973 65.9578 29.2243 65.8191 29.28C65.6803 29.3358 65.5543 29.4191 65.4487 29.525C65.3419 29.6296 65.2572 29.7546 65.1995 29.8926C65.1418 30.0305 65.1123 30.1786 65.1128 30.3282V49.1907C65.1128 49.3402 65.1721 49.4835 65.2778 49.5893C65.3834 49.695 65.5266 49.7544 65.676 49.7544Z" fill="#3F3D56"/>
</g>
<defs>
<clipPath id="clip0_667_7153">
<rect width="419" height="304" fill="white"/>
</clipPath>
</defs>
</svg>
