<svg width="107" height="22" viewBox="0 0 107 22" fill="none" xmlns="http://www.w3.org/2000/svg">
<g clip-path="url(#clip0_599_5638)">
<path d="M6.50682 9.02025L10.6391 4.88962L14.7731 9.02361L17.1762 6.61884L10.6391 0.0800781L4.10205 6.61716L6.50682 9.02025Z" fill="#A9A9A9"/>
<path d="M-0.000488281 10.7188L2.40294 8.31532L4.80637 10.7187L2.40294 13.1222L-0.000488281 10.7188Z" fill="#A9A9A9"/>
<path d="M6.50725 12.4157L10.6396 16.5481L14.7736 12.4141L17.1783 14.8155L17.1766 14.8172L10.6396 21.3559L4.10248 14.8205L4.09912 14.8172L6.50725 12.4157Z" fill="#A9A9A9"/>
<path d="M16.4678 10.7188L18.8712 8.31532L21.2746 10.7187L18.8712 13.1222L16.4678 10.7188Z" fill="#A9A9A9"/>
<path d="M13.0764 10.7169L10.6385 8.27734L8.83573 10.0802L8.62739 10.2868L8.20063 10.7136L8.19727 10.7169L8.20063 10.722L10.6385 13.1582L13.0764 10.7186L13.0781 10.7169H13.0764Z" fill="#A9A9A9"/>
<path d="M25.0264 5.23438H30.256C31.5534 5.23438 32.5348 5.57047 33.2002 6.24266C33.451 6.49097 33.6486 6.78762 33.7812 7.11463C33.9138 7.44164 33.9786 7.79218 33.9716 8.14497V8.1769C33.9761 8.46591 33.9358 8.75388 33.8523 9.03059C33.7778 9.26879 33.6697 9.49514 33.5313 9.70278C33.4022 9.89858 33.2461 10.0751 33.0675 10.2271C32.893 10.3773 32.7018 10.507 32.4978 10.6136C33.0862 10.8186 33.6154 11.1648 34.0388 11.6219C34.413 12.0476 34.6001 12.6358 34.6001 13.3864V13.4183C34.6107 13.8871 34.5087 14.3516 34.3026 14.7728C34.103 15.1609 33.8102 15.4934 33.4506 15.7408C33.0441 16.0133 32.5914 16.2098 32.1146 16.3205C31.5482 16.4548 30.9675 16.5197 30.3854 16.5138H25.0264V5.23438ZM29.7317 9.79521C30.1842 9.81707 30.6344 9.71972 31.0375 9.51289C31.1946 9.42108 31.3229 9.28711 31.4079 9.12613C31.4928 8.96516 31.531 8.78362 31.5181 8.60206V8.57013C31.5264 8.40285 31.4924 8.23617 31.4193 8.08549C31.3461 7.93481 31.2362 7.805 31.0996 7.70805C30.8207 7.50975 30.4179 7.4106 29.8914 7.4106H27.4446V9.79521H29.7317ZM30.3922 14.3409C30.8429 14.3662 31.2916 14.263 31.6861 14.0435C31.8398 13.9447 31.9642 13.8066 32.0464 13.6434C32.1285 13.4803 32.1655 13.2981 32.1533 13.1158V13.0839C32.1594 12.9107 32.1228 12.7386 32.047 12.5827C31.9711 12.4269 31.8582 12.292 31.7181 12.1899C31.429 11.9658 30.9618 11.8538 30.3165 11.8538H27.4446V14.3409H30.3922Z" fill="#A9A9A9"/>
<path d="M37.7158 5.23438H40.1979V16.5171H37.7158V5.23438Z" fill="#A9A9A9"/>
<path d="M43.9541 5.23438H46.2429L51.5331 12.1781V5.23438H53.9832V16.5171H51.8709L46.4076 9.34484V16.5171H43.9541V5.23438Z" fill="#A9A9A9"/>
<path d="M61.4981 5.1543H63.7835L68.6183 16.5177H66.027L64.9951 13.9869H60.2242L59.1924 16.5177H56.6616L61.4981 5.1543ZM64.1095 11.7956L62.6072 8.13547L61.1115 11.7956H64.1095Z" fill="#A9A9A9"/>
<path d="M71.3018 5.23438H73.5906L78.8774 12.1781V5.23438H81.3275V16.5171H79.2152L73.7519 9.34484V16.5171H71.3018V5.23438Z" fill="#A9A9A9"/>
<path d="M90.2609 16.7166C89.4699 16.7234 88.6857 16.5702 87.9553 16.2663C87.2678 15.9824 86.644 15.5637 86.1207 15.035C85.5975 14.5062 85.1853 13.8781 84.9086 13.1876C84.6166 12.4654 84.4688 11.693 84.4734 10.9139V10.882C84.4604 9.34641 85.0512 7.8672 86.1185 6.76313C86.6437 6.22382 87.2725 5.79625 87.9671 5.50612C88.7226 5.19315 89.5339 5.03707 90.3517 5.04735C90.8354 5.04374 91.3182 5.08708 91.7935 5.17675C92.2002 5.25366 92.5978 5.37249 92.98 5.53133C93.3268 5.6773 93.6565 5.86102 93.963 6.07917C94.2622 6.29193 94.5433 6.52913 94.8033 6.78833L93.2253 8.60998C92.8221 8.23798 92.3697 7.92304 91.8809 7.67395C91.4007 7.44433 90.8738 7.32928 90.3416 7.33785C89.8987 7.33313 89.4599 7.42269 89.0542 7.60058C88.6486 7.77848 88.2855 8.04065 87.9889 8.36967C87.6949 8.69784 87.4647 9.07797 87.31 9.49055C87.1481 9.92656 87.0667 10.3883 87.0697 10.8534V10.8854C87.0681 11.3498 87.1495 11.8107 87.31 12.2465C87.4627 12.6606 87.6906 13.0429 87.9822 13.3741C88.2764 13.7073 88.6387 13.9733 89.0446 14.1542C89.4505 14.3351 89.8905 14.4267 90.3349 14.4228C90.9008 14.4406 91.4623 14.3188 91.97 14.0682C92.4533 13.8048 92.9002 13.4794 93.2993 13.1002L94.8789 14.6967C94.6 14.9994 94.2983 15.2803 93.9765 15.5369C93.6603 15.7869 93.317 16.0006 92.9531 16.1738C92.5652 16.3564 92.1567 16.4912 91.7364 16.5755C91.2507 16.6728 90.7563 16.7201 90.2609 16.7166Z" fill="#A9A9A9"/>
<path d="M97.8076 5.23438H106.299V7.44253H100.249V9.73135H105.576V11.9395H100.258V14.309H106.383V16.5171H97.8127L97.8076 5.23438Z" fill="#A9A9A9"/>
</g>
<defs>
<clipPath id="clip0_599_5638">
<rect width="106.381" height="21.2766" fill="white" transform="translate(0 0.0800781)"/>
</clipPath>
</defs>
</svg>
