<svg width="89" height="19" viewBox="0 0 89 19" fill="none" xmlns="http://www.w3.org/2000/svg">
<path d="M18.9319 11.9209C17.7066 16.781 12.7463 19.7518 7.81055 18.536C2.9082 17.3212 -0.0883985 12.4037 1.13793 7.51045C2.36327 2.65034 7.32356 -0.320432 12.2593 0.895326C17.1617 2.11011 20.1582 7.02766 18.9319 11.9209Z" fill="#A9A9A9"/>
<path d="M14.0752 8.41171C14.2569 7.19692 13.3261 6.54281 12.0556 6.11646L12.464 4.47339L11.4655 4.22615L11.057 5.8225L10.2401 5.64242L10.6486 4.04607L9.65006 3.79883L9.24161 5.4419L8.60635 5.28422L7.23177 4.94645L6.9598 6.00355L7.68636 6.18363C7.82735 6.19956 7.95634 6.26986 8.04545 6.37933C8.13456 6.48881 8.17663 6.62865 8.16256 6.76863L7.68636 8.63753C7.70895 8.63753 7.75509 8.65992 7.80026 8.65992C7.77767 8.65992 7.73153 8.63753 7.68636 8.63753L7.02853 11.2482C6.98336 11.3611 6.84688 11.5635 6.57491 11.4954C6.57491 11.5178 5.84835 11.3153 5.84835 11.3153L5.35742 12.4639L6.6731 12.7793L7.39966 12.9594L6.99121 14.6141L7.98975 14.8614L8.3982 13.2183L9.18368 13.4208L8.77523 15.0638L9.77377 15.3111L10.1822 13.6563C11.9073 13.9717 13.1768 13.8588 13.7228 12.3062C14.1548 11.07 13.7002 10.3595 12.792 9.87568C13.4734 9.73941 13.9505 9.31306 14.086 8.41268L14.0752 8.41171ZM11.7826 11.6297C11.4645 12.8659 9.3771 12.1923 8.6957 12.0347L9.24063 9.82993C9.92203 9.98762 12.1007 10.3166 11.7934 11.6307L11.7826 11.6297ZM12.1007 8.41171C11.8288 9.53694 10.0585 8.97433 9.491 8.81664L9.98192 6.81438C10.5494 6.97207 12.3874 7.21931 12.0929 8.41073L12.1007 8.41171Z" fill="#F0F3F1"/>
<path d="M27.739 6.11389C28.4881 6.11389 29.1135 6.25016 29.6683 6.49643C30.2132 6.76605 30.6668 7.10382 31.0075 7.55352C31.3708 8.00322 31.6202 8.52106 31.793 9.12845C31.9597 9.76016 32.0435 10.4106 32.0424 11.0635C32.0464 12.09 31.8458 13.1072 31.4523 14.0567C31.081 14.9703 30.5338 15.8035 29.8411 16.5096C29.153 17.2081 28.3365 17.7698 27.4356 18.1644C26.4833 18.5745 25.4546 18.7814 24.4164 18.7717H23.6898C23.3491 18.7717 22.9407 18.727 22.4871 18.6588L21.0575 18.3892C20.5666 18.2763 20.0815 18.0972 19.6279 17.9025L23.6456 1.18371L27.2313 0.621094L25.8018 6.56164C26.1199 6.42537 26.4145 6.3144 26.7326 6.24627C27.0572 6.15405 27.3934 6.10816 27.7311 6.10999L27.739 6.11389ZM24.7208 15.9703C25.2657 15.9703 25.7645 15.8341 26.2426 15.5878C26.7235 15.3185 27.1473 14.9596 27.4906 14.5307C27.8313 14.1024 28.1032 13.608 28.3075 13.0453C28.5117 12.4827 28.602 11.9201 28.602 11.3127C28.602 10.57 28.4881 10.0084 28.2387 9.5801C27.9893 9.17517 27.5347 8.95032 26.8769 8.95032C26.6511 8.95032 26.386 8.9951 26.0374 9.06323C25.6889 9.13137 25.3796 9.31047 25.1066 9.54992L23.5848 15.8506C23.6751 15.873 23.7664 15.873 23.8342 15.8954C23.9019 15.9178 23.9716 15.9178 24.06 15.9402C24.1287 15.9402 24.2416 15.9626 24.332 15.9626H24.7178L24.7208 15.9703ZM35.796 18.5011H32.3595L35.256 6.38643H38.7062L35.796 18.5011ZM37.4534 4.91079C36.9856 4.91696 36.5295 4.76601 36.1593 4.4825C35.7734 4.19049 35.5702 3.7622 35.5702 3.17817C35.5702 2.86279 35.6389 2.54839 35.7744 2.27779C35.9007 2.00035 36.0778 1.74853 36.2967 1.5351C36.5226 1.33672 36.7746 1.16972 37.0459 1.03868C37.3404 0.925763 37.635 0.858598 37.9541 0.858598C38.4219 0.852421 38.878 1.00337 39.2482 1.28689C39.634 1.5789 39.8373 2.00719 39.8373 2.59122C39.8373 2.90659 39.7685 3.221 39.6331 3.4916C39.5067 3.76904 39.3296 4.02085 39.1107 4.23429C38.9065 4.43675 38.6345 4.59444 38.3616 4.72098C38.0886 4.84752 37.7941 4.90105 37.4534 4.90105V4.91079ZM41.7205 3.37868L45.3297 2.81607L44.4441 6.39422H48.3028L47.5988 9.21703H43.7627L42.7416 13.4473C42.6587 13.7719 42.6055 14.1032 42.5825 14.4373C42.5609 14.7517 42.6051 14.9999 42.6964 15.216C42.7408 15.3309 42.8078 15.4359 42.8936 15.5248C42.9794 15.6138 43.0823 15.6848 43.1962 15.7338C43.4456 15.8467 43.7853 15.9139 44.2173 15.9139C44.5806 15.9139 44.9439 15.8691 45.2973 15.801C45.6534 15.7348 46.0028 15.6367 46.341 15.508L46.5904 18.141C46.1001 18.3131 45.5997 18.4558 45.0921 18.5683C44.5472 18.7046 43.9119 18.7484 43.1628 18.7484C42.0965 18.7484 41.2776 18.5907 40.6885 18.2763C40.0994 17.9619 39.69 17.5336 39.4416 16.9934C39.1932 16.4531 39.0783 15.8234 39.1235 15.1245C39.1461 14.4266 39.2609 13.6839 39.4416 12.8857L41.7205 3.37868ZM48.1437 13.6625C48.1453 12.6594 48.3142 11.6635 48.6435 10.7151C48.9678 9.828 49.4608 9.01085 50.0956 8.30789C50.7309 7.60997 51.5026 7.07169 52.4108 6.66482C53.319 6.25795 54.3175 6.05743 55.43 6.05743C56.134 6.05743 56.7456 6.12557 57.2916 6.25989C57.8375 6.39422 58.3353 6.55191 58.7899 6.77773L57.6097 9.45453C57.2916 9.31826 56.9744 9.23066 56.6573 9.11677C56.3166 9.00386 55.9081 8.95908 55.4319 8.95908C54.2734 8.95908 53.3897 9.34162 52.7083 10.1291C52.0269 10.9166 51.6872 11.9513 51.6872 13.2789C51.6872 14.0577 51.8688 14.6962 52.2095 15.1693C52.5502 15.6559 53.1855 15.8896 54.0947 15.8896C54.5297 15.8915 54.9637 15.8461 55.3887 15.7543C55.7688 15.6742 56.1411 15.5611 56.5012 15.4165L56.7506 18.1614L55.321 18.6111C54.7987 18.7474 54.1624 18.8136 53.4359 18.8136C52.4835 18.8136 51.6656 18.6773 51.0077 18.4087C50.381 18.1544 49.816 17.7709 49.3504 17.2834C48.915 16.8153 48.5962 16.2526 48.4196 15.6404C48.2357 14.9963 48.1442 14.3298 48.1476 13.6605L48.1437 13.6625ZM63.3957 18.8068C62.5788 18.8068 61.8522 18.6705 61.2622 18.4466C60.6495 18.1994 60.1497 17.8626 59.7639 17.4119C59.3685 16.9488 59.0677 16.4139 58.8782 15.837C58.674 15.2296 58.5837 14.5541 58.5837 13.8347C58.5837 12.912 58.7427 11.9892 59.0373 11.0674C59.3226 10.1661 59.7769 9.32631 60.3765 8.59212C60.9656 7.84943 61.6922 7.24204 62.5327 6.79136C63.3721 6.31927 64.3491 6.09344 65.4605 6.09344C66.1875 6.08927 66.9095 6.21116 67.5941 6.4536C68.2067 6.70084 68.7065 7.03763 69.0924 7.4883C69.4877 7.95143 69.7885 8.48633 69.978 9.06323C70.1822 9.67062 70.2725 10.3461 70.2725 11.0655C70.2725 11.9882 70.1351 12.911 69.8405 13.8328C69.546 14.7546 69.114 15.5878 68.5465 16.3081C67.979 17.0508 67.2524 17.6358 66.3903 18.1089C65.5283 18.5819 64.5287 18.8068 63.3957 18.8068ZM65.1208 8.95129C64.6403 8.95139 64.1719 9.10084 63.7816 9.37861C63.3957 9.67062 63.0776 10.0308 62.8056 10.4815C62.5336 10.9321 62.352 11.4042 62.2165 11.9444C62.081 12.4847 62.0123 12.9791 62.0123 13.4532C62.0123 14.2183 62.1497 14.8159 62.3756 15.2539C62.6249 15.6822 63.0795 15.9061 63.7148 15.9061C64.2371 15.9061 64.6672 15.7698 65.054 15.4778C65.4409 15.1858 65.758 14.8257 66.03 14.375C66.302 13.9243 66.4836 13.4522 66.6191 12.912C66.7516 12.4197 66.8202 11.9127 66.8233 11.4032C66.8233 10.6382 66.7094 10.0405 66.46 9.60249C66.2107 9.16447 65.7561 8.95032 65.1208 8.95032V8.95129ZM74.0193 18.4904H70.5828L73.4891 6.38449H76.9393L74.0193 18.4904ZM75.6766 4.90008C75.2089 4.90626 74.7528 4.75531 74.3826 4.47179C73.9967 4.17978 73.7935 3.75149 73.7935 3.16746C73.7935 2.85209 73.8622 2.53768 73.9977 2.26708C74.124 1.98964 74.3011 1.73782 74.52 1.52439C74.7459 1.32602 74.9979 1.15901 75.2692 1.02797C75.5637 0.915056 75.8583 0.847891 76.1774 0.847891C76.6451 0.841714 77.1012 0.992666 77.4714 1.27618C77.8573 1.56819 78.0606 1.99648 78.0606 2.58051C78.0606 2.89589 77.9918 3.21029 77.8563 3.48089C77.73 3.75833 77.5529 4.01015 77.334 4.22358C77.1081 4.42195 76.8561 4.58896 76.5848 4.72C76.3119 4.85628 76.0173 4.90008 75.6766 4.90008ZM79.4194 6.92471L80.2815 6.65509L81.3478 6.38546C81.7817 6.28918 82.2215 6.22155 82.6644 6.183L84.3218 6.09344C86.1382 6.09344 87.3852 6.61128 88.0665 7.66838C88.748 8.70308 88.8835 10.1437 88.4298 11.9435L86.8412 18.469H83.391L84.9129 12.0788L85.1387 10.9088C85.1839 10.5262 85.1839 10.2109 85.1161 9.91884C85.0601 9.64278 84.907 9.39543 84.6841 9.22092C84.4563 9.04085 84.1166 8.95129 83.6404 8.95129C83.1868 8.95129 82.7322 8.99607 82.2786 9.08757L80.0203 18.4486H76.5701L79.4194 6.92471Z" fill="#A9A9A9"/>
</svg>
