<svg width="92" height="16" viewBox="0 0 92 16" fill="none" xmlns="http://www.w3.org/2000/svg">
<g clip-path="url(#clip0_599_5664)">
<path d="M8.11338 0.574219H16.6508C16.6456 0.68714 16.6066 0.795894 16.5388 0.886352C16.2498 1.38201 15.9897 1.89789 15.7057 2.39355C15.304 3.10524 14.9283 3.82994 14.5201 4.53874C14.2614 5.04885 13.9695 5.54306 13.6935 6.0445C12.0346 6.0445 10.3756 6.0445 8.71669 6.0445C8.62999 6.0445 8.54401 6.04883 8.4573 6.05389C8.38505 6.24464 8.26511 6.41154 8.16829 6.59073C8.04185 6.79593 7.93925 7.01486 7.81425 7.22006C7.68203 7.49606 7.49923 7.74317 7.36628 8.01845C7.09172 8.48448 6.83522 8.95774 6.56644 9.42883C6.2861 9.91052 6.01202 10.3989 5.7442 10.8941C5.63086 11.0696 5.52644 11.2507 5.43134 11.4367C4.86994 12.4136 4.32659 13.3991 3.76447 14.3753C3.71679 14.4802 3.65398 14.5776 3.57805 14.6643C2.61709 14.6578 1.65612 14.6643 0.695154 14.6643C0.576796 14.6665 0.45914 14.683 0.344727 14.7134C0.344727 14.4475 0.522469 14.2344 0.642409 14.0111C0.786915 13.7113 0.979831 13.4331 1.12506 13.1325C2.27677 11.0719 3.41621 9.00398 4.56431 6.94188C4.82442 6.49391 5.04768 6.03655 5.30924 5.59725C5.63582 5.01923 5.94001 4.4282 6.28032 3.85668C6.3887 3.61752 6.53465 3.39859 6.65387 3.16521C7.07727 2.41161 7.49272 1.65368 7.91468 0.90008C7.96474 0.782389 8.03168 0.672617 8.11338 0.574219Z" fill="#A9A9A9"/>
<path d="M18.0059 3.60804C18.5746 2.61456 19.1237 1.61024 19.7003 0.621094H22.784C22.829 0.623366 22.8735 0.63039 22.917 0.642047C22.8144 0.797391 22.7284 0.962128 22.6381 1.12398C21.8944 2.45873 21.1528 3.79421 20.4134 5.13041C20.1027 5.67447 19.8137 6.23082 19.4987 6.772L19.4676 6.78284L19.4618 6.85076C18.012 9.45187 16.5669 12.0549 15.1267 14.6599C12.2958 14.6628 9.46466 14.6628 6.6333 14.6599C6.79443 14.3232 6.98517 14.0016 7.16436 13.6743C7.97071 12.1917 8.798 10.7221 9.59279 9.23944C11.3322 9.23655 13.0715 9.23655 14.8109 9.23944C15.8853 7.36809 16.9366 5.48228 18.003 3.60804H18.0059Z" fill="#A9A9A9"/>
<path d="M49.8315 0.583984V14.8323H52.3004V4.81296L56.804 11.4118L61.2714 4.65617V14.8323H63.8125V0.583984H61.0792L56.822 7.16118L52.5172 0.583984H49.8315Z" fill="#A9A9A9"/>
<path d="M38.2832 4.25781H39.8966V14.9513H38.2832V4.25781Z" fill="#A9A9A9"/>
<path d="M38.1445 0.296875H40.0361V2.09161H38.1445V0.296875Z" fill="#A9A9A9"/>
<path d="M42.9793 1.19336H44.665V4.25761H47.9886V5.75109H44.665V12.1036C44.6621 12.3484 44.7189 12.5902 44.8305 12.808C45.1158 13.3499 45.8911 13.993 47.9886 13.2416V14.6259C47.9886 14.6259 46.0739 15.7097 44.3398 14.7228C44.3398 14.7228 43.4786 14.3572 43.1166 13.1231C43.0226 12.7925 42.9763 12.4501 42.9793 12.1065V5.72724L41.5581 5.75109V4.25761H42.9909L42.9793 1.19336Z" fill="#A9A9A9"/>
<path d="M66.4141 0.583984V14.9284H77.1314V12.6163H69.0275V8.81072H76.1682V6.53475H69.0152V2.91053H77.0475V0.583984H66.4141Z" fill="#A9A9A9"/>
<path d="M78.1367 0.583984H81.1894L84.6936 5.62002L88.1705 0.583984H91.2231L86.2377 7.57953L91.5338 14.9161H88.3186L84.7059 9.55782L80.9184 14.9284H77.8657L83.086 7.64311L78.1367 0.583984Z" fill="#A9A9A9"/>
<path d="M33.3456 7.48545C33.3456 7.48545 35.7061 6.59457 35.5616 4.02958C35.5616 4.02958 35.5421 1.56286 32.7647 0.801316C32.3029 0.677583 31.8266 0.616345 31.3485 0.619239H24.6875L24.7056 14.8675H31.8767C31.8767 14.8675 36.0731 14.7772 36.3687 11.0381C36.3687 11.0381 36.6692 8.42474 33.3456 7.48545ZM26.4093 2.09031H30.6607C33.9959 2.07875 33.8998 4.42698 33.8998 4.42698C33.9496 7.10612 30.889 7.05193 30.889 7.05193H26.4093V2.09031ZM31.6115 13.3618H26.4093V8.4009H31.3832C34.7184 8.38861 34.6223 10.7368 34.6223 10.7368C34.6722 13.416 31.6115 13.3618 31.6115 13.3618Z" fill="#A9A9A9"/>
</g>
<defs>
<clipPath id="clip0_599_5664">
<rect width="91.1892" height="14.8415" fill="white" transform="translate(0.344727 0.296875)"/>
</clipPath>
</defs>
</svg>
