<svg width="24" height="25" viewBox="0 0 24 25" fill="none" xmlns="http://www.w3.org/2000/svg">
<g clip-path="url(#clip0_908_16649)">
<path d="M17 3.82031H21C21.2652 3.82031 21.5196 3.92567 21.7071 4.11321C21.8946 4.30074 22 4.5551 22 4.82031V20.8203C22 21.0855 21.8946 21.3399 21.7071 21.5274C21.5196 21.715 21.2652 21.8203 21 21.8203H3C2.73478 21.8203 2.48043 21.715 2.29289 21.5274C2.10536 21.3399 2 21.0855 2 20.8203V4.82031C2 4.5551 2.10536 4.30074 2.29289 4.11321C2.48043 3.92567 2.73478 3.82031 3 3.82031H7V1.82031H9V3.82031H15V1.82031H17V3.82031ZM20 11.8203H4V19.8203H20V11.8203ZM15 5.82031H9V7.82031H7V5.82031H4V9.82031H20V5.82031H17V7.82031H15V5.82031ZM6 13.8203H8V15.8203H6V13.8203ZM11 13.8203H13V15.8203H11V13.8203ZM16 13.8203H18V15.8203H16V13.8203Z" fill="#747474"/>
</g>
<defs>
<clipPath id="clip0_908_16649">
<rect width="24" height="24" fill="white" transform="translate(0 0.820312)"/>
</clipPath>
</defs>
</svg>
