<svg width="527" height="398" viewBox="0 0 527 398" fill="none" xmlns="http://www.w3.org/2000/svg">
<g clip-path="url(#clip0_628_3709)">
<path d="M130.388 94.8733H132.569V35.1167C132.569 25.9441 136.213 17.1472 142.7 10.6611C149.187 4.17508 157.985 0.531262 167.158 0.53125H293.773C298.315 0.531238 302.813 1.42581 307.009 3.16388C311.206 4.90195 315.019 7.44949 318.231 10.661C321.443 13.8726 323.991 17.6853 325.729 21.8814C327.467 26.0775 328.362 30.5748 328.362 35.1166V362.946C328.362 367.488 327.467 371.985 325.729 376.181C323.991 380.377 321.443 384.19 318.231 387.401C315.019 390.613 311.206 393.161 307.01 394.899C302.813 396.637 298.315 397.531 293.773 397.531H167.158C157.985 397.531 149.187 393.887 142.7 387.401C136.214 380.915 132.569 372.119 132.569 362.946V137.409H130.388L130.388 94.8733Z" fill="#A77700"/>
<path d="M165.763 9.5293H182.29C181.53 11.3925 181.24 13.414 181.445 15.4158C181.651 17.4175 182.345 19.3381 183.468 21.0082C184.59 22.6783 186.106 24.0468 187.882 24.9931C189.658 25.9393 191.64 26.4344 193.652 26.4345H266.188C268.201 26.4344 270.182 25.9394 271.958 24.9931C273.734 24.0468 275.251 22.6783 276.373 21.0082C277.496 19.3381 278.19 17.4175 278.395 15.4158C278.601 13.414 278.311 11.3925 277.551 9.5293H292.987C299.838 9.52929 306.408 12.2504 311.252 17.0941C316.096 21.9378 318.818 28.5073 318.818 35.3573V362.705C318.818 366.097 318.15 369.456 316.852 372.589C315.554 375.723 313.651 378.57 311.252 380.969C308.854 383.367 306.006 385.269 302.872 386.567C299.738 387.865 296.379 388.533 292.987 388.533H165.763C162.371 388.534 159.012 387.865 155.878 386.567C152.744 385.269 149.896 383.367 147.498 380.969C145.099 378.57 143.197 375.723 141.898 372.589C140.6 369.456 139.932 366.097 139.932 362.705V35.3573C139.932 31.9655 140.6 28.6069 141.898 25.4733C143.197 22.3397 145.099 19.4925 147.498 17.0941C149.896 14.6958 152.744 12.7933 155.878 11.4953C159.012 10.1973 162.371 9.52929 165.763 9.5293Z" fill="white"/>
<path d="M203.021 151.473C190.366 151.473 180.108 150.496 180.108 149.291C180.108 148.086 190.366 147.109 203.021 147.109C215.676 147.109 225.934 148.086 225.934 149.291C225.934 150.496 215.676 151.473 203.021 151.473Z" fill="#A77700"/>
<path d="M0.000137329 55.0098H210.938V124.25H202.948V142.36L184.837 124.25H0.000137329V55.0098Z" fill="#A77700"/>
<path d="M91.541 78.457H187.46V81.3676H91.541V78.457Z" fill="white"/>
<path d="M20.2812 88.5254H187.46V91.436H20.2812V88.5254Z" fill="#A77700"/>
<path d="M20.445 98.5938H187.46V101.504H20.445V98.5938Z" fill="white"/>
<path d="M53.8892 263.846H222.267V319.116H215.889V333.571L201.433 319.116H53.8892V263.846Z" fill="#A77700"/>
<path d="M126.961 282.562H203.526V284.886H126.961V282.562Z" fill="white"/>
<path d="M70.0786 290.6H203.526V292.923H70.0786V290.6Z" fill="white"/>
<path d="M70.2092 298.637H203.526V300.96H70.2092V298.637Z" fill="#A77700"/>
<path d="M215.947 340.849C205.846 340.849 197.657 340.069 197.657 339.107C197.657 338.145 205.846 337.365 215.947 337.365C226.049 337.365 234.237 338.145 234.237 339.107C234.237 340.069 226.049 340.849 215.947 340.849Z" fill="#A77700"/>
<path d="M266.305 232.208C253.65 232.208 243.392 231.231 243.392 230.026C243.392 228.821 253.65 227.844 266.305 227.844C278.959 227.844 289.218 228.821 289.218 230.026C289.218 231.231 278.959 232.208 266.305 232.208Z" fill="#A77700"/>
<path d="M406.742 163.576H258.403V212.269H264.022V225.003L276.758 212.269H406.742V163.576Z" fill="#A77700"/>
<path d="M323.902 179.691H391.355V181.738H323.902V179.691Z" fill="#A77700"/>
<path d="M273.79 186.771H391.355V188.818H273.79V186.771Z" fill="white"/>
<path d="M273.905 193.854H391.355V195.9H273.905V193.854Z" fill="white"/>
<path d="M479 282.351C478.289 283.576 477.121 284.468 475.752 284.831C474.383 285.194 472.925 284.998 471.701 284.287C470.476 283.576 469.584 282.407 469.221 281.039C468.858 279.67 469.053 278.213 469.765 276.988C469.914 276.738 470.082 276.499 470.268 276.275L465.775 244.26L465.641 243.301L464.728 236.768L464.594 235.826L465.091 235.85L473.794 236.247L476.128 236.353L476.421 242.312L478.076 275.818C478.941 276.646 479.502 277.74 479.67 278.925C479.838 280.11 479.602 281.317 479 282.351Z" fill="#A0616A"/>
<path d="M465.667 243.59L476.718 242.577C477.292 242.522 477.82 242.244 478.189 241.801C478.557 241.359 478.736 240.789 478.686 240.216L476.636 217.236C476.537 216.119 476.215 215.034 475.689 214.045C475.162 213.056 474.443 212.182 473.573 211.475C472.704 210.769 471.701 210.244 470.625 209.931C469.548 209.619 468.42 209.526 467.307 209.657C466.194 209.789 465.119 210.142 464.145 210.696C463.171 211.25 462.318 211.994 461.637 212.884C460.956 213.774 460.46 214.791 460.178 215.876C459.897 216.96 459.836 218.091 460 219.199L463.313 241.739C463.39 242.256 463.649 242.728 464.044 243.069C464.439 243.411 464.943 243.599 465.465 243.6C465.532 243.6 465.599 243.597 465.667 243.59Z" fill="#A77700"/>
<path d="M474.042 225.026C475.16 221.86 475.212 218.415 474.19 215.217C473.168 212.019 471.128 209.243 468.381 207.312C464.214 204.461 458.511 203.437 452.369 210.748C440.086 225.369 436.869 241.453 436.869 241.453L462.02 245.547C462.02 245.547 470.575 235.093 474.042 225.026Z" fill="#A77700"/>
<path d="M433.365 389.723H426.194L422.783 362.066L433.366 362.067L433.365 389.723Z" fill="#A0616A"/>
<path d="M412.364 396.381L434.901 396.382L434.901 387.675L419.318 387.675C418.405 387.675 417.501 387.854 416.657 388.204C415.813 388.553 415.047 389.065 414.401 389.711C413.755 390.357 413.243 391.123 412.893 391.967C412.544 392.81 412.364 393.715 412.364 394.628L412.364 396.381Z" fill="#F0F3F1"/>
<path d="M492.32 383.47L485.511 385.72L473.591 360.532L483.64 357.211L492.32 383.47Z" fill="#A0616A"/>
<path d="M474.47 396.381L495.869 389.309L493.136 381.042L478.34 385.932C477.473 386.218 476.671 386.673 475.98 387.27C475.288 387.866 474.721 388.593 474.311 389.409C473.9 390.224 473.654 391.113 473.587 392.024C473.52 392.934 473.633 393.849 473.92 394.716L474.47 396.381Z" fill="#F0F3F1"/>
<path d="M451.364 198.299C444.403 194.494 441.844 185.766 445.65 178.804C449.455 171.843 458.184 169.285 465.146 173.09C472.108 176.896 474.666 185.624 470.861 192.585C467.055 199.546 458.326 202.104 451.364 198.299Z" fill="#A0616A"/>
<path d="M445.677 382.024L452.336 338.075C452.407 337.606 452.639 337.176 452.992 336.859C453.345 336.542 453.797 336.357 454.271 336.337C454.745 336.316 455.212 336.461 455.591 336.746C455.97 337.031 456.238 337.439 456.35 337.9L466.491 379.783C466.651 380.424 467.045 380.983 467.595 381.349C468.146 381.715 468.814 381.863 469.467 381.762L497.441 377.267C497.811 377.207 498.165 377.069 498.478 376.861C498.791 376.653 499.056 376.381 499.255 376.063C499.454 375.744 499.583 375.387 499.632 375.014C499.682 374.642 499.651 374.263 499.542 373.904L463.066 253.661C462.963 253.318 462.95 252.955 463.031 252.607L464.245 247.345C464.379 246.774 464.317 246.176 464.07 245.644C463.824 245.113 463.406 244.679 462.884 244.413C457.917 241.878 445.34 236.61 435.843 242.381C435.535 242.569 435.268 242.818 435.059 243.112C434.85 243.406 434.703 243.74 434.627 244.093L406.132 378.004C406.055 378.368 406.055 378.745 406.134 379.108C406.213 379.472 406.368 379.815 406.589 380.115C406.81 380.414 407.092 380.664 407.417 380.846C407.742 381.029 408.101 381.14 408.472 381.173L442.84 384.251C442.919 384.257 442.998 384.261 443.076 384.261C443.705 384.26 444.313 384.034 444.79 383.623C445.267 383.213 445.582 382.646 445.677 382.024Z" fill="#292D32"/>
<path d="M467.781 175.546C466.698 174.895 465.737 174.06 464.941 173.078C464.549 172.582 464.29 171.994 464.191 171.369C464.092 170.745 464.155 170.105 464.374 169.512C465.1 167.911 467.257 167.404 468.928 167.95C470.599 168.496 471.89 169.805 473.112 171.069C474.187 172.183 475.294 173.345 475.804 174.807C476.315 176.269 476.053 178.122 474.783 179.009C473.537 179.88 471.746 179.523 470.548 178.589C469.35 177.654 468.609 176.267 467.901 174.922L467.781 175.546Z" fill="#F0F3F1"/>
<path d="M472.647 171.453C472.726 167.405 477.34 164.503 481.325 165.22C485.309 165.938 488.372 169.335 489.905 173.082C493.145 180.998 490.713 190.03 487.592 197.994C484.471 205.957 480.608 214.042 481.063 222.583C481.371 227.2 482.92 231.648 485.547 235.457C488.174 239.266 491.781 242.296 495.987 244.225C491.49 246.263 486.115 244.157 482.336 240.98C473.944 233.924 470.704 221.361 474.638 211.127C476.578 206.079 479.998 201.76 482.667 197.057C485.337 192.354 487.295 186.812 485.917 181.583C484.539 176.353 478.674 172.118 473.659 174.144L472.647 171.453Z" fill="#F0F3F1"/>
<path d="M457.394 192.069C458.646 189.952 459.91 187.174 457.621 185.325C457.123 184.941 456.553 184.66 455.946 184.5C455.338 184.339 454.704 184.301 454.082 184.389C451.501 184.7 448.69 184.828 446.193 183.891C445.256 183.568 444.393 183.061 443.656 182.399C442.919 181.737 442.323 180.933 441.903 180.036C440.613 176.981 442.228 173.268 444.924 171.337C446.573 170.198 448.522 169.572 450.526 169.537C452.53 169.501 454.499 170.058 456.188 171.138C459.68 169.596 463.916 170.282 467.089 172.404C470.261 174.527 472.432 177.927 473.611 181.557C474.697 184.682 474.884 188.049 474.151 191.274C473.56 193.518 472.438 195.587 470.878 197.305C469.319 199.024 467.368 200.341 465.192 201.146C464.344 201.48 463.423 201.585 462.521 201.452C461.62 201.318 460.769 200.95 460.055 200.384C460.055 200.384 458.075 198.655 457.455 196.574C456.979 194.975 456.725 193.199 457.394 192.069Z" fill="#F0F3F1"/>
<path d="M414.776 204.888C414.848 205.203 414.895 205.524 414.916 205.847L440.042 220.341L446.149 216.825L452.66 225.348L442.453 232.622C441.629 233.21 440.636 233.514 439.623 233.489C438.611 233.465 437.634 233.112 436.839 232.485L410.93 212.047C409.76 212.48 408.487 212.546 407.279 212.238C406.071 211.93 404.985 211.261 404.167 210.32C403.348 209.38 402.835 208.212 402.697 206.974C402.558 205.735 402.799 204.483 403.389 203.384C403.979 202.286 404.89 201.394 406 200.825C407.109 200.257 408.366 200.04 409.602 200.203C410.838 200.366 411.995 200.902 412.919 201.739C413.844 202.576 414.491 203.674 414.776 204.888Z" fill="#A0616A"/>
<path d="M440.882 221.027L449.003 231.551C449.234 231.851 449.527 232.097 449.862 232.273C450.196 232.449 450.565 232.551 450.943 232.571C451.32 232.592 451.698 232.531 452.05 232.393C452.402 232.254 452.72 232.041 452.983 231.769L462.176 222.224C463.702 221.033 464.693 219.286 464.932 217.366C465.171 215.445 464.639 213.508 463.453 211.98C462.266 210.451 460.521 209.455 458.601 209.211C456.681 208.967 454.743 209.493 453.211 210.676L441.681 217.123C441.351 217.308 441.064 217.561 440.841 217.867C440.618 218.172 440.463 218.522 440.387 218.892C440.312 219.263 440.317 219.645 440.402 220.014C440.487 220.382 440.651 220.728 440.882 221.027Z" fill="#A77700"/>
<path d="M358.276 397.532H526.317C526.498 397.532 526.672 397.46 526.8 397.332C526.928 397.204 527 397.03 527 396.849C527 396.668 526.928 396.494 526.8 396.366C526.672 396.238 526.498 396.166 526.317 396.166H358.276C358.095 396.166 357.921 396.238 357.793 396.366C357.665 396.494 357.593 396.668 357.593 396.849C357.593 397.03 357.665 397.204 357.793 397.332C357.921 397.46 358.095 397.532 358.276 397.532Z" fill="#A77700"/>
</g>
<defs>
<clipPath id="clip0_628_3709">
<rect width="527" height="397" fill="white" transform="matrix(-1 0 0 1 527 0.53125)"/>
</clipPath>
</defs>
</svg>
