<svg width="934" height="539" viewBox="0 0 934 539" fill="none" xmlns="http://www.w3.org/2000/svg">
<g clip-path="url(#clip0_688_3782)">
<path d="M86.3909 420.803C85.6508 420.837 84.9182 420.643 84.2922 420.246C83.6663 419.85 83.1773 419.271 82.8915 418.587C82.6057 417.904 82.5369 417.149 82.6944 416.425C82.852 415.701 83.2283 415.043 83.7723 414.54C83.8634 414.178 83.9287 413.918 84.0199 413.556C83.9873 413.477 83.9545 413.399 83.9215 413.32C83.1759 411.559 81.9266 410.057 80.3304 409.004C78.7343 407.951 76.8625 407.393 74.9501 407.4C73.0378 407.407 71.1702 407.979 69.5819 409.044C67.9936 410.109 66.7555 411.62 66.023 413.386C63.0956 420.437 59.3685 427.499 58.4508 434.954C58.0467 438.249 58.2171 441.59 58.9547 444.826C52.0791 429.828 48.5088 413.527 48.4858 397.028C48.4844 392.887 48.7144 388.75 49.1748 384.636C49.5553 381.262 50.0833 377.913 50.7586 374.588C54.4438 356.547 62.356 339.637 73.8456 325.247C79.4065 322.213 83.9037 317.547 86.7311 311.878C87.7554 309.84 88.4794 307.665 88.8805 305.42C88.2532 305.502 87.6156 305.553 86.9883 305.594C86.7929 305.605 86.5872 305.615 86.3918 305.625L86.3181 305.629C85.6287 305.659 84.945 305.49 84.3494 305.142C83.7537 304.793 83.2716 304.28 82.9609 303.664C82.6503 303.047 82.5244 302.355 82.5984 301.668C82.6723 300.982 82.9431 300.332 83.378 299.796C83.6488 299.463 83.9198 299.13 84.191 298.797C84.6024 298.283 85.024 297.779 85.4353 297.265C85.4828 297.216 85.5275 297.164 85.569 297.11C86.0422 296.524 86.5151 295.948 86.9883 295.362C86.1247 294.022 84.9633 292.899 83.5946 292.082C78.8537 289.305 72.3132 291.228 68.8887 295.516C65.454 299.805 64.8061 305.821 65.9989 311.178C67.1721 315.737 69.1126 320.064 71.7374 323.971C71.4802 324.301 71.2128 324.619 70.9558 324.948C66.256 330.992 62.1599 337.481 58.726 344.323C59.5611 336.658 58.5644 328.904 55.818 321.699C53.0346 314.984 47.8174 309.329 43.223 303.524C37.7045 296.551 26.3882 299.594 25.4159 308.433C25.4065 308.519 25.3973 308.604 25.3883 308.69C26.0708 309.075 26.7388 309.483 27.3923 309.916C28.2134 310.464 28.8496 311.248 29.2176 312.164C29.5856 313.081 29.6682 314.087 29.4546 315.051C29.241 316.015 28.7412 316.892 28.0206 317.567C27.3 318.243 26.3923 318.684 25.4163 318.835L25.3164 318.85C25.5595 321.31 25.9892 323.747 26.6018 326.141C28.377 332.826 31.5139 339.071 35.8158 344.486C40.1178 349.901 45.4921 354.369 51.6017 357.61C52.0028 357.815 52.3936 358.021 52.7947 358.217C49.3447 367.993 47.1807 378.177 46.357 388.512C45.8907 394.61 45.9182 400.735 46.4393 406.828L46.4084 406.612C45.092 399.837 41.4777 393.723 36.176 389.304C28.3016 382.836 17.1766 380.454 8.68155 375.254C7.77873 374.675 6.72897 374.365 5.65609 374.363C4.5832 374.36 3.53195 374.664 2.62632 375.24C1.72068 375.815 0.998428 376.637 0.544757 377.609C0.0910859 378.582 -0.075094 379.663 0.0658296 380.727C0.0772229 380.803 0.0888072 380.878 0.100574 380.954C1.36693 381.47 2.59994 382.064 3.79242 382.733C4.47484 383.118 5.14283 383.527 5.79642 383.959C6.6175 384.507 7.25371 385.291 7.62171 386.208C7.9897 387.124 8.07232 388.13 7.85872 389.094C7.64513 390.058 7.14529 390.935 6.4247 391.61C5.70411 392.286 4.79637 392.727 3.82042 392.878L3.72042 392.893C3.64842 392.904 3.58673 392.914 3.51485 392.924C5.6786 398.091 8.71548 402.846 12.4925 406.982C17.1584 411.989 22.7978 415.99 29.0649 418.739C35.3319 421.489 42.0946 422.93 48.9382 422.973H48.9486C50.8063 431.046 53.498 438.904 56.9802 446.42H85.6719C85.7748 446.102 85.8673 445.772 85.9599 445.454C83.3041 445.621 80.6379 445.462 78.0207 444.981C80.1495 442.369 82.2782 439.736 84.407 437.124C84.4545 437.075 84.4991 437.023 84.5407 436.97C85.6205 435.633 86.7105 434.306 87.7903 432.969L87.7909 432.968C87.8485 428.87 87.3774 424.781 86.3909 420.803Z" fill="#F0F3F1"/>
<path d="M439.755 446.809C439.755 446.966 439.725 447.121 439.665 447.265C439.605 447.41 439.518 447.541 439.407 447.652C439.296 447.762 439.165 447.85 439.02 447.91C438.876 447.969 438.721 448 438.564 447.999H1.27448C0.958867 447.999 0.656182 447.874 0.433014 447.651C0.209846 447.427 0.0844727 447.125 0.0844727 446.809C0.0844727 446.494 0.209846 446.191 0.433014 445.968C0.656182 445.745 0.958867 445.619 1.27448 445.619H438.564C438.721 445.619 438.876 445.649 439.02 445.709C439.165 445.768 439.296 445.856 439.407 445.967C439.518 446.077 439.605 446.209 439.665 446.353C439.725 446.498 439.755 446.653 439.755 446.809Z" fill="#F0F3F1"/>
<path d="M206.366 289.839C207.384 290.18 208.314 290.739 209.093 291.478C209.871 292.217 210.478 293.117 210.87 294.116C211.263 295.115 211.432 296.187 211.365 297.258C211.298 298.329 210.997 299.373 210.483 300.315L221.01 313.375L214.634 321.708L200.027 303.055C198.502 302.088 197.384 300.594 196.886 298.857C196.388 297.12 196.545 295.261 197.326 293.632C198.108 292.003 199.459 290.717 201.126 290.018C202.792 289.319 204.656 289.255 206.366 289.839Z" fill="#A0616A"/>
<path d="M211.073 325.413L205.127 310.623L216.125 302.812L221.266 312.026L228.773 317.146L238.744 326.001C241.447 323.781 262.186 307.161 268.821 314.227C269.627 315.021 270.252 315.979 270.653 317.037C271.054 318.095 271.221 319.227 271.142 320.356C270.728 325.735 265.024 330.25 264.808 330.417L252.217 342.239C251.748 343.04 246.799 351.275 241.143 352.708C240.337 352.929 239.493 352.98 238.666 352.859C237.839 352.737 237.046 352.444 236.337 352C223.466 344.097 215.237 336.319 212.215 329.261C211.677 328.03 211.293 326.738 211.073 325.413Z" fill="#292D32"/>
<path d="M204.841 518.975L195.157 519.427L188.803 482.291L203.096 481.623L204.841 518.975Z" fill="#A0616A"/>
<path d="M210.033 537.161L203.161 537.482L201.631 531.052L198.793 537.686L180.568 538.539C179.695 538.579 178.831 538.34 178.103 537.855C177.375 537.37 176.821 536.666 176.522 535.844C176.224 535.022 176.195 534.126 176.441 533.287C176.688 532.448 177.196 531.709 177.891 531.179L191.975 520.447L191.668 513.889L207.019 514.086L210.033 537.161Z" fill="#292D32"/>
<path d="M103.735 439.239L100.207 430.21L133.358 412.305L150.104 422.831L103.735 439.239Z" fill="#A0616A"/>
<path d="M88.1686 449.978L85.6651 443.571L91.2674 440.063L84.0737 439.498L77.4337 422.504C77.1154 421.69 77.0657 420.795 77.2921 419.95C77.5184 419.105 78.0089 418.355 78.6918 417.809C79.3747 417.262 80.2144 416.949 81.0883 416.913C81.9621 416.878 82.8243 417.123 83.549 417.613L98.2239 427.521L104.339 425.132L109.065 439.738L88.1686 449.978Z" fill="#292D32"/>
<path d="M294.178 412.364C294.178 412.364 290.156 438.039 271.144 439.941C252.133 441.842 234.608 433.277 234.608 433.277L181.376 416.882C181.376 416.882 124.756 432.97 115.25 435.505C115.25 435.505 108.693 420.622 108.913 419.662C110.934 410.816 113.568 416.8 113.568 416.8L173.771 390.184C173.771 390.184 183.277 387.649 199.754 394.62C216.23 401.591 260.371 418.394 260.371 418.394L294.178 412.364Z" fill="#292D32"/>
<path d="M293.958 410.789C293.958 410.789 297.129 441.548 278.609 446.247C261.005 450.713 236.721 446.131 236.721 446.131L207.772 443.109C207.772 443.109 206.505 480.305 206.505 498.683C200.623 499.482 194.696 499.906 188.761 499.95C187.493 499.95 187.409 499.286 187.409 499.286L184.955 435C184.783 432.204 185.197 429.404 186.172 426.779C187.147 424.154 188.661 421.762 190.617 419.757C192.572 417.753 194.925 416.179 197.525 415.139C200.125 414.098 202.914 413.614 205.712 413.716C207.079 413.768 208.512 413.865 210.013 414.006C227.822 415.714 249.931 412.084 249.931 412.084L293.958 410.789Z" fill="#292D32"/>
<path d="M242.59 366.168C242.59 366.168 235.072 411.633 240.152 415.263C245.233 418.892 252.201 418.906 252.201 418.906L253.821 393.803L242.59 366.168Z" fill="#292D32"/>
<path d="M255.129 310.33L245.077 319.882C240.405 324.322 237.307 330.165 236.255 336.524C235.203 342.883 236.253 349.411 239.247 355.119L244.052 364.283L255.129 310.33Z" fill="#292D32"/>
<path d="M257.377 311.938L243.756 327.452C240.767 330.857 238.914 335.11 238.457 339.618C238.249 341.665 238.333 343.731 238.705 345.755L243.838 373.66L247.697 413.959C247.697 413.959 277.483 422.984 280.532 409.048C283.581 395.111 257.377 311.938 257.377 311.938Z" fill="#A77700"/>
<path d="M249.612 400.771L245.257 390.754L241.561 364.641C241.36 363.121 245.495 338.259 251.483 311.585L258.761 301.397L262.959 297.549L274.917 305.388C279.23 307.669 288.662 337.452 282.856 358.527C280.859 365.777 284.35 374.803 284.888 381.464L293.176 401.829L295.138 413.606L294.839 413.72C294.54 413.834 289.744 414.482 270.163 417.745C253.939 420.449 262.823 407.146 249.612 400.771Z" fill="#292D32"/>
<path d="M211.283 389.83C211.878 388.937 212.662 388.185 213.579 387.628C214.496 387.071 215.524 386.721 216.591 386.604C217.657 386.487 218.737 386.605 219.753 386.951C220.769 387.296 221.697 387.86 222.472 388.602L237.834 381.867L244.204 390.205L222.375 399.411C221.042 400.63 219.307 401.317 217.5 401.342C215.694 401.367 213.941 400.729 212.574 399.548C211.206 398.367 210.32 396.725 210.082 394.934C209.844 393.143 210.271 391.327 211.283 389.83Z" fill="#A0616A"/>
<path d="M246.845 394.612L231.014 396.472L226.359 383.812L236.598 381.266L243.507 375.364L254.666 368.062C253.232 364.872 242.63 340.501 251.188 335.951C252.165 335.381 253.254 335.029 254.38 334.92C255.506 334.81 256.642 334.946 257.711 335.317C262.793 337.126 265.655 343.815 265.759 344.067L273.868 359.316C274.517 359.979 281.168 366.914 281.068 372.747C281.07 373.584 280.899 374.411 280.564 375.177C280.23 375.944 279.74 376.632 279.125 377.2C268.124 387.549 258.462 393.452 250.858 394.518C249.529 394.715 248.181 394.747 246.845 394.612Z" fill="#292D32"/>
<path d="M257.131 296.268C267.595 295.014 275.038 285.326 273.757 274.629C272.475 263.932 262.953 256.277 252.49 257.531C242.026 258.784 234.582 268.472 235.864 279.169C237.146 289.866 246.667 297.521 257.131 296.268Z" fill="#A0616A"/>
<path d="M304.502 262.425C300.832 259.055 298.704 254.256 295.618 250.3C292.533 246.344 287.595 243.063 282.981 244.623C279.801 245.698 277.624 248.879 276.732 252.242C275.84 255.605 276.025 259.173 276.217 262.668C275.442 255.532 269.919 249.186 263.179 247.687C259.765 247.017 256.225 247.447 253.071 248.916C249.917 250.386 247.31 252.818 245.626 255.864C243.655 254.432 241.228 253.774 238.805 254.013C236.381 254.252 234.129 255.371 232.476 257.16C230.899 259.104 230.026 261.526 230.001 264.03C229.975 266.533 230.799 268.972 232.337 270.948C233.921 272.803 236.128 274.017 238.543 274.361C240.958 274.704 243.416 274.154 245.454 272.814L247.122 274.016C246.91 275.539 247.24 277.089 248.054 278.394C248.869 279.698 250.116 280.675 251.578 281.153C253.921 281.788 257.058 281.26 258.175 283.505C258.956 285.074 258.073 286.954 257.062 288.352C256.051 289.751 254.828 291.216 254.897 292.976C255.001 295.63 257.939 297.146 260.475 297.405C263.576 297.648 266.678 296.96 269.385 295.429C272.092 293.898 274.281 291.594 275.671 288.813C275.725 288.703 275.785 288.593 275.851 288.482C277.481 285.789 278.546 282.791 278.979 279.672C279.412 276.553 279.205 273.379 278.369 270.343C278.031 269.151 278.117 268.225 278.92 267.837C282.391 266.159 292.846 267.554 296.198 269.545C299.55 271.536 302.382 274.363 305.639 276.519C308.897 278.676 312.897 280.161 316.569 279.028C318.036 278.485 319.38 277.653 320.521 276.582C321.662 275.511 322.577 274.222 323.211 272.792C324.507 269.873 325.366 266.778 325.76 263.609C322.608 265.852 318.786 266.957 314.924 266.742C311.061 266.527 307.386 265.004 304.502 262.425Z" fill="#292D32"/>
<path d="M307.388 389.382L307.378 389.369L307.388 389.395V389.382Z" fill="#292D32"/>
<path d="M507.551 180.392C506.723 180.517 505.879 180.308 505.205 179.811C504.531 179.315 504.081 178.57 503.955 177.742C503.829 176.914 504.037 176.07 504.533 175.396C505.029 174.721 505.773 174.271 506.601 174.144C507.429 174.017 508.273 174.224 508.948 174.719C509.624 175.215 510.075 175.958 510.202 176.786C510.33 177.613 510.124 178.458 509.629 179.134C509.135 179.809 508.392 180.261 507.564 180.39L507.551 180.392Z" fill="#F0F3F1"/>
<path d="M710.484 427.98L720.526 430.617L735.477 393.136L720.655 389.244L710.484 427.98Z" fill="#FFB6B6"/>
<path d="M707.379 438.364L738.261 446.473L738.364 446.083C739.201 442.895 738.737 439.505 737.075 436.659C735.413 433.813 732.688 431.743 729.5 430.906L724.983 425.145L713.334 426.661L710.638 425.953L707.379 438.364Z" fill="#292D32"/>
<path d="M761.966 435.493H772.348L777.288 395.443L761.964 395.444L761.966 435.493Z" fill="#FFB6B6"/>
<path d="M761.6 446.326L793.529 446.324V445.921C793.529 442.625 792.22 439.464 789.889 437.133C787.559 434.803 784.398 433.493 781.102 433.493L775.269 429.068L764.387 433.494L761.6 433.494L761.6 446.326Z" fill="#292D32"/>
<path d="M735.996 243.843C733.488 246.978 734.742 257.638 734.742 257.638C734.742 257.638 730.353 292.125 732.234 295.26C734.115 298.395 730.98 300.904 729.099 305.293C727.218 309.682 725.336 320.342 725.336 320.342C714.677 329.121 715.304 369.251 715.304 369.251L711.542 404.993C712.796 408.755 730.353 409.382 732.861 408.755C735.369 408.128 759.824 319.715 759.824 319.715C759.824 319.715 758.57 404.993 758.57 408.755C758.57 412.517 775.5 410.636 779.262 410.636C783.024 410.636 806.852 257.011 806.852 257.011V248.232L803.717 243.843C803.717 243.843 738.504 240.707 735.996 243.843Z" fill="#292D32"/>
<path d="M763.586 129.093C774.322 129.093 783.025 120.391 783.025 109.655C783.025 98.9196 774.322 90.2168 763.586 90.2168C752.851 90.2168 744.148 98.9196 744.148 109.655C744.148 120.391 752.851 129.093 763.586 129.093Z" fill="#FFB6B6"/>
<path d="M737.471 257.709L737.365 257.56C731.702 249.633 740.218 230.583 741.503 227.822C739.978 227.327 738.671 226.318 737.806 224.968C736.941 223.618 736.57 222.01 736.757 220.417L737.311 215.711L737.888 211.094L733.753 206.959L733.742 206.856L731.362 186.035L727.903 172.206C726.599 166.978 726.71 161.497 728.224 156.327C729.739 151.156 732.602 146.481 736.52 142.783L744.517 141.513L754.236 132.148H769.909L775.283 137.283C785.849 145.943 788.357 142.181 800.271 158.484L791.741 180.958L796.509 214.106L796.511 220.104L798.995 222.864C799.889 223.859 800.539 225.048 800.893 226.338C801.247 227.627 801.294 228.982 801.032 230.293L800.706 231.926C801.968 232.467 803.082 233.303 803.954 234.363C804.827 235.424 805.433 236.678 805.72 238.021L806.593 242.091C807.339 243.075 812.264 249.643 812.264 251.438C812.264 251.708 812.065 251.968 811.638 252.257C808.282 254.53 789.729 259.164 781.517 255.878C772.771 252.381 738.001 257.628 737.651 257.681L737.471 257.709Z" fill="#A77700"/>
<path d="M727.595 178.857L743.758 175.693C749.735 184.62 752.944 209.028 752.944 209.028L770.813 246.087C771.912 246.754 772.814 247.701 773.427 248.83C774.041 249.959 774.344 251.231 774.306 252.516C774.269 253.8 773.891 255.052 773.212 256.143C772.533 257.234 771.577 258.126 770.442 258.727C769.306 259.329 768.031 259.619 766.747 259.567C765.463 259.516 764.215 259.125 763.131 258.435C762.048 257.744 761.166 256.779 760.577 255.637C759.987 254.495 759.711 253.217 759.776 251.933L736.47 208.025L727.595 178.857Z" fill="#FFB6B6"/>
<path d="M727.504 182.692L727.045 158.67L734.651 148.495C736.151 146.502 738.179 144.97 740.505 144.069C742.831 143.169 745.362 142.937 747.813 143.4C751.131 144.05 754.078 145.936 756.059 148.676C758.04 151.415 758.906 154.805 758.483 158.16C757.192 168.331 754.261 181.061 747.63 183.941L747.563 183.97L754.436 208.005L728.949 211.565L727.504 182.692Z" fill="#A77700"/>
<path d="M831.788 162.383C831.788 162.383 807.671 157.44 797.282 160.172L794.99 176.481L824.408 179.092L874.62 169.965C875.813 170.437 877.109 170.585 878.378 170.393C879.647 170.202 880.842 169.678 881.843 168.875C882.844 168.072 883.614 167.019 884.076 165.822C884.539 164.625 884.676 163.327 884.474 162.06C884.272 160.793 883.739 159.602 882.928 158.608C882.117 157.613 881.058 156.851 879.857 156.399C878.656 155.946 877.358 155.82 876.092 156.031C874.827 156.243 873.64 156.786 872.652 157.605L831.788 162.383Z" fill="#FFB6B6"/>
<path d="M802.586 180.302L778.704 177.669L769.591 168.817C767.809 167.073 766.549 164.865 765.956 162.443C765.362 160.02 765.458 157.48 766.232 155.109C767.303 151.903 769.552 149.222 772.524 147.61C775.496 145.998 778.969 145.575 782.241 146.425C792.162 149.014 802.09 146.599 804.094 153.546L807.669 152.376L831.152 156.849L831.405 182.582L802.586 180.302Z" fill="#A77700"/>
<path d="M741.538 96.8817C743.72 93.5049 747.816 91.2544 751.787 91.8868C752.157 89.3527 753.214 86.9686 754.845 84.994C756.476 83.0194 758.617 81.5301 761.036 80.6882C763.454 79.8463 766.057 79.684 768.562 80.2191C771.066 80.7542 773.376 81.9662 775.239 83.723C775.852 83.2915 776.565 83.0256 777.311 82.951C778.057 82.8764 778.809 82.9955 779.495 83.297C780.862 83.9184 782.051 84.8727 782.953 86.0726C785.232 88.914 786.697 92.3201 787.193 95.9283C787.69 99.5364 787.198 103.212 785.771 106.563C786.257 104.799 784.489 103.139 782.702 102.743C780.916 102.347 779.042 102.722 777.231 102.464C774.909 102.133 772.822 100.787 770.497 100.483C768.525 100.355 766.547 100.609 764.671 101.232C762.796 101.855 760.821 102.12 758.848 102.014C756.891 101.782 754.37 109.199 754.404 114.423C754.41 115.413 754.206 116.684 753.239 116.894C752.047 117.153 751.357 115.508 750.223 115.06C749.7 114.91 749.14 114.969 748.66 115.225C748.18 115.48 747.817 115.912 747.649 116.429C747.506 116.954 747.491 117.506 747.605 118.039C747.718 118.572 747.958 119.07 748.302 119.492C749 120.328 749.827 121.045 750.753 121.618L750.286 122.006C749.843 122.474 749.25 122.774 748.61 122.854C747.97 122.933 747.322 122.788 746.778 122.442C745.707 121.717 744.84 120.729 744.259 119.574C742.07 116.189 740.505 112.439 739.639 108.503C738.784 104.528 739.462 100.377 741.538 96.8817Z" fill="#292D32"/>
<path d="M904.619 430.514L896.909 418.124L895.369 425.204C895.099 426.444 894.829 427.704 894.579 428.954C892.389 427.084 890.059 425.354 887.779 423.694C880.779 418.614 873.783 413.527 866.789 408.434L868.979 421.134C870.329 428.954 871.739 436.934 875.079 444.084C875.449 444.894 875.849 445.694 876.279 446.474H908.819C909.081 445.749 909.262 444.998 909.359 444.234C909.367 444.184 909.371 444.134 909.369 444.084C909.879 439.233 907.199 434.664 904.619 430.514Z" fill="#F0F3F1"/>
<path d="M932.16 447.692L656.41 447.999C656.254 448 656.099 447.969 655.954 447.91C655.809 447.85 655.677 447.762 655.566 447.652C655.455 447.541 655.367 447.41 655.307 447.265C655.247 447.12 655.216 446.965 655.216 446.809C655.216 446.652 655.247 446.497 655.307 446.352C655.367 446.207 655.455 446.076 655.566 445.965C655.677 445.855 655.809 445.767 655.954 445.708C656.099 445.648 656.254 445.617 656.41 445.618L932.16 445.311C932.476 445.311 932.779 445.436 933.002 445.659C933.226 445.883 933.351 446.185 933.351 446.501C933.351 446.817 933.226 447.12 933.002 447.343C932.779 447.566 932.476 447.692 932.16 447.692Z" fill="#F0F3F1"/>
<path d="M501.029 234.222C492.818 235.481 484.418 234.277 476.892 230.762C469.365 227.248 463.05 221.58 458.744 214.476C454.439 207.372 452.337 199.151 452.704 190.852C453.07 182.553 455.89 174.55 460.806 167.854C465.721 161.157 472.512 156.069 480.319 153.232C488.127 150.395 496.6 149.937 504.668 151.916C512.735 153.895 520.035 158.222 525.644 164.349C531.252 170.477 534.918 178.13 536.177 186.341C537.013 191.792 536.767 197.355 535.454 202.712C534.14 208.069 531.784 213.114 528.52 217.561C525.256 222.007 521.148 225.767 516.431 228.625C511.715 231.484 506.481 233.386 501.029 234.222ZM488.599 153.169C480.78 154.368 473.491 157.86 467.655 163.201C461.819 168.543 457.699 175.495 455.814 183.178C453.93 190.862 454.366 198.932 457.067 206.367C459.769 213.803 464.615 220.27 470.993 224.952C477.37 229.633 484.993 232.319 492.896 232.668C500.8 233.017 508.629 231.015 515.395 226.915C522.161 222.814 527.558 216.8 530.906 209.632C534.253 202.463 535.4 194.464 534.2 186.644C532.592 176.158 526.885 166.74 518.333 160.462C509.781 154.185 499.085 151.561 488.599 153.169Z" fill="#F0F3F1"/>
<path d="M502.82 170.436C505.587 170.021 508.405 170.716 510.661 172.372C512.916 174.028 514.425 176.508 514.857 179.272L518.058 200.143C518.473 202.91 517.778 205.729 516.122 207.984C514.466 210.239 511.986 211.748 509.222 212.18L488.351 215.381C485.584 215.797 482.765 215.101 480.51 213.445C478.255 211.79 476.746 209.309 476.314 206.545L473.113 185.674C472.697 182.907 473.393 180.089 475.049 177.833C476.704 175.578 479.185 174.069 481.949 173.637L502.82 170.436ZM502.18 166.262L481.309 169.463C477.439 170.068 473.966 172.18 471.649 175.337C469.331 178.495 468.357 182.441 468.939 186.314L472.14 207.185C472.745 211.055 474.857 214.528 478.014 216.845C481.171 219.163 485.118 220.137 488.991 219.555L509.862 216.354C513.731 215.749 517.204 213.637 519.522 210.48C521.84 207.323 522.814 203.376 522.231 199.503L519.031 178.632C518.426 174.763 516.314 171.29 513.157 168.972C509.999 166.654 506.053 165.68 502.18 166.262Z" fill="#F0F3F1"/>
<path d="M494.306 184.559C495.957 184.305 497.646 184.548 499.16 185.254C500.673 185.961 501.943 187.101 502.809 188.53C503.675 189.958 504.098 191.612 504.024 193.281C503.95 194.95 503.383 196.559 502.395 197.906C501.406 199.253 500.041 200.276 498.47 200.846C496.9 201.417 495.196 201.509 493.574 201.111C491.951 200.713 490.483 199.843 489.355 198.611C488.227 197.378 487.49 195.839 487.237 194.188C487.069 193.092 487.118 191.973 487.382 190.895C487.647 189.818 488.121 188.803 488.777 187.909C489.433 187.015 490.259 186.259 491.208 185.684C492.157 185.109 493.209 184.727 494.306 184.559ZM493.665 180.385C491.189 180.765 488.88 181.87 487.032 183.562C485.183 185.254 483.878 187.456 483.281 189.89C482.684 192.323 482.822 194.879 483.678 197.234C484.534 199.589 486.069 201.638 488.089 203.121C490.109 204.603 492.523 205.454 495.026 205.565C497.53 205.675 500.009 205.041 502.152 203.742C504.295 202.444 506.005 200.539 507.065 198.268C508.125 195.998 508.489 193.464 508.109 190.987C507.599 187.666 505.792 184.683 503.083 182.695C500.374 180.706 496.987 179.875 493.665 180.385Z" fill="#F0F3F1"/>
<path d="M330.833 139.069C322.622 140.329 314.223 139.125 306.696 135.61C299.169 132.095 292.854 126.427 288.549 119.324C284.243 112.22 282.141 103.998 282.508 95.6997C282.875 87.401 285.694 79.3975 290.61 72.7012C295.525 66.0049 302.316 60.9166 310.124 58.0798C317.931 55.2429 326.404 54.785 334.472 56.7638C342.54 58.7426 349.839 63.0693 355.448 69.1968C361.057 75.3243 364.722 82.9774 365.981 91.1882C366.818 96.64 366.572 102.203 365.258 107.56C363.944 112.917 361.588 117.962 358.324 122.408C355.06 126.854 350.952 130.614 346.236 133.473C341.519 136.332 336.285 138.233 330.833 139.069ZM318.403 58.0169C310.584 59.2161 303.295 62.7073 297.459 68.0488C291.624 73.3904 287.503 80.3425 285.618 88.026C283.734 95.7095 284.17 103.779 286.872 111.215C289.573 118.651 294.419 125.118 300.797 129.8C307.174 134.481 314.797 137.166 322.7 137.516C330.604 137.865 338.433 135.863 345.199 131.763C351.965 127.662 357.363 121.647 360.71 114.479C364.057 107.311 365.204 99.3112 364.005 91.4914C362.396 81.0053 356.689 71.5875 348.137 65.3098C339.585 59.0322 328.89 56.4088 318.403 58.0169Z" fill="#F0F3F1"/>
<path d="M346.446 82.5471L351.237 80.8007C351.237 80.8007 347.798 86.0831 347.052 86.5009C347.13 87.4992 347.282 88.4904 347.507 89.4662C344.263 131.645 306.513 119.022 306.513 119.022C319.31 117.363 319.594 111.957 319.594 111.957C312.014 112.007 309.788 107.391 309.788 107.391C310.507 107.64 311.293 107.615 311.994 107.32C312.696 107.026 313.264 106.483 313.59 105.796C305.266 104.948 305.155 96.9727 305.155 96.9727C306.741 97.7842 308.507 98.1751 310.287 98.108C309.23 97.1571 300.339 89.3143 304.173 83.9713C304.173 83.9713 311.224 93.0069 325.891 91.6682L326.849 91.319C326.572 90.6328 326.393 89.9109 326.318 89.1747C325.896 86.4221 326.584 83.6146 328.232 81.3697C329.88 79.1248 332.352 77.6265 335.105 77.2044C342.024 76.1433 344.113 79.8697 344.113 79.8697L348.601 76.1465C348.502 76.1617 348.765 81.1797 346.446 82.5471Z" fill="#F0F3F1"/>
<path d="M894.367 157.046C886.156 158.305 877.756 157.101 870.229 153.586C862.703 150.072 856.387 144.404 852.082 137.3C847.776 130.196 845.674 121.975 846.041 113.676C846.408 105.378 849.227 97.374 854.143 90.6777C859.058 83.9814 865.849 78.8931 873.657 76.0563C881.464 73.2195 889.937 72.7615 898.005 74.7404C906.073 76.7192 913.373 81.0459 918.981 87.1734C924.59 93.3009 928.256 100.954 929.515 109.165C931.203 120.175 928.449 131.405 921.857 140.385C915.265 149.364 905.377 155.357 894.367 157.046ZM881.937 75.9935C874.117 77.1927 866.828 80.6838 860.993 86.0254C855.157 91.367 851.036 98.3191 849.152 106.003C847.267 113.686 847.703 121.756 850.405 129.192C853.107 136.627 857.953 143.095 864.33 147.776C870.707 152.458 878.33 155.143 886.233 155.492C894.137 155.842 901.967 153.84 908.732 149.739C915.498 145.639 920.896 139.624 924.243 132.456C927.59 125.288 928.737 117.288 927.538 109.468C925.93 98.9819 920.222 89.5641 911.67 83.2864C903.118 77.0087 892.423 74.3854 881.937 75.9935Z" fill="#F0F3F1"/>
<g clip-path="url(#clip1_688_3782)">
<path fill-rule="evenodd" clip-rule="evenodd" d="M910.417 116.032C910.417 128.688 900.157 138.949 887.5 138.949C874.844 138.949 864.583 128.688 864.583 116.032C864.583 103.375 874.844 93.1152 887.5 93.1152C900.157 93.1152 910.417 103.375 910.417 116.032ZM888.321 110.033C886.092 110.96 881.638 112.879 874.957 115.79C873.872 116.221 873.304 116.643 873.252 117.056C873.165 117.754 874.038 118.028 875.227 118.402C875.389 118.453 875.557 118.506 875.728 118.562C876.899 118.942 878.473 119.387 879.291 119.405C880.033 119.421 880.861 119.115 881.776 118.487C888.018 114.273 891.24 112.143 891.442 112.097C891.585 112.065 891.783 112.024 891.917 112.143C892.051 112.263 892.038 112.488 892.023 112.549C891.937 112.917 888.509 116.105 886.735 117.754C886.181 118.268 885.789 118.633 885.709 118.716C885.529 118.903 885.346 119.079 885.17 119.249C884.083 120.297 883.268 121.083 885.215 122.366C886.151 122.983 886.9 123.493 887.647 124.001C888.463 124.557 889.277 125.111 890.33 125.801C890.598 125.977 890.854 126.16 891.104 126.338C892.053 127.015 892.906 127.623 893.96 127.526C894.572 127.47 895.205 126.894 895.526 125.176C896.285 121.118 897.778 112.324 898.122 108.7C898.153 108.383 898.115 107.977 898.084 107.798C898.054 107.62 897.99 107.366 897.758 107.178C897.483 106.955 897.059 106.908 896.87 106.911C896.008 106.926 894.686 107.386 888.321 110.033Z" fill="#F0F3F1"/>
</g>
<path d="M183.366 298.046C175.156 299.305 166.756 298.101 159.229 294.586C151.703 291.072 145.387 285.404 141.082 278.3C136.776 271.196 134.674 262.975 135.041 254.676C135.408 246.378 138.227 238.374 143.143 231.678C148.058 224.981 154.849 219.893 162.657 217.056C170.464 214.219 178.937 213.762 187.005 215.74C195.073 217.719 202.372 222.046 207.981 228.173C213.59 234.301 217.256 241.954 218.515 250.165C219.351 255.617 219.105 261.18 217.791 266.536C216.477 271.893 214.121 276.939 210.857 281.385C207.593 285.831 203.486 289.591 198.769 292.449C194.052 295.308 188.818 297.21 183.366 298.046ZM170.937 216.993C163.117 218.193 155.828 221.684 149.993 227.025C144.157 232.367 140.036 239.319 138.152 247.003C136.267 254.686 136.703 262.756 139.405 270.192C142.107 277.627 146.953 284.095 153.33 288.776C159.707 293.458 167.33 296.143 175.233 296.492C183.137 296.842 190.967 294.84 197.732 290.739C204.498 286.639 209.896 280.624 213.243 273.456C216.59 266.288 217.737 258.288 216.538 250.468C215.742 245.276 213.93 240.291 211.208 235.799C208.485 231.307 204.905 227.395 200.67 224.286C196.436 221.178 191.63 218.934 186.529 217.683C181.427 216.431 176.129 216.197 170.937 216.993Z" fill="#F0F3F1"/>
<g clip-path="url(#clip2_688_3782)">
<path d="M179.668 230.804C175.978 231.925 172.378 233.531 168.987 235.63C168.924 235.668 168.893 235.74 168.908 235.813C169.117 236.777 169.46 237.972 169.764 238.88C166.18 241.21 163.033 244 160.353 247.22C159.475 246.794 158.329 246.337 157.395 246.015C157.325 245.993 157.25 246.015 157.204 246.071C154.712 249.183 152.685 252.563 151.128 256.095C151.114 256.124 151.109 256.158 151.115 256.191C152.843 268.892 158.272 277.964 165.795 285.009C165.832 285.044 165.885 285.061 165.934 285.058C171.746 284.524 176.548 283.071 180.817 281.146C180.885 281.115 180.925 281.045 180.92 280.97C180.753 279.187 180.449 277.422 179.991 275.687C179.965 275.585 179.857 275.532 179.759 275.569C178.264 276.136 176.739 276.563 175.192 276.884C175.069 276.908 174.96 276.798 174.985 276.676C175.058 276.323 175.124 275.964 175.18 275.611C175.19 275.547 175.236 275.495 175.297 275.475C184.759 272.581 192.053 266.119 195.984 257.144C196.009 257.084 196.067 257.044 196.134 257.041C196.49 257.028 196.857 257.007 197.217 256.976C197.341 256.965 197.439 257.085 197.4 257.205C196.906 258.713 196.288 260.164 195.542 261.58C195.494 261.673 195.536 261.786 195.634 261.825C197.313 262.475 199.03 262.989 200.765 263.382C200.838 263.399 200.914 263.367 200.953 263.303C203.394 259.282 205.414 254.69 206.644 248.984C206.654 248.934 206.643 248.883 206.613 248.842C199.603 239.202 190.473 233.524 179.765 230.806C179.734 230.793 179.7 230.794 179.668 230.804ZM175.237 268.294C173.208 270.092 169.887 269.71 167.861 267.424C165.834 265.137 165.823 261.823 167.884 259.997C169.961 258.156 173.28 258.568 175.26 260.867C177.286 263.154 177.297 266.468 175.237 268.294ZM188.915 256.174C186.886 257.971 183.565 257.59 181.539 255.303C179.512 253.016 179.501 249.702 181.562 247.876C183.639 246.036 186.958 246.448 188.938 248.747C190.964 251.034 190.992 254.333 188.915 256.174Z" fill="#F0F3F1"/>
</g>
<path d="M703.366 84.0459C695.156 85.3051 686.756 84.1012 679.229 80.5865C671.703 77.0717 665.387 71.404 661.082 64.3001C656.776 57.1961 654.674 48.975 655.041 40.6763C655.408 32.3776 658.227 24.374 663.143 17.6777C668.058 10.9814 674.849 5.89315 682.657 3.05632C690.464 0.219488 698.937 -0.23847 707.005 1.74035C715.073 3.71918 722.373 8.04591 727.981 14.1734C733.59 20.3009 737.256 27.9539 738.515 36.1648C739.351 41.6165 739.105 47.1796 737.791 52.5364C736.477 57.8931 734.121 62.9386 730.857 67.3848C727.593 71.831 723.486 75.5908 718.769 78.4495C714.052 81.3082 708.818 83.2099 703.366 84.0459ZM690.937 2.99348C683.117 4.19269 675.828 7.68383 669.993 13.0254C664.157 18.367 660.036 25.3191 658.152 33.0026C656.267 40.6861 656.703 48.7559 659.405 56.1915C662.107 63.6271 666.953 70.0946 673.33 74.7761C679.707 79.4576 687.33 82.1428 695.233 82.4922C703.137 82.8416 710.967 80.8395 717.732 76.7391C724.498 72.6386 729.896 66.624 733.243 59.4558C736.59 52.2876 737.737 44.2878 736.538 36.4679C734.93 25.9819 729.222 16.5641 720.67 10.2864C712.118 4.00873 701.423 1.38539 690.937 2.99348Z" fill="#F0F3F1"/>
<path d="M716.491 59.7238C715.407 60.9535 713.763 61.5626 711.954 61.4249L706.035 60.9588C705.916 60.9494 705.639 61.0848 705.543 61.1582L704.758 62.0494C698.212 69.4814 692.148 72.3058 682.132 63.4838L673.22 55.635C665.343 48.6966 664.847 40.8864 671.786 33.0088L684.344 18.7506C691.282 10.873 699.093 10.3779 706.97 17.3162L715.881 25.1651C723.759 32.1034 724.254 39.9136 717.316 47.7912L716.531 48.6824C716.405 48.825 716.367 49.0125 716.395 49.1958L717.605 55.0087C717.97 56.7861 717.574 58.494 716.491 59.7238ZM674.459 35.3634C668.839 41.7439 669.194 47.3418 675.575 52.9616L684.486 60.8104C692.542 67.9057 696.276 66.2891 702.084 59.6947L702.869 58.8036C703.67 57.8946 705.097 57.3162 706.314 57.4073L712.234 57.8734C713.603 57.9717 714.388 57.0805 714.117 55.7347L712.907 49.9217C712.641 48.6429 712.994 47.308 713.858 46.3277L714.642 45.4366C720.262 39.0561 719.907 33.4582 713.527 27.8385L704.615 19.9896C698.235 14.3699 692.637 14.7248 687.017 21.1053L674.459 35.3634Z" fill="#F0F3F1"/>
<path d="M697.224 42.7537C696.345 43.7518 694.852 43.8296 693.872 42.9662C692.892 42.1029 692.796 40.5945 693.66 39.6142C694.523 38.634 696.031 38.5383 697.012 39.4017C697.992 40.2651 698.103 41.7557 697.224 42.7537Z" fill="#F0F3F1"/>
<path d="M703.503 35.6248C702.624 36.6229 701.132 36.7007 700.151 35.8373C699.171 34.974 699.076 33.4656 699.939 32.4853C700.802 31.5051 702.311 31.4094 703.291 32.2728C704.271 33.1362 704.383 34.6268 703.503 35.6248Z" fill="#F0F3F1"/>
<path d="M690.945 49.8846C690.066 50.8827 688.574 50.9605 687.593 50.0971C686.613 49.2337 686.517 47.7253 687.381 46.7451C688.244 45.7648 689.753 45.6692 690.733 46.5326C691.713 47.3959 691.824 48.8865 690.945 49.8846Z" fill="#F0F3F1"/>
</g>
<defs>
<clipPath id="clip0_688_3782">
<rect width="933.351" height="538.011" fill="white" transform="translate(0 0.53125)"/>
</clipPath>
<clipPath id="clip1_688_3782">
<rect width="55" height="55" fill="white" transform="translate(860 88.5312)"/>
</clipPath>
<clipPath id="clip2_688_3782">
<rect width="66" height="66" fill="white" transform="translate(130.416 253.719) rotate(-41.5451)"/>
</clipPath>
</defs>
</svg>
