<svg width="266" height="142" viewBox="0 0 266 142" fill="none" xmlns="http://www.w3.org/2000/svg">
<g clip-path="url(#clip0_230_9902)">
<path d="M240.303 51.5918V89.665H137.582C137.159 89.6652 136.74 89.5814 136.349 89.4186C135.958 89.2558 135.602 89.0172 135.303 88.7162C135.004 88.4153 134.766 88.0581 134.604 87.6649C134.443 87.2717 134.359 86.8503 134.359 86.4248V48.3516H237.081C237.504 48.3514 237.923 48.4352 238.314 48.598C238.705 48.7608 239.06 48.9995 239.36 49.3004C239.659 49.6013 239.896 49.9585 240.058 50.3517C240.22 50.7449 240.303 51.1663 240.303 51.5918Z" fill="#4168B7"/>
<path d="M265.572 142.001H0.427352C0.314157 142 0.205713 141.955 0.125787 141.874C0.0458617 141.794 0.000976562 141.684 0.000976562 141.571C0.000976562 141.457 0.0458617 141.348 0.125787 141.267C0.205713 141.186 0.314157 141.141 0.427352 141.141H265.572C265.686 141.141 265.794 141.186 265.875 141.267C265.955 141.347 266 141.457 266 141.571C266 141.685 265.955 141.794 265.875 141.875C265.794 141.955 265.686 142.001 265.572 142.001Z" fill="#3F3D56"/>
<path d="M192.718 89.6641H192V141.662H192.718V89.6641Z" fill="#3F3D56"/>
<path d="M247.487 90.0248H137.233C136.376 90.0238 135.555 89.6811 134.949 89.0718C134.343 88.4626 134.002 87.6365 134.001 86.7749V40.1932C134.002 39.3316 134.343 38.5056 134.949 37.8963C135.555 37.2871 136.376 36.9443 137.233 36.9434H247.487C248.344 36.9443 249.165 37.2871 249.771 37.8963C250.377 38.5056 250.718 39.3316 250.719 40.1932V86.7749C250.718 87.6365 250.377 88.4626 249.771 89.0718C249.165 89.6811 248.344 90.0238 247.487 90.0248ZM137.233 37.6656C136.567 37.6663 135.928 37.9329 135.456 38.4067C134.985 38.8806 134.72 39.5231 134.719 40.1932V86.7749C134.72 87.4451 134.985 88.0876 135.456 88.5614C135.928 89.0353 136.567 89.3018 137.233 89.3026H247.487C248.153 89.3018 248.792 89.0353 249.263 88.5614C249.735 88.0876 250 87.4451 250.001 86.7749V40.1932C250 39.5231 249.735 38.8806 249.263 38.4067C248.792 37.9329 248.153 37.6663 247.487 37.6656H137.233Z" fill="#3F3D56"/>
<path d="M216.96 61.4986H151.957C151.672 61.4986 151.397 61.3845 151.195 61.1813C150.993 60.9782 150.88 60.7026 150.88 60.4153C150.88 60.128 150.993 59.8525 151.195 59.6493C151.397 59.4462 151.672 59.332 151.957 59.332H216.96C217.246 59.332 217.52 59.4462 217.722 59.6493C217.924 59.8525 218.038 60.128 218.038 60.4153C218.038 60.7026 217.924 60.9782 217.722 61.1813C217.52 61.3845 217.246 61.4986 216.96 61.4986Z" fill="white"/>
<path d="M216.96 70.526H151.957C151.672 70.526 151.397 70.4118 151.195 70.2087C150.993 70.0055 150.88 69.73 150.88 69.4427C150.88 69.1554 150.993 68.8798 151.195 68.6767C151.397 68.4735 151.672 68.3594 151.957 68.3594H216.96C217.246 68.3594 217.52 68.4735 217.722 68.6767C217.924 68.8798 218.038 69.1554 218.038 69.4427C218.038 69.73 217.924 70.0055 217.722 70.2087C217.52 70.4118 217.246 70.526 216.96 70.526Z" fill="white"/>
<path d="M216.96 79.5533H151.957C151.672 79.5533 151.397 79.4392 151.195 79.236C150.993 79.0329 150.88 78.7573 150.88 78.47C150.88 78.1827 150.993 77.9072 151.195 77.704C151.397 77.5009 151.672 77.3867 151.957 77.3867H216.96C217.246 77.3867 217.52 77.5009 217.722 77.704C217.924 77.9072 218.038 78.1827 218.038 78.47C218.038 78.7573 217.924 79.0329 217.722 79.236C217.52 79.4392 217.246 79.5533 216.96 79.5533Z" fill="white"/>
<path d="M250.256 49.0213C256.774 49.0213 262.059 43.7078 262.059 37.1532C262.059 30.5987 256.774 25.2852 250.256 25.2852C243.737 25.2852 238.452 30.5987 238.452 37.1532C238.452 43.7078 243.737 49.0213 250.256 49.0213Z" fill="#F6F6F6"/>
<path d="M250.305 40.7261L244.398 34.7869C244.206 34.5931 244.099 34.331 244.1 34.0578C244.1 33.7847 244.208 33.5229 244.4 33.3298C244.592 33.1367 244.853 33.028 245.124 33.0275C245.396 33.0271 245.657 33.1349 245.849 33.3273L250.206 37.7082L264.11 21.7667C264.289 21.5613 264.543 21.4359 264.814 21.4182C265.086 21.4005 265.353 21.4918 265.557 21.6721C265.762 21.8524 265.887 22.107 265.905 22.3798C265.923 22.6527 265.832 22.9216 265.653 23.1275L250.305 40.7261Z" fill="#4168B7"/>
<path d="M52.673 27.9148C52.673 27.9148 59.9467 23.2957 66.8375 28.6846L71.4315 76.8C71.4315 76.8 54.2043 90.2723 49.9932 77.5699L52.673 27.9148Z" fill="#E6E6E6"/>
<path d="M50.8976 137.275L46.4947 137.274L45.0283 120.261L50.8983 120.199L50.8976 137.275Z" fill="#FFB8B8"/>
<path d="M43.3493 136.01H51.8405V141.385H38.0029C38.0029 140.679 38.1412 139.98 38.4099 139.328C38.6786 138.676 39.0724 138.083 39.5688 137.584C40.0653 137.085 40.6547 136.689 41.3033 136.419C41.952 136.149 42.6472 136.01 43.3493 136.01Z" fill="#2F2E41"/>
<path d="M66.8122 137.275L71.2152 137.275L73.3097 120.199L66.8115 120.2L66.8122 137.275Z" fill="#FFB8B8"/>
<path d="M79.7061 141.387L65.8684 141.387L65.8682 136.012L74.3595 136.011C75.7774 136.011 77.1373 136.578 78.14 137.586C79.1427 138.594 79.706 139.961 79.7061 141.387Z" fill="#2F2E41"/>
<path d="M41.3799 76.9913L45.2082 134.345L51.142 134.152L58.9899 88.1541L66.2636 133.575L73.1545 133.96L75.0686 74.6818C75.0686 74.6818 45.9738 68.1381 41.3799 76.9913Z" fill="#2F2E41"/>
<path d="M59.4437 23.0445C64.3152 23.0445 68.2643 19.0738 68.2643 14.1756C68.2643 9.2774 64.3152 5.30664 59.4437 5.30664C54.5722 5.30664 50.623 9.2774 50.623 14.1756C50.623 19.0738 54.5722 23.0445 59.4437 23.0445Z" fill="#FFB8B8"/>
<path d="M54.0133 26.1816L51.7164 27.7213C51.7164 27.7213 42.1457 27.7213 41.3801 33.4952C40.6144 39.269 38.5089 78.7236 40.8058 78.7236C43.1028 78.7236 43.4856 75.6442 43.4856 75.6442C43.4856 75.6442 45.0169 76.0292 48.0795 79.1086C51.1421 82.1879 53.0563 82.1879 54.2047 77.5688C55.3532 72.9498 63.0098 37.5369 55.7361 30.9932L54.0133 26.1816Z" fill="#2F2E41"/>
<path d="M65.115 26.1816L67.412 27.7213C67.412 27.7213 76.9827 27.7213 77.7483 33.4952C78.514 39.269 80.6195 78.7236 78.3226 78.7236C76.0256 78.7236 75.6428 75.6442 75.6428 75.6442C75.6428 75.6442 74.1115 76.0292 71.0489 79.1086C67.9863 82.1879 66.0721 82.1879 64.9236 77.5688C63.7752 72.9498 56.1186 37.5369 63.3923 30.9932L65.115 26.1816Z" fill="#2F2E41"/>
<path d="M52.287 19.5834C51.6314 18.8886 51.1961 18.0134 51.0366 17.0692C50.877 16.1249 51.0004 15.1543 51.391 14.2808C51.7816 13.4073 52.4219 12.6703 53.2302 12.1636C54.0386 11.657 54.9785 11.4035 55.9305 11.4355C57.1502 11.4765 58.2995 11.9784 59.4636 12.3467C61.2278 12.9501 63.1099 13.1206 64.9529 12.8437C66.807 12.5543 68.48 11.561 69.6275 10.0684C70.7189 8.56031 71.0592 6.46851 70.2882 4.77216C69.3982 2.81376 67.3191 1.73466 65.3632 0.85788C64.5745 0.460836 63.732 0.182518 62.8628 0.0318492C62.4273 -0.0408679 61.9816 -0.0224047 61.5536 0.0860834C61.1256 0.194571 60.7244 0.390748 60.3753 0.662327C59.8257 1.13764 59.5036 1.85208 58.9055 2.264C58.2322 2.72768 57.3576 2.71551 56.5457 2.79723C54.7167 2.98132 52.9868 3.72093 51.586 4.91767C50.1853 6.11442 49.1801 7.71159 48.7042 9.49676C48.2283 11.2819 48.3041 13.1705 48.9217 14.9112C49.5393 16.652 50.6693 18.1624 52.1615 19.2416" fill="#2F2E41"/>
<path d="M82.3333 82.9364C82.7458 82.5497 83.0691 82.0767 83.2802 81.5508C83.4913 81.0249 83.5851 80.4589 83.5551 79.8926C83.5251 79.3263 83.372 78.7735 83.1066 78.2731C82.8411 77.7728 82.4697 77.337 82.0187 76.9965L81.9149 66.8184L76.6175 67.8287L76.4206 77.9708C75.902 78.7706 75.6932 79.734 75.8338 80.6782C75.9744 81.6225 76.4546 82.4821 77.1834 83.0942C77.9122 83.7063 78.839 84.0283 79.7882 83.9992C80.7373 83.9701 81.6429 83.5919 82.3333 82.9364Z" fill="#FFB8B8"/>
<path d="M45.343 81.1297C45.7556 80.743 46.0788 80.2701 46.2899 79.7442C46.501 79.2183 46.5949 78.6523 46.5649 78.086C46.5349 77.5197 46.3818 76.9669 46.1163 76.4665C45.8509 75.9661 45.4795 75.5304 45.0284 75.1899L44.9247 65.0117L39.6273 66.0221L39.4303 76.1642C38.9117 76.964 38.7029 77.9273 38.8435 78.8716C38.9841 79.8159 39.4643 80.6755 40.1932 81.2876C40.922 81.8996 41.8488 82.2216 42.7979 82.1926C43.7471 82.1635 44.6527 81.7853 45.343 81.1297Z" fill="#FFB8B8"/>
<path d="M76.4083 32.918L77.7856 33.7955C77.7856 33.7955 83.4549 55.6258 83.4906 70.448C83.4906 70.448 76.0254 74.1047 74.8769 71.4103C73.7285 68.7158 76.4083 32.918 76.4083 32.918Z" fill="#2F2E41"/>
<path d="M42.7193 32.918L41.342 33.7955C41.342 33.7955 36.4085 55.6258 37.7426 70.2555C37.7426 70.2555 45.5905 73.9123 46.739 71.2178C47.8875 68.5233 42.7193 32.918 42.7193 32.918Z" fill="#2F2E41"/>
</g>
<defs>
<clipPath id="clip0_230_9902">
<rect width="266" height="142" fill="white"/>
</clipPath>
</defs>
</svg>
