<svg width="664" height="291" viewBox="0 0 664 291" fill="none" xmlns="http://www.w3.org/2000/svg">
<path d="M381.688 113.937V125.896H395.771V131.354H381.688V143.833H397.521V149.292H375V108.479H397.521V113.937H381.688Z" fill="#4168B7"/>
<path d="M412.42 143.896H426.212V149.292H405.732V108.542H412.42V143.896Z" fill="#4168B7"/>
<path d="M450.355 149.708C446.564 149.708 443.074 148.823 439.897 147.042C436.715 145.266 434.194 142.786 432.335 139.604C430.47 136.411 429.543 132.823 429.543 128.833C429.543 124.833 430.47 121.25 432.335 118.083C434.194 114.917 436.715 112.448 439.897 110.667C443.074 108.891 446.564 108 450.355 108C454.189 108 457.694 108.891 460.876 110.667C464.069 112.448 466.585 114.917 468.418 118.083C470.262 121.25 471.189 124.833 471.189 128.833C471.189 132.823 470.262 136.411 468.418 139.604C466.585 142.786 464.069 145.266 460.876 147.042C457.694 148.823 454.189 149.708 450.355 149.708ZM450.355 143.896C453.064 143.896 455.47 143.286 457.585 142.062C459.694 140.828 461.34 139.062 462.522 136.771C463.715 134.479 464.314 131.833 464.314 128.833C464.314 125.823 463.715 123.182 462.522 120.917C461.34 118.641 459.694 116.896 457.585 115.688C455.47 114.479 453.064 113.875 450.355 113.875C447.658 113.875 445.257 114.479 443.147 115.688C441.033 116.896 439.382 118.641 438.189 120.917C437.007 123.182 436.418 125.823 436.418 128.833C436.418 131.833 437.007 134.479 438.189 136.771C439.382 139.062 441.033 140.828 443.147 142.062C445.257 143.286 447.658 143.896 450.355 143.896Z" fill="#4168B7"/>
<path d="M509.317 156.688L502.15 148.938C500.385 149.448 498.447 149.708 496.338 149.708C492.546 149.708 489.057 148.823 485.88 147.042C482.697 145.266 480.176 142.786 478.317 139.604C476.452 136.411 475.525 132.823 475.525 128.833C475.525 124.833 476.452 121.25 478.317 118.083C480.176 114.917 482.697 112.448 485.88 110.667C489.057 108.891 492.546 108 496.338 108C500.171 108 503.676 108.891 506.859 110.667C510.051 112.448 512.567 114.917 514.4 118.083C516.244 121.25 517.171 124.833 517.171 128.833C517.171 132.583 516.359 135.974 514.734 139C513.109 142.031 510.869 144.458 508.025 146.292L517.817 156.688H509.317ZM482.4 128.833C482.4 131.833 482.989 134.479 484.171 136.771C485.364 139.062 487.015 140.828 489.13 142.062C491.239 143.286 493.64 143.896 496.338 143.896C499.046 143.896 501.452 143.286 503.567 142.062C505.676 140.828 507.322 139.062 508.505 136.771C509.697 134.479 510.296 131.833 510.296 128.833C510.296 125.823 509.697 123.182 508.505 120.917C507.322 118.641 505.676 116.896 503.567 115.688C501.452 114.479 499.046 113.875 496.338 113.875C493.64 113.875 491.239 114.479 489.13 115.688C487.015 116.896 485.364 118.641 484.171 120.917C482.989 123.182 482.4 125.823 482.4 128.833Z" fill="#4168B7"/>
<path d="M530.537 108.542V134.521C530.537 137.604 531.35 139.932 532.975 141.5C534.6 143.057 536.855 143.833 539.745 143.833C542.673 143.833 544.954 143.057 546.579 141.5C548.204 139.932 549.016 137.604 549.016 134.521V108.542H555.704V134.396C555.704 137.719 554.98 140.531 553.537 142.833C552.089 145.14 550.152 146.864 547.725 148C545.292 149.14 542.61 149.708 539.683 149.708C536.751 149.708 534.084 149.14 531.683 148C529.277 146.864 527.37 145.14 525.954 142.833C524.548 140.531 523.85 137.719 523.85 134.396V108.542H530.537Z" fill="#4168B7"/>
<path d="M571.068 113.937V125.896H585.152V131.354H571.068V143.833H586.902V149.292H564.381V108.479H586.902V113.937H571.068Z" fill="#4168B7"/>
<path d="M628.592 149.292H621.926L601.801 118.854V149.292H595.113V108.479H601.801L621.926 138.854V108.479H628.592V149.292Z" fill="#4168B7"/>
<path d="M663.732 108.542V113.979H652.878V149.292H646.191V113.979H635.295V108.542H663.732Z" fill="#4168B7"/>
<path d="M403.771 165.813V170.667H410.292V173.751H403.771V178.876H411.126V182.042H399.896V162.667H411.126V165.813H403.771Z" fill="#4168B7"/>
<path d="M439.02 182.043L434.832 175.522L431.04 182.043H426.665L432.749 172.272L426.582 162.688H431.04L435.228 169.168L438.999 162.688H443.374L437.311 172.418L443.478 182.043H439.02Z" fill="#4168B7"/>
<path d="M458.309 172.334C458.309 170.433 458.73 168.73 459.579 167.23C460.439 165.72 461.611 164.543 463.1 163.709C464.6 162.866 466.272 162.438 468.121 162.438C470.272 162.438 472.163 162.996 473.788 164.105C475.423 165.22 476.564 166.751 477.204 168.709H472.746C472.298 167.782 471.673 167.084 470.871 166.626C470.064 166.168 469.132 165.938 468.079 165.938C466.954 165.938 465.954 166.204 465.079 166.73C464.204 167.261 463.517 168.001 463.017 168.959C462.527 169.918 462.288 171.043 462.288 172.334C462.288 173.616 462.527 174.741 463.017 175.709C463.517 176.683 464.204 177.433 465.079 177.959C465.954 178.491 466.954 178.751 468.079 178.751C469.132 178.751 470.064 178.517 470.871 178.043C471.673 177.574 472.298 176.871 472.746 175.938H477.204C476.564 177.928 475.434 179.47 473.809 180.563C472.194 181.662 470.298 182.209 468.121 182.209C466.272 182.209 464.6 181.793 463.1 180.959C461.611 180.116 460.439 178.938 459.579 177.438C458.73 175.938 458.309 174.241 458.309 172.334Z" fill="#4168B7"/>
<path d="M509.372 162.688V182.043H505.497V173.813H497.205V182.043H493.33V162.688H497.205V170.647H505.497V162.688H509.372Z" fill="#4168B7"/>
<path d="M537.873 178.355H530.144L528.873 182.042H524.811L531.769 162.667H536.29L543.248 182.042H539.144L537.873 178.355ZM536.811 175.251L533.998 167.147L531.206 175.251H536.811Z" fill="#4168B7"/>
<path d="M575.182 182.042H571.307L562.516 168.751V182.042H558.641V162.667H562.516L571.307 175.98V162.667H575.182V182.042Z" fill="#4168B7"/>
<path d="M605.288 168.501C604.84 167.699 604.23 167.084 603.454 166.668C602.673 166.241 601.767 166.022 600.725 166.022C599.585 166.022 598.569 166.282 597.684 166.793C596.793 167.308 596.1 168.053 595.6 169.022C595.1 169.98 594.85 171.084 594.85 172.334C594.85 173.626 595.1 174.761 595.6 175.73C596.111 176.688 596.819 177.428 597.725 177.938C598.642 178.454 599.694 178.709 600.892 178.709C602.376 178.709 603.59 178.324 604.538 177.543C605.48 176.751 606.1 175.657 606.392 174.251H599.746V171.293H610.225V174.668C609.96 176.017 609.402 177.267 608.559 178.418C607.71 179.558 606.611 180.475 605.267 181.168C603.934 181.866 602.434 182.209 600.767 182.209C598.892 182.209 597.194 181.793 595.684 180.959C594.184 180.116 593.001 178.938 592.142 177.438C591.293 175.938 590.871 174.241 590.871 172.334C590.871 170.433 591.293 168.73 592.142 167.23C593.001 165.72 594.184 164.543 595.684 163.709C597.194 162.866 598.876 162.438 600.725 162.438C602.902 162.438 604.798 162.975 606.413 164.043C608.022 165.1 609.132 166.584 609.746 168.501H605.288Z" fill="#4168B7"/>
<path d="M629.768 165.813V170.667H636.288V173.751H629.768V178.876H637.122V182.042H625.893V162.667H637.122V165.813H629.768Z" fill="#4168B7"/>
<mask id="mask0_5_237" style="mask-type:luminance" maskUnits="userSpaceOnUse" x="0" y="0" width="288" height="291">
<path d="M0 0H287.865V291H0V0Z" fill="white"/>
</mask>
<g mask="url(#mask0_5_237)">
<path d="M190.541 228.083C156.63 209.594 144.13 167.125 162.63 133.224C163.864 130.963 165.208 128.797 166.65 126.724C157.822 148.12 160.4 171.927 172.187 190.63C167.281 172.13 174.989 147.849 205.088 142.245C236.031 136.489 271.572 154.687 264.041 172.364C264.041 172.364 315.989 139.609 261.999 115.349C254.744 112.088 247.468 109.167 239.515 108.989C227.041 108.703 224.353 99.9373 207.39 93.9113C207.39 93.9113 234.385 91.9321 248.062 108.573C270.494 89.1561 222.385 53.3175 191.057 45.8123C165.76 39.755 143.968 40.6925 131.838 40.2655C125.182 40.0311 121.572 37.5623 121.572 37.5623C124.598 52.1613 146.77 57.9165 146.77 57.9165C78.7493 61.0207 58.1347 127.469 58.1347 127.469C66.0566 117.557 87.8952 109.724 87.8952 109.724C64.2233 136.177 52.4004 162.635 46.6451 184.432C42.692 172.161 40.5462 159.078 40.5462 145.489C40.5462 75.479 97.7806 18.3905 167.822 18.5363C212.015 18.63 250.9 41.2863 273.577 75.5884C248.843 30.5363 200.942 -0.00537109 145.895 -0.00537109C65.4733 -0.00537109 0.00973088 65.7186 0.343064 146.109C0.598272 207.875 39.3639 260.552 93.8795 281.411C71.2545 240.463 70.2858 192.015 88.8327 151.078C74.9629 189.875 80.2181 234.672 106.807 270.094C112.213 277.292 118.234 283.745 124.744 289.453C131.65 290.458 138.713 290.984 145.895 290.984C159.135 290.984 171.958 289.213 184.145 285.906C160.161 260.292 146.359 226.838 144.952 192.172C149.281 227.323 168.223 260.094 198.65 281.13C230.13 268.885 256.286 246.021 272.723 216.927C251.312 237.677 218.093 243.109 190.541 228.083Z" fill="#4168B7"/>
</g>
</svg>
