<svg width="249" height="74" viewBox="0 0 249 74" fill="none" xmlns="http://www.w3.org/2000/svg">
<mask id="mask0_228_11522" style="mask-type:luminance" maskUnits="userSpaceOnUse" x="0" y="0" width="74" height="74">
<path d="M0 0H73.2027V74H0V0Z" fill="white"/>
</mask>
<g mask="url(#mask0_228_11522)">
<path d="M48.4537 58C39.8302 53.2981 36.6515 42.4985 41.356 33.8776C41.6699 33.3028 42.0116 32.7518 42.3784 32.2247C40.1335 37.6656 40.7891 43.7197 43.7863 48.4758C42.5387 43.7713 44.4989 37.5967 52.1529 36.1716C60.0215 34.7081 69.0596 39.3357 67.1444 43.8309C67.1444 43.8309 80.3546 35.5014 66.6252 29.3321C64.7803 28.503 62.93 27.76 60.9076 27.7149C57.7355 27.6421 57.0521 25.413 52.7383 23.8806C52.7383 23.8806 59.603 23.3773 63.081 27.609C68.7854 22.6714 56.5514 13.5578 48.5848 11.6493C42.152 10.1089 36.6104 10.3473 33.5258 10.2387C31.8331 10.1791 30.9153 9.55135 30.9153 9.55135C31.6848 13.2638 37.323 14.7273 37.323 14.7273C20.0256 15.5167 14.7834 32.4141 14.7834 32.4141C16.7979 29.8937 22.3513 27.9017 22.3513 27.9017C16.3317 34.6286 13.3252 41.3568 11.8616 46.8997C10.8564 43.7793 10.3107 40.4522 10.3107 36.9967C10.3107 19.1934 24.8652 4.67603 42.6764 4.71311C53.9144 4.73695 63.8028 10.4983 69.5695 19.2212C63.2797 7.76466 51.0987 -0.00195312 37.1005 -0.00195312C16.6496 -0.00195312 0.00247117 16.7114 0.0872363 37.1543C0.152135 52.8611 10.0101 66.2566 23.8731 71.5611C18.1197 61.1482 17.8734 48.8281 22.5897 38.4179C19.0627 48.2837 20.3991 59.6754 27.1604 68.683C28.5352 70.5134 30.0663 72.1544 31.7219 73.606C33.4781 73.8616 35.2741 73.9954 37.1005 73.9954C40.4672 73.9954 43.7281 73.5451 46.8273 72.7041C40.7282 66.1904 37.2184 57.6834 36.8608 48.8678C37.9614 57.8066 42.7784 66.1401 50.5159 71.4895C58.5209 68.3757 65.1723 62.5614 69.3523 55.163C63.9075 60.4396 55.4601 61.821 48.4537 58Z" fill="#4168B7"/>
</g>
<path d="M96.8078 20.1999V26.6457H104.399V29.5878H96.8078V36.3143H105.342V39.2564H93.2031V17.2578H105.342V20.1999H96.8078Z" fill="#4168B7"/>
<path d="M113.373 36.3475H120.807V39.2559H109.769V17.291H113.373V36.3475Z" fill="#4168B7"/>
<path d="M133.822 39.4815C131.778 39.4815 129.897 39.0042 128.185 38.0441C126.469 37.0868 125.111 35.7505 124.108 34.0352C123.103 32.3142 122.604 30.38 122.604 28.2295C122.604 26.0734 123.103 24.142 124.108 22.4351C125.111 20.7282 126.469 19.3975 128.185 18.4374C129.897 17.4801 131.778 17 133.822 17C135.888 17 137.777 17.4801 139.493 18.4374C141.214 19.3975 142.57 20.7282 143.558 22.4351C144.552 24.142 145.051 26.0734 145.051 28.2295C145.051 30.38 144.552 32.3142 143.558 34.0352C142.57 35.7505 141.214 37.0868 139.493 38.0441C137.777 39.0042 135.888 39.4815 133.822 39.4815ZM133.822 36.3484C135.282 36.3484 136.579 36.02 137.718 35.3602C138.855 34.6949 139.743 33.7432 140.38 32.508C141.023 31.2727 141.346 29.8466 141.346 28.2295C141.346 26.6068 141.023 25.1835 140.38 23.9623C139.743 22.7355 138.855 21.795 137.718 21.1437C136.579 20.4924 135.282 20.1667 133.822 20.1667C132.368 20.1667 131.073 20.4924 129.936 21.1437C128.797 21.795 127.907 22.7355 127.264 23.9623C126.626 25.1835 126.309 26.6068 126.309 28.2295C126.309 29.8466 126.626 31.2727 127.264 32.508C127.907 33.7432 128.797 34.6949 129.936 35.3602C131.073 36.02 132.368 36.3484 133.822 36.3484Z" fill="#4168B7"/>
<path d="M165.602 43.2434L161.739 39.066C160.787 39.3411 159.743 39.4815 158.606 39.4815C156.562 39.4815 154.681 39.0042 152.969 38.0441C151.253 37.0868 149.895 35.7505 148.892 34.0352C147.887 32.3142 147.388 30.38 147.388 28.2295C147.388 26.0734 147.887 24.142 148.892 22.4351C149.895 20.7282 151.253 19.3975 152.969 18.4374C154.681 17.4801 156.562 17 158.606 17C160.672 17 162.562 17.4801 164.277 18.4374C165.998 19.3975 167.354 20.7282 168.342 22.4351C169.336 24.142 169.835 26.0734 169.835 28.2295C169.835 30.2508 169.398 32.0784 168.522 33.7095C167.646 35.3434 166.439 36.6516 164.906 37.6398L170.184 43.2434H165.602ZM151.093 28.2295C151.093 29.8466 151.411 31.2727 152.048 32.5079C152.691 33.7432 153.581 34.6949 154.721 35.3602C155.858 36.02 157.152 36.3484 158.606 36.3484C160.066 36.3484 161.363 36.02 162.503 35.3602C163.64 34.6949 164.527 33.7432 165.164 32.5079C165.807 31.2727 166.13 29.8466 166.13 28.2295C166.13 26.6068 165.807 25.1835 165.164 23.9623C164.527 22.7355 163.64 21.795 162.503 21.1437C161.363 20.4924 160.066 20.1667 158.606 20.1667C157.152 20.1667 155.858 20.4924 154.721 21.1437C153.581 21.795 152.691 22.7355 152.048 23.9623C151.411 25.1835 151.093 26.6068 151.093 28.2295Z" fill="#4168B7"/>
<path d="M177.04 17.291V31.2942C177.04 32.9562 177.478 34.2111 178.354 35.0561C179.23 35.8955 180.446 36.3138 182.004 36.3138C183.581 36.3138 184.811 35.8955 185.687 35.0561C186.563 34.2111 187.001 32.9562 187.001 31.2942V17.291H190.605V31.2268C190.605 33.0179 190.215 34.5339 189.438 35.7748C188.657 37.0185 187.613 37.9477 186.305 38.5597C184.994 39.1745 183.548 39.4805 181.97 39.4805C180.389 39.4805 178.952 39.1745 177.658 38.5597C176.361 37.9477 175.333 37.0185 174.57 35.7748C173.812 34.5339 173.436 33.0179 173.436 31.2268V17.291H177.04Z" fill="#4168B7"/>
<path d="M198.887 20.1999V26.6457H206.478V29.5878H198.887V36.3143H207.421V39.2564H195.282V17.2578H207.421V20.1999H198.887Z" fill="#4168B7"/>
<path d="M229.893 39.2564H226.3L215.452 22.8501V39.2564H211.848V17.2578H215.452L226.3 33.6304V17.2578H229.893V39.2564Z" fill="#4168B7"/>
<path d="M248.835 17.291V20.2219H242.985V39.2559H239.38V20.2219H233.507V17.291H248.835Z" fill="#4168B7"/>
<path d="M108.711 48.1625V50.7789H112.226V52.4409H108.711V55.2034H112.675V56.9102H106.622V46.4668H112.675V48.1625H108.711Z" fill="#4168B7"/>
<path d="M127.711 56.9107L125.454 53.3959L123.41 56.9107H121.052L124.331 51.6441L121.007 46.4785H123.41L125.667 49.9709L127.7 46.4785H130.058L126.79 51.7227L130.114 56.9107H127.711Z" fill="#4168B7"/>
<path d="M138.107 51.6778C138.107 50.6531 138.335 49.7351 138.792 48.9265C139.256 48.1124 139.887 47.4779 140.69 47.0287C141.499 46.574 142.4 46.3438 143.397 46.3438C144.556 46.3438 145.575 46.6441 146.451 47.2421C147.332 47.8429 147.947 48.6683 148.293 49.7238H145.889C145.648 49.2241 145.311 48.8479 144.879 48.6009C144.444 48.3538 143.941 48.2303 143.374 48.2303C142.768 48.2303 142.229 48.3735 141.757 48.657C141.285 48.9434 140.915 49.342 140.645 49.8586C140.381 50.3751 140.252 50.9815 140.252 51.6778C140.252 52.3684 140.381 52.9748 140.645 53.4969C140.915 54.0219 141.285 54.4262 141.757 54.7097C142.229 54.9961 142.768 55.1365 143.374 55.1365C143.941 55.1365 144.444 55.0101 144.879 54.7547C145.311 54.502 145.648 54.123 145.889 53.6205H148.293C147.947 54.6929 147.338 55.5239 146.462 56.1134C145.592 56.7058 144.57 57.0006 143.397 57.0006C142.4 57.0006 141.499 56.776 140.69 56.3268C139.887 55.872 139.256 55.2375 138.792 54.429C138.335 53.6205 138.107 52.7053 138.107 51.6778Z" fill="#4168B7"/>
<path d="M165.631 46.4785V56.9107H163.542V52.4751H159.073V56.9107H156.984V46.4785H159.073V50.7682H163.542V46.4785H165.631Z" fill="#4168B7"/>
<path d="M180.995 54.9226H176.829L176.144 56.9102H173.954L177.705 46.4668H180.142L183.892 56.9102H181.68L180.995 54.9226ZM180.422 53.2494L178.906 48.8811L177.402 53.2494H180.422Z" fill="#4168B7"/>
<path d="M201.105 56.9102H199.016L194.277 49.7458V56.9102H192.188V46.4668H194.277L199.016 53.6425V46.4668H201.105V56.9102Z" fill="#4168B7"/>
<path d="M217.332 49.6115C217.091 49.1792 216.762 48.8479 216.344 48.6233C215.923 48.3931 215.435 48.2752 214.873 48.2752C214.258 48.2752 213.711 48.4156 213.234 48.6907C212.754 48.9686 212.38 49.3701 212.111 49.8923C211.841 50.4088 211.706 51.004 211.706 51.6778C211.706 52.374 211.841 52.986 212.111 53.5082C212.386 54.0247 212.768 54.4234 213.256 54.6985C213.75 54.9764 214.317 55.114 214.963 55.114C215.763 55.114 216.417 54.9062 216.928 54.4851C217.436 54.0584 217.77 53.4689 217.928 52.7109H214.345V51.1163H219.994V52.9355C219.851 53.6626 219.55 54.3364 219.095 54.9568C218.638 55.5716 218.045 56.0657 217.321 56.4391C216.602 56.8153 215.794 57.0006 214.896 57.0006C213.885 57.0006 212.97 56.776 212.156 56.3268C211.347 55.872 210.71 55.2375 210.247 54.429C209.789 53.6205 209.562 52.7053 209.562 51.6778C209.562 50.6531 209.789 49.7351 210.247 48.9265C210.71 48.1124 211.347 47.4779 212.156 47.0287C212.97 46.574 213.876 46.3438 214.873 46.3438C216.047 46.3438 217.068 46.6329 217.939 47.2084C218.806 47.7783 219.404 48.5784 219.735 49.6115H217.332Z" fill="#4168B7"/>
<path d="M230.526 48.1625V50.7789H234.041V52.4409H230.526V55.2034H234.49V56.9102H228.438V46.4668H234.49V48.1625H230.526Z" fill="#4168B7"/>
</svg>
