<svg width="98" height="30" viewBox="0 0 98 30" fill="none" xmlns="http://www.w3.org/2000/svg">
<mask id="mask0_256_10142" style="mask-type:luminance" maskUnits="userSpaceOnUse" x="0" y="0" width="29" height="30">
<path d="M0 0.291016H28.8299V29.8778H0V0.291016Z" fill="white"/>
</mask>
<g mask="url(#mask0_256_10142)">
<path d="M19.0829 23.4814C15.6866 21.6015 14.4348 17.2836 16.2875 13.8368C16.4112 13.607 16.5457 13.3867 16.6902 13.1759C15.8061 15.3513 16.0643 17.7718 17.2447 19.6734C16.7533 17.7925 17.5253 15.3238 20.5398 14.754C23.6387 14.1688 27.1982 16.019 26.444 17.8163C26.444 17.8163 31.6466 14.486 26.2395 12.0194C25.5129 11.6879 24.7842 11.3908 23.9877 11.3728C22.7384 11.3437 22.4692 10.4525 20.7703 9.83978C20.7703 9.83978 23.4739 9.63855 24.8437 11.3304C27.0903 9.3563 22.2721 5.7125 19.1345 4.94943C16.601 4.33357 14.4186 4.42888 13.2037 4.38546C12.5371 4.36163 12.1756 4.11063 12.1756 4.11063C12.4787 5.59494 14.6992 6.18009 14.6992 6.18009C7.88688 6.4957 5.82231 13.2516 5.82231 13.2516C6.61569 12.2439 8.80284 11.4475 8.80284 11.4475C6.43208 14.137 5.24801 16.8271 4.67162 19.0433C4.27571 17.7957 4.0608 16.4655 4.0608 15.0839C4.0608 7.96572 9.79287 2.16137 16.8076 2.1762C21.2335 2.18573 25.1279 4.48925 27.3991 7.97684C24.9219 3.39627 20.1246 0.291016 14.6116 0.291016C6.55727 0.291016 0.0010451 6.97335 0.0344287 15.1469C0.059988 21.4268 3.9424 26.7826 9.40218 28.9034C7.13627 24.7401 7.03925 19.8143 8.89673 15.6521C7.50766 19.5967 8.03397 24.1513 10.6968 27.7527C11.2383 28.4845 11.8413 29.1406 12.4933 29.721C13.185 29.8232 13.8923 29.8767 14.6116 29.8767C15.9375 29.8767 17.2218 29.6967 18.4423 29.3604C16.0403 26.7561 14.658 23.3548 14.5172 19.8302C14.9506 23.4041 16.8478 26.736 19.8951 28.8748C23.0477 27.6299 25.6673 25.3052 27.3135 22.3471C25.1691 24.4568 21.8423 25.0091 19.0829 23.4814Z" fill="#4168B7"/>
</g>
<path d="M38.1264 8.36969V10.9468H41.1161V12.1232H38.1264V14.8125H41.4876V15.9889H36.7068V7.19336H41.4876V8.36969H38.1264Z" fill="#4168B7"/>
<path d="M44.6505 14.8243H47.5782V15.9871H43.2308V7.20508H44.6505V14.8243Z" fill="#4168B7"/>
<path d="M52.7037 16.0765C51.8988 16.0765 51.158 15.8856 50.4835 15.5018C49.808 15.119 49.2729 14.5847 48.8781 13.8989C48.4823 13.2108 48.2855 12.4375 48.2855 11.5777C48.2855 10.7156 48.4823 9.9434 48.8781 9.26095C49.2729 8.5785 49.808 8.04646 50.4835 7.66258C51.158 7.27983 51.8988 7.08789 52.7037 7.08789C53.5174 7.08789 54.2615 7.27983 54.9371 7.66258C55.6149 8.04646 56.1489 8.5785 56.5381 9.26095C56.9295 9.9434 57.1263 10.7156 57.1263 11.5777C57.1263 12.4375 56.9295 13.2108 56.5381 13.8989C56.1489 14.5847 55.6149 15.119 54.9371 15.5018C54.2615 15.8856 53.5174 16.0765 52.7037 16.0765ZM52.7037 14.8238C53.2786 14.8238 53.7894 14.6925 54.2383 14.4287C54.6861 14.1627 55.0355 13.7822 55.2865 13.2883C55.5397 12.7944 55.6668 12.2242 55.6668 11.5777C55.6668 10.9289 55.5397 10.3598 55.2865 9.87156C55.0355 9.38105 54.6861 9.00503 54.2383 8.74462C53.7894 8.48422 53.2786 8.35401 52.7037 8.35401C52.131 8.35401 51.6213 8.48422 51.1735 8.74462C50.7246 9.00503 50.3741 9.38105 50.1209 9.87156C49.8699 10.3598 49.745 10.9289 49.745 11.5777C49.745 12.2242 49.8699 12.7944 50.1209 13.2883C50.3741 13.7822 50.7246 14.1627 51.1735 14.4287C51.6213 14.6925 52.131 14.8238 52.7037 14.8238Z" fill="#4168B7"/>
<path d="M65.2201 17.5805L63.6987 15.9103C63.3239 16.0203 62.9126 16.0765 62.4648 16.0765C61.6599 16.0765 60.9191 15.8856 60.2447 15.5018C59.5691 15.119 59.034 14.5847 58.6393 13.8989C58.2434 13.2108 58.0466 12.4375 58.0466 11.5777C58.0466 10.7156 58.2434 9.9434 58.6393 9.26095C59.034 8.5785 59.5691 8.04646 60.2447 7.66258C60.9191 7.27983 61.6599 7.08789 62.4648 7.08789C63.2786 7.08789 64.0227 7.27983 64.6982 7.66258C65.376 8.04646 65.91 8.5785 66.2992 9.26095C66.6906 9.9434 66.8874 10.7156 66.8874 11.5777C66.8874 12.3858 66.7149 13.1166 66.3699 13.7687C66.025 14.422 65.5495 14.945 64.9459 15.3401L67.0245 17.5805H65.2201ZM59.5061 11.5777C59.5061 12.2242 59.631 12.7944 59.882 13.2883C60.1352 13.7822 60.4857 14.1627 60.9346 14.4287C61.3824 14.6925 61.8921 14.8238 62.4648 14.8238C63.0397 14.8238 63.5505 14.6925 63.9994 14.4287C64.4472 14.1627 64.7966 13.7822 65.0476 13.2883C65.3008 12.7944 65.4279 12.2242 65.4279 11.5777C65.4279 10.9289 65.3008 10.3598 65.0476 9.87156C64.7966 9.38105 64.4472 9.00503 63.9994 8.74462C63.5505 8.48422 63.0397 8.35401 62.4648 8.35401C61.8921 8.35401 61.3824 8.48422 60.9346 8.74462C60.4857 9.00503 60.1352 9.38105 59.882 9.87156C59.631 10.3598 59.5061 10.9289 59.5061 11.5777Z" fill="#4168B7"/>
<path d="M69.7247 7.20508V12.8039C69.7247 13.4683 69.8972 13.9701 70.2421 14.3079C70.5871 14.6435 71.0659 14.8108 71.6795 14.8108C72.3009 14.8108 72.7851 14.6435 73.1301 14.3079C73.4751 13.9701 73.6475 13.4683 73.6475 12.8039V7.20508H75.0672V12.7769C75.0672 13.493 74.9135 14.0992 74.6072 14.5953C74.2999 15.0925 73.8886 15.4641 73.3733 15.7087C72.857 15.9546 72.2876 16.0769 71.6662 16.0769C71.0437 16.0769 70.4776 15.9546 69.9679 15.7087C69.4571 15.4641 69.0525 15.0925 68.7517 14.5953C68.4532 14.0992 68.3051 13.493 68.3051 12.7769V7.20508H69.7247Z" fill="#4168B7"/>
<path d="M78.329 8.36969V10.9468H81.3186V12.1232H78.329V14.8125H81.6901V15.9889H76.9093V7.19336H81.6901V8.36969H78.329Z" fill="#4168B7"/>
<path d="M90.5402 15.9889H89.125L84.8528 9.42928V15.9889H83.4331V7.19336H84.8528L89.125 13.7395V7.19336H90.5402V15.9889Z" fill="#4168B7"/>
<path d="M98.0001 7.20508V8.37691H95.6959V15.9871H94.2763V8.37691H91.9633V7.20508H98.0001Z" fill="#4168B7"/>
<path d="M42.8143 19.5451V20.5913H44.1986V21.2558H42.8143V22.3602H44.3755V23.0427H41.9917V18.8672H44.3755V19.5451H42.8143Z" fill="#4168B7"/>
<path d="M50.2969 23.046L49.408 21.6407L48.603 23.046H47.6743L48.9657 20.9403L47.6566 18.875H48.603L49.492 20.2713L50.2925 18.875H51.2212L49.9342 20.9717L51.2433 23.046H50.2969Z" fill="#4168B7"/>
<path d="M54.3917 20.953C54.3917 20.5433 54.4813 20.1762 54.6615 19.853C54.8439 19.5275 55.0927 19.2738 55.4089 19.0942C55.7273 18.9124 56.0823 18.8203 56.4748 18.8203C56.9314 18.8203 57.3327 18.9404 57.6777 19.1795C58.0249 19.4197 58.267 19.7497 58.403 20.1717H57.4566C57.3615 19.9719 57.2288 19.8215 57.0585 19.7228C56.8872 19.624 56.6893 19.5746 56.4659 19.5746C56.2271 19.5746 56.0148 19.6318 55.8291 19.7452C55.6433 19.8597 55.4974 20.0191 55.3912 20.2256C55.2873 20.4321 55.2364 20.6746 55.2364 20.953C55.2364 21.2291 55.2873 21.4715 55.3912 21.6803C55.4974 21.8902 55.6433 22.0518 55.8291 22.1652C56.0148 22.2797 56.2271 22.3358 56.4659 22.3358C56.6893 22.3358 56.8872 22.2853 57.0585 22.1832C57.2288 22.0821 57.3615 21.9306 57.4566 21.7297H58.403C58.267 22.1585 58.0271 22.4907 57.6821 22.7264C57.3394 22.9633 56.9369 23.0811 56.4748 23.0811C56.0823 23.0811 55.7273 22.9913 55.4089 22.8117C55.0927 22.6299 54.8439 22.3762 54.6615 22.053C54.4813 21.7297 54.3917 21.3638 54.3917 20.953Z" fill="#4168B7"/>
<path d="M65.2317 18.875V23.046H64.4091V21.2725H62.6489V23.046H61.8263V18.875H62.6489V20.5901H64.4091V18.875H65.2317Z" fill="#4168B7"/>
<path d="M71.2821 22.248H69.6413L69.3716 23.0427H68.5092L69.9863 18.8672H70.946L72.4231 23.0427H71.5519L71.2821 22.248ZM71.0566 21.579L70.4595 19.8325L69.8669 21.579H71.0566Z" fill="#4168B7"/>
<path d="M79.2023 23.0427H78.3797L76.5134 20.1782V23.0427H75.6908V18.8672H76.5134L78.3797 21.7362V18.8672H79.2023V23.0427Z" fill="#4168B7"/>
<path d="M85.593 20.1268C85.4979 19.954 85.3686 19.8215 85.2038 19.7317C85.038 19.6397 84.8456 19.5926 84.6245 19.5926C84.3823 19.5926 84.1667 19.6487 83.9788 19.7587C83.7897 19.8698 83.6427 20.0303 83.5365 20.2391C83.4304 20.4456 83.3773 20.6836 83.3773 20.953C83.3773 21.2313 83.4304 21.476 83.5365 21.6848C83.6449 21.8913 83.7952 22.0507 83.9876 22.1607C84.1822 22.2718 84.4056 22.3268 84.6599 22.3268C84.975 22.3268 85.2326 22.2438 85.4338 22.0754C85.6339 21.9048 85.7655 21.6691 85.8274 21.366H84.4166V20.7285H86.6412V21.4558C86.5848 21.7465 86.4665 22.0159 86.2874 22.264C86.1071 22.5098 85.8739 22.7074 85.5886 22.8566C85.3056 23.007 84.9871 23.0811 84.6333 23.0811C84.2353 23.0811 83.8748 22.9913 83.5542 22.8117C83.2358 22.6299 82.9848 22.3762 82.8024 22.053C82.6222 21.7297 82.5326 21.3638 82.5326 20.953C82.5326 20.5433 82.6222 20.1762 82.8024 19.853C82.9848 19.5275 83.2358 19.2738 83.5542 19.0942C83.8748 18.9124 84.232 18.8203 84.6245 18.8203C85.0866 18.8203 85.4891 18.9359 85.8318 19.166C86.1735 19.3939 86.409 19.7138 86.5395 20.1268H85.593Z" fill="#4168B7"/>
<path d="M90.7896 19.5451V20.5913H92.1739V21.2558H90.7896V22.3602H92.3508V23.0427H89.967V18.8672H92.3508V19.5451H90.7896Z" fill="#4168B7"/>
</svg>
