<svg width="98" height="31" viewBox="0 0 98 31" fill="none" xmlns="http://www.w3.org/2000/svg">
<mask id="mask0_256_10249" style="mask-type:luminance" maskUnits="userSpaceOnUse" x="0" y="0" width="29" height="31">
<path d="M0 0.601562H28.8299V30.6379H0V0.601562Z" fill="white"/>
</mask>
<g mask="url(#mask0_256_10249)">
<path d="M19.083 24.1444C15.6868 22.2359 14.4349 17.8524 16.2877 14.3532C16.4113 14.1199 16.5459 13.8962 16.6904 13.6823C15.8062 15.8907 16.0644 18.348 17.2448 20.2785C16.7535 18.369 17.5255 15.8627 20.5399 15.2843C23.6388 14.6903 27.1984 16.5686 26.4441 18.3932C26.4441 18.3932 31.6467 15.0123 26.2396 12.5082C25.513 12.1716 24.7843 11.87 23.9878 11.8518C22.7385 11.8222 22.4694 10.9174 20.7705 10.2954C20.7705 10.2954 23.474 10.0911 24.8438 11.8088C27.0904 9.80461 22.2722 6.10544 19.1347 5.33076C16.6012 4.70554 14.4187 4.80231 13.2039 4.75823C12.5372 4.73404 12.1757 4.47922 12.1757 4.47922C12.4788 5.98609 14.6993 6.58013 14.6993 6.58013C7.887 6.90054 5.82243 13.7591 5.82243 13.7591C6.61581 12.7361 8.80296 11.9276 8.80296 11.9276C6.4322 14.658 5.24813 17.389 4.67174 19.6388C4.27583 18.3722 4.06092 17.0218 4.06092 15.6192C4.06092 8.39289 9.79299 2.50034 16.8077 2.51539C21.2337 2.52507 25.1281 4.8636 27.3992 8.40418C24.922 3.75401 20.1247 0.601562 14.6117 0.601562C6.55739 0.601562 0.00116717 7.38544 0.0345508 15.6832C0.06011 22.0585 3.94252 27.4957 9.4023 29.6488C7.13639 25.4222 7.03937 20.4215 8.89685 16.196C7.50778 20.2006 8.03409 24.8244 10.697 28.4806C11.2384 29.2235 11.8414 29.8896 12.4934 30.4788C13.1851 30.5826 13.8924 30.6369 14.6117 30.6369C15.9377 30.6369 17.2219 30.4541 18.4425 30.1127C16.0404 27.4688 14.6581 24.0159 14.5173 20.4377C14.9508 24.0659 16.8479 27.4484 19.8952 29.6197C23.0478 28.3559 25.6674 25.9958 27.3136 22.9928C25.1693 25.1346 21.8424 25.6953 19.083 24.1444Z" fill="#A77700"/>
</g>
<path d="M38.1264 8.80358V11.4199H41.1161V12.6141H38.1264V15.3443H41.4876V16.5385H36.7068V7.60938H41.4876V8.80358H38.1264Z" fill="#A77700"/>
<path d="M44.6504 15.3561H47.5781V16.5366H43.2307V7.62109H44.6504V15.3561Z" fill="#A77700"/>
<path d="M52.7038 16.6271C51.8989 16.6271 51.1581 16.4334 50.4837 16.0437C49.8081 15.6551 49.273 15.1127 48.8783 14.4165C48.4824 13.718 48.2856 12.9328 48.2856 12.06C48.2856 11.1848 48.4824 10.4009 48.8783 9.70804C49.273 9.01522 49.8081 8.47509 50.4837 8.08538C51.1581 7.69681 51.8989 7.50195 52.7038 7.50195C53.5176 7.50195 54.2617 7.69681 54.9372 8.08538C55.615 8.47509 56.149 9.01522 56.5382 9.70804C56.9296 10.4009 57.1264 11.1848 57.1264 12.06C57.1264 12.9328 56.9296 13.718 56.5382 14.4165C56.149 15.1127 55.615 15.6551 54.9372 16.0437C54.2617 16.4334 53.5176 16.6271 52.7038 16.6271ZM52.7038 15.3554C53.2787 15.3554 53.7896 15.2221 54.2384 14.9543C54.6862 14.6843 55.0356 14.298 55.2866 13.7966C55.5398 13.2952 55.6669 12.7163 55.6669 12.06C55.6669 11.4013 55.5398 10.8236 55.2866 10.3279C55.0356 9.82996 54.6862 9.44823 54.2384 9.18386C53.7896 8.9195 53.2787 8.78732 52.7038 8.78732C52.1311 8.78732 51.6214 8.9195 51.1736 9.18386C50.7247 9.44823 50.3742 9.82996 50.121 10.3279C49.87 10.8236 49.7451 11.4013 49.7451 12.06C49.7451 12.7163 49.87 13.2952 50.121 13.7966C50.3742 14.298 50.7247 14.6843 51.1736 14.9543C51.6214 15.2221 52.1311 15.3554 52.7038 15.3554Z" fill="#A77700"/>
<path d="M65.2201 18.1541L63.6987 16.4585C63.3239 16.5701 62.9126 16.6271 62.4648 16.6271C61.6599 16.6271 60.9191 16.4334 60.2447 16.0437C59.5691 15.6551 59.034 15.1127 58.6393 14.4165C58.2434 13.718 58.0466 12.9328 58.0466 12.06C58.0466 11.1848 58.2434 10.4009 58.6393 9.70804C59.034 9.01522 59.5691 8.47509 60.2447 8.08538C60.9191 7.69681 61.6599 7.50195 62.4648 7.50195C63.2786 7.50195 64.0227 7.69681 64.6982 8.08538C65.376 8.47509 65.91 9.01522 66.2992 9.70804C66.6906 10.4009 66.8874 11.1848 66.8874 12.06C66.8874 12.8804 66.7149 13.6222 66.3699 14.2843C66.025 14.9475 65.5495 15.4785 64.9459 15.8796L67.0245 18.1541H65.2201ZM59.5061 12.06C59.5061 12.7163 59.631 13.2952 59.882 13.7966C60.1352 14.298 60.4857 14.6843 60.9346 14.9543C61.3824 15.2221 61.8921 15.3554 62.4648 15.3554C63.0397 15.3554 63.5505 15.2221 63.9994 14.9543C64.4472 14.6843 64.7966 14.298 65.0476 13.7966C65.3008 13.2952 65.4279 12.7163 65.4279 12.06C65.4279 11.4013 65.3008 10.8236 65.0476 10.3279C64.7966 9.82996 64.4472 9.44823 63.9994 9.18386C63.5505 8.9195 63.0397 8.78732 62.4648 8.78732C61.8921 8.78732 61.3824 8.9195 60.9346 9.18386C60.4857 9.44823 60.1352 9.82996 59.882 10.3279C59.631 10.8236 59.5061 11.4013 59.5061 12.06Z" fill="#A77700"/>
<path d="M69.7248 7.62109V13.3049C69.7248 13.9795 69.8973 14.4889 70.2423 14.8319C70.5872 15.1726 71.066 15.3424 71.6796 15.3424C72.301 15.3424 72.7853 15.1726 73.1302 14.8319C73.4752 14.4889 73.6477 13.9795 73.6477 13.3049V7.62109H75.0673V13.2776C75.0673 14.0046 74.9136 14.6199 74.6074 15.1236C74.3 15.6284 73.8887 16.0056 73.3735 16.254C72.8571 16.5035 72.2877 16.6277 71.6663 16.6277C71.0439 16.6277 70.4778 16.5035 69.9681 16.254C69.4573 16.0056 69.0526 15.6284 68.7519 15.1236C68.4533 14.6199 68.3052 14.0046 68.3052 13.2776V7.62109H69.7248Z" fill="#A77700"/>
<path d="M78.3288 8.80358V11.4199H81.3185V12.6141H78.3288V15.3443H81.69V16.5385H76.9092V7.60938H81.69V8.80358H78.3288Z" fill="#A77700"/>
<path d="M90.5402 16.5385H89.125L84.8528 9.87927V16.5385H83.4331V7.60938H84.8528L89.125 14.255V7.60938H90.5402V16.5385Z" fill="#A77700"/>
<path d="M98.0002 7.62109V8.81074H95.696V16.5366H94.2764V8.81074H91.9634V7.62109H98.0002Z" fill="#A77700"/>
<path d="M42.8143 20.1472V21.2093H44.1986V21.8839H42.8143V23.0051H44.3755V23.6979H41.9917V19.459H44.3755V20.1472H42.8143Z" fill="#A77700"/>
<path d="M50.2968 23.7032L49.4078 22.2765L48.6029 23.7032H47.6742L48.9656 21.5654L47.6565 19.4688H48.6029L49.4919 20.8863L50.2924 19.4688H51.2211L49.9341 21.5973L51.2432 23.7032H50.2968Z" fill="#A77700"/>
<path d="M54.3918 21.5772C54.3918 21.1613 54.4814 20.7886 54.6616 20.4605C54.8441 20.13 55.0928 19.8725 55.409 19.6901C55.7275 19.5055 56.0824 19.4121 56.4749 19.4121C56.9315 19.4121 57.3329 19.534 57.6778 19.7768C58.025 20.0206 58.2671 20.3556 58.4031 20.7841H57.4567C57.3616 20.5812 57.2289 20.4285 57.0587 20.3283C56.8873 20.228 56.6894 20.1779 56.466 20.1779C56.2272 20.1779 56.0149 20.236 55.8292 20.3511C55.6434 20.4673 55.4975 20.6291 55.3914 20.8388C55.2874 21.0484 55.2366 21.2946 55.2366 21.5772C55.2366 21.8575 55.2874 22.1036 55.3914 22.3156C55.4975 22.5287 55.6434 22.6927 55.8292 22.8078C56.0149 22.9241 56.2272 22.981 56.466 22.981C56.6894 22.981 56.8873 22.9298 57.0587 22.8261C57.2289 22.7235 57.3616 22.5697 57.4567 22.3657H58.4031C58.2671 22.801 58.0272 23.1383 57.6822 23.3776C57.3395 23.618 56.937 23.7377 56.4749 23.7377C56.0824 23.7377 55.7275 23.6465 55.409 23.4642C55.0928 23.2796 54.8441 23.0221 54.6616 22.6939C54.4814 22.3657 54.3918 21.9942 54.3918 21.5772Z" fill="#A77700"/>
<path d="M65.2316 19.4688V23.7032H64.409V21.9027H62.6488V23.7032H61.8262V19.4688H62.6488V21.2099H64.409V19.4688H65.2316Z" fill="#A77700"/>
<path d="M71.282 22.8912H69.6412L69.3714 23.6979H68.509L69.9862 19.459H70.9459L72.423 23.6979H71.5518L71.282 22.8912ZM71.0564 22.212L70.4594 20.439L69.8668 22.212H71.0564Z" fill="#A77700"/>
<path d="M79.2022 23.6979H78.3796L76.5133 20.7899V23.6979H75.6907V19.459H76.5133L78.3796 22.3716V19.459H79.2022V23.6979Z" fill="#A77700"/>
<path d="M85.5931 20.7385C85.4981 20.563 85.3687 20.4285 85.204 20.3374C85.0381 20.2439 84.8457 20.1961 84.6246 20.1961C84.3825 20.1961 84.1669 20.2531 83.9789 20.3647C83.7898 20.4775 83.6428 20.6405 83.5366 20.8524C83.4305 21.0621 83.3774 21.3037 83.3774 21.5772C83.3774 21.8598 83.4305 22.1082 83.5366 22.3201C83.645 22.5298 83.7954 22.6916 83.9877 22.8033C84.1823 22.9161 84.4057 22.9719 84.66 22.9719C84.9751 22.9719 85.2327 22.8876 85.4339 22.7167C85.6341 22.5435 85.7656 22.3042 85.8275 21.9965H84.4167V21.3493H86.6413V22.0877C86.5849 22.3828 86.4666 22.6563 86.2875 22.9081C86.1073 23.1577 85.874 23.3582 85.5887 23.5098C85.3057 23.6625 84.9873 23.7377 84.6334 23.7377C84.2354 23.7377 83.875 23.6465 83.5543 23.4642C83.2359 23.2796 82.9849 23.0221 82.8025 22.6939C82.6223 22.3657 82.5327 21.9942 82.5327 21.5772C82.5327 21.1613 82.6223 20.7886 82.8025 20.4605C82.9849 20.13 83.2359 19.8725 83.5543 19.6901C83.875 19.5055 84.2321 19.4121 84.6246 19.4121C85.0868 19.4121 85.4892 19.5295 85.832 19.7631C86.1736 19.9944 86.4091 20.3192 86.5396 20.7385H85.5931Z" fill="#A77700"/>
<path d="M90.7896 20.1472V21.2093H92.1739V21.8839H90.7896V23.0051H92.3508V23.6979H89.967V19.459H92.3508V20.1472H90.7896Z" fill="#A77700"/>
</svg>
