<svg width="235" height="285" viewBox="0 0 235 285" fill="none" xmlns="http://www.w3.org/2000/svg">
<mask id="mask0_72_1824" style="mask-type:luminance" maskUnits="userSpaceOnUse" x="120" y="98" width="30" height="30">
<path d="M131.378 98.3994L149.805 109.038L139.166 127.465L120.739 116.826L131.378 98.3994Z" fill="white"/>
</mask>
<g mask="url(#mask0_72_1824)">
<path d="M135.236 119.885C133.741 117.461 134.494 114.309 136.918 112.846C137.079 112.749 137.244 112.661 137.413 112.583C136.065 113.612 135.36 115.215 135.431 116.835C135.793 115.482 137.174 114.229 139.306 114.987C141.497 115.766 143.107 118.232 141.978 119.073C141.978 119.073 146.501 118.919 143.932 115.387C143.587 114.912 143.228 114.458 142.725 114.153C141.937 113.674 142.086 113.02 141.22 112.011C141.22 112.011 143.02 112.884 143.288 114.443C145.433 114.042 143.664 109.995 141.933 108.362C140.535 107.043 139.106 106.297 138.345 105.822C137.928 105.561 137.787 105.271 137.787 105.271C137.447 106.308 138.656 107.492 138.656 107.492C134.188 105.174 130.439 108.62 130.439 108.62C131.308 108.285 132.993 108.596 132.993 108.596C130.51 109.397 128.786 110.635 127.621 111.803C127.817 110.879 128.157 109.972 128.654 109.111C131.214 104.678 136.965 103.178 141.443 105.776C144.268 107.415 145.929 110.287 146.127 113.297C146.191 109.53 144.241 105.826 140.717 103.791C135.569 100.819 128.976 102.562 126.058 107.665C123.816 111.585 124.372 116.354 127.099 119.689C127.148 116.26 128.857 113.156 131.541 111.25C129.235 113.194 127.933 116.225 128.34 119.45C128.423 120.106 128.573 120.737 128.781 121.339C129.186 121.658 129.619 121.952 130.079 122.218C130.926 122.707 131.812 123.069 132.713 123.31C132.114 120.802 132.454 118.173 133.631 115.926C132.623 118.312 132.637 121.087 133.816 123.544C136.279 123.932 138.789 123.45 140.905 122.216C138.776 122.738 136.451 121.855 135.236 119.885Z" fill="#F0F3F1"/>
</g>
<path fill-rule="evenodd" clip-rule="evenodd" d="M92.7842 175.677C93.5069 176.095 94.2574 176.504 94.9699 176.939C98.1149 178.779 96.7208 178.914 92.8874 185.96C88.8858 193.38 91.4992 194.959 85.7557 191.596C87.1777 189.174 89.3778 181.537 92.7842 175.677ZM95.175 197.223C97.8869 191.996 100.885 187.17 103.715 181.942L109.377 184.999C108.381 187.62 104.461 191.397 102.777 193.785C99.1561 198.957 99.4386 199.567 97.9647 198.904C97.3247 198.628 95.7688 197.659 95.175 197.223ZM104.506 202.187L99.9925 199.91C101.813 197.53 103.292 194.764 105.191 192.453C107.09 190.141 108.773 187.917 110.664 185.742L114.921 187.894C111.734 193.128 107.684 196.806 104.506 202.187ZM98.0362 178.874C99.3739 179.529 101.457 180.52 102.168 181.447C102.143 183.078 95.283 194.512 93.777 196.509L90.5426 194.337C92.8199 189.212 95.2247 183.785 98.0362 178.874ZM113.94 206.975L111.084 205.326C114.934 198.618 119.369 195.21 122.073 191.177L125.214 192.779C121.975 197.983 117.382 202.194 113.94 206.975ZM74.2896 163.707L78.6446 166.503L75.7253 175.793C75.0798 177.888 73.4952 183.93 72.8235 185.093L69.1443 183.04L69.402 180.721C70.4463 176.388 72.5283 166.92 74.2896 163.707ZM85.914 171.335L91.566 174.857L84.627 190.498C84.5538 190.503 84.486 190.417 84.4101 190.467L79.3029 188.2C80.043 186.958 81.0717 182.734 82.3569 179.857C83.6726 176.927 84.7828 174.231 85.914 171.335ZM79.8018 167.43C80.6201 167.926 84.2919 169.952 84.5255 170.768C84.938 172.252 80.54 180.806 79.678 183.316C79.1717 184.763 78.8492 186.34 77.9042 187.651L73.9822 185.692C75.2712 183.663 76.828 175.349 77.9451 172.233C78.4921 170.716 79.2873 169.013 79.8018 167.43ZM68.9582 160.77L72.9825 162.999C72.6168 165.749 69.9748 172.849 68.7806 177.401C68.3054 179.242 68.3477 180.512 67.6806 182.359L63.7322 180.08C64.4185 175.634 66.9741 165.265 68.9582 160.77ZM109.809 204.685L105.668 202.74C108.88 197.379 112.646 193.584 116.057 188.409L120.851 190.73C116.181 196.824 115.621 196.289 109.809 204.685ZM81.7128 132.857C82.6431 130.879 86.2348 124.821 87.5521 123.232C90.6534 119.57 94.8891 111.745 100.111 105.876C101.06 104.802 102.304 103.664 103.385 102.525C108.765 96.7475 114.577 91.5248 120.281 85.6756C124.763 81.0478 129.739 78.0456 134.419 74.2139C136.444 72.539 137.547 73.5992 142.717 73.7636C144.509 73.8347 149.918 74.5606 151.666 75.0758C159.29 77.339 165.854 85.1009 166.679 91.57C168.028 102.22 171.387 98.9652 165.909 113.217C161.924 123.538 160.982 131.031 155.431 141.622C152.106 147.952 149.648 154.57 146.996 161.077C144.934 166.114 138.716 175.215 135.272 179.267C132.955 182.019 131.048 185.078 128.962 187.916C127.405 190.002 127.735 191.344 125.299 190.313C123.698 189.624 121.831 188.382 120.21 187.728L111.162 183.209C104.451 179.569 87.4185 169.665 81.9093 165.286C80.5257 164.181 74.0107 159.997 72.3536 159.651C69.8388 159.163 68.004 161.323 71.5435 152.791C74.3251 146.101 78.6187 139.437 81.7128 132.857ZM52.3474 135.645C59.2855 124.727 62.8101 120.698 71.1287 112.151C74.0324 109.198 77.9905 106.454 81.6791 104.705C83.0958 104.043 84.1606 103.623 85.4233 102.942L96.5306 97.463C97.4386 97.0707 99.3632 96.3017 100.354 96.0511C104.683 95.0253 105.693 93.8457 108.091 93.8438C106.609 95.7609 104.757 97.1361 103.088 98.805C98.278 103.595 92.8946 110.64 88.8575 116.371C82.0921 125.931 77.6693 135.505 72.0639 145.336L52.3474 135.645ZM154.087 195.771C154.08 195.743 154.001 195.838 153.981 195.874C144.565 190.485 144.082 190.182 134.161 185.465C135.639 182.864 138.008 180.471 139.728 178.103C145.42 170.32 149.998 162.105 153.099 152.99C154.293 149.496 154.535 150.788 155.286 149.811C155.868 149.089 156.625 146.8 157.107 145.762C160.44 138.85 161.705 136.008 164.206 128.827C165.285 125.736 165.122 123.739 166.521 120.786C168.68 122.949 169.187 126.508 169.591 129.186C170.031 132.049 170.561 134.752 170.317 138.066C169.486 149.925 164.052 175.295 158.852 186.418C158.026 188.174 157.19 189.948 156.458 191.664C156.119 192.455 155.746 193.344 155.288 194.138L154.176 195.657C154.166 195.675 154.067 195.806 154.087 195.771ZM139.059 71.3465C141.149 69.1922 152.711 64.3511 156.736 63.5258L162.184 62.3939C165.561 62.0403 166.004 61.6384 168.099 62.8948C171.619 65.021 173.55 64.4439 174.241 68.5797C174.966 73.064 175.135 71.4692 174.604 76.2156L173.482 84.2639C173.021 86.9354 172.712 89.9534 171.546 92.6646C170.833 91.7829 170 91.2314 169.483 92.4131C170.286 93.4643 170.327 92.7829 171.751 92.7589C171.118 94.7909 170.473 97.7796 170.228 99.1418C169.756 98.4934 169.676 98.7531 169.487 97.6566L168.845 92.0921C169.006 86.6852 166.358 82.6417 162.363 78.8548C156.506 73.2873 151.304 72.4462 144.794 71.6724L139.059 71.3465ZM50.0851 136.266C51.3519 138.102 67.3817 145.711 71.0068 147.452L67.8593 155.834C66.9886 158.035 61.2325 176.756 61.7697 178.594C62.1774 180.005 62.8002 179.048 61.9731 180.521C62.5826 180.85 63.0226 181.268 63.2999 181.358L68.6022 184.019C70.1831 185.026 73.884 187.327 75.2574 188.449C77.0132 189.886 75.5315 188.138 78.1849 189.81C79.5896 190.716 80.0528 190.442 81.3957 191.617C86.4154 195.949 95.3742 201.803 101.646 204.414C104.058 205.406 106.21 206.32 108.77 207.869C110.16 208.718 110.609 209.283 112.018 208.756C113.277 208.285 113.111 208.166 114.355 208.86L114.708 209.064C114.743 209.084 114.824 209.107 114.852 209.1C116.187 209.636 131.079 189.256 132.651 187.836C137.604 189.474 150.855 195.832 154.056 199.325C154.622 199.158 154.392 199.19 154.887 199.147C154.971 199.125 155.243 199.141 155.344 199.129C155.39 199.132 155.491 199.119 155.564 199.115C155.61 199.117 155.721 199.088 155.766 199.09C155.822 199.075 155.923 199.063 155.996 199.059L162.733 184.663L165.809 175.182C166.124 173.578 166.901 172.029 167.254 170.399L170.484 156.705C170.803 155.339 171.055 153.721 171.363 152.089C172.915 143.538 173.995 134.667 171.045 126.383L169.54 122.599C169.206 121.631 167.341 119.121 167.28 118.78L170.319 109.324C171.272 106.044 172.318 103.052 173.236 99.9151C173.669 98.473 173.812 97.0043 174.195 95.4862C174.611 93.8698 174.9 92.3917 175.268 90.8181C176.524 85.3858 177.679 78.2969 177.385 73.0268C176.974 66.0446 171.108 58.4978 162.312 59.6477C160.842 59.833 159.39 60.0285 158.078 60.3054C148.458 62.4362 139.349 66.9778 131.481 73.0345C130.247 73.9908 129.068 74.6496 127.801 75.7042C125.442 77.6326 123.183 79.7129 120.779 81.6385L113.946 88.2224C108.058 93.4952 111.31 90.508 106.315 91.9955C105.071 92.3585 103.708 92.2767 102.293 92.6112C101.451 92.8069 101.047 92.8556 100.221 93.1069C97.0402 94.1379 97.8656 93.6039 94.3723 95.1359C87.0217 98.3421 82.8788 100.063 75.4191 105.087C72.892 106.777 70.7357 109.128 68.4716 111.299C63.748 115.857 52.2792 130.552 50.0851 136.266Z" fill="#F0F3F1"/>
<path fill-rule="evenodd" clip-rule="evenodd" d="M64.7756 191.258C64.6511 190.293 64.9319 190.173 63.9828 189.578C63.5345 189.907 59.7264 202.609 59.3522 204.437C58.3668 209.156 58.1254 207.254 58.5027 210.386C58.6563 211.627 58.1934 210.678 59.4618 211.575C59.4618 211.575 59.8089 211.869 59.9397 211.968C60.5569 211.713 60.6159 211.489 61.0533 211.342C61.5741 211.173 61.2621 211.509 62.3241 211.136L64.3241 209.87C64.413 209.756 64.5011 209.807 64.6124 209.777C63.2092 212.493 62.1499 215.101 60.6912 217.831C59.3166 220.375 58.907 222.794 57.59 225.441C56.4894 227.673 55.4761 230.731 54.7919 233.015C54.1409 235.201 52.8908 238.71 54.1713 239.708C55.5778 239.062 54.0737 239.51 56.2095 237.806C57.3497 236.889 57.9762 236.781 58.8309 235.911C60.1929 234.488 62.4094 232.807 64.0274 232.284L64.0456 232.741C63.996 233.112 64.0503 232.814 63.9627 233.21L60.2092 245.003C59.328 248.443 56.9664 254.365 58.9985 256.666C60.982 256.284 61.6548 253.734 64.2905 251.449C69.838 246.684 75.4827 241.06 80.6151 236.526L80.6438 238.023C80.5656 238.565 80.5445 238.765 80.4915 239.345C80.3791 240.761 80.0502 240.923 81.6142 241.756C81.8374 241.532 84.2285 238.612 84.2923 238.461C85.9173 235.239 84.6566 236.039 88.8195 230.945L91.3951 227.99C91.484 227.877 91.5646 227.9 91.6582 227.86C92.0207 228.657 91.9517 228.288 91.718 229.751C91.381 231.719 90.8998 233.204 92.4149 234.243C96.23 231.299 94.0572 232.253 95.0845 230.026C96.0786 227.897 100.427 224.885 100.871 224.319C101.92 222.95 101.824 223.482 102.871 222.442C104.066 221.228 105.955 219.992 105.141 218.347C104.495 218.326 105.032 218.049 104.077 218.602L101.951 220.453C99.984 222.232 94.4064 228.107 93.4536 228.333C93.2012 226.612 94.0281 225.75 92.8391 224.593C92.0904 224.913 91.0146 226.125 90.4286 226.774C89.5379 227.788 89.0142 228.613 88.0856 229.652L84.0177 234.377C83.6195 234.782 83.7667 234.608 83.448 234.753C83.9087 231.635 85.7945 229.387 83.5742 227.94C81.4015 232.843 76.304 236.34 72.8658 239.69C70.9666 241.555 69.0837 243.147 67.2103 244.885C66.2268 245.775 62.5687 249.75 61.6932 250.208L61.874 248.714C62.7895 244.401 65.8881 236.225 66.437 233.158C66.7841 231.173 67.0958 229.778 64.826 228.702C64.2407 229.187 63.6844 229.947 62.9295 230.522C62.3571 230.943 61.4341 231.28 60.8061 231.717L56.7971 234.549C56.771 233.617 57.8757 231.012 58.217 230.339C59.0671 228.785 59.7028 227.766 60.2423 226.221C62.3544 220.201 66.6344 213.765 67.7763 209.63C68.092 208.473 68.0979 208.829 68.0874 207.788C68.0697 206.109 68.488 204.001 67.1682 202.745C65.6627 203.521 63.3693 206.028 61.9541 206.362C62.2165 204.117 63.871 199.949 64.695 197.463C66.1997 192.903 64.9664 192.637 64.7756 191.258Z" fill="#F0F3F1"/>
<path fill-rule="evenodd" clip-rule="evenodd" d="M144.22 95.2193C145.308 95.777 150.708 99.6939 151.361 100.517C156.777 107.216 158.97 110.622 152.605 121.565C149.341 127.178 145.641 129.883 141.08 131.88C137.129 133.594 130.164 132.346 126.425 130.234C121.935 127.712 114.263 120.321 114.234 115.323C114.242 114.129 113.98 113.037 114.273 111.796C114.826 109.413 116.127 105.98 118.125 103.984C120.209 101.921 124.863 97.6046 127.702 96.7993L130.327 95.9173C132.72 94.7843 134.376 94.8472 137.219 95.337C138.672 95.5884 139.42 95.2686 140.791 95.3782C142.87 95.5213 142.296 95.8242 144.22 95.2193ZM147.307 94.0642C143.06 92.5053 144.37 93.1675 138.732 92.7561C137.044 92.6274 136.232 92.4875 134.502 92.5934C129.972 92.8686 126.877 93.2209 123.026 95.8621C121.732 96.7601 120.847 97.6827 119.585 98.6465C115.679 101.585 113.702 105.05 112.426 110.354C111.874 112.573 112.185 116.795 112.445 118.708C112.938 122.33 122.388 134.296 127.506 133.937C128.852 133.845 127.6 133.286 129.487 134.211C133.782 136.338 135.454 137.186 140.26 136.271C144.882 135.39 144.145 134.754 145.513 133.687C146.126 133.195 146.56 133.257 147.404 132.569C149.719 130.757 151.935 127.571 153.729 124.87C155.142 122.748 157.435 118.125 158.148 115.67C159.678 110.536 158.075 104.112 154.771 100.065C152.715 97.562 150.69 95.2885 147.307 94.0642Z" fill="#F0F3F1"/>
<path fill-rule="evenodd" clip-rule="evenodd" d="M143.565 102.621C143.681 102.664 143.863 102.675 144.223 102.907L145.489 104.296C147.728 107.257 148.331 107.393 148.746 110.5C149.263 114.489 148.364 116.414 145.524 120.274C143.032 123.653 140.639 124.786 137.473 125.873C133.291 127.336 132.212 125.867 127.532 123.471C121.852 120.567 121.168 115.566 123.122 110.513C123.443 109.711 123.766 108.582 124.161 107.775C124.737 106.533 130.65 100.852 133.769 100.537C139.697 99.9175 141.815 102.151 143.565 102.621ZM122.661 107.403C120.352 112.909 119.555 119.499 123.152 123.974C125.334 126.667 125.263 126.179 128.307 127.584C130.186 128.481 131.715 129.293 133.603 129.443L137.376 129.624C138.881 129.623 138.522 129.674 139.8 128.885C142.547 127.18 146.807 124.117 148.394 120.309C150.323 115.665 151.555 115.201 150.044 108.618C149.589 106.639 149.372 105.386 147.999 103.653C144.424 99.0979 138.158 98.0652 132.73 99.162C131.937 99.315 132.144 99.1997 131.444 99.3128C127.799 99.8873 124.319 103.472 122.661 107.403Z" fill="#F0F3F1"/>
<path fill-rule="evenodd" clip-rule="evenodd" d="M88.0873 215.199C88.4637 215.157 88.279 218.083 88.2584 218.729C88.2335 220.36 87.8088 221.054 89.3639 222.187C90.9562 221.79 93.0471 220.53 94.2701 219.144C95.5236 217.706 95.3023 218.659 96.6385 217.362C97.3737 216.659 98.1713 216.132 98.9614 215.578C97.8257 213.23 99.403 215.057 97.2199 212.081C95.3465 213.82 91.8956 216.622 89.9295 217.625C89.6588 216.059 90.3937 216.577 89.7528 214.797C89.3436 213.715 89.4096 213.071 88.1466 212.084C86.6652 213.673 85.2118 214.643 83.4573 215.769C81.1154 217.261 80.9491 217.752 79.3369 219.242L78.7644 219.664C78.7163 219.706 78.6227 219.746 78.5393 219.769C79.1834 213.442 82.3193 209.965 80.0478 207.549C79.2741 207.831 76.3603 210.191 75.4942 210.795C75.3656 210.204 75.2562 210.963 75.4105 209.76C75.6817 207.825 77.9538 201.569 77.1809 199.407C76.6023 197.804 76.5761 196.872 75.5714 196.292C74.8313 197.533 75.2853 200.451 74.4179 203.053L72.8052 210.324C72.5876 212.125 72.2258 213.444 73.8467 214.545C75.2032 213.213 76.9992 211.852 78.7399 211.565C78.1122 213.059 77.8209 214.418 77.2359 215.961C76.5946 217.682 75.7479 219.027 75.1798 220.743C74.7142 222.12 74.0485 223.639 73.4737 225.164C73.1955 225.849 72.922 226.608 72.7041 227.352C72.645 227.576 72.4807 228.186 72.4338 228.512C72.1756 230.384 72.9088 229.561 73.3869 229.344C73.3917 229.417 73.452 229.476 73.4289 229.556C73.3753 229.69 73.4525 229.922 73.4674 229.978C73.5526 230.685 73.3962 230.101 73.5777 230.723C74.8112 230.378 74.5321 229.559 75.2547 228.307C76.3334 226.439 77.03 225.924 77.956 224.32C79.3475 221.951 79.6008 222.896 81.2051 220.932C82.6316 219.193 87.6541 217.252 87.8066 215.319L88.0873 215.199Z" fill="#F0F3F1"/>
<path fill-rule="evenodd" clip-rule="evenodd" d="M130.735 216.108C130.683 214.856 131.236 214.752 131.37 213.584C132.066 207.616 132.38 210.124 133.33 207.054L133.319 205.731C132.239 205.648 132.152 205.88 131.073 206.526C129.787 207.288 130.148 207.355 128.66 207.694C129.304 206.374 129.861 205.45 130.584 204.199C131.441 202.673 131.054 202.285 131.573 200.939C132.41 198.837 132.179 199.644 131.591 198.059C131.339 197.396 131.373 196.523 130.789 196.068C129.343 194.951 130.063 197.082 128.784 199.705C127.028 203.274 125.926 204.776 124.962 209.132C124.581 210.933 124.534 211.869 125.99 212.969C127.042 212.166 127.397 211.713 129.237 211.905C128.001 214.412 123.937 221.043 124.553 224.008C124.758 224.996 124.625 224.778 125.708 225.426C126.545 224.547 127.328 222.742 128.309 221.899L137.067 214.993C137.976 214.272 138.93 213.271 139.911 212.428C142.455 210.301 142.153 210.173 142.728 209.706C144.6 208.131 146.238 205.011 147.895 203.077L147.466 201.866L139.138 208.597C136.324 211.109 133.537 213.331 130.735 216.108Z" fill="#F0F3F1"/>
<path fill-rule="evenodd" clip-rule="evenodd" d="M44.6563 163.214C46.6838 160.882 47.4238 160.252 50.5007 158.668C50.5054 158.741 50.5481 158.789 50.5149 158.887L47.4585 168.333C46.8097 170.027 45.0231 173.813 45.1921 175.556C45.2333 175.933 45.3553 176.332 45.5613 176.545C47.3074 178.446 46.9023 175.321 50.161 171.468C51.8107 169.506 52.8629 167.928 54.4813 166.183C57.2793 163.169 59.9071 158.129 63.0127 155.762C62.1022 155.589 62.2235 155.542 61.3493 156.282C59.8869 157.553 58.3728 159.687 56.9192 161.269L51.0146 167.425C50.9754 167.168 50.778 167.265 51.0361 166.004C51.1495 165.482 51.2798 165.134 51.4135 164.577C52.0158 161.987 51.6499 161.399 52.3566 158.588C52.7266 157.133 52.9376 156.808 52.1697 155.777C50.9108 155.027 49.5342 157.452 47.8409 157.861C49.4063 154.417 52.7255 150.011 51.4688 146.489C50.6708 144.289 49.8989 146.969 49.3494 147.921C47.7998 150.645 46.6015 153.291 45.3496 156.07C44.1078 158.831 42.1297 161.402 44.6563 163.214Z" fill="#F0F3F1"/>
<path fill-rule="evenodd" clip-rule="evenodd" d="M64.9303 123.661C66.3216 124.183 67.1141 122.525 68.0583 121.378C69.2285 119.962 70.0526 119.145 71.2952 117.888C73.3138 115.857 75.6817 113.629 77.913 112.003C80.8308 109.88 85.0515 106.559 88.293 105.422C88.6572 105.28 91.8859 104.206 91.2704 103.522C90.356 102.5 82.2995 107.743 80.8183 108.721C76.1467 111.806 75.1627 112.248 70.6534 116.883C69.5552 118.012 64.9747 122.77 64.9303 123.661Z" fill="#F0F3F1"/>
<path fill-rule="evenodd" clip-rule="evenodd" d="M129.839 173.005C130.664 172.471 131.035 171.463 131.691 170.408C132.693 168.754 132.781 168.805 132.641 167.337C132.286 163.678 134.754 165.102 135.643 162.748C136.667 160.12 135.087 159.396 137.702 157.31C140.565 155.038 139.216 152.285 138.204 153.346C136.832 154.786 138.961 154.112 137.612 155.918C136.772 157.008 135.734 156.973 135.194 157.624C134.283 158.673 135.38 161.657 133.801 163.048C132.983 163.774 132.223 163.665 131.582 164.775C131.033 165.727 131.316 166.62 131.352 167.698C131.453 169.965 128.752 171.061 129.839 173.005Z" fill="#F0F3F1"/>
<path fill-rule="evenodd" clip-rule="evenodd" d="M147.253 142.07C147.522 143.354 148.536 144.081 147.414 145.618C146.619 146.71 145.385 147.056 144.422 148.521C144.294 148.987 145.94 151.63 142.702 154.39C140.885 155.95 141.063 157.228 141.169 160.18C142.132 160.383 141.315 160.334 142.558 159.971C142.662 158.692 141.968 157.492 142.879 155.997C144.084 153.99 144.173 155.709 145.561 152.328C146.406 150.254 145.859 149.045 146.299 148.241C146.861 147.226 148.401 146.799 149.566 144.863C149.154 143.662 149.105 141.753 148.747 141.029C147.914 141.089 147.88 141.187 147.253 142.07Z" fill="#F0F3F1"/>
<path fill-rule="evenodd" clip-rule="evenodd" d="M91.6946 126.234C93.5952 126.321 92.9017 123.899 96.8158 118.545C98.1061 116.798 102.942 111.435 102.668 109.914C101.251 109.683 101.56 110.449 99.6032 112.821C97.7452 115.062 91.2776 124.066 91.6946 126.234Z" fill="#F0F3F1"/>
<path fill-rule="evenodd" clip-rule="evenodd" d="M151.305 165.704C152.197 166.031 151.547 165.773 152.627 166.02C154.929 161.991 154.4 162.461 155.795 159.271C156.282 158.142 156.553 158.04 155.814 157.284C154.15 158.416 154.422 161.323 151.305 165.704Z" fill="#F0F3F1"/>
<path fill-rule="evenodd" clip-rule="evenodd" d="M111.103 153.962C112.926 154.427 112.618 152.886 113.681 150.961C114.549 149.418 115.71 147.855 116.414 146.311C114.944 145.721 115.364 146.622 113.729 149.25C112.751 150.824 111.976 152.327 111.103 153.962Z" fill="#F0F3F1"/>
<path fill-rule="evenodd" clip-rule="evenodd" d="M144.659 84.4027C145.794 82.9663 148.694 80.3864 148.39 78.9183C147.234 78.8854 146.534 80.6672 145.382 81.9294C142.838 84.6673 143.507 83.9962 144.659 84.4027Z" fill="#F0F3F1"/>
<path fill-rule="evenodd" clip-rule="evenodd" d="M164.199 101.889C164.12 102.149 163.03 108.147 163.072 108.359C164.392 107.946 164.131 106.973 164.735 105.277C165.299 103.77 165.525 102.89 165.046 101.766C164.77 101.796 164.427 101.738 164.199 101.889Z" fill="#F0F3F1"/>
<path fill-rule="evenodd" clip-rule="evenodd" d="M143.293 80.865L144.119 81.3888C144.833 80.8845 145.632 79.5829 146.306 78.985C147.424 77.9852 148.328 78.4134 147.885 76.9825C146.371 76.8369 144.283 79.2739 143.293 80.865Z" fill="#F0F3F1"/>
<path fill-rule="evenodd" clip-rule="evenodd" d="M148.567 185.345C150.498 185.99 149.12 185.242 151.149 181.971C151.955 180.698 151.859 181.23 151.854 180.263C151.215 180.27 151.517 179.787 150.71 180.778C150.522 181.022 150.011 181.949 149.855 182.258C149.45 183.082 148.843 184.541 148.567 185.345Z" fill="#F0F3F1"/>
<path fill-rule="evenodd" clip-rule="evenodd" d="M113.834 156.925C114.944 156.062 116.464 152.615 116.558 151.353C115.396 151.411 115.547 152.25 114.76 153.653C113.032 156.768 112.909 156.086 113.834 156.925Z" fill="#F0F3F1"/>
<path fill-rule="evenodd" clip-rule="evenodd" d="M69.6068 217.572C68.2792 217.511 68.4709 218.115 67.5902 219.722C66.8114 221.152 66.3807 221.491 66.777 222.637C68.0261 222.183 67.5597 222.054 68.3366 220.505C68.9275 219.319 69.5794 218.638 69.6068 217.572Z" fill="#F0F3F1"/>
<path fill-rule="evenodd" clip-rule="evenodd" d="M97.0567 125.006C97.7603 123.461 98.9888 121.985 98.4766 120.796C97.3895 121.132 97.4285 122.001 96.67 123.396C95.6394 125.222 95.3309 125.349 97.0567 125.006Z" fill="#F0F3F1"/>
<path fill-rule="evenodd" clip-rule="evenodd" d="M87.0597 156.813C88.4253 156.85 87.9906 156.951 88.7953 155.395C89.3836 154.254 89.6643 154.134 89.5528 153.106C88.5459 153.018 88.4277 153.467 87.8551 154.499C87.2113 155.655 87.0288 155.809 87.0597 156.813Z" fill="#F0F3F1"/>
<path fill-rule="evenodd" clip-rule="evenodd" d="M84.1085 209.47C85.6313 209.927 85.2028 209.773 85.941 208.413C86.5265 207.318 87.1565 207 87.2165 206C86.4978 205.82 87.3076 205.395 86.333 205.984C85.804 206.289 84.4369 208.861 84.1085 209.47Z" fill="#F0F3F1"/>
<path fill-rule="evenodd" clip-rule="evenodd" d="M151.033 187.097C151.96 186.998 152.188 186.237 152.987 184.771C153.634 183.57 153.966 183.197 153.642 182.211C152.843 182.619 151.145 185.846 151.033 187.097Z" fill="#F0F3F1"/>
<path fill-rule="evenodd" clip-rule="evenodd" d="M88.9026 159.076C90.0328 159.235 90.5797 158.329 90.8486 156.886C91.0191 156.021 90.9519 156.381 90.7547 155.868C89.6073 156.146 88.7816 157.902 88.9026 159.076Z" fill="#F0F3F1"/>
<path fill-rule="evenodd" clip-rule="evenodd" d="M115.069 160.811C115.718 160.175 117.164 156.897 117.189 155.878C116.825 156.02 117.179 155.284 116.332 156.629L114.915 159.571C114.32 161.295 114.63 160.229 115.069 160.811Z" fill="#F0F3F1"/>
<path fill-rule="evenodd" clip-rule="evenodd" d="M83.58 223.737C84.793 224.038 85.3051 223.558 86.1887 221.295C85.2252 221.091 85.2843 220.866 84.5957 221.856C84.3162 222.258 83.8548 223.261 83.58 223.737Z" fill="#F0F3F1"/>
<path fill-rule="evenodd" clip-rule="evenodd" d="M71.0357 219.738C70.2156 220.792 69.0255 223.301 69.6042 224.294C70.4224 223.121 71.5616 220.7 71.0357 219.738Z" fill="#F0F3F1"/>
<path fill-rule="evenodd" clip-rule="evenodd" d="M145.103 85.6699C146.147 85.7327 146.107 85.8032 146.778 84.8039C147.288 84.0412 147.665 83.3891 147.828 82.4961C146.841 82.373 145.857 84.6483 145.103 85.6699Z" fill="#F0F3F1"/>
<path fill-rule="evenodd" clip-rule="evenodd" d="M165.547 65.1583C164.645 65.2956 165.025 65.0449 164.304 65.9682C165.298 66.5659 164.648 66.308 165.65 66.3225C165.881 65.9626 165.862 66.2806 165.933 65.7103C165.946 65.6473 165.947 65.3191 165.943 65.2459L165.874 64.7129C166.706 64.5348 166.498 64.8141 167.037 63.8799L166.341 63.1724C165.979 63.4334 165.762 63.4021 165.612 64.0679C165.589 64.1486 165.594 64.2219 165.588 64.3127C165.575 64.3758 165.577 64.4944 165.565 64.5575C165.559 64.6484 165.551 64.7846 165.556 64.8579C165.56 64.9311 165.552 65.0674 165.547 65.1583Z" fill="#F0F3F1"/>
<path fill-rule="evenodd" clip-rule="evenodd" d="M169.163 66.1412L168.801 67.46C169.715 67.4236 169.705 67.4413 170.428 66.6366C171.176 67.5387 171.62 67.5836 172.285 66.2283C171.24 65.7188 171.554 66.1115 170.917 66.2374C169.772 66.4696 170.216 66.0677 169.163 66.1412Z" fill="#F0F3F1"/>
<path fill-rule="evenodd" clip-rule="evenodd" d="M57.4267 135.64C58.6918 136.135 59.9572 133.74 59.6138 132.625C58.8271 132.97 59.0644 132.966 58.426 134.031C57.8792 134.937 57.6928 134.853 57.4267 135.64Z" fill="#F0F3F1"/>
<path fill-rule="evenodd" clip-rule="evenodd" d="M87.4883 210.74C88.0168 209.988 89.564 208.366 89.3983 207.025C88.3519 207.291 88.7764 207.207 88.3069 208.346C87.7891 209.527 87.3232 209.846 87.4883 210.74Z" fill="#F0F3F1"/>
<path fill-rule="evenodd" clip-rule="evenodd" d="M98.8388 127.374C99.5922 127.128 99.582 127.145 100.165 126.095C100.656 125.204 100.822 124.876 100.398 124.185C99.7725 125.187 98.8404 126.435 98.8388 127.374Z" fill="#F0F3F1"/>
<path fill-rule="evenodd" clip-rule="evenodd" d="M161.645 71.6717C162.407 71.7357 162.517 71.5873 163.271 71.0125L163.085 70.3174C161.886 70.2363 161.431 70.3732 161.645 71.6717Z" fill="#F0F3F1"/>
<path fill-rule="evenodd" clip-rule="evenodd" d="M166.405 69.0847C166.256 70.1974 166.166 69.581 166.536 70.4056C167.342 70.1896 167.463 70.3062 168.012 69.3544C167.262 68.7805 166.995 68.8374 166.405 69.0847Z" fill="#F0F3F1"/>
<path fill-rule="evenodd" clip-rule="evenodd" d="M171.999 89.0716C172.088 87.9006 172.301 88.7523 171.234 87.9952C170.816 88.4352 170.078 89.631 171.269 89.6843C171.651 89.7163 171.962 89.5435 171.999 89.0716Z" fill="#F0F3F1"/>
<path fill-rule="evenodd" clip-rule="evenodd" d="M168.875 83.2483C169.729 83.1537 169.757 83.1462 170.407 82.1822C168.973 81.0019 168.586 82.2827 168.875 83.2483Z" fill="#F0F3F1"/>
<path fill-rule="evenodd" clip-rule="evenodd" d="M167.129 77.8457C167.479 77.6478 167.07 78.2342 167.722 77.3888C168.047 76.9889 167.953 77.0289 168.18 76.5956C166.649 75.8289 165.917 76.7699 167.129 77.8457Z" fill="#F0F3F1"/>
<path fill-rule="evenodd" clip-rule="evenodd" d="M159.543 68.108C160.185 68.5021 160.307 68.7375 160.877 68.3613C161.733 67.7744 160.99 67.3924 160.681 67.0729C159.95 67.4029 160.11 67.1663 159.543 68.108Z" fill="#F0F3F1"/>
<path fill-rule="evenodd" clip-rule="evenodd" d="M164.759 98.6401L164.425 97.6717C164.193 97.749 164.159 97.4004 163.525 98.0919C162.606 99.1127 163.654 99.5769 164.759 98.6401Z" fill="#F0F3F1"/>
<path fill-rule="evenodd" clip-rule="evenodd" d="M90.1174 162.833C90.1496 161.841 90.1423 163.482 91.2828 161.344C91.6037 160.707 91.7598 160.233 91.8352 159.736C90.99 160.752 89.9035 161.535 90.1174 162.833Z" fill="#F0F3F1"/>
<path fill-rule="evenodd" clip-rule="evenodd" d="M162.797 76.6378C162.787 77.7132 162.572 76.7429 163 77.6713L164.149 77.5123L164.204 76.4396C163.382 76.3173 163.336 76.3146 162.797 76.6378Z" fill="#F0F3F1"/>
<path fill-rule="evenodd" clip-rule="evenodd" d="M163.544 74.9775C164.483 75.1432 164.751 75.0863 165.344 74.6295L164.963 73.8225C164.001 73.9015 163.887 73.9767 163.544 74.9775Z" fill="#F0F3F1"/>
<path fill-rule="evenodd" clip-rule="evenodd" d="M151.375 68.9851L151.594 69.746C152.744 69.8697 152.949 69.3531 152.693 68.4532C152.347 68.4416 152.519 68.306 152.099 68.4632C151.586 68.6604 151.821 68.5377 151.375 68.9851Z" fill="#F0F3F1"/>
<path fill-rule="evenodd" clip-rule="evenodd" d="M168.595 74.6972C169.592 75.2495 169.218 75.2453 170.08 74.5675C170.08 74.5675 170.058 73.7091 169.339 73.6932C168.647 73.67 168.637 74.2985 168.595 74.6972Z" fill="#F0F3F1"/>
<path fill-rule="evenodd" clip-rule="evenodd" d="M169.091 85.724C168.091 86.4391 168.793 86.2806 168.742 86.5329L169.851 86.8912C170.167 86.1807 170.277 86.315 170.026 85.4884C169.796 85.5202 169.215 85.6312 169.091 85.724Z" fill="#F0F3F1"/>
<path fill-rule="evenodd" clip-rule="evenodd" d="M169.391 72.0551C170.29 72.1272 170.234 72.1421 170.916 71.5721C170.458 70.0856 169.456 70.682 169.391 72.0551Z" fill="#F0F3F1"/>
<path fill-rule="evenodd" clip-rule="evenodd" d="M148.831 70.9485C149.709 70.6091 149.301 70.8673 149.927 69.8653C149.224 69.5769 148.993 69.326 148.513 69.8717C147.985 70.4601 148.442 70.606 148.831 70.9485Z" fill="#F0F3F1"/>
<path fill-rule="evenodd" clip-rule="evenodd" d="M165.044 97.7C166.063 97.8888 166.059 97.6515 166.513 97.2319C166.31 96.3626 166.822 96.9404 165.983 96.4798C165.195 96.706 164.993 96.5662 165.044 97.7Z" fill="#F0F3F1"/>
<path fill-rule="evenodd" clip-rule="evenodd" d="M156.223 70.3981L156.598 71.296C157.579 70.899 157.55 71.0705 157.689 69.9755C156.766 69.7012 156.92 69.7196 156.223 70.3981Z" fill="#F0F3F1"/>
<path fill-rule="evenodd" clip-rule="evenodd" d="M144.26 70.4006C145.714 70.9347 146.008 70.1407 144.967 69.0935C144.268 69.6533 144.231 69.3502 144.26 70.4006Z" fill="#F0F3F1"/>
<path fill-rule="evenodd" clip-rule="evenodd" d="M158.416 74.1316C159.465 74.4316 159.703 74.7104 159.883 73.5448C159.858 73.5069 159.835 72.9766 159.104 73.1425C158.392 73.3186 158.593 73.4583 158.416 74.1316Z" fill="#F0F3F1"/>
<path fill-rule="evenodd" clip-rule="evenodd" d="M60.6826 130.162C60.8541 130.191 61.6377 131.113 62.0201 129.148C60.0802 128.804 60.6786 129.925 60.6826 130.162Z" fill="#F0F3F1"/>
<path fill-rule="evenodd" clip-rule="evenodd" d="M168.942 77.2709C169.916 77.9039 170.098 77.9148 170.673 76.8368C169.769 76.2446 169.449 76.2709 168.942 77.2709Z" fill="#F0F3F1"/>
<path fill-rule="evenodd" clip-rule="evenodd" d="M63.0943 127.818C63.984 127.58 63.8172 127.625 64.3742 126.701C63.0108 126.172 62.5366 126.627 63.0943 127.818Z" fill="#F0F3F1"/>
<path fill-rule="evenodd" clip-rule="evenodd" d="M163.121 67.4468C162.593 68.482 162.675 67.7301 163.009 68.6985C163.009 68.6985 164.041 68.8242 164.137 68.1279C164.188 67.5929 163.659 67.2876 163.121 67.4468Z" fill="#F0F3F1"/>
<path fill-rule="evenodd" clip-rule="evenodd" d="M171.394 69.6851C172.254 69.7823 172.367 70.0353 172.609 69.0467C172.609 69.0467 172.593 67.9333 171.669 68.5982C171.307 68.8592 171.397 69.4756 171.394 69.6851Z" fill="#F0F3F1"/>
<path fill-rule="evenodd" clip-rule="evenodd" d="M171.179 82.8398C171.196 82.85 170.974 83.5205 171.937 83.2774C172.705 83.0864 172.504 82.7826 172.577 82.331C171.672 82.067 171.431 81.8336 171.179 82.8398Z" fill="#F0F3F1"/>
<path fill-rule="evenodd" clip-rule="evenodd" d="M171.957 74.8982C172.792 74.9574 172.903 74.9276 173.483 74.087C172.213 73.3543 171.917 73.5827 171.957 74.8982Z" fill="#F0F3F1"/>
<path fill-rule="evenodd" clip-rule="evenodd" d="M172.592 77.3804C172.592 77.3804 171.652 76.9319 172.304 78.5303C173.083 78.6045 173.076 78.5767 173.503 77.8364C172.725 76.9872 173.336 77.4342 172.592 77.3804Z" fill="#F0F3F1"/>
<path fill-rule="evenodd" clip-rule="evenodd" d="M162.305 65.2369C163.063 64.6167 163.026 64.9245 162.988 63.8918C162.508 63.8265 162.3 63.659 161.947 64.0664C161.389 64.7077 161.908 64.8665 162.305 65.2369Z" fill="#F0F3F1"/>
<path fill-rule="evenodd" clip-rule="evenodd" d="M156.969 67.2326C158.436 68.4787 158.628 67.2501 158.079 66.3691C157.384 66.5554 157.44 66.3764 156.969 67.2326Z" fill="#F0F3F1"/>
<path fill-rule="evenodd" clip-rule="evenodd" d="M154.4 69.933C155.682 70.6027 155.879 70.0583 155.755 68.9293C154.888 69.087 154.938 68.7161 154.4 69.933Z" fill="#F0F3F1"/>
<path fill-rule="evenodd" clip-rule="evenodd" d="M153.93 72.4581C155.155 72.6958 154.385 72.7681 155.2 72.2517C155.317 71.0733 155.437 71.8009 154.925 71.223C154.103 71.5475 154.077 71.6736 153.93 72.4581Z" fill="#F0F3F1"/>
<path fill-rule="evenodd" clip-rule="evenodd" d="M165.658 73.636C166.482 73.4301 166.421 73.5359 166.744 72.5704C165.289 72.0363 165.042 72.5047 165.658 73.636Z" fill="#F0F3F1"/>
<path fill-rule="evenodd" clip-rule="evenodd" d="M149.478 172.287C150.403 172.069 150.294 172.217 150.556 171.194C149.886 170.971 149.836 170.731 149.44 171.254C149.054 171.76 149.471 172.259 149.478 172.287Z" fill="#F0F3F1"/>
<path fill-rule="evenodd" clip-rule="evenodd" d="M169.413 78.694C168.719 79.163 168.846 78.8606 168.812 79.734C169.753 80.0184 170.028 79.9893 170.234 79.1445L169.413 78.694Z" fill="#F0F3F1"/>
<path fill-rule="evenodd" clip-rule="evenodd" d="M148.861 68.9433C149.6 68.9239 149.099 69.3862 149.955 68.6351C150.87 67.8238 150.091 67.5855 150.084 67.5577C149.17 68.0409 149.393 67.9813 148.861 68.9433Z" fill="#F0F3F1"/>
<path fill-rule="evenodd" clip-rule="evenodd" d="M164.665 79.9965L165.079 80.7052C165.815 80.4485 166.003 80.6513 166.081 79.662C165.168 79.3701 165.439 79.2678 164.665 79.9965Z" fill="#F0F3F1"/>
<path fill-rule="evenodd" clip-rule="evenodd" d="M154.852 66.0571L155.82 66.7809L156.154 65.4696C155.312 65.2184 155.361 65.0116 154.852 66.0571Z" fill="#F0F3F1"/>
<path fill-rule="evenodd" clip-rule="evenodd" d="M173.036 71.8087C173.195 71.7362 173.718 72.2965 174.074 70.6217C172.303 70.3513 173.031 71.7355 173.036 71.8087Z" fill="#F0F3F1"/>
<path fill-rule="evenodd" clip-rule="evenodd" d="M150.812 169.978C152.726 169.837 151.717 169.02 151.717 169.02C151.099 168.992 151.745 168.401 151.017 169.133C150.039 170.095 150.772 169.72 150.812 169.978Z" fill="#F0F3F1"/>
<path fill-rule="evenodd" clip-rule="evenodd" d="M174.06 34.7456C175.45 35.5636 176.856 35.9961 178.262 36.7721C178.061 36.9686 177.451 37.3276 177.488 37.8865C177.542 38.6611 178.945 38.5183 178.681 37.84C178.546 37.7859 178.504 37.7972 178.389 37.8654L178.441 37.9192C178.475 37.9703 178.52 37.9807 178.479 38.087C178.342 38.4469 177.452 38.1266 177.783 37.5116C178.192 36.7556 178.534 36.9295 179.26 37.3289C179.461 37.4406 179.678 37.5426 179.867 37.6674C180.267 37.9337 179.953 37.9225 180.262 38.0653L183.573 35.7598C183.735 35.7389 184.573 35.9303 183.818 36.9446C183.172 36.9748 183.539 36.8389 183.265 36.6216C183.104 36.7499 183.108 36.7563 183.219 36.927C183.349 37.1204 183.637 37.1959 183.858 37.0942C184.257 36.9019 184.734 35.8647 183.839 35.5933C184.004 35.3839 184.91 34.7175 185.14 34.5581C185.189 34.8432 185.117 35.489 185.107 35.8074L185.131 38.264C185.148 38.6529 185.105 39.0752 185.138 39.4574C185.149 39.5946 185.171 39.6465 185.183 39.7684C185.203 39.9536 185.168 39.9178 185.167 40.0634L185.404 40.5361C185.531 40.6526 185.786 40.7722 185.977 40.9263C186.933 41.6875 187.835 42.4732 188.817 43.1823C188.632 43.3797 188.088 43.6308 188.255 44.0518C188.338 44.2577 188.693 44.4308 188.918 44.3354L189.031 44.1674C188.841 44.0103 188.741 44.285 188.471 43.959C188.487 43.6241 188.8 43.3546 189.066 43.4212C189.33 43.4907 191.009 44.7447 191.324 45.0687L191.452 45.2374C191.262 45.341 191.232 45.3039 191.028 45.3361C190.857 45.3643 190.761 45.4152 190.628 45.4609C190.364 45.554 190.081 45.5446 189.791 45.5824C188.873 45.6929 187.262 45.9443 186.429 45.8744C185.708 45.8143 185.774 45.7891 185.112 45.8337C184.909 45.843 184.851 45.7582 184.7 45.7461C184.387 46.1935 184.09 47.0973 183.815 47.6221C183.471 48.2854 183.158 48.8831 182.783 49.5399C182.406 50.192 181.997 50.8453 181.656 51.518C181.335 52.1504 181.078 52.753 180.718 53.4031C180.592 53.1839 180.172 51.139 180.149 50.877C180.686 50.2697 181.417 50.5774 181.15 51.2253C181.136 51.2291 181.117 51.2341 181.108 51.2366C180.933 51.2783 180.815 51.285 180.667 51.4049C180.944 51.4583 181.139 51.4286 181.369 51.3443C181.616 50.6092 181.206 50.1829 180.536 50.365C180.37 50.4118 180.23 50.5721 180.074 50.6164C180.039 50.3628 180.025 50.161 179.977 49.8883C179.928 49.6231 179.866 49.4568 179.843 49.2024C179.798 48.7335 179.698 48.2843 179.675 47.7968C179.653 47.2665 179.624 46.8231 179.591 46.3334C179.532 45.4297 179.508 45.7642 179.364 45.3093C179.314 45.1498 179.372 45.1165 179.388 44.9519C179.16 44.8677 179.023 44.9821 178.814 45.0232L176.117 45.7707C175.754 45.8655 175.399 45.9132 175.024 46.0087C174.667 46.0992 173.712 46.295 173.362 46.2985C172.597 46.3032 171.216 46.806 170.531 46.6637L174.267 43.2045C174.843 42.7146 175.316 42.1818 175.845 41.6692C176.076 41.4469 176.141 41.3342 176.176 41.0219C176.2 40.7749 176.208 40.8828 176.095 40.7227C175.964 40.5323 175.753 39.9799 175.846 39.7646C176.076 39.2294 176.924 39.2128 176.927 39.7758C176.927 39.8709 176.892 40.0406 176.799 40.1408C176.692 40.257 176.792 40.1526 176.633 40.2428C176.521 40.3004 176.657 40.1461 176.523 40.3174C176.817 40.424 176.964 40.4022 177.1 40.05C177.394 39.3024 176.493 38.9048 175.987 39.3284C175.877 39.423 175.804 39.5029 175.677 39.5244C175.661 39.3257 175.588 39.102 175.529 38.9175C175.46 38.7079 175.411 38.5255 175.347 38.3147C175.213 37.8772 175.077 37.5302 174.944 37.1173C174.735 36.4868 174.491 35.9584 174.235 35.3527C174.178 35.2204 174.176 35.1758 174.131 35.055C174.077 34.9215 174.045 34.895 174.06 34.7456ZM185.166 33.8572C185.031 34.1789 184.342 34.6191 184.048 34.8283C183.639 35.1182 183.222 35.4504 182.819 35.759C182.012 36.3761 181.146 36.9314 180.348 37.4785C179.875 37.3244 178.303 36.3299 177.496 35.9348C177.141 35.7617 176.822 35.6444 176.499 35.4855C175.915 35.1959 175.196 34.8874 174.571 34.6138C173.531 34.1557 172.896 33.176 174.222 36.3686L175.119 39.0999C175.157 39.2326 175.219 39.3513 175.253 39.4975L175.683 41.1012C175.626 41.2895 173.015 43.6753 172.822 43.8524C172.36 44.277 171.893 44.8379 171.415 45.2293C170.82 45.7119 170.516 46.0663 169.955 46.5325C169.973 46.6655 169.991 46.8184 169.988 46.947C170.418 47.0373 169.91 47.2261 170.973 47.2393L172.499 46.9935C172.671 46.9548 172.852 46.9089 173.054 46.8949C173.648 46.8508 173.545 46.8784 174.166 46.7271C174.35 46.6829 174.527 46.6981 174.723 46.6455L176.322 46.2645C176.519 46.2119 176.64 46.1594 176.861 46.1052L177.949 45.8438C178.118 45.8034 178.315 45.7156 178.486 45.6874C178.583 45.6688 178.663 45.6751 178.766 45.6475C178.987 45.5857 178.814 45.5492 179.059 45.5915C179.203 45.9038 179.218 47.4106 179.23 47.738C179.266 48.5329 179.627 50.5634 179.832 51.3778C179.947 51.8432 180.371 53.7441 180.335 53.9919C180.495 54.0291 180.356 53.9763 180.46 54.0086C180.467 54.0091 180.481 54.0129 180.49 54.0181C180.497 54.0185 180.509 54.0254 180.518 54.0305C180.524 54.0339 180.537 54.0455 180.545 54.0459C180.554 54.051 180.564 54.0609 180.573 54.066C180.644 54.0994 180.624 54.0998 180.702 54.1014C180.822 54.107 180.809 54.0878 180.849 54.0795C181.212 53.4787 181.585 52.7849 181.858 52.168C182.41 50.9176 183.531 49.4146 184.023 48.2603L184.689 46.8541C184.721 46.7779 184.771 46.672 184.809 46.5991C184.815 46.5872 184.881 46.467 184.881 46.467C185.092 46.1699 185.497 46.3797 185.913 46.3633C186.088 46.3539 186.193 46.3709 186.385 46.3747L187.538 46.3489C187.917 46.3425 188.268 46.2685 188.714 46.2968C189.061 46.3191 189.287 46.2009 189.626 46.1828C190.498 46.137 190.322 45.9962 190.969 45.923C191.176 45.9002 191.236 45.8164 191.398 45.7755C191.677 45.7033 191.679 45.8583 192 45.4666C192.207 45.2106 192.102 45.2887 192.084 45.2309C192.008 44.9932 189.418 43.0988 188.959 42.7783C188.017 42.1161 186.526 40.7216 185.905 40.3668C185.595 40.1918 185.64 39.9216 185.618 39.6519L185.608 35.0892C185.763 34.0955 185.376 34.4649 185.478 33.8637L185.166 33.8572Z" fill="#F0F3F1"/>
<path fill-rule="evenodd" clip-rule="evenodd" d="M177.805 43.4368L177.588 43.5924C177.778 43.6544 177.722 43.5943 177.856 43.7588L177.662 44.1965C176.751 44.3028 176.531 43.3419 177.339 42.7724C177.494 42.6682 177.612 42.5787 177.796 42.7201C177.816 42.7397 178.135 43.1529 178.052 42.7692C177.92 42.1831 176.896 42.5802 176.662 43.362C176.582 43.6317 176.65 44.0544 176.885 44.2143C177.042 44.3203 177.547 44.5683 177.818 44.2902C177.888 44.2162 177.997 43.9038 178.008 43.8232C178.029 43.6772 177.943 43.5524 177.805 43.4368Z" fill="#F0F3F1"/>
<path fill-rule="evenodd" clip-rule="evenodd" d="M181.206 42.4677C181.431 42.5027 181.289 42.4804 181.408 42.4185C181.514 42.3651 181.54 42.3406 181.627 42.2998C182.129 42.5385 182.138 42.654 182.049 43.1088C181.956 43.5847 181.852 43.7103 181.5 43.9499C180.822 43.6807 181.176 43.6559 181.177 43.3048C181.077 43.2866 181.095 43.2064 180.974 43.4092C180.944 43.4626 180.912 43.5864 180.919 43.662C180.968 44.125 182.083 44.583 182.304 42.8526C182.393 42.1572 181.29 41.8287 181.206 42.4677Z" fill="#F0F3F1"/>
<path fill-rule="evenodd" clip-rule="evenodd" d="M180.944 38.6641C181.179 38.689 181.276 38.3773 181.548 38.7479C181.665 38.9068 181.755 39.2112 181.73 39.3907C181.646 40.0144 181.089 40.3643 180.566 39.9204C180.57 39.729 180.641 39.77 180.576 39.602C180.405 39.5979 180.533 39.5535 180.371 39.6971C180.358 40.049 180.709 40.3583 181.1 40.3036C181.804 40.2002 182.217 39.3003 181.742 38.6308C181.554 38.368 181.374 38.2882 181.106 38.4454C181.099 38.4496 180.995 38.5353 180.995 38.5353L180.944 38.6641Z" fill="#F0F3F1"/>
<path fill-rule="evenodd" clip-rule="evenodd" d="M184.394 39.0479C184.083 38.9433 184.117 39.1723 183.858 39.1614C183.125 39.1373 183.409 37.9337 184.014 37.809C184.356 37.7375 184.353 37.9965 184.578 37.7156C183.606 37.1742 182.552 38.8299 183.628 39.3607C183.977 39.5304 184.355 39.1912 184.394 39.0479Z" fill="#F0F3F1"/>
<path fill-rule="evenodd" clip-rule="evenodd" d="M181.731 49.4228C181.696 49.4146 181.038 49.5483 181.186 48.9423C181.278 48.5644 181.672 48.3811 181.921 48.347C182.566 48.6126 182.2 48.7609 182.371 49.0533C182.871 48.9621 182.168 47.5919 181.294 48.435C180.261 49.4358 181.764 50.098 181.731 49.4228Z" fill="#F0F3F1"/>
<path fill-rule="evenodd" clip-rule="evenodd" d="M178.693 40.681L178.552 40.7538C178.559 40.8923 178.54 40.7394 178.61 40.9061L178.665 41.0443C178.279 41.5886 177.277 40.8598 178.098 40.0687C178.379 39.8004 178.356 39.9293 178.677 40.0637C178.839 39.7222 178.369 39.6326 178.023 39.9032C177.103 40.6209 177.737 41.5208 178.395 41.4299C178.805 41.3701 178.874 40.9557 178.693 40.681Z" fill="#F0F3F1"/>
<path fill-rule="evenodd" clip-rule="evenodd" d="M175 36.7936C175.275 36.8301 175.226 36.5726 175.417 36.5289C175.882 36.4218 176.761 37.0358 176.12 37.8239C175.688 37.7366 175.851 37.6605 175.706 37.4739L175.506 37.6076C175.713 37.8854 176.092 38.1197 176.343 37.8419C176.649 37.5044 176.626 36.4005 175.648 36.3342C175.166 36.3006 174.94 36.5615 175 36.7936Z" fill="#F0F3F1"/>
<path fill-rule="evenodd" clip-rule="evenodd" d="M184.684 41.9821C184.281 42.01 184.539 42.1712 184.231 42.1711C183.847 42.1788 183.405 41.706 183.988 41.2365C184.154 41.1069 184.319 40.9925 184.514 41.0028C184.867 41.0285 184.683 41.2107 184.955 41.1151C184.849 40.4846 183.573 41.0045 183.477 41.6766C183.442 41.929 183.643 42.2861 184.01 42.3756C184.269 42.4417 184.695 42.2925 184.684 41.9821Z" fill="#F0F3F1"/>
<path fill-rule="evenodd" clip-rule="evenodd" d="M181.206 45.7132C181.451 45.7279 181.351 45.4413 181.625 45.7414C182.046 46.2022 181.16 47.635 180.673 46.6228C180.83 46.3025 180.987 46.4208 180.987 46.1878C180.019 46.3796 180.798 47.6516 181.563 46.9155C182.083 46.413 181.966 45.6224 181.6 45.4547C181.418 45.3733 181.221 45.4887 181.206 45.7132Z" fill="#F0F3F1"/>
<path fill-rule="evenodd" clip-rule="evenodd" d="M186.535 43.6236C186.283 43.5057 186.167 43.9527 185.704 43.4679C185.752 43.0966 185.95 42.8555 186.255 42.7864C186.844 42.6561 186.737 43.0806 187.046 42.9228C187.033 42.4175 185.997 42.4397 185.608 43.065C185.386 43.4228 185.436 43.6849 185.825 43.8539C186.029 43.9444 186.091 43.9129 186.253 43.8643C186.439 43.8096 186.536 43.8537 186.535 43.6236Z" fill="#F0F3F1"/>
<path fill-rule="evenodd" clip-rule="evenodd" d="M175.229 44.0998C174.998 44.3144 175.266 44.4731 174.849 44.5723C174.402 44.5041 174.302 44.1776 174.611 43.8143C175.017 43.3296 175.321 43.5763 175.463 43.5986L175.521 43.4702C175.231 43.0694 174.151 43.6594 174.214 44.2689C174.238 44.528 174.545 44.8041 174.877 44.7779C175.011 44.7645 175.139 44.6925 175.234 44.5418C175.433 44.2378 175.305 44.1596 175.229 44.0998Z" fill="#F0F3F1"/>
<path fill-rule="evenodd" clip-rule="evenodd" d="M173.293 44.9737C173.356 45.0772 173.773 45.1758 173.776 45.4306C173.632 45.8252 173.392 45.912 173.15 46.0294L172.737 45.8267C172.745 45.6217 172.807 45.6929 172.748 45.5406L172.517 45.723C172.806 46.2494 173.273 46.3772 173.753 45.8754C174.463 45.1237 173.376 44.6107 173.293 44.9737Z" fill="#F0F3F1"/>
<path fill-rule="evenodd" clip-rule="evenodd" d="M184.498 44.7751C184.498 44.7751 183.495 44.8836 183.915 44.142C184.027 43.9417 184.189 43.8104 184.362 43.8192C184.654 43.8413 184.64 44.1533 184.84 43.874C184.354 43.0321 182.953 44.4723 183.934 44.9513C183.992 44.9809 184.593 45.1504 184.498 44.7751Z" fill="#F0F3F1"/>
<path fill-rule="evenodd" clip-rule="evenodd" d="M187.026 44.6814L187.104 44.8134C187.253 44.761 187.336 44.631 187.495 44.5884C187.847 44.4915 188.212 44.8523 187.881 45.2066C187.699 45.4057 187.582 45.2592 187.432 45.2717C187.43 45.4402 187.471 45.4519 187.657 45.5597C187.792 45.4911 188.048 45.3823 188.147 45.218C188.518 44.59 187.747 43.9395 187.026 44.6814Z" fill="#F0F3F1"/>
<path fill-rule="evenodd" clip-rule="evenodd" d="M179.79 43.168C179.368 43.0231 179.4 42.9744 179.251 42.671C179.442 42.3067 179.524 42.232 179.816 42.1314C179.994 42.2264 179.998 42.308 180.161 42.2594C180.112 41.5634 178.611 42.3213 179.235 43.0611C179.391 43.2499 179.685 43.4945 179.79 43.168Z" fill="#F0F3F1"/>
<path fill-rule="evenodd" clip-rule="evenodd" d="M189.191 45.1696C189.482 45.1794 189.347 44.975 189.61 44.7792C189.811 44.6302 189.958 44.7311 190.038 44.9475C190.023 44.8239 190.055 44.9255 190.099 44.8837C190.19 44.7941 190.148 44.7379 190.135 44.6083C189.583 44.2501 189.208 44.8869 189.191 45.1696Z" fill="#F0F3F1"/>
</svg>
