<svg width="29" height="30" viewBox="0 0 29 30" fill="none" xmlns="http://www.w3.org/2000/svg">
<path d="M19.1957 22.9781C15.7794 21.1154 14.5201 16.837 16.3838 13.4218C16.5082 13.194 16.6436 12.9758 16.7889 12.7669C15.8995 14.9224 16.1593 17.3208 17.3466 19.205C16.8524 17.3412 17.6289 14.8951 20.6612 14.3305C23.7784 13.7507 27.3589 15.584 26.6002 17.3648C26.6002 17.3648 31.8335 14.065 26.3945 11.621C25.6636 11.2925 24.9306 10.9982 24.1294 10.9803C22.8728 10.9515 22.602 10.0684 20.8931 9.46134C20.8931 9.46134 23.6126 9.26195 24.9904 10.9384C27.2503 8.98229 22.4037 5.37185 19.2476 4.61576C16.6992 4.00554 14.5038 4.09998 13.2818 4.05696C12.6113 4.03335 12.2476 3.78464 12.2476 3.78464C12.5525 5.25537 14.7861 5.83516 14.7861 5.83516C7.93358 6.14788 5.85683 12.842 5.85683 12.842C6.6549 11.8435 8.85495 11.0543 8.85495 11.0543C6.4702 13.7193 5.27914 16.3847 4.69935 18.5806C4.30111 17.3444 4.08493 16.0263 4.08493 14.6574C4.08493 7.60443 9.85083 1.85323 16.907 1.86792C21.359 1.87737 25.2764 4.1598 27.5609 7.61545C25.0691 3.07682 20.2435 0 14.698 0C6.59613 0 0.00121504 6.62115 0.0347956 14.7199C0.0605058 20.9422 3.96583 26.249 9.45783 28.3504C7.17854 24.2253 7.08095 19.3445 8.9494 15.2204C7.55213 19.1289 8.08155 23.6418 10.7601 27.2103C11.3048 27.9354 11.9113 28.5855 12.5672 29.1606C13.2629 29.2618 13.9744 29.3148 14.698 29.3148C16.0318 29.3148 17.3236 29.1364 18.5513 28.8032C16.1351 26.2228 14.7447 22.8527 14.603 19.3603C15.039 22.9015 16.9474 26.2028 20.0126 28.3221C23.1839 27.0885 25.8189 24.7851 27.4749 21.8542C25.3178 23.9446 21.9713 24.4918 19.1957 22.9781Z" fill="#A77700"/>
</svg>
