<svg width="29" height="30" viewBox="0 0 29 30" fill="none" xmlns="http://www.w3.org/2000/svg">
<path d="M19.1954 22.9781C15.7791 21.1154 14.5199 16.837 16.3836 13.4218C16.5079 13.194 16.6433 12.9758 16.7887 12.7669C15.8993 14.9224 16.159 17.3208 17.3464 19.205C16.8521 17.3412 17.6287 14.8951 20.6609 14.3305C23.7781 13.7507 27.3587 15.584 26.6 17.3648C26.6 17.3648 31.8333 14.065 26.3943 11.621C25.6634 11.2925 24.9304 10.9982 24.1292 10.9803C22.8725 10.9515 22.6018 10.0684 20.8928 9.46134C20.8928 9.46134 23.6123 9.26195 24.9902 10.9384C27.2501 8.98229 22.4034 5.37185 19.2474 4.61576C16.6989 4.00554 14.5036 4.09998 13.2816 4.05696C12.611 4.03335 12.2474 3.78464 12.2474 3.78464C12.5522 5.25537 14.7859 5.83516 14.7859 5.83516C7.93334 6.14788 5.85659 12.842 5.85659 12.842C6.65465 11.8435 8.85471 11.0543 8.85471 11.0543C6.46996 13.7193 5.2789 16.3847 4.69911 18.5806C4.30086 17.3444 4.08469 16.0263 4.08469 14.6574C4.08469 7.60443 9.85058 1.85323 16.9067 1.86792C21.3588 1.87737 25.2761 4.1598 27.5607 7.61545C25.0689 3.07682 20.2433 0 14.6977 0C6.59589 0 0.0009709 6.62115 0.0345515 14.7199C0.0602616 20.9422 3.96558 26.249 9.45758 28.3504C7.1783 24.2253 7.08071 19.3445 8.94915 15.2204C7.55189 19.1289 8.0813 23.6418 10.7599 27.2103C11.3045 27.9354 11.9111 28.5855 12.5669 29.1606C13.2627 29.2618 13.9742 29.3148 14.6977 29.3148C16.0315 29.3148 17.3233 29.1364 18.5511 28.8032C16.1349 26.2228 14.7444 22.8527 14.6028 19.3603C15.0388 22.9015 16.9471 26.2028 20.0124 28.3221C23.1837 27.0885 25.8187 24.7851 27.4746 21.8542C25.3176 23.9446 21.9711 24.4918 19.1954 22.9781Z" fill="#4168B7"/>
</svg>
