<svg width="433" height="411" viewBox="0 0 433 411" fill="none" xmlns="http://www.w3.org/2000/svg">
<g opacity="0.25" filter="url(#filter0_f_688_6382)">
<rect width="162" height="20" rx="10" transform="matrix(0.965926 0.258819 0 1 16.7598 253)" fill="#969696"/>
</g>
<g filter="url(#filter1_b_688_6382)">
<rect width="162" height="258" rx="40" transform="matrix(0.965926 0.258819 0 1 16.7598 0)" fill="url(#paint0_radial_688_6382)"/>
<rect x="-1.69037" y="-2.20293" width="165.5" height="261.5" rx="41.75" transform="matrix(0.965926 0.258819 0 1 16.7022 0.4375)" stroke="url(#paint1_radial_688_6382)" stroke-width="3.5"/>
<rect x="-1.69037" y="-2.20293" width="165.5" height="261.5" rx="41.75" transform="matrix(0.965926 0.258819 0 1 16.7022 0.4375)" stroke="url(#paint2_linear_688_6382)" stroke-width="3.5"/>
</g>
<g filter="url(#filter2_b_688_6382)">
<rect width="162" height="258" rx="40" transform="matrix(0.965926 0.258819 0 1 10.7598 4)" fill="url(#paint3_radial_688_6382)"/>
<path d="M43.6972 227.593V238.825L41.0544 238.117V226.885L43.6972 227.593ZM50.2488 231.556C51.2585 231.827 52.0622 232.383 52.6598 233.226C53.2677 234.061 53.5716 235.071 53.5716 236.255V241.471L50.9443 240.767V235.919C50.9443 235.321 50.7949 234.817 50.4961 234.406C50.1973 233.996 49.7955 233.723 49.2906 233.587C48.7858 233.452 48.3839 233.51 48.0851 233.76C47.7863 234.011 47.6369 234.435 47.6369 235.032V239.88L44.9942 239.172V230.244L47.6369 230.952V232.136C47.9048 231.813 48.2654 231.601 48.7188 231.498C49.1721 231.385 49.6821 231.404 50.2488 231.556ZM59.5963 240.765V243.085L58.2517 242.725C57.2936 242.468 56.5466 242.028 56.0108 241.404C55.475 240.77 55.2072 239.903 55.2072 238.805V235.253L54.1562 234.971V232.699L55.2072 232.981V230.805L57.8499 231.513V233.689L59.5809 234.153V236.425L57.8499 235.961V239.545C57.8499 239.812 57.9117 240.02 58.0354 240.171C58.159 240.321 58.3651 240.435 58.6536 240.512L59.5963 240.765ZM68.5794 240.884C68.5794 241.14 68.564 241.402 68.5331 241.671L62.5521 240.069C62.5933 240.635 62.7633 241.107 63.0621 241.486C63.3712 241.856 63.7472 242.101 64.1903 242.22C64.8497 242.397 65.3082 242.231 65.5657 241.724L68.3785 242.478C68.2343 243.026 67.9715 243.484 67.5903 243.851C67.2194 244.221 66.7506 244.463 66.1839 244.578C65.6173 244.693 64.9836 244.656 64.283 244.469C63.4381 244.242 62.686 243.854 62.0266 243.304C61.3672 242.754 60.852 242.083 60.4811 241.29C60.1102 240.497 59.9247 239.637 59.9247 238.709C59.9247 237.781 60.105 237.019 60.4657 236.422C60.8366 235.828 61.3517 235.433 62.0111 235.236C62.6705 235.039 63.4278 235.056 64.283 235.285C65.1175 235.508 65.8594 235.888 66.5085 236.425C67.1576 236.962 67.6624 237.614 68.0231 238.383C68.394 239.154 68.5794 239.988 68.5794 240.884ZM65.8748 239.439C65.8748 238.97 65.7203 238.555 65.4112 238.195C65.1021 237.835 64.7157 237.593 64.2521 237.468C63.809 237.35 63.433 237.382 63.1239 237.566C62.8251 237.753 62.6396 238.082 62.5675 238.553L65.8748 239.439ZM71.9982 238.968C72.3073 238.56 72.6937 238.28 73.1573 238.127C73.621 237.963 74.1361 237.957 74.7028 238.109V241.005L73.9764 240.81C73.317 240.633 72.8225 240.65 72.4928 240.86C72.1631 241.06 71.9982 241.528 71.9982 242.264V246.408L69.3554 245.7V236.772L71.9982 237.48V238.968ZM86.3516 241.23C87.4232 241.517 88.2732 242.081 88.9017 242.921C89.5405 243.764 89.8599 244.783 89.8599 245.978V251.194L87.2325 250.49V245.642C87.2325 245.066 87.0831 244.583 86.7844 244.194C86.4959 243.797 86.094 243.529 85.5789 243.391C85.0637 243.253 84.6567 243.304 84.3579 243.544C84.0695 243.776 83.9252 244.18 83.9252 244.756V249.604L81.2979 248.9V244.052C81.2979 243.476 81.1485 242.993 80.8497 242.604C80.5612 242.206 80.1594 241.939 79.6442 241.801C79.1291 241.663 78.7221 241.714 78.4233 241.954C78.1348 242.186 77.9906 242.59 77.9906 243.166V248.014L75.3478 247.305V238.377L77.9906 239.086V240.206C78.2584 239.904 78.6088 239.705 79.0415 239.607C79.4742 239.499 79.9636 239.518 80.5097 239.665C81.1588 239.839 81.7358 240.137 82.2406 240.56C82.7558 240.986 83.1576 241.505 83.4461 242.115C83.7449 241.705 84.1519 241.414 84.667 241.243C85.1822 241.071 85.7437 241.067 86.3516 241.23ZM99.2192 249.094C99.2192 249.35 99.2037 249.612 99.1728 249.881L93.1918 248.279C93.233 248.844 93.403 249.317 93.7018 249.695C94.0109 250.066 94.387 250.311 94.83 250.43C95.4894 250.606 95.9479 250.441 96.2055 249.934L99.0183 250.688C98.874 251.236 98.6113 251.694 98.2301 252.061C97.8592 252.431 97.3904 252.673 96.8237 252.788C96.257 252.903 95.6234 252.866 94.9228 252.679C94.0779 252.452 93.3258 252.064 92.6664 251.514C92.007 250.964 91.4918 250.293 91.1209 249.5C90.75 248.707 90.5645 247.847 90.5645 246.919C90.5645 245.991 90.7448 245.228 91.1054 244.632C91.4763 244.038 91.9915 243.642 92.6509 243.446C93.3103 243.249 94.0676 243.265 94.9228 243.495C95.7573 243.718 96.4992 244.098 97.1483 244.635C97.7974 245.171 98.3022 245.824 98.6628 246.593C99.0337 247.364 99.2192 248.198 99.2192 249.094ZM96.5146 247.649C96.5146 247.18 96.3601 246.765 96.051 246.405C95.7419 246.045 95.3555 245.803 94.8919 245.678C94.4488 245.56 94.0727 245.592 93.7636 245.776C93.4649 245.963 93.2794 246.292 93.2073 246.763L96.5146 247.649ZM99.4697 249.289C99.4697 248.372 99.6346 247.61 99.9643 247.005C100.304 246.403 100.763 245.993 101.34 245.774C101.917 245.555 102.561 245.541 103.272 245.732C103.838 245.883 104.353 246.144 104.817 246.514C105.291 246.886 105.662 247.316 105.93 247.804V243.66L108.573 244.368V256.208L105.93 255.5V254.22C105.683 254.58 105.327 254.826 104.863 254.958C104.41 255.093 103.88 255.079 103.272 254.916C102.561 254.725 101.917 254.366 101.34 253.838C100.763 253.299 100.304 252.638 99.9643 251.853C99.6346 251.061 99.4697 250.206 99.4697 249.289ZM105.93 251.036C105.93 250.353 105.744 249.765 105.373 249.271C105.013 248.78 104.57 248.463 104.044 248.323C103.519 248.182 103.071 248.259 102.7 248.554C102.339 248.842 102.159 249.327 102.159 250.009C102.159 250.692 102.339 251.284 102.7 251.786C103.071 252.28 103.519 252.598 104.044 252.739C104.57 252.879 105.013 252.801 105.373 252.503C105.744 252.208 105.93 251.719 105.93 251.036ZM111.195 247.055C110.732 246.931 110.351 246.69 110.052 246.332C109.763 245.967 109.619 245.576 109.619 245.16C109.619 244.734 109.763 244.42 110.052 244.22C110.351 244.012 110.732 243.971 111.195 244.095C111.649 244.216 112.02 244.46 112.308 244.825C112.607 245.182 112.756 245.574 112.756 246.001C112.756 246.417 112.607 246.729 112.308 246.937C112.02 247.137 111.649 247.176 111.195 247.055ZM112.509 248.335V257.263L109.866 256.555V247.627L112.509 248.335ZM113.281 252.99C113.281 252.072 113.446 251.311 113.775 250.706C114.115 250.104 114.574 249.693 115.151 249.475C115.728 249.256 116.372 249.242 117.083 249.432C117.69 249.595 118.221 249.865 118.674 250.243C119.138 250.623 119.493 251.054 119.741 251.537V250.273L122.384 250.981V259.909L119.741 259.201V257.937C119.483 258.284 119.123 258.523 118.659 258.655C118.206 258.789 117.675 258.775 117.067 258.612C116.366 258.424 115.728 258.067 115.151 257.539C114.574 257 114.115 256.339 113.775 255.554C113.446 254.762 113.281 253.907 113.281 252.99ZM119.741 254.737C119.741 254.054 119.555 253.466 119.184 252.971C118.824 252.48 118.381 252.164 117.855 252.023C117.33 251.883 116.882 251.96 116.511 252.255C116.15 252.542 115.97 253.027 115.97 253.71C115.97 254.393 116.15 254.985 116.511 255.487C116.882 255.981 117.33 256.299 117.855 256.439C118.381 256.58 118.824 256.501 119.184 256.203C119.555 255.908 119.741 255.419 119.741 254.737ZM128.484 259.223V261.543L127.139 261.183C126.181 260.926 125.434 260.486 124.898 259.862C124.362 259.228 124.095 258.362 124.095 257.263V253.711L123.044 253.43V251.158L124.095 251.439V249.263L126.737 249.971V252.147L128.468 252.611V254.883L126.737 254.419V258.003C126.737 258.27 126.799 258.478 126.923 258.629C127.046 258.779 127.252 258.893 127.541 258.971L128.484 259.223ZM137.467 259.342C137.467 259.598 137.451 259.861 137.42 260.13L131.439 258.527C131.481 259.093 131.651 259.565 131.949 259.944C132.259 260.315 132.635 260.559 133.078 260.678C133.737 260.855 134.196 260.69 134.453 260.183L137.266 260.936C137.122 261.484 136.859 261.942 136.478 262.309C136.107 262.679 135.638 262.922 135.071 263.036C134.505 263.151 133.871 263.115 133.17 262.927C132.326 262.701 131.573 262.312 130.914 261.762C130.255 261.212 129.739 260.541 129.369 259.748C128.998 258.956 128.812 258.095 128.812 257.167C128.812 256.239 128.992 255.477 129.353 254.88C129.724 254.286 130.239 253.891 130.899 253.694C131.558 253.498 132.315 253.514 133.17 253.743C134.005 253.967 134.747 254.347 135.396 254.883C136.045 255.42 136.55 256.073 136.91 256.841C137.281 257.613 137.467 258.446 137.467 259.342ZM134.762 257.898C134.762 257.428 134.608 257.013 134.299 256.653C133.99 256.293 133.603 256.051 133.139 255.927C132.696 255.808 132.32 255.841 132.011 256.024C131.712 256.211 131.527 256.54 131.455 257.011L134.762 257.898Z" fill="url(#paint4_linear_688_6382)"/>
<path d="M47.7499 252.698V253.55L49.0771 253.906V254.698L47.7499 254.342V255.266L49.251 255.668V256.49L46.7589 255.823V251.611L49.251 252.278V253.1L47.7499 252.698ZM50.6536 252.426V256.866L49.6625 256.601V252.161L50.6536 252.426ZM52.612 257.439C52.2952 257.354 52.0093 257.207 51.7543 256.999C51.5031 256.792 51.3042 256.538 51.1573 256.239C51.0144 255.941 50.9429 255.618 50.9429 255.27C50.9429 254.926 51.0163 254.643 51.1631 254.423C51.31 254.198 51.5109 254.05 51.7659 253.978C52.0209 253.907 52.3068 253.913 52.6236 253.998C52.9404 254.083 53.2264 254.23 53.4814 254.438C53.7364 254.646 53.9373 254.902 54.0841 255.205C54.2309 255.505 54.3043 255.826 54.3043 256.17C54.3043 256.514 54.229 256.798 54.0783 257.022C53.9315 257.242 53.7286 257.388 53.4698 257.459C53.2148 257.53 52.9289 257.524 52.612 257.439ZM52.612 256.551C52.8013 256.602 52.9617 256.573 53.0931 256.464C53.2283 256.356 53.2959 256.168 53.2959 255.9C53.2959 255.632 53.2302 255.409 53.0989 255.229C52.9714 255.051 52.8129 254.937 52.6236 254.886C52.4304 254.834 52.2701 254.863 52.1426 254.973C52.0151 255.079 51.9513 255.268 51.9513 255.54C51.9513 255.808 52.0132 256.03 52.1368 256.208C52.2643 256.386 52.4227 256.5 52.612 256.551ZM54.4012 256.202C54.4012 255.87 54.4669 255.592 54.5983 255.367C54.7335 255.143 54.9132 254.989 55.1373 254.906C55.3652 254.819 55.6125 254.811 55.8791 254.882C56.0839 254.937 56.2674 255.024 56.4297 255.144C56.5919 255.259 56.7233 255.397 56.8238 255.555V255.171L57.8148 255.437V260.381L56.8238 260.115V258.099C56.7117 258.209 56.5746 258.285 56.4123 258.325C56.2539 258.367 56.0723 258.36 55.8675 258.305C55.6048 258.235 55.3614 258.098 55.1373 257.894C54.9132 257.689 54.7335 257.439 54.5983 257.143C54.4669 256.848 54.4012 256.534 54.4012 256.202ZM56.8238 256.845C56.8238 256.665 56.789 256.506 56.7194 256.367C56.6538 256.226 56.5668 256.111 56.4586 256.022C56.3505 255.929 56.2365 255.866 56.1167 255.834C56.0008 255.803 55.8887 255.805 55.7806 255.84C55.6724 255.871 55.5835 255.939 55.514 256.044C55.4444 256.15 55.4097 256.293 55.4097 256.473C55.4097 256.653 55.4444 256.814 55.514 256.956C55.5835 257.095 55.6724 257.211 55.7806 257.304C55.8887 257.393 56.0008 257.453 56.1167 257.484C56.2326 257.515 56.3447 257.515 56.4529 257.484C56.5649 257.45 56.6538 257.38 56.7194 257.273C56.789 257.168 56.8238 257.025 56.8238 256.845ZM61.4933 256.423V259.771L60.5023 259.505V259.049C60.4018 259.17 60.2646 259.253 60.0908 259.299C59.9208 259.341 59.7315 259.335 59.5228 259.279C59.2755 259.212 59.0572 259.098 58.8679 258.935C58.6786 258.768 58.5318 258.563 58.4275 258.319C58.3231 258.075 58.271 257.807 58.271 257.515V255.559L59.2562 255.823V257.641C59.2562 257.865 59.3122 258.054 59.4243 258.208C59.5363 258.362 59.687 258.465 59.8763 258.515C60.0695 258.567 60.2221 258.546 60.3342 258.452C60.4462 258.358 60.5023 258.199 60.5023 257.975V256.157L61.4933 256.423ZM65.0218 258.988C65.0218 259.084 65.016 259.183 65.0044 259.283L62.7615 258.682C62.777 258.895 62.8407 259.072 62.9528 259.214C63.0687 259.353 63.2097 259.445 63.3759 259.489C63.6231 259.555 63.7951 259.493 63.8917 259.303L64.9465 259.586C64.8924 259.791 64.7938 259.963 64.6509 260.101C64.5118 260.239 64.336 260.33 64.1235 260.373C63.911 260.416 63.6734 260.403 63.4106 260.332C63.0938 260.247 62.8118 260.102 62.5645 259.896C62.3172 259.689 62.124 259.438 61.9849 259.14C61.8458 258.843 61.7763 258.52 61.7763 258.172C61.7763 257.824 61.8439 257.539 61.9791 257.315C62.1182 257.092 62.3114 256.944 62.5587 256.87C62.806 256.796 63.09 256.802 63.4106 256.888C63.7236 256.972 64.0018 257.115 64.2452 257.316C64.4886 257.517 64.6779 257.762 64.8132 258.05C64.9523 258.339 65.0218 258.652 65.0218 258.988ZM64.0076 258.446C64.0076 258.27 63.9496 258.115 63.8337 257.98C63.7178 257.845 63.5729 257.754 63.3991 257.707C63.2329 257.663 63.0919 257.675 62.976 257.744C62.8639 257.814 62.7944 257.937 62.7673 258.114L64.0076 258.446ZM67.2833 257.938C67.6619 258.04 67.9633 258.248 68.1874 258.564C68.4154 258.877 68.5293 259.256 68.5293 259.7V261.656L67.5441 261.392V259.574C67.5441 259.35 67.4881 259.161 67.376 259.007C67.264 258.853 67.1133 258.751 66.924 258.7C66.7346 258.649 66.584 258.671 66.4719 258.765C66.3599 258.859 66.3038 259.018 66.3038 259.242V261.06L65.3128 260.794V257.446L66.3038 257.712V258.156C66.4043 258.035 66.5395 257.955 66.7095 257.916C66.8795 257.874 67.0708 257.881 67.2833 257.938ZM70.7886 261.391V262.261L70.2844 262.126C69.9251 262.03 69.645 261.865 69.444 261.631C69.2431 261.393 69.1427 261.068 69.1427 260.656V259.324L68.7486 259.219V258.367L69.1427 258.472V257.656L70.1337 257.922V258.738L70.7828 258.912V259.764L70.1337 259.59V260.934C70.1337 261.034 70.1569 261.112 70.2033 261.168C70.2496 261.225 70.3269 261.268 70.4351 261.297L70.7886 261.391ZM75.0319 259.186V260.008L73.9539 259.719V263.109L72.9629 262.844V259.454L71.8849 259.165V258.343L75.0319 259.186ZM76.2885 260.945C76.4044 260.792 76.5493 260.687 76.7232 260.629C76.897 260.568 77.0902 260.566 77.3027 260.623V261.709L77.0303 261.636C76.7831 261.57 76.5976 261.576 76.474 261.655C76.3503 261.73 76.2885 261.905 76.2885 262.181V263.735L75.2975 263.469V260.121L76.2885 260.387V260.945ZM77.3475 262.339C77.3475 261.995 77.4094 261.709 77.533 261.482C77.6605 261.257 77.8324 261.103 78.0488 261.021C78.2652 260.939 78.5067 260.933 78.7733 261.005C79.0012 261.066 79.2002 261.167 79.3702 261.309C79.5441 261.451 79.6774 261.613 79.7701 261.794V261.32L80.7611 261.585V264.933L79.7701 264.668V264.194C79.6735 264.324 79.5383 264.414 79.3644 264.463C79.1944 264.514 78.9954 264.508 78.7675 264.447C78.5047 264.377 78.2652 264.243 78.0488 264.045C77.8324 263.843 77.6605 263.595 77.533 263.3C77.4094 263.003 77.3475 262.683 77.3475 262.339ZM79.7701 262.994C79.7701 262.738 79.7005 262.517 79.5614 262.332C79.4262 262.148 79.2601 262.029 79.063 261.976C78.866 261.924 78.6979 261.953 78.5588 262.063C78.4236 262.171 78.356 262.353 78.356 262.609C78.356 262.865 78.4236 263.087 78.5588 263.275C78.6979 263.461 78.866 263.58 79.063 263.632C79.2601 263.685 79.4262 263.656 79.5614 263.544C79.7005 263.433 79.7701 263.25 79.7701 262.994ZM81.0492 263.331C81.0492 262.987 81.1111 262.701 81.2347 262.474C81.3622 262.248 81.5341 262.095 81.7505 262.013C81.9669 261.931 82.2083 261.925 82.4749 261.997C82.6874 262.054 82.8806 262.151 83.0545 262.29C83.2322 262.43 83.3713 262.591 83.4718 262.774V261.22L84.4628 261.485V265.925L83.4718 265.66V265.18C83.379 265.315 83.2457 265.407 83.0719 265.457C82.9019 265.507 82.7029 265.502 82.4749 265.441C82.2083 265.369 81.9669 265.235 81.7505 265.037C81.5341 264.835 81.3622 264.586 81.2347 264.292C81.1111 263.995 81.0492 263.675 81.0492 263.331ZM83.4718 263.986C83.4718 263.73 83.4022 263.509 83.2631 263.324C83.1279 263.14 82.9618 263.021 82.7647 262.968C82.5677 262.916 82.3996 262.944 82.2605 263.055C82.1253 263.163 82.0577 263.345 82.0577 263.601C82.0577 263.857 82.1253 264.079 82.2605 264.267C82.3996 264.452 82.5677 264.572 82.7647 264.624C82.9618 264.677 83.1279 264.648 83.2631 264.536C83.4022 264.425 83.4718 264.242 83.4718 263.986ZM85.4464 262.493C85.2725 262.446 85.1296 262.356 85.0175 262.222C84.9093 262.085 84.8552 261.938 84.8552 261.782C84.8552 261.622 84.9093 261.505 85.0175 261.43C85.1296 261.352 85.2725 261.336 85.4464 261.383C85.6164 261.428 85.7555 261.52 85.8637 261.657C85.9757 261.791 86.0317 261.938 86.0317 262.098C86.0317 262.254 85.9757 262.371 85.8637 262.449C85.7555 262.524 85.6164 262.538 85.4464 262.493ZM85.939 262.973V266.321L84.948 266.055V262.707L85.939 262.973ZM88.3959 263.595C88.7745 263.697 89.0759 263.905 89.3 264.221C89.5279 264.534 89.6419 264.913 89.6419 265.357V267.313L88.6567 267.049V265.231C88.6567 265.007 88.6006 264.818 88.4886 264.664C88.3765 264.51 88.2259 264.408 88.0365 264.357C87.8472 264.306 87.6965 264.328 87.5845 264.422C87.4724 264.516 87.4164 264.675 87.4164 264.899V266.717L86.4254 266.451V263.103L87.4164 263.369V263.813C87.5169 263.692 87.6521 263.612 87.8221 263.573C87.9921 263.531 88.1834 263.538 88.3959 263.595ZM91.3274 264.369C91.5554 264.43 91.7544 264.531 91.9244 264.673C92.0982 264.815 92.2315 264.977 92.3243 265.158V264.684L93.3153 264.949V268.291C93.3153 268.599 93.2554 268.861 93.1356 269.077C93.0197 269.298 92.8401 269.45 92.5966 269.533C92.3571 269.617 92.0577 269.61 91.6983 269.514C91.2192 269.386 90.8309 269.164 90.5334 268.848C90.2359 268.536 90.0659 268.175 90.0234 267.763L91.0029 268.026C91.0338 268.162 91.1072 268.282 91.2231 268.385C91.339 268.492 91.482 268.568 91.652 268.614C91.8567 268.669 92.019 268.65 92.1388 268.558C92.2624 268.471 92.3243 268.294 92.3243 268.026V267.552C92.2277 267.682 92.0944 267.774 91.9244 267.829C91.7544 267.879 91.5554 267.874 91.3274 267.813C91.0608 267.741 90.8193 267.607 90.603 267.409C90.3866 267.207 90.2147 266.959 90.0872 266.664C89.9635 266.367 89.9017 266.047 89.9017 265.703C89.9017 265.359 89.9635 265.073 90.0872 264.846C90.2147 264.621 90.3866 264.467 90.603 264.385C90.8193 264.303 91.0608 264.297 91.3274 264.369ZM92.3243 266.358C92.3243 266.102 92.2547 265.881 92.1156 265.696C91.9804 265.512 91.8142 265.393 91.6172 265.34C91.4201 265.288 91.2521 265.316 91.113 265.427C90.9778 265.535 90.9101 265.717 90.9101 265.973C90.9101 266.229 90.9778 266.451 91.113 266.639C91.2521 266.824 91.4201 266.944 91.6172 266.996C91.8142 267.049 91.9804 267.02 92.1156 266.908C92.2547 266.797 92.3243 266.614 92.3243 266.358ZM97.3294 268.629L95.811 268.222L95.5676 268.901L94.5302 268.623L96.0023 264.805L97.1498 265.113L98.6219 269.719L97.5729 269.438L97.3294 268.629ZM97.0744 267.769L96.5702 266.091L96.0718 267.5L97.0744 267.769Z" fill="#474747"/>
<rect x="-1.69037" y="-2.20293" width="165.5" height="261.5" rx="41.75" transform="matrix(0.965926 0.258819 0 1 10.7022 4.4375)" stroke="url(#paint5_radial_688_6382)" stroke-width="3.5"/>
<rect x="-1.69037" y="-2.20293" width="165.5" height="261.5" rx="41.75" transform="matrix(0.965926 0.258819 0 1 10.7022 4.4375)" stroke="url(#paint6_linear_688_6382)" stroke-width="3.5"/>
</g>
<g opacity="0.25" filter="url(#filter3_f_688_6382)">
<rect width="162" height="20" rx="10" transform="matrix(0.965926 0.258819 0 1 89.7598 290)" fill="#969696"/>
</g>
<g filter="url(#filter4_b_688_6382)">
<rect width="162" height="258" rx="40" transform="matrix(0.965926 0.258819 0 1 89.7598 37)" fill="url(#paint7_radial_688_6382)"/>
<rect x="-1.69037" y="-2.20293" width="165.5" height="261.5" rx="41.75" transform="matrix(0.965926 0.258819 0 1 89.7022 37.4375)" stroke="url(#paint8_radial_688_6382)" stroke-width="3.5"/>
<rect x="-1.69037" y="-2.20293" width="165.5" height="261.5" rx="41.75" transform="matrix(0.965926 0.258819 0 1 89.7022 37.4375)" stroke="url(#paint9_linear_688_6382)" stroke-width="3.5"/>
</g>
<g filter="url(#filter5_b_688_6382)">
<rect width="162" height="258" rx="40" transform="matrix(0.965926 0.258819 0 1 83.7598 41)" fill="url(#paint10_radial_688_6382)"/>
<g filter="url(#filter6_f_688_6382)">
<mask id="mask0_688_6382" style="mask-type:luminance" maskUnits="userSpaceOnUse" x="136" y="165" width="53" height="52">
<path d="M136.76 165L188.199 165V217L136.76 217V165Z" fill="white"/>
</mask>
<g mask="url(#mask0_688_6382)">
<g opacity="0.6">
<path d="M170.809 205.758C164.749 202.454 162.515 194.865 165.821 188.807C166.042 188.403 166.282 188.016 166.54 187.646C164.962 191.469 165.423 195.723 167.529 199.065C166.652 195.76 168.03 191.421 173.408 190.419C178.937 189.391 185.289 192.643 183.943 195.801C183.943 195.801 193.226 189.948 183.578 185.613C182.281 185.03 180.981 184.508 179.56 184.477C177.331 184.426 176.851 182.859 173.82 181.782C173.82 181.782 178.643 181.429 181.087 184.402C185.096 180.933 176.499 174.528 170.901 173.187C166.381 172.105 162.486 172.272 160.319 172.196C159.129 172.154 158.484 171.713 158.484 171.713C159.025 174.322 162.987 175.35 162.987 175.35C150.832 175.905 147.149 187.779 147.149 187.779C148.564 186.008 152.467 184.608 152.467 184.608C148.237 189.335 146.124 194.063 145.095 197.958C144.389 195.765 144.006 193.427 144.006 190.999C144.006 178.489 154.233 168.287 166.749 168.313C174.646 168.33 181.595 172.379 185.647 178.508C181.227 170.458 172.667 165 162.831 165C148.46 165 136.762 176.744 136.822 191.11C136.867 202.147 143.794 211.56 153.536 215.288C149.493 207.97 149.32 199.313 152.634 191.998C150.156 198.93 151.095 206.935 155.846 213.265C156.812 214.551 157.888 215.704 159.051 216.725C160.285 216.904 161.547 216.998 162.831 216.998C165.197 216.998 167.488 216.682 169.666 216.091C165.38 211.514 162.914 205.536 162.662 199.341C163.436 205.622 166.821 211.478 172.258 215.237C177.883 213.049 182.557 208.963 185.494 203.765C181.668 207.472 175.732 208.443 170.809 205.758Z" fill="#4168B7"/>
</g>
</g>
</g>
<path d="M125.342 268.526C125.342 269.177 125.198 269.735 124.909 270.202C124.621 270.658 124.178 270.971 123.58 271.142C122.983 271.312 122.241 271.279 121.355 271.041L119.717 270.602V274.634L117.074 273.926V262.694L121.355 263.841C122.22 264.073 122.952 264.424 123.549 264.893C124.147 265.363 124.595 265.91 124.894 266.534C125.193 267.158 125.342 267.822 125.342 268.526ZM121.154 268.812C121.659 268.947 122.035 268.925 122.282 268.746C122.529 268.567 122.653 268.253 122.653 267.805C122.653 267.357 122.529 266.978 122.282 266.666C122.035 266.354 121.659 266.131 121.154 265.996L119.717 265.61V268.426L121.154 268.812ZM128.743 269.613C129.052 269.205 129.438 268.925 129.902 268.772C130.365 268.608 130.881 268.602 131.447 268.754V271.65L130.721 271.455C130.061 271.278 129.567 271.295 129.237 271.506C128.907 271.705 128.743 272.173 128.743 272.909V277.053L126.1 276.345V267.417L128.743 268.125V269.613ZM136.018 279.13C135.173 278.904 134.41 278.513 133.73 277.957C133.061 277.405 132.53 276.729 132.139 275.931C131.757 275.135 131.567 274.274 131.567 273.346C131.567 272.428 131.763 271.676 132.154 271.087C132.546 270.488 133.081 270.093 133.761 269.902C134.441 269.711 135.204 269.728 136.049 269.955C136.894 270.181 137.656 270.572 138.336 271.128C139.016 271.683 139.552 272.365 139.943 273.174C140.335 273.972 140.531 274.83 140.531 275.748C140.531 276.665 140.33 277.422 139.928 278.018C139.536 278.606 138.995 278.995 138.305 279.183C137.625 279.374 136.863 279.357 136.018 279.13ZM136.018 276.762C136.523 276.898 136.95 276.82 137.3 276.53C137.661 276.243 137.841 275.742 137.841 275.027C137.841 274.312 137.666 273.716 137.316 273.238C136.976 272.763 136.554 272.458 136.049 272.323C135.533 272.185 135.106 272.262 134.766 272.555C134.426 272.837 134.256 273.341 134.256 274.066C134.256 274.781 134.421 275.374 134.75 275.847C135.09 276.322 135.513 276.627 136.018 276.762ZM152.24 275.733C152.24 276.384 152.095 276.942 151.807 277.409C151.518 277.865 151.075 278.178 150.478 278.349C149.88 278.519 149.138 278.486 148.252 278.249L146.614 277.81V281.842L143.971 281.134V269.902L148.252 271.049C149.118 271.28 149.849 271.631 150.447 272.101C151.044 272.57 151.493 273.117 151.791 273.741C152.09 274.365 152.24 275.029 152.24 275.733ZM148.051 276.019C148.556 276.154 148.932 276.132 149.18 275.953C149.427 275.774 149.55 275.46 149.55 275.012C149.55 274.564 149.427 274.185 149.18 273.873C148.932 273.561 148.556 273.338 148.051 273.203L146.614 272.818V275.634L148.051 276.019ZM152.472 278.931C152.472 278.014 152.637 277.253 152.966 276.648C153.306 276.045 153.765 275.635 154.342 275.416C154.919 275.198 155.563 275.183 156.274 275.374C156.882 275.537 157.412 275.807 157.866 276.184C158.329 276.565 158.685 276.996 158.932 277.478V276.214L161.575 276.922V285.85L158.932 285.142V283.878C158.674 284.225 158.314 284.465 157.85 284.596C157.397 284.731 156.866 284.717 156.258 284.554C155.558 284.366 154.919 284.008 154.342 283.48C153.765 282.942 153.306 282.28 152.966 281.496C152.637 280.703 152.472 279.849 152.472 278.931ZM158.932 280.678C158.932 279.996 158.746 279.407 158.376 278.913C158.015 278.422 157.572 278.106 157.046 277.965C156.521 277.824 156.073 277.901 155.702 278.197C155.341 278.484 155.161 278.969 155.161 279.652C155.161 280.334 155.341 280.927 155.702 281.429C156.073 281.923 156.521 282.24 157.046 282.381C157.572 282.522 158.015 282.443 158.376 282.145C158.746 281.85 158.932 281.361 158.932 280.678ZM162.343 281.592C162.343 280.664 162.523 279.902 162.884 279.305C163.255 278.711 163.765 278.314 164.414 278.115C165.073 277.918 165.825 277.933 166.67 278.16C167.752 278.45 168.654 278.984 169.375 279.764C170.106 280.547 170.586 281.502 170.812 282.63L167.999 281.876C167.762 281.13 167.304 280.665 166.624 280.483C166.14 280.354 165.753 280.447 165.465 280.765C165.176 281.071 165.032 281.587 165.032 282.313C165.032 283.038 165.176 283.637 165.465 284.109C165.753 284.57 166.14 284.866 166.624 284.995C167.304 285.177 167.762 284.959 167.999 284.34L170.812 285.094C170.586 286.078 170.106 286.771 169.375 287.172C168.643 287.574 167.742 287.631 166.67 287.344C165.825 287.117 165.073 286.729 164.414 286.179C163.765 285.632 163.255 284.962 162.884 284.169C162.523 283.379 162.343 282.52 162.343 281.592ZM176.878 289.951L174.25 285.503V289.247L171.608 288.539V276.699L174.25 277.407V283.951L176.862 281.019L180.123 281.892L176.538 285.412L180.154 290.829L176.878 289.951ZM180.018 286.312C180.018 285.395 180.182 284.634 180.512 284.029C180.852 283.426 181.311 283.016 181.888 282.797C182.465 282.578 183.109 282.564 183.819 282.755C184.427 282.918 184.958 283.188 185.411 283.565C185.875 283.946 186.23 284.377 186.478 284.859V283.595L189.12 284.303V293.231L186.478 292.523V291.259C186.22 291.606 185.86 291.845 185.396 291.977C184.943 292.112 184.412 292.098 183.804 291.935C183.103 291.747 182.465 291.389 181.888 290.861C181.311 290.323 180.852 289.661 180.512 288.877C180.182 288.084 180.018 287.229 180.018 286.312ZM186.478 288.059C186.478 287.376 186.292 286.788 185.921 286.294C185.561 285.803 185.118 285.487 184.592 285.346C184.067 285.205 183.619 285.282 183.248 285.578C182.887 285.865 182.707 286.35 182.707 287.033C182.707 287.715 182.887 288.308 183.248 288.81C183.619 289.304 184.067 289.621 184.592 289.762C185.118 289.903 185.561 289.824 185.921 289.526C186.292 289.231 186.478 288.742 186.478 288.059ZM193.691 285.4C194.299 285.563 194.829 285.833 195.282 286.21C195.746 286.591 196.102 287.022 196.349 287.504V286.24L198.992 286.948V295.86C198.992 296.681 198.832 297.38 198.513 297.956C198.203 298.545 197.724 298.95 197.075 299.171C196.436 299.394 195.638 299.378 194.68 299.121C193.402 298.778 192.367 298.186 191.573 297.344C190.78 296.513 190.327 295.549 190.213 294.452L192.825 295.152C192.908 295.515 193.103 295.834 193.412 296.109C193.722 296.395 194.103 296.598 194.556 296.72C195.102 296.866 195.535 296.817 195.854 296.572C196.184 296.34 196.349 295.867 196.349 295.152V293.888C196.091 294.235 195.736 294.481 195.282 294.626C194.829 294.761 194.299 294.747 193.691 294.584C192.98 294.393 192.336 294.034 191.759 293.506C191.182 292.968 190.723 292.306 190.383 291.522C190.054 290.729 189.889 289.874 189.889 288.957C189.889 288.04 190.054 287.279 190.383 286.674C190.723 286.071 191.182 285.661 191.759 285.442C192.336 285.223 192.98 285.209 193.691 285.4ZM196.349 290.704C196.349 290.021 196.163 289.433 195.792 288.939C195.432 288.448 194.989 288.132 194.463 287.991C193.938 287.85 193.49 287.927 193.119 288.223C192.758 288.51 192.578 288.995 192.578 289.678C192.578 290.36 192.758 290.953 193.119 291.455C193.49 291.949 193.938 292.266 194.463 292.407C194.989 292.548 195.432 292.469 195.792 292.171C196.163 291.876 196.349 291.387 196.349 290.704ZM208.415 293.793C208.415 294.049 208.399 294.312 208.368 294.581L202.387 292.978C202.428 293.544 202.598 294.016 202.897 294.395C203.206 294.765 203.582 295.01 204.025 295.129C204.685 295.306 205.143 295.141 205.401 294.634L208.214 295.387C208.069 295.935 207.807 296.393 207.426 296.76C207.055 297.13 206.586 297.372 206.019 297.487C205.452 297.602 204.819 297.566 204.118 297.378C203.273 297.151 202.521 296.763 201.862 296.213C201.202 295.663 200.687 294.992 200.316 294.199C199.945 293.406 199.76 292.546 199.76 291.618C199.76 290.69 199.94 289.928 200.301 289.331C200.672 288.737 201.187 288.342 201.846 288.145C202.506 287.948 203.263 287.965 204.118 288.194C204.953 288.417 205.695 288.798 206.344 289.334C206.993 289.871 207.498 290.523 207.858 291.292C208.229 292.063 208.415 292.897 208.415 293.793ZM205.71 292.348C205.71 291.879 205.555 291.464 205.246 291.104C204.937 290.744 204.551 290.502 204.087 290.378C203.644 290.259 203.268 290.291 202.959 290.475C202.66 290.662 202.475 290.991 202.403 291.462L205.71 292.348Z" fill="url(#paint11_linear_688_6382)"/>
<path d="M119.413 295.553V291.189L122.253 291.95V292.711L120.304 292.189V293.228L122.107 293.711V294.472L120.304 293.989V295.031L122.261 295.555V296.316L119.413 295.553ZM123.59 292.308V296.672L122.713 296.437V292.074L123.59 292.308ZM125.488 297.245C125.169 297.159 124.892 297.015 124.659 296.812C124.427 296.607 124.248 296.362 124.122 296.075C123.996 295.787 123.933 295.476 123.933 295.14C123.933 294.802 123.996 294.524 124.122 294.305C124.248 294.084 124.427 293.935 124.659 293.856C124.892 293.777 125.169 293.78 125.488 293.866C125.808 293.951 126.084 294.096 126.316 294.3C126.549 294.503 126.729 294.749 126.855 295.037C126.981 295.324 127.044 295.636 127.044 295.974C127.044 296.309 126.981 296.587 126.855 296.808C126.729 297.027 126.549 297.176 126.316 297.256C126.084 297.334 125.808 297.33 125.488 297.245ZM125.493 296.543C125.638 296.582 125.759 296.572 125.857 296.513C125.954 296.452 126.028 296.354 126.077 296.218C126.128 296.082 126.153 295.919 126.153 295.729C126.153 295.539 126.128 295.362 126.077 295.199C126.028 295.037 125.954 294.899 125.857 294.787C125.759 294.674 125.638 294.598 125.493 294.559C125.346 294.52 125.222 294.53 125.122 294.59C125.023 294.65 124.949 294.748 124.898 294.883C124.848 295.019 124.824 295.182 124.824 295.373C124.824 295.563 124.848 295.739 124.898 295.902C124.949 296.065 125.023 296.203 125.122 296.316C125.222 296.428 125.346 296.503 125.493 296.543ZM129.472 299.475V297.724L129.445 297.717C129.404 297.797 129.345 297.871 129.27 297.941C129.196 298.009 129.099 298.056 128.98 298.082C128.862 298.109 128.718 298.099 128.547 298.054C128.307 297.989 128.09 297.867 127.895 297.687C127.702 297.506 127.548 297.275 127.434 296.995C127.322 296.713 127.265 296.39 127.265 296.025C127.265 295.65 127.324 295.354 127.44 295.136C127.557 294.918 127.712 294.772 127.905 294.701C128.1 294.628 128.314 294.623 128.545 294.685C128.722 294.732 128.87 294.803 128.988 294.897C129.107 294.99 129.203 295.092 129.276 295.204C129.35 295.315 129.406 295.42 129.445 295.518L129.482 295.528V294.978L130.346 295.21V299.71L129.472 299.475ZM128.825 297.406C128.967 297.444 129.086 297.436 129.183 297.383C129.282 297.328 129.358 297.235 129.41 297.104C129.463 296.974 129.49 296.811 129.49 296.617C129.49 296.422 129.464 296.246 129.412 296.089C129.36 295.931 129.284 295.8 129.185 295.696C129.087 295.591 128.967 295.52 128.825 295.482C128.681 295.443 128.56 295.451 128.461 295.506C128.362 295.56 128.287 295.652 128.237 295.782C128.186 295.912 128.161 296.072 128.161 296.261C128.161 296.451 128.186 296.626 128.237 296.786C128.289 296.945 128.364 297.078 128.461 297.187C128.56 297.294 128.681 297.367 128.825 297.406ZM132.845 297.759V295.879L133.722 296.114V299.387L132.88 299.162V298.567L132.848 298.558C132.776 298.731 132.658 298.853 132.492 298.925C132.327 298.998 132.126 299.002 131.888 298.938C131.677 298.882 131.491 298.782 131.331 298.64C131.17 298.497 131.045 298.322 130.954 298.115C130.865 297.908 130.82 297.676 130.818 297.42V295.336L131.695 295.571V297.493C131.696 297.687 131.746 297.853 131.845 297.991C131.944 298.13 132.076 298.222 132.242 298.266C132.348 298.294 132.447 298.296 132.539 298.271C132.631 298.245 132.705 298.189 132.761 298.105C132.819 298.021 132.847 297.905 132.845 297.759ZM135.632 299.963C135.307 299.876 135.027 299.733 134.793 299.533C134.559 299.333 134.38 299.09 134.253 298.805C134.127 298.518 134.064 298.202 134.064 297.857C134.064 297.521 134.127 297.242 134.253 297.022C134.38 296.801 134.557 296.651 134.786 296.57C135.017 296.49 135.287 296.491 135.597 296.574C135.806 296.63 136 296.717 136.18 296.835C136.361 296.951 136.519 297.097 136.653 297.27C136.789 297.445 136.895 297.646 136.97 297.875C137.046 298.103 137.083 298.356 137.083 298.634V298.884L134.414 298.168V297.606L136.258 298.1C136.258 297.969 136.231 297.846 136.176 297.731C136.121 297.615 136.045 297.516 135.947 297.433C135.851 297.349 135.739 297.29 135.612 297.256C135.479 297.22 135.361 297.22 135.258 297.257C135.156 297.292 135.077 297.355 135.019 297.446C134.961 297.536 134.932 297.645 134.931 297.774V298.309C134.931 298.471 134.959 298.618 135.017 298.752C135.076 298.886 135.159 298.999 135.266 299.091C135.373 299.184 135.5 299.25 135.647 299.289C135.744 299.315 135.833 299.325 135.914 299.318C135.995 299.312 136.065 299.287 136.122 299.246C136.18 299.205 136.224 299.147 136.254 299.073L137.065 299.345C137.024 299.536 136.939 299.689 136.812 299.806C136.685 299.921 136.522 299.994 136.322 300.024C136.123 300.053 135.893 300.033 135.632 299.963ZM138.3 298.722V300.614L137.424 300.379V297.106L138.259 297.33V297.907L138.296 297.917C138.366 297.746 138.484 297.627 138.648 297.56C138.813 297.492 139.012 297.489 139.247 297.552C139.467 297.611 139.658 297.712 139.821 297.855C139.985 297.998 140.111 298.174 140.202 298.383C140.293 298.591 140.338 298.822 140.338 299.076V301.16L139.461 300.925V299.003C139.463 298.803 139.413 298.634 139.313 298.495C139.213 298.354 139.075 298.26 138.899 298.213C138.781 298.182 138.677 298.18 138.586 298.208C138.497 298.237 138.427 298.295 138.377 298.382C138.327 298.468 138.302 298.582 138.3 298.722ZM142.479 298.461V299.142L140.575 298.632V297.951L142.479 298.461ZM141.007 297.282L141.884 297.517V300.568C141.884 300.652 141.896 300.721 141.921 300.774C141.945 300.826 141.98 300.867 142.024 300.898C142.069 300.928 142.121 300.952 142.18 300.967C142.221 300.978 142.262 300.986 142.304 300.99C142.345 300.992 142.376 300.994 142.398 300.996L142.536 301.708C142.492 301.711 142.43 301.711 142.351 301.708C142.271 301.706 142.175 301.692 142.061 301.666C141.849 301.618 141.664 301.539 141.505 301.43C141.347 301.321 141.224 301.184 141.137 301.02C141.049 300.856 141.006 300.667 141.007 300.453V297.282ZM143.783 298.48V297.719L147.245 298.647V299.408L145.955 299.062V302.665L145.074 302.429V298.826L143.783 298.48ZM147.238 303.009V299.736L148.088 299.964V300.535L148.121 300.544C148.179 300.356 148.276 300.228 148.412 300.161C148.547 300.092 148.704 300.082 148.881 300.129C148.925 300.141 148.972 300.157 149.023 300.176C149.074 300.195 149.118 300.215 149.157 300.235V301.041C149.115 301.017 149.059 300.99 148.986 300.961C148.913 300.931 148.847 300.908 148.786 300.892C148.657 300.858 148.542 300.856 148.44 300.887C148.34 300.917 148.261 300.975 148.202 301.062C148.144 301.148 148.115 301.259 148.115 301.392V303.244L147.238 303.009ZM150.189 303.861C149.987 303.807 149.808 303.723 149.65 303.608C149.492 303.492 149.367 303.35 149.275 303.182C149.185 303.013 149.139 302.82 149.139 302.604C149.139 302.422 149.172 302.278 149.236 302.172C149.301 302.066 149.388 301.99 149.5 301.944C149.611 301.899 149.737 301.876 149.878 301.875C150.021 301.875 150.17 301.888 150.327 301.914C150.511 301.944 150.659 301.965 150.771 301.978C150.884 301.99 150.966 301.985 151.016 301.963C151.067 301.941 151.092 301.895 151.092 301.826V301.813C151.092 301.678 151.051 301.562 150.969 301.466C150.888 301.371 150.773 301.303 150.623 301.263C150.465 301.221 150.34 301.223 150.247 301.271C150.153 301.317 150.092 301.39 150.061 301.49L149.25 301.204C149.292 301.016 149.373 300.866 149.493 300.754C149.614 300.64 149.77 300.569 149.961 300.542C150.153 300.514 150.375 300.534 150.627 300.601C150.803 300.649 150.971 300.715 151.132 300.801C151.293 300.887 151.437 300.991 151.562 301.114C151.688 301.237 151.787 301.379 151.86 301.539C151.933 301.698 151.969 301.874 151.969 302.069V304.276L151.138 304.054V303.6L151.113 303.593C151.062 303.682 150.994 303.754 150.909 303.809C150.824 303.863 150.722 303.896 150.603 303.908C150.483 303.919 150.345 303.903 150.189 303.861ZM150.44 303.302C150.569 303.337 150.683 303.341 150.782 303.315C150.88 303.287 150.958 303.236 151.014 303.16C151.071 303.084 151.099 302.988 151.099 302.873V302.526C151.071 302.537 151.033 302.544 150.985 302.547C150.939 302.549 150.886 302.548 150.827 302.545C150.768 302.54 150.709 302.535 150.65 302.529C150.591 302.522 150.537 302.516 150.489 302.51C150.387 302.498 150.297 302.499 150.22 302.512C150.143 302.526 150.083 302.556 150.041 302.603C149.998 302.648 149.977 302.713 149.977 302.799C149.977 302.922 150.02 303.028 150.107 303.117C150.194 303.204 150.306 303.266 150.44 303.302ZM153.582 304.762C153.342 304.698 153.125 304.575 152.93 304.395C152.737 304.214 152.583 303.983 152.469 303.703C152.357 303.421 152.3 303.098 152.3 302.733C152.3 302.358 152.359 302.062 152.475 301.844C152.592 301.626 152.747 301.48 152.94 301.409C153.135 301.336 153.349 301.331 153.58 301.393C153.757 301.44 153.905 301.511 154.023 301.605C154.142 301.698 154.238 301.801 154.311 301.912C154.385 302.023 154.441 302.128 154.48 302.226L154.507 302.233V300.593L155.381 300.827V305.191L154.517 304.959V304.435L154.48 304.425C154.439 304.505 154.38 304.579 154.305 304.649C154.231 304.717 154.134 304.764 154.015 304.79C153.897 304.817 153.753 304.808 153.582 304.762ZM153.86 304.114C154.002 304.152 154.121 304.144 154.218 304.091C154.317 304.036 154.393 303.944 154.445 303.813C154.498 303.682 154.525 303.519 154.525 303.325C154.525 303.13 154.499 302.954 154.447 302.797C154.395 302.639 154.319 302.508 154.22 302.404C154.122 302.299 154.002 302.228 153.86 302.19C153.716 302.151 153.595 302.159 153.496 302.214C153.397 302.268 153.322 302.361 153.272 302.49C153.221 302.62 153.196 302.78 153.196 302.969C153.196 303.159 153.221 303.334 153.272 303.494C153.324 303.653 153.399 303.787 153.496 303.895C153.595 304.002 153.716 304.075 153.86 304.114ZM155.87 305.322V302.049L156.747 302.284V305.557L155.87 305.322ZM156.311 301.745C156.18 301.71 156.069 301.635 155.975 301.521C155.883 301.405 155.837 301.284 155.837 301.158C155.837 301.033 155.883 300.938 155.975 300.873C156.069 300.807 156.18 300.792 156.311 300.827C156.441 300.862 156.552 300.937 156.644 301.052C156.737 301.167 156.784 301.287 156.784 301.412C156.784 301.538 156.737 301.634 156.644 301.7C156.552 301.765 156.441 301.78 156.311 301.745ZM158.094 304.026V305.918L157.217 305.683V302.41L158.053 302.634V303.211L158.09 303.221C158.16 303.05 158.277 302.93 158.442 302.864C158.607 302.796 158.806 302.793 159.041 302.856C159.26 302.915 159.452 303.016 159.615 303.159C159.778 303.302 159.905 303.478 159.996 303.687C160.086 303.895 160.132 304.125 160.132 304.38V306.464L159.255 306.229V304.307C159.256 304.107 159.207 303.937 159.107 303.798C159.007 303.658 158.869 303.564 158.693 303.517C158.575 303.485 158.471 303.484 158.38 303.512C158.291 303.541 158.221 303.599 158.17 303.686C158.121 303.772 158.096 303.885 158.094 304.026ZM162.015 308.264C161.731 308.188 161.488 308.082 161.284 307.946C161.083 307.813 160.922 307.661 160.803 307.491C160.684 307.322 160.606 307.146 160.57 306.965L161.381 307.069C161.406 307.141 161.445 307.212 161.499 307.284C161.552 307.355 161.623 307.419 161.711 307.477C161.8 307.536 161.908 307.583 162.036 307.617C162.226 307.668 162.383 307.662 162.507 307.599C162.632 307.537 162.694 307.394 162.694 307.169V306.571L162.657 306.561C162.619 306.641 162.561 306.712 162.484 306.772C162.408 306.833 162.309 306.872 162.188 306.891C162.067 306.91 161.923 306.897 161.756 306.852C161.518 306.788 161.302 306.673 161.107 306.508C160.914 306.341 160.76 306.124 160.644 305.857C160.531 305.59 160.474 305.275 160.474 304.912C160.474 304.542 160.532 304.248 160.649 304.03C160.765 303.813 160.92 303.668 161.114 303.597C161.308 303.525 161.522 303.521 161.754 303.583C161.931 303.63 162.079 303.701 162.198 303.796C162.318 303.889 162.414 303.991 162.486 304.103C162.56 304.214 162.617 304.318 162.657 304.417L162.69 304.426V303.876L163.561 304.11V307.414C163.561 307.693 163.495 307.908 163.363 308.06C163.231 308.212 163.049 308.304 162.816 308.335C162.584 308.368 162.317 308.345 162.015 308.264ZM162.034 306.244C162.175 306.282 162.294 306.278 162.392 306.232C162.491 306.184 162.566 306.099 162.618 305.977C162.672 305.854 162.698 305.696 162.698 305.504C162.698 305.312 162.672 305.139 162.62 304.985C162.568 304.829 162.493 304.698 162.394 304.594C162.295 304.489 162.175 304.418 162.034 304.38C161.89 304.341 161.768 304.349 161.669 304.404C161.571 304.457 161.496 304.548 161.445 304.676C161.394 304.805 161.369 304.962 161.369 305.148C161.369 305.337 161.394 305.507 161.445 305.658C161.497 305.809 161.572 305.935 161.669 306.036C161.768 306.136 161.89 306.206 162.034 306.244ZM165.879 308.004L164.924 307.748L166.379 303.774L167.528 304.082L168.981 308.835L168.026 308.579L166.97 304.929L166.937 304.92L165.879 308.004ZM165.819 306.272L168.075 306.877V307.597L165.819 306.993V306.272ZM170.521 309.311C170.197 309.224 169.918 309.079 169.685 308.874C169.453 308.669 169.275 308.422 169.15 308.134C169.027 307.847 168.965 307.538 168.965 307.207C168.965 306.872 169.027 306.594 169.152 306.375C169.278 306.154 169.457 306.004 169.689 305.924C169.921 305.843 170.197 305.845 170.517 305.931C170.792 306.005 171.034 306.121 171.241 306.28C171.448 306.44 171.612 306.629 171.733 306.849C171.854 307.069 171.92 307.307 171.933 307.563L171.105 307.341C171.082 307.172 171.02 307.024 170.92 306.898C170.821 306.77 170.692 306.685 170.531 306.642C170.395 306.606 170.277 306.612 170.175 306.662C170.075 306.71 169.997 306.799 169.94 306.929C169.884 307.059 169.856 307.227 169.856 307.433C169.856 307.642 169.883 307.826 169.938 307.988C169.995 308.149 170.074 308.282 170.175 308.385C170.277 308.489 170.395 308.56 170.531 308.596C170.631 308.623 170.721 308.626 170.801 308.604C170.882 308.583 170.948 308.539 171 308.472C171.054 308.404 171.089 308.315 171.105 308.204L171.933 308.426C171.919 308.672 171.853 308.875 171.735 309.034C171.618 309.191 171.457 309.296 171.251 309.347C171.046 309.399 170.802 309.387 170.521 309.311ZM173.164 310.017C172.962 309.963 172.782 309.879 172.624 309.764C172.467 309.648 172.342 309.506 172.25 309.338C172.159 309.169 172.114 308.976 172.114 308.76C172.114 308.578 172.146 308.434 172.211 308.328C172.275 308.222 172.363 308.146 172.474 308.1C172.585 308.055 172.712 308.032 172.853 308.031C172.996 308.031 173.145 308.044 173.301 308.07C173.485 308.1 173.634 308.121 173.746 308.134C173.859 308.146 173.94 308.141 173.991 308.119C174.042 308.097 174.067 308.051 174.067 307.982V307.969C174.067 307.834 174.026 307.718 173.944 307.623C173.863 307.527 173.747 307.459 173.598 307.419C173.44 307.377 173.315 307.379 173.221 307.427C173.128 307.473 173.066 307.546 173.036 307.646L172.225 307.36C172.266 307.172 172.347 307.022 172.468 306.91C172.589 306.796 172.744 306.725 172.935 306.698C173.127 306.67 173.35 306.69 173.602 306.758C173.778 306.805 173.946 306.871 174.106 306.957C174.268 307.043 174.411 307.147 174.536 307.27C174.663 307.393 174.762 307.535 174.835 307.695C174.907 307.854 174.944 308.03 174.944 308.225V310.432L174.112 310.21V309.756L174.088 309.749C174.037 309.838 173.969 309.91 173.884 309.965C173.799 310.019 173.697 310.052 173.577 310.064C173.458 310.075 173.32 310.059 173.164 310.017ZM173.415 309.458C173.544 309.493 173.658 309.497 173.756 309.471C173.855 309.443 173.933 309.392 173.989 309.316C174.045 309.24 174.073 309.144 174.073 309.029V308.682C174.046 308.693 174.008 308.7 173.96 308.703C173.913 308.705 173.861 308.704 173.802 308.701C173.743 308.696 173.684 308.691 173.625 308.685C173.566 308.678 173.512 308.672 173.464 308.666C173.361 308.654 173.271 308.655 173.194 308.668C173.118 308.682 173.058 308.712 173.015 308.759C172.973 308.804 172.952 308.869 172.952 308.955C172.952 309.078 172.995 309.184 173.081 309.273C173.169 309.36 173.28 309.422 173.415 309.458ZM176.557 310.918C176.317 310.854 176.1 310.731 175.905 310.551C175.711 310.37 175.558 310.139 175.444 309.859C175.331 309.577 175.275 309.254 175.275 308.889C175.275 308.514 175.333 308.218 175.45 308.001C175.566 307.782 175.722 307.637 175.915 307.565C176.11 307.492 176.323 307.487 176.555 307.549C176.732 307.596 176.88 307.667 176.998 307.761C177.117 307.854 177.213 307.957 177.286 308.068C177.36 308.179 177.416 308.284 177.454 308.382L177.481 308.389V306.749L178.356 306.983V311.347L177.491 311.115V310.591L177.454 310.581C177.413 310.661 177.355 310.735 177.279 310.805C177.205 310.873 177.109 310.92 176.989 310.946C176.871 310.973 176.727 310.964 176.557 310.918ZM176.835 310.27C176.976 310.308 177.096 310.3 177.193 310.247C177.292 310.192 177.367 310.1 177.419 309.969C177.473 309.838 177.5 309.675 177.5 309.481C177.5 309.286 177.474 309.11 177.421 308.953C177.369 308.795 177.294 308.664 177.195 308.56C177.096 308.455 176.976 308.384 176.835 308.346C176.691 308.307 176.569 308.315 176.471 308.37C176.372 308.424 176.297 308.517 176.246 308.646C176.196 308.776 176.17 308.936 176.17 309.125C176.17 309.315 176.196 309.49 176.246 309.65C176.298 309.809 176.373 309.943 176.471 310.051C176.569 310.158 176.691 310.231 176.835 310.27ZM180.286 311.928C179.96 311.841 179.68 311.697 179.446 311.498C179.213 311.298 179.033 311.055 178.907 310.77C178.78 310.483 178.717 310.167 178.717 309.822C178.717 309.485 178.78 309.207 178.907 308.986C179.033 308.766 179.211 308.615 179.44 308.535C179.67 308.455 179.94 308.456 180.251 308.539C180.459 308.595 180.653 308.682 180.833 308.799C181.014 308.916 181.172 309.061 181.306 309.235C181.442 309.409 181.548 309.611 181.623 309.84C181.699 310.068 181.736 310.321 181.736 310.599V310.848L179.067 310.133V309.571L180.911 310.065C180.911 309.934 180.884 309.811 180.829 309.695C180.774 309.58 180.698 309.481 180.6 309.398C180.504 309.314 180.393 309.255 180.265 309.22C180.132 309.185 180.014 309.185 179.911 309.221C179.809 309.257 179.73 309.32 179.672 309.411C179.615 309.501 179.585 309.61 179.584 309.739V310.274C179.584 310.436 179.613 310.583 179.67 310.717C179.729 310.85 179.812 310.963 179.919 311.056C180.026 311.149 180.153 311.215 180.3 311.254C180.397 311.28 180.487 311.29 180.567 311.283C180.648 311.276 180.718 311.252 180.775 311.211C180.833 311.169 180.877 311.112 180.907 311.037L181.718 311.31C181.677 311.501 181.592 311.654 181.465 311.771C181.339 311.886 181.175 311.959 180.975 311.989C180.776 312.018 180.546 311.997 180.286 311.928ZM182.077 312.344V309.071L182.912 309.295V309.872L182.949 309.882C183.015 309.708 183.125 309.586 183.279 309.517C183.432 309.447 183.616 309.441 183.83 309.498C184.047 309.556 184.232 309.662 184.384 309.815C184.536 309.966 184.638 310.144 184.689 310.348L184.721 310.357C184.786 310.187 184.903 310.068 185.071 310.001C185.241 309.933 185.442 309.93 185.674 309.992C185.969 310.071 186.209 310.233 186.393 310.477C186.578 310.719 186.67 311.018 186.67 311.374V313.575L185.796 313.34V311.318C185.796 311.136 185.749 310.987 185.656 310.872C185.563 310.756 185.446 310.679 185.306 310.641C185.147 310.599 185.023 310.618 184.933 310.699C184.844 310.779 184.8 310.904 184.8 311.075V313.073L183.95 312.846V310.804C183.95 310.644 183.905 310.504 183.816 310.385C183.728 310.266 183.612 310.188 183.468 310.149C183.371 310.123 183.283 310.125 183.205 310.155C183.128 310.184 183.067 310.238 183.021 310.317C182.976 310.394 182.954 310.493 182.954 310.614V312.579L182.077 312.344ZM187.559 315.04C187.448 315.01 187.344 314.973 187.246 314.928C187.15 314.886 187.071 314.842 187.008 314.798L187.205 314.174C187.308 314.234 187.401 314.277 187.483 314.302C187.567 314.327 187.639 314.326 187.699 314.3C187.761 314.274 187.811 314.215 187.849 314.123L187.901 313.998L186.767 310.328L187.689 310.575L188.343 313.153L188.376 313.162L189.037 310.936L189.965 311.185L188.736 314.482C188.677 314.642 188.597 314.774 188.496 314.878C188.396 314.983 188.269 315.05 188.115 315.08C187.961 315.111 187.776 315.098 187.559 315.04Z" fill="#474747"/>
<rect x="-1.69037" y="-2.20293" width="165.5" height="261.5" rx="41.75" transform="matrix(0.965926 0.258819 0 1 83.7022 41.4375)" stroke="url(#paint12_radial_688_6382)" stroke-width="3.5"/>
<rect x="-1.69037" y="-2.20293" width="165.5" height="261.5" rx="41.75" transform="matrix(0.965926 0.258819 0 1 83.7022 41.4375)" stroke="url(#paint13_linear_688_6382)" stroke-width="3.5"/>
</g>
<g opacity="0.25" filter="url(#filter7_f_688_6382)">
<rect width="162" height="20" rx="10" transform="matrix(0.965926 0.258819 0 1 259.76 335)" fill="#969696"/>
</g>
<g filter="url(#filter8_b_688_6382)">
<rect width="162" height="258" rx="40" transform="matrix(0.965926 0.258819 0 1 259.76 82)" fill="url(#paint14_radial_688_6382)"/>
<rect x="-1.69037" y="-2.20293" width="165.5" height="261.5" rx="41.75" transform="matrix(0.965926 0.258819 0 1 259.702 82.4375)" stroke="url(#paint15_radial_688_6382)" stroke-width="3.5"/>
<rect x="-1.69037" y="-2.20293" width="165.5" height="261.5" rx="41.75" transform="matrix(0.965926 0.258819 0 1 259.702 82.4375)" stroke="url(#paint16_linear_688_6382)" stroke-width="3.5"/>
</g>
<g filter="url(#filter9_b_688_6382)">
<rect width="162" height="258" rx="40" transform="matrix(0.965926 0.258819 0 1 253.76 86)" fill="url(#paint17_radial_688_6382)"/>
<path d="M274.99 313.956V302.32L279.49 303.525C280.317 303.747 281.007 304.059 281.559 304.461C282.112 304.862 282.527 305.326 282.805 305.851C283.083 306.373 283.222 306.925 283.222 307.508C283.222 307.963 283.134 308.339 282.959 308.637C282.783 308.93 282.541 309.146 282.234 309.283C281.93 309.418 281.583 309.478 281.191 309.464V309.578C281.619 309.712 282.02 309.944 282.393 310.275C282.77 310.607 283.076 311.013 283.31 311.492C283.544 311.968 283.661 312.492 283.661 313.064C283.661 313.681 283.513 314.192 283.217 314.598C282.924 315 282.49 315.265 281.916 315.391C281.341 315.518 280.633 315.468 279.792 315.243L274.99 313.956ZM277.366 312.581L279.303 313.1C279.966 313.278 280.449 313.277 280.752 313.097C281.056 312.913 281.208 312.601 281.208 312.162C281.208 311.84 281.133 311.536 280.983 311.249C280.833 310.963 280.619 310.712 280.341 310.498C280.066 310.284 279.739 310.126 279.358 310.024L277.366 309.49V312.581ZM277.366 307.826L279.128 308.298C279.453 308.385 279.742 308.404 279.995 308.354C280.251 308.301 280.452 308.185 280.599 308.004C280.749 307.825 280.824 307.582 280.824 307.275C280.824 306.854 280.679 306.477 280.39 306.142C280.105 305.808 279.699 305.57 279.172 305.429L277.366 304.945V307.826ZM288.387 317.716C287.52 317.484 286.773 317.102 286.148 316.571C285.526 316.037 285.047 315.389 284.71 314.629C284.373 313.864 284.205 313.022 284.205 312.101C284.205 311.204 284.373 310.461 284.71 309.873C285.047 309.285 285.52 308.884 286.131 308.669C286.746 308.455 287.467 308.458 288.294 308.68C288.85 308.829 289.368 309.06 289.847 309.374C290.33 309.686 290.751 310.073 291.109 310.536C291.471 311.001 291.753 311.539 291.954 312.149C292.156 312.756 292.256 313.431 292.256 314.173V314.838L285.138 312.931V311.431L290.055 312.748C290.055 312.4 289.982 312.072 289.836 311.764C289.69 311.455 289.486 311.191 289.227 310.97C288.971 310.746 288.672 310.588 288.332 310.497C287.977 310.402 287.663 310.403 287.388 310.5C287.117 310.594 286.905 310.762 286.752 311.005C286.598 311.244 286.519 311.536 286.516 311.879V313.306C286.516 313.737 286.592 314.131 286.746 314.487C286.903 314.843 287.125 315.145 287.41 315.392C287.696 315.639 288.034 315.815 288.425 315.92C288.685 315.989 288.923 316.015 289.139 315.997C289.355 315.979 289.54 315.915 289.693 315.805C289.847 315.694 289.964 315.54 290.044 315.342L292.207 316.069C292.097 316.578 291.872 316.987 291.532 317.297C291.195 317.605 290.76 317.799 290.226 317.879C289.695 317.957 289.082 317.902 288.387 317.716ZM296.962 323.298C296.204 323.095 295.555 322.813 295.013 322.452C294.475 322.096 294.047 321.691 293.729 321.238C293.411 320.786 293.204 320.317 293.109 319.834L295.271 320.112C295.337 320.304 295.441 320.495 295.584 320.684C295.727 320.874 295.915 321.046 296.149 321.2C296.387 321.358 296.676 321.483 297.016 321.574C297.525 321.71 297.944 321.694 298.273 321.524C298.606 321.36 298.773 320.978 298.773 320.38V318.783L298.674 318.757C298.571 318.972 298.418 319.16 298.213 319.321C298.008 319.482 297.745 319.587 297.423 319.637C297.101 319.687 296.716 319.653 296.27 319.533C295.637 319.363 295.061 319.057 294.541 318.615C294.025 318.17 293.614 317.592 293.306 316.881C293.003 316.167 292.851 315.327 292.851 314.361C292.851 313.373 293.006 312.588 293.317 312.009C293.628 311.429 294.042 311.044 294.558 310.853C295.077 310.662 295.646 310.65 296.265 310.816C296.737 310.942 297.132 311.131 297.45 311.383C297.768 311.631 298.024 311.905 298.218 312.203C298.416 312.498 298.568 312.777 298.674 313.041L298.762 313.064V311.598L301.083 312.22V321.033C301.083 321.775 300.908 322.349 300.556 322.755C300.205 323.161 299.719 323.406 299.097 323.489C298.478 323.577 297.767 323.514 296.962 323.298ZM297.011 317.913C297.388 318.014 297.706 318.003 297.966 317.879C298.229 317.753 298.431 317.527 298.57 317.2C298.712 316.871 298.784 316.451 298.784 315.939C298.784 315.428 298.714 314.966 298.575 314.554C298.436 314.138 298.235 313.791 297.971 313.512C297.708 313.233 297.388 313.043 297.011 312.942C296.627 312.839 296.303 312.86 296.04 313.005C295.776 313.147 295.577 313.389 295.441 313.731C295.306 314.074 295.238 314.493 295.238 314.989C295.238 315.493 295.306 315.947 295.441 316.351C295.58 316.752 295.78 317.087 296.04 317.358C296.303 317.625 296.627 317.81 297.011 317.913ZM302.326 321.281V312.553L304.664 313.18V321.907L302.326 321.281ZM303.5 311.743C303.152 311.65 302.854 311.451 302.605 311.145C302.36 310.837 302.238 310.515 302.238 310.177C302.238 309.844 302.36 309.591 302.605 309.418C302.854 309.242 303.152 309.201 303.5 309.294C303.848 309.387 304.144 309.588 304.389 309.896C304.638 310.201 304.762 310.521 304.762 310.854C304.762 311.191 304.638 311.447 304.389 311.623C304.144 311.796 303.848 311.836 303.5 311.743ZM308.256 317.824V322.87L305.918 322.243V313.516L308.146 314.113V315.653L308.245 315.679C308.432 315.222 308.745 314.904 309.184 314.726C309.623 314.545 310.155 314.538 310.781 314.705C311.366 314.862 311.877 315.131 312.312 315.513C312.747 315.895 313.086 316.365 313.327 316.922C313.569 317.475 313.69 318.091 313.69 318.769V324.326L311.352 323.699V318.574C311.355 318.041 311.223 317.589 310.956 317.218C310.689 316.844 310.322 316.594 309.853 316.468C309.539 316.384 309.261 316.379 309.019 316.455C308.781 316.531 308.595 316.686 308.459 316.918C308.328 317.148 308.26 317.45 308.256 317.824ZM317.252 320.235V325.28L314.914 324.654V315.926L317.142 316.523V318.063L317.241 318.09C317.428 317.632 317.74 317.314 318.179 317.137C318.619 316.955 319.151 316.948 319.777 317.116C320.362 317.272 320.872 317.542 321.308 317.924C321.743 318.305 322.082 318.775 322.323 319.332C322.565 319.885 322.685 320.501 322.685 321.179V326.736L320.347 326.109V320.984C320.351 320.451 320.219 319.999 319.952 319.629C319.685 319.254 319.317 319.004 318.849 318.878C318.534 318.794 318.256 318.79 318.015 318.865C317.777 318.942 317.59 319.096 317.455 319.329C317.323 319.559 317.256 319.861 317.252 320.235ZM327.752 328.264C326.884 328.032 326.138 327.65 325.512 327.118C324.89 326.584 324.411 325.937 324.074 325.176C323.738 324.412 323.569 323.569 323.569 322.649C323.569 321.751 323.738 321.008 324.074 320.421C324.411 319.833 324.885 319.431 325.496 319.216C326.111 319.002 326.831 319.006 327.658 319.228C328.214 319.377 328.732 319.608 329.211 319.922C329.694 320.233 330.115 320.621 330.474 321.084C330.836 321.549 331.118 322.086 331.319 322.697C331.52 323.304 331.621 323.979 331.621 324.721V325.386L324.502 323.479V321.979L329.42 323.296C329.42 322.948 329.347 322.619 329.2 322.311C329.054 322.003 328.851 321.738 328.591 321.517C328.335 321.293 328.037 321.136 327.697 321.045C327.342 320.95 327.027 320.95 326.753 321.047C326.482 321.141 326.27 321.31 326.116 321.553C325.962 321.792 325.884 322.083 325.88 322.427V323.853C325.88 324.285 325.957 324.679 326.111 325.034C326.268 325.391 326.489 325.693 326.775 325.94C327.06 326.187 327.398 326.362 327.79 326.467C328.05 326.537 328.288 326.563 328.503 326.545C328.719 326.527 328.904 326.463 329.058 326.353C329.211 326.242 329.328 326.088 329.409 325.89L331.571 326.617C331.462 327.125 331.237 327.535 330.896 327.845C330.56 328.153 330.124 328.347 329.59 328.427C329.06 328.505 328.447 328.45 327.752 328.264ZM332.528 329.373V320.646L334.795 321.253V322.776L334.883 322.8C335.036 322.299 335.294 321.959 335.657 321.78C336.019 321.596 336.436 321.568 336.908 321.695C337.025 321.726 337.151 321.767 337.287 321.819C337.422 321.87 337.541 321.923 337.643 321.977V324.125C337.533 324.061 337.382 323.99 337.188 323.912C336.994 323.833 336.816 323.772 336.655 323.729C336.311 323.637 336.004 323.632 335.733 323.715C335.466 323.795 335.254 323.95 335.097 324.181C334.943 324.412 334.866 324.706 334.866 325.062V330L332.528 329.373ZM345.001 332.886C344.138 332.655 343.395 332.266 342.773 331.721C342.155 331.172 341.679 330.515 341.346 329.747C341.017 328.981 340.852 328.157 340.852 327.274C340.852 326.38 341.019 325.641 341.352 325.056C341.688 324.468 342.166 324.067 342.784 323.854C343.403 323.637 344.138 323.643 344.99 323.872C345.726 324.069 346.37 324.38 346.922 324.804C347.475 325.229 347.912 325.734 348.234 326.32C348.556 326.907 348.733 327.541 348.766 328.224L346.56 327.633C346.498 327.181 346.333 326.786 346.066 326.45C345.803 326.11 345.457 325.883 345.029 325.768C344.667 325.671 344.35 325.689 344.079 325.821C343.812 325.95 343.604 326.188 343.454 326.534C343.304 326.88 343.229 327.328 343.229 327.877C343.229 328.434 343.302 328.927 343.448 329.356C343.598 329.787 343.809 330.14 344.079 330.417C344.35 330.694 344.667 330.881 345.029 330.979C345.296 331.05 345.536 331.058 345.748 331.001C345.964 330.945 346.141 330.828 346.28 330.649C346.423 330.468 346.516 330.229 346.56 329.934L348.766 330.525C348.73 331.182 348.554 331.722 348.239 332.146C347.928 332.566 347.499 332.845 346.95 332.982C346.401 333.119 345.751 333.087 345.001 332.886ZM353.454 335.151C352.601 334.922 351.864 334.537 351.242 333.996C350.624 333.451 350.146 332.797 349.81 332.032C349.473 331.264 349.305 330.433 349.305 329.539C349.305 328.638 349.473 327.895 349.81 327.311C350.146 326.723 350.624 326.324 351.242 326.115C351.864 325.903 352.601 325.911 353.454 326.139C354.306 326.368 355.042 326.754 355.66 327.299C356.282 327.84 356.761 328.495 357.098 329.264C357.435 330.028 357.603 330.861 357.603 331.763C357.603 332.656 357.435 333.397 357.098 333.985C356.761 334.569 356.282 334.967 355.66 335.179C355.042 335.389 354.306 335.379 353.454 335.151ZM353.465 333.279C353.853 333.383 354.176 333.356 354.436 333.198C354.696 333.037 354.892 332.775 355.023 332.412C355.159 332.051 355.227 331.616 355.227 331.109C355.227 330.601 355.159 330.13 355.023 329.696C354.892 329.263 354.696 328.897 354.436 328.596C354.176 328.295 353.853 328.093 353.465 327.989C353.073 327.884 352.744 327.911 352.477 328.071C352.214 328.231 352.014 328.492 351.879 328.854C351.747 329.216 351.681 329.651 351.681 330.159C351.681 330.666 351.747 331.137 351.879 331.57C352.014 332.004 352.214 332.371 352.477 332.673C352.744 332.972 353.073 333.174 353.465 333.279ZM363.911 334.066V329.055L366.249 329.681V338.409L364.004 337.807V336.222L363.916 336.199C363.726 336.659 363.41 336.985 362.967 337.177C362.528 337.37 361.992 337.382 361.359 337.212C360.795 337.061 360.3 336.796 359.872 336.416C359.443 336.036 359.109 335.569 358.867 335.016C358.629 334.464 358.509 333.846 358.505 333.163V327.607L360.843 328.233V333.358C360.847 333.874 360.98 334.317 361.244 334.687C361.507 335.057 361.86 335.301 362.303 335.42C362.585 335.495 362.848 335.499 363.093 335.432C363.338 335.362 363.536 335.214 363.686 334.989C363.84 334.765 363.915 334.458 363.911 334.066ZM367.501 338.744V330.017L369.767 330.624V332.147L369.855 332.171C370.009 331.67 370.267 331.33 370.629 331.151C370.991 330.967 371.408 330.939 371.88 331.065C371.997 331.097 372.124 331.138 372.259 331.19C372.394 331.241 372.513 331.294 372.616 331.348V333.495C372.506 333.432 372.354 333.361 372.16 333.282C371.966 333.204 371.789 333.143 371.628 333.1C371.284 333.008 370.977 333.003 370.706 333.086C370.439 333.166 370.227 333.321 370.069 333.552C369.916 333.783 369.839 334.077 369.839 334.433V339.371L367.501 338.744ZM380.22 335.914L378.08 335.477C378.043 335.277 377.965 335.086 377.844 334.902C377.723 334.714 377.564 334.549 377.366 334.405C377.173 334.258 376.94 334.148 376.669 334.076C376.307 333.979 376.002 333.977 375.753 334.069C375.504 334.158 375.38 334.333 375.38 334.594C375.38 334.802 375.46 335 375.621 335.187C375.782 335.374 376.058 335.564 376.45 335.756L377.976 336.483C378.795 336.877 379.406 337.321 379.809 337.815C380.211 338.309 380.412 338.871 380.412 339.499C380.412 340.071 380.25 340.53 379.924 340.874C379.602 341.22 379.159 341.438 378.596 341.53C378.036 341.618 377.39 341.565 376.658 341.368C375.543 341.069 374.653 340.591 373.991 339.932C373.333 339.271 372.947 338.508 372.833 337.645L375.133 338.136C375.202 338.507 375.371 338.821 375.638 339.078C375.905 339.331 376.247 339.514 376.664 339.626C377.074 339.735 377.403 339.742 377.652 339.646C377.904 339.547 378.032 339.367 378.036 339.107C378.032 338.886 377.943 338.682 377.767 338.495C377.591 338.304 377.321 338.122 376.955 337.948L375.495 337.256C374.672 336.865 374.059 336.405 373.656 335.877C373.258 335.349 373.058 334.76 373.058 334.108C373.058 333.548 373.205 333.104 373.497 332.777C373.794 332.451 374.209 332.25 374.743 332.173C375.281 332.098 375.91 332.157 376.631 332.35C377.696 332.635 378.534 333.092 379.145 333.722C379.759 334.353 380.118 335.083 380.22 335.914ZM385.108 343.633C384.241 343.4 383.495 343.018 382.869 342.487C382.247 341.953 381.768 341.306 381.431 340.545C381.094 339.781 380.926 338.938 380.926 338.018C380.926 337.12 381.094 336.377 381.431 335.789C381.768 335.201 382.242 334.8 382.853 334.585C383.467 334.371 384.188 334.375 385.015 334.596C385.571 334.745 386.089 334.977 386.568 335.291C387.051 335.602 387.472 335.989 387.83 336.453C388.193 336.917 388.474 337.455 388.676 338.066C388.877 338.673 388.977 339.347 388.977 340.09V340.755L381.859 338.847V337.347L386.777 338.665C386.777 338.316 386.703 337.988 386.557 337.68C386.411 337.372 386.208 337.107 385.948 336.886C385.692 336.662 385.394 336.504 385.053 336.413C384.698 336.318 384.384 336.319 384.109 336.416C383.839 336.51 383.626 336.679 383.473 336.922C383.319 337.161 383.24 337.452 383.237 337.796V339.222C383.237 339.654 383.314 340.048 383.467 340.403C383.625 340.76 383.846 341.061 384.131 341.308C384.417 341.555 384.755 341.731 385.147 341.836C385.406 341.906 385.644 341.931 385.86 341.914C386.076 341.896 386.261 341.832 386.414 341.721C386.568 341.611 386.685 341.457 386.766 341.258L388.928 341.986C388.818 342.494 388.593 342.903 388.253 343.214C387.916 343.521 387.481 343.715 386.947 343.796C386.416 343.873 385.803 343.819 385.108 343.633Z" fill="url(#paint18_linear_688_6382)"/>
<path d="M296.857 342.548V338.184L299.697 338.945V339.706L297.748 339.183V340.223L299.551 340.706V341.467L297.748 340.984V342.026L299.705 342.55V343.311L296.857 342.548ZM301.034 339.303V343.667L300.157 343.432V339.068L301.034 339.303ZM302.933 344.24C302.613 344.154 302.337 344.009 302.103 343.806C301.872 343.602 301.693 343.357 301.566 343.07C301.44 342.782 301.377 342.47 301.377 342.135C301.377 341.797 301.44 341.519 301.566 341.299C301.693 341.079 301.872 340.93 302.103 340.851C302.337 340.772 302.613 340.775 302.933 340.86C303.253 340.946 303.528 341.091 303.76 341.295C303.993 341.498 304.173 341.744 304.299 342.032C304.426 342.318 304.489 342.631 304.489 342.969C304.489 343.304 304.426 343.582 304.299 343.802C304.173 344.021 303.993 344.171 303.76 344.25C303.528 344.329 303.253 344.325 302.933 344.24ZM302.937 343.538C303.082 343.576 303.204 343.566 303.301 343.507C303.399 343.447 303.472 343.348 303.521 343.213C303.572 343.077 303.598 342.914 303.598 342.724C303.598 342.533 303.572 342.357 303.521 342.194C303.472 342.032 303.399 341.894 303.301 341.781C303.204 341.669 303.082 341.593 302.937 341.554C302.79 341.515 302.667 341.525 302.567 341.585C302.468 341.645 302.393 341.743 302.342 341.878C302.293 342.014 302.268 342.177 302.268 342.368C302.268 342.558 302.293 342.734 302.342 342.897C302.393 343.059 302.468 343.197 302.567 343.31C302.667 343.422 302.79 343.498 302.937 343.538ZM306.916 346.47V344.719L306.889 344.712C306.848 344.791 306.79 344.866 306.714 344.935C306.64 345.004 306.543 345.051 306.424 345.077C306.306 345.104 306.162 345.094 305.992 345.049C305.752 344.984 305.534 344.862 305.339 344.682C305.146 344.501 304.992 344.27 304.878 343.99C304.766 343.708 304.71 343.385 304.71 343.02C304.71 342.645 304.768 342.348 304.885 342.131C305.001 341.912 305.156 341.767 305.35 341.695C305.545 341.623 305.758 341.617 305.99 341.679C306.167 341.727 306.314 341.798 306.432 341.892C306.552 341.985 306.648 342.087 306.72 342.199C306.795 342.31 306.851 342.414 306.889 342.513L306.926 342.523V341.973L307.791 342.205V346.705L306.916 346.47ZM306.27 344.401C306.411 344.439 306.53 344.431 306.628 344.377C306.727 344.323 306.802 344.23 306.854 344.099C306.908 343.969 306.934 343.806 306.934 343.611C306.934 343.417 306.908 343.241 306.856 343.083C306.804 342.926 306.729 342.795 306.63 342.69C306.531 342.586 306.411 342.515 306.27 342.477C306.126 342.438 306.004 342.446 305.905 342.501C305.807 342.555 305.732 342.647 305.681 342.777C305.63 342.907 305.605 343.066 305.605 343.255C305.605 343.446 305.63 343.621 305.681 343.781C305.733 343.939 305.808 344.073 305.905 344.182C306.004 344.289 306.126 344.362 306.27 344.401ZM310.29 344.753V342.874L311.167 343.109V346.382L310.325 346.156V345.562L310.292 345.553C310.221 345.726 310.102 345.848 309.936 345.92C309.771 345.992 309.57 345.997 309.333 345.933C309.122 345.876 308.936 345.777 308.775 345.635C308.615 345.492 308.489 345.317 308.399 345.11C308.309 344.902 308.264 344.671 308.263 344.415V342.331L309.139 342.566V344.488C309.141 344.681 309.191 344.847 309.29 344.986C309.388 345.125 309.521 345.216 309.687 345.261C309.793 345.289 309.891 345.291 309.983 345.266C310.075 345.239 310.149 345.184 310.206 345.099C310.263 345.015 310.291 344.9 310.29 344.753ZM313.077 346.958C312.752 346.87 312.472 346.727 312.237 346.528C312.004 346.328 311.824 346.085 311.698 345.8C311.572 345.513 311.509 345.197 311.509 344.852C311.509 344.515 311.572 344.237 311.698 344.016C311.824 343.796 312.002 343.645 312.231 343.565C312.461 343.484 312.732 343.486 313.042 343.569C313.25 343.625 313.444 343.712 313.624 343.829C313.805 343.946 313.963 344.091 314.098 344.265C314.233 344.439 314.339 344.641 314.415 344.87C314.49 345.098 314.528 345.351 314.528 345.629V345.878L311.858 345.163V344.601L313.702 345.095C313.702 344.964 313.675 344.841 313.62 344.725C313.565 344.61 313.489 344.511 313.392 344.428C313.296 344.344 313.184 344.285 313.056 344.25C312.923 344.215 312.805 344.215 312.702 344.251C312.601 344.287 312.521 344.35 312.463 344.441C312.406 344.531 312.376 344.64 312.375 344.769V345.304C312.375 345.466 312.404 345.613 312.461 345.747C312.52 345.88 312.603 345.993 312.71 346.086C312.817 346.179 312.944 346.245 313.091 346.284C313.189 346.31 313.278 346.32 313.359 346.313C313.44 346.306 313.509 346.282 313.567 346.241C313.624 346.199 313.668 346.142 313.698 346.067L314.509 346.34C314.468 346.531 314.384 346.684 314.256 346.801C314.13 346.916 313.967 346.989 313.766 347.019C313.567 347.048 313.337 347.027 313.077 346.958ZM315.745 345.717V347.609L314.868 347.374V344.101L315.704 344.325V344.902L315.741 344.912C315.811 344.741 315.928 344.621 316.093 344.555C316.257 344.487 316.457 344.484 316.692 344.547C316.911 344.606 317.102 344.707 317.266 344.85C317.429 344.993 317.556 345.169 317.646 345.378C317.737 345.586 317.782 345.816 317.782 346.071V348.155L316.906 347.92V345.998C316.907 345.798 316.858 345.628 316.757 345.489C316.657 345.349 316.519 345.255 316.344 345.208C316.226 345.176 316.121 345.175 316.031 345.203C315.942 345.232 315.872 345.29 315.821 345.377C315.772 345.463 315.746 345.576 315.745 345.717ZM319.923 345.455V346.137L318.019 345.627V344.945L319.923 345.455ZM318.451 344.277L319.328 344.512V347.563C319.328 347.647 319.34 347.715 319.365 347.769C319.39 347.821 319.424 347.862 319.468 347.892C319.513 347.923 319.565 347.946 319.624 347.962C319.666 347.973 319.707 347.981 319.748 347.984C319.789 347.987 319.821 347.989 319.843 347.991L319.981 348.703C319.937 348.705 319.875 348.705 319.795 348.702C319.716 348.701 319.619 348.687 319.505 348.661C319.294 348.613 319.109 348.534 318.949 348.425C318.792 348.316 318.669 348.179 318.581 348.015C318.493 347.851 318.45 347.662 318.451 347.447V344.277ZM321.228 345.475V344.714L324.689 345.642V346.402L323.399 346.056V349.659L322.518 349.423V345.82L321.228 345.475ZM324.683 350.004V346.731L325.533 346.959V347.53L325.566 347.538C325.623 347.351 325.72 347.223 325.856 347.156C325.992 347.087 326.148 347.077 326.325 347.124C326.369 347.136 326.416 347.151 326.467 347.171C326.518 347.19 326.563 347.21 326.601 347.23V348.035C326.56 348.011 326.503 347.985 326.43 347.955C326.358 347.926 326.291 347.903 326.231 347.887C326.102 347.852 325.986 347.851 325.885 347.882C325.785 347.912 325.705 347.97 325.646 348.056C325.588 348.143 325.56 348.253 325.56 348.387V350.238L324.683 350.004ZM327.633 350.856C327.432 350.802 327.252 350.717 327.094 350.603C326.936 350.487 326.812 350.344 326.72 350.176C326.629 350.007 326.584 349.815 326.584 349.599C326.584 349.417 326.616 349.273 326.681 349.167C326.745 349.06 326.833 348.984 326.944 348.939C327.055 348.893 327.181 348.87 327.323 348.87C327.465 348.87 327.615 348.883 327.771 348.909C327.955 348.939 328.103 348.96 328.216 348.973C328.328 348.985 328.41 348.979 328.461 348.958C328.512 348.936 328.537 348.89 328.537 348.82V348.807C328.537 348.673 328.496 348.557 328.413 348.461C328.332 348.366 328.217 348.298 328.068 348.258C327.91 348.215 327.784 348.218 327.691 348.266C327.598 348.312 327.536 348.384 327.506 348.484L326.695 348.199C326.736 348.011 326.817 347.861 326.938 347.748C327.059 347.634 327.214 347.564 327.405 347.537C327.597 347.509 327.819 347.529 328.072 347.596C328.247 347.643 328.415 347.71 328.576 347.795C328.738 347.881 328.881 347.986 329.006 348.109C329.132 348.232 329.232 348.374 329.305 348.534C329.377 348.692 329.414 348.869 329.414 349.064V351.271L328.582 351.048V350.594L328.557 350.588C328.507 350.677 328.439 350.749 328.354 350.804C328.269 350.858 328.166 350.891 328.047 350.903C327.928 350.913 327.79 350.898 327.633 350.856ZM327.884 350.297C328.013 350.331 328.127 350.336 328.226 350.309C328.325 350.282 328.402 350.23 328.459 350.154C328.515 350.079 328.543 349.983 328.543 349.868V349.521C328.516 349.532 328.478 349.539 328.43 349.542C328.383 349.543 328.33 349.543 328.271 349.54C328.212 349.535 328.153 349.53 328.094 349.524C328.035 349.517 327.982 349.51 327.934 349.505C327.831 349.493 327.741 349.493 327.664 349.507C327.587 349.52 327.528 349.551 327.485 349.597C327.443 349.643 327.421 349.708 327.421 349.793C327.421 349.917 327.465 350.023 327.551 350.112C327.639 350.199 327.75 350.261 327.884 350.297ZM331.027 351.757C330.787 351.692 330.569 351.57 330.374 351.39C330.181 351.209 330.027 350.978 329.913 350.698C329.801 350.416 329.745 350.093 329.745 349.728C329.745 349.353 329.803 349.057 329.92 348.839C330.036 348.62 330.191 348.475 330.385 348.403C330.58 348.331 330.793 348.325 331.025 348.387C331.202 348.435 331.349 348.506 331.467 348.6C331.587 348.693 331.683 348.795 331.755 348.907C331.83 349.018 331.886 349.122 331.924 349.221L331.951 349.228V347.587L332.826 347.822V352.185L331.961 351.954V351.43L331.924 351.42C331.883 351.5 331.825 351.574 331.749 351.643C331.675 351.712 331.578 351.759 331.459 351.785C331.341 351.812 331.197 351.802 331.027 351.757ZM331.305 351.109C331.446 351.147 331.565 351.139 331.663 351.085C331.762 351.031 331.837 350.938 331.889 350.807C331.943 350.677 331.969 350.514 331.969 350.32C331.969 350.125 331.943 349.949 331.891 349.792C331.839 349.634 331.764 349.503 331.665 349.398C331.566 349.294 331.446 349.223 331.305 349.185C331.161 349.146 331.039 349.154 330.94 349.209C330.842 349.263 330.767 349.355 330.716 349.485C330.665 349.615 330.64 349.774 330.64 349.963C330.64 350.154 330.665 350.329 330.716 350.489C330.768 350.648 330.843 350.781 330.94 350.89C331.039 350.997 331.161 351.07 331.305 351.109ZM333.315 352.316V349.044L334.191 349.279V352.551L333.315 352.316ZM333.755 348.74C333.625 348.705 333.513 348.63 333.42 348.516C333.328 348.4 333.282 348.279 333.282 348.153C333.282 348.028 333.328 347.933 333.42 347.868C333.513 347.802 333.625 347.787 333.755 347.821C333.885 347.856 333.997 347.932 334.089 348.047C334.182 348.162 334.228 348.281 334.228 348.406C334.228 348.533 334.182 348.629 334.089 348.695C333.997 348.76 333.885 348.775 333.755 348.74ZM335.539 351.02V352.912L334.662 352.677V349.405L335.497 349.629V350.206L335.535 350.216C335.604 350.044 335.722 349.925 335.886 349.858C336.051 349.79 336.251 349.788 336.485 349.851C336.705 349.909 336.896 350.01 337.06 350.154C337.223 350.297 337.35 350.473 337.44 350.682C337.531 350.889 337.576 351.12 337.576 351.374V353.458L336.699 353.223V351.301C336.701 351.102 336.651 350.932 336.551 350.793C336.451 350.653 336.313 350.559 336.138 350.512C336.02 350.48 335.915 350.478 335.825 350.507C335.736 350.535 335.666 350.593 335.615 350.681C335.565 350.767 335.54 350.88 335.539 351.02ZM339.46 355.258C339.176 355.182 338.932 355.077 338.729 354.941C338.527 354.808 338.367 354.656 338.247 354.486C338.128 354.316 338.05 354.141 338.015 353.959L338.826 354.064C338.85 354.136 338.889 354.207 338.943 354.278C338.996 354.349 339.067 354.414 339.155 354.471C339.244 354.531 339.352 354.578 339.48 354.612C339.671 354.663 339.828 354.657 339.951 354.593C340.076 354.532 340.139 354.388 340.139 354.164V353.565L340.102 353.555C340.063 353.636 340.006 353.707 339.929 353.767C339.852 353.827 339.753 353.867 339.632 353.886C339.512 353.904 339.368 353.891 339.2 353.847C338.963 353.783 338.747 353.668 338.552 353.502C338.358 353.335 338.204 353.119 338.089 352.852C337.975 352.584 337.918 352.269 337.918 351.907C337.918 351.536 337.976 351.242 338.093 351.025C338.21 350.808 338.365 350.663 338.558 350.591C338.753 350.52 338.966 350.515 339.198 350.578C339.375 350.625 339.523 350.696 339.643 350.79C339.762 350.883 339.858 350.986 339.931 351.098C340.005 351.208 340.062 351.313 340.102 351.412L340.135 351.421V350.871L341.005 351.104V354.409C341.005 354.687 340.939 354.903 340.808 355.055C340.676 355.207 340.493 355.299 340.26 355.33C340.028 355.363 339.761 355.339 339.46 355.258ZM339.478 353.239C339.619 353.277 339.739 353.273 339.836 353.226C339.935 353.179 340.01 353.094 340.063 352.972C340.116 352.848 340.143 352.691 340.143 352.499C340.143 352.307 340.117 352.134 340.065 351.979C340.012 351.823 339.937 351.693 339.838 351.589C339.739 351.484 339.619 351.413 339.478 351.375C339.334 351.336 339.213 351.344 339.114 351.399C339.015 351.452 338.94 351.542 338.889 351.671C338.839 351.799 338.813 351.957 338.813 352.143C338.813 352.332 338.839 352.502 338.889 352.653C338.942 352.804 339.016 352.929 339.114 353.031C339.213 353.131 339.334 353.201 339.478 353.239ZM343.323 354.998L342.369 354.742L343.824 350.769L344.972 351.076L346.425 355.829L345.47 355.573L344.414 351.924L344.381 351.915L343.323 354.998ZM343.264 353.267L345.519 353.871V354.592L343.264 353.987V353.267ZM347.965 356.306C347.641 356.219 347.363 356.073 347.13 355.869C346.898 355.663 346.719 355.417 346.595 355.129C346.471 354.842 346.409 354.532 346.409 354.202C346.409 353.866 346.472 353.589 346.597 353.37C346.723 353.149 346.902 352.999 347.134 352.919C347.366 352.838 347.641 352.84 347.961 352.926C348.237 352.999 348.478 353.116 348.686 353.275C348.893 353.434 349.057 353.624 349.177 353.844C349.298 354.064 349.365 354.302 349.377 354.558L348.55 354.336C348.526 354.167 348.465 354.019 348.364 353.892C348.266 353.765 348.136 353.68 347.976 353.637C347.84 353.6 347.721 353.607 347.619 353.656C347.519 353.705 347.441 353.794 347.385 353.924C347.329 354.054 347.3 354.222 347.3 354.428C347.3 354.636 347.328 354.821 347.383 354.982C347.439 355.144 347.518 355.276 347.619 355.38C347.721 355.484 347.84 355.554 347.976 355.591C348.076 355.617 348.166 355.62 348.245 355.599C348.326 355.578 348.393 355.534 348.445 355.467C348.498 355.399 348.533 355.31 348.55 355.199L349.377 355.421C349.363 355.667 349.297 355.87 349.179 356.028C349.063 356.186 348.902 356.29 348.696 356.342C348.49 356.393 348.246 356.381 347.965 356.306ZM350.608 357.012C350.406 356.958 350.227 356.873 350.069 356.759C349.911 356.643 349.786 356.501 349.694 356.332C349.604 356.163 349.558 355.971 349.558 355.755C349.558 355.573 349.591 355.429 349.655 355.323C349.72 355.216 349.807 355.14 349.919 355.095C350.03 355.049 350.156 355.026 350.297 355.026C350.44 355.026 350.589 355.039 350.746 355.065C350.93 355.095 351.078 355.116 351.19 355.129C351.303 355.141 351.385 355.135 351.435 355.114C351.486 355.092 351.512 355.046 351.512 354.976V354.964C351.512 354.829 351.47 354.713 351.388 354.617C351.307 354.522 351.192 354.454 351.042 354.414C350.884 354.372 350.759 354.374 350.666 354.422C350.572 354.468 350.511 354.541 350.48 354.64L349.67 354.355C349.711 354.167 349.792 354.017 349.912 353.904C350.033 353.79 350.189 353.72 350.38 353.693C350.572 353.665 350.794 353.685 351.046 353.752C351.222 353.799 351.39 353.866 351.551 353.951C351.713 354.037 351.856 354.142 351.981 354.265C352.107 354.388 352.206 354.53 352.279 354.69C352.352 354.849 352.388 355.025 352.388 355.22V357.427L351.557 357.204V356.751L351.532 356.744C351.481 356.833 351.413 356.905 351.328 356.96C351.243 357.014 351.141 357.047 351.022 357.059C350.902 357.069 350.764 357.054 350.608 357.012ZM350.859 356.453C350.988 356.487 351.102 356.492 351.201 356.465C351.3 356.438 351.377 356.386 351.433 356.31C351.49 356.235 351.518 356.139 351.518 356.024V355.677C351.49 355.688 351.453 355.695 351.404 355.698C351.358 355.699 351.305 355.699 351.246 355.696C351.187 355.691 351.128 355.686 351.069 355.68C351.01 355.673 350.957 355.666 350.908 355.661C350.806 355.649 350.716 355.649 350.639 355.663C350.562 355.676 350.502 355.707 350.46 355.753C350.417 355.799 350.396 355.864 350.396 355.949C350.396 356.073 350.439 356.179 350.526 356.268C350.613 356.355 350.725 356.417 350.859 356.453ZM354.002 357.913C353.761 357.848 353.544 357.726 353.349 357.546C353.156 357.365 353.002 357.134 352.888 356.854C352.776 356.572 352.719 356.249 352.719 355.884C352.719 355.509 352.778 355.213 352.894 354.995C353.011 354.777 353.166 354.631 353.359 354.56C353.554 354.487 353.768 354.481 353.999 354.544C354.176 354.591 354.324 354.662 354.442 354.756C354.561 354.849 354.657 354.951 354.73 355.063C354.804 355.174 354.86 355.278 354.899 355.377L354.926 355.384V353.743L355.8 353.978V358.341L354.936 358.11V357.586L354.899 357.576C354.858 357.656 354.799 357.73 354.724 357.799C354.65 357.868 354.553 357.915 354.434 357.941C354.316 357.968 354.172 357.958 354.002 357.913ZM354.279 357.265C354.421 357.303 354.54 357.295 354.637 357.241C354.736 357.187 354.812 357.094 354.864 356.963C354.917 356.833 354.944 356.67 354.944 356.476C354.944 356.281 354.918 356.105 354.866 355.948C354.814 355.79 354.738 355.659 354.64 355.555C354.541 355.45 354.421 355.379 354.279 355.341C354.135 355.302 354.014 355.31 353.915 355.365C353.816 355.419 353.741 355.511 353.691 355.641C353.64 355.771 353.615 355.93 353.615 356.119C353.615 356.31 353.64 356.485 353.691 356.645C353.743 356.804 353.818 356.937 353.915 357.046C354.014 357.153 354.135 357.226 354.279 357.265ZM357.73 358.922C357.405 358.835 357.125 358.692 356.89 358.493C356.657 358.293 356.477 358.05 356.351 357.765C356.225 357.478 356.162 357.162 356.162 356.817C356.162 356.48 356.225 356.202 356.351 355.981C356.477 355.761 356.655 355.61 356.884 355.53C357.115 355.449 357.385 355.451 357.695 355.534C357.904 355.59 358.098 355.676 358.277 355.794C358.459 355.911 358.616 356.056 358.751 356.23C358.887 356.404 358.992 356.606 359.068 356.835C359.143 357.062 359.181 357.315 359.181 357.594V357.843L356.512 357.128V356.565L358.356 357.059C358.356 356.929 358.328 356.806 358.273 356.69C358.218 356.575 358.142 356.475 358.045 356.392C357.949 356.308 357.837 356.249 357.709 356.215C357.576 356.179 357.458 356.18 357.355 356.216C357.254 356.251 357.174 356.315 357.117 356.406C357.059 356.495 357.03 356.605 357.028 356.734V357.268C357.028 357.43 357.057 357.578 357.115 357.711C357.174 357.845 357.257 357.958 357.364 358.051C357.471 358.143 357.598 358.209 357.744 358.249C357.842 358.275 357.931 358.284 358.012 358.278C358.093 358.271 358.162 358.247 358.22 358.206C358.277 358.164 358.321 358.106 358.351 358.032L359.162 358.305C359.121 358.495 359.037 358.649 358.909 358.765C358.783 358.881 358.62 358.953 358.419 358.984C358.22 359.013 357.991 358.992 357.73 358.922ZM359.521 359.338V356.066L360.357 356.29V356.867L360.394 356.877C360.46 356.703 360.569 356.581 360.723 356.511C360.877 356.442 361.061 356.436 361.275 356.493C361.491 356.551 361.676 356.657 361.828 356.81C361.981 356.961 362.082 357.139 362.133 357.343L362.166 357.352C362.23 357.182 362.347 357.063 362.516 356.996C362.686 356.928 362.887 356.925 363.119 356.987C363.414 357.066 363.653 357.228 363.837 357.471C364.022 357.714 364.115 358.013 364.115 358.368V360.569L363.24 360.335V358.313C363.24 358.131 363.194 357.982 363.1 357.866C363.007 357.75 362.89 357.674 362.75 357.636C362.591 357.594 362.467 357.613 362.378 357.694C362.289 357.774 362.244 357.899 362.244 358.069V360.068L361.394 359.84V357.799C361.394 357.639 361.349 357.499 361.26 357.38C361.172 357.261 361.057 357.182 360.912 357.144C360.815 357.118 360.727 357.12 360.649 357.15C360.572 357.179 360.511 357.233 360.466 357.312C360.421 357.389 360.398 357.488 360.398 357.609V359.573L359.521 359.338ZM365.004 362.035C364.893 362.005 364.788 361.968 364.691 361.923C364.595 361.88 364.515 361.837 364.452 361.793L364.65 361.169C364.753 361.229 364.845 361.271 364.928 361.296C365.011 361.322 365.083 361.321 365.144 361.295C365.205 361.268 365.255 361.209 365.294 361.117L365.345 360.993L364.211 357.322L365.133 357.569L365.788 360.148L365.821 360.157L366.481 357.931L367.41 358.179L366.181 361.477C366.122 361.637 366.042 361.769 365.94 361.872C365.84 361.978 365.713 362.045 365.559 362.075C365.406 362.106 365.22 362.093 365.004 362.035Z" fill="#474747"/>
<rect x="-1.69037" y="-2.20293" width="165.5" height="261.5" rx="41.75" transform="matrix(0.965926 0.258819 0 1 253.702 86.4375)" stroke="url(#paint19_radial_688_6382)" stroke-width="3.5"/>
<rect x="-1.69037" y="-2.20293" width="165.5" height="261.5" rx="41.75" transform="matrix(0.965926 0.258819 0 1 253.702 86.4375)" stroke="url(#paint20_linear_688_6382)" stroke-width="3.5"/>
</g>
<defs>
<filter id="filter0_f_688_6382" x="0.759766" y="237" width="188.48" height="93.9277" filterUnits="userSpaceOnUse" color-interpolation-filters="sRGB">
<feFlood flood-opacity="0" result="BackgroundImageFix"/>
<feBlend mode="normal" in="SourceGraphic" in2="BackgroundImageFix" result="shape"/>
<feGaussianBlur stdDeviation="8" result="effect1_foregroundBlur_688_6382"/>
</filter>
<filter id="filter1_b_688_6382" x="-28.6211" y="-42" width="247.241" height="383.928" filterUnits="userSpaceOnUse" color-interpolation-filters="sRGB">
<feFlood flood-opacity="0" result="BackgroundImageFix"/>
<feGaussianBlur in="BackgroundImageFix" stdDeviation="21"/>
<feComposite in2="SourceAlpha" operator="in" result="effect1_backgroundBlur_688_6382"/>
<feBlend mode="normal" in="SourceGraphic" in2="effect1_backgroundBlur_688_6382" result="shape"/>
</filter>
<filter id="filter2_b_688_6382" x="-34.6211" y="-38" width="247.241" height="383.928" filterUnits="userSpaceOnUse" color-interpolation-filters="sRGB">
<feFlood flood-opacity="0" result="BackgroundImageFix"/>
<feGaussianBlur in="BackgroundImageFix" stdDeviation="21"/>
<feComposite in2="SourceAlpha" operator="in" result="effect1_backgroundBlur_688_6382"/>
<feBlend mode="normal" in="SourceGraphic" in2="effect1_backgroundBlur_688_6382" result="shape"/>
</filter>
<filter id="filter3_f_688_6382" x="73.7598" y="274" width="188.48" height="93.9277" filterUnits="userSpaceOnUse" color-interpolation-filters="sRGB">
<feFlood flood-opacity="0" result="BackgroundImageFix"/>
<feBlend mode="normal" in="SourceGraphic" in2="BackgroundImageFix" result="shape"/>
<feGaussianBlur stdDeviation="8" result="effect1_foregroundBlur_688_6382"/>
</filter>
<filter id="filter4_b_688_6382" x="44.3789" y="-5" width="247.241" height="383.928" filterUnits="userSpaceOnUse" color-interpolation-filters="sRGB">
<feFlood flood-opacity="0" result="BackgroundImageFix"/>
<feGaussianBlur in="BackgroundImageFix" stdDeviation="21"/>
<feComposite in2="SourceAlpha" operator="in" result="effect1_backgroundBlur_688_6382"/>
<feBlend mode="normal" in="SourceGraphic" in2="effect1_backgroundBlur_688_6382" result="shape"/>
</filter>
<filter id="filter5_b_688_6382" x="38.3789" y="-1" width="247.241" height="383.928" filterUnits="userSpaceOnUse" color-interpolation-filters="sRGB">
<feFlood flood-opacity="0" result="BackgroundImageFix"/>
<feGaussianBlur in="BackgroundImageFix" stdDeviation="21"/>
<feComposite in2="SourceAlpha" operator="in" result="effect1_backgroundBlur_688_6382"/>
<feBlend mode="normal" in="SourceGraphic" in2="effect1_backgroundBlur_688_6382" result="shape"/>
</filter>
<filter id="filter6_f_688_6382" x="125.821" y="154" width="73.1416" height="73.998" filterUnits="userSpaceOnUse" color-interpolation-filters="sRGB">
<feFlood flood-opacity="0" result="BackgroundImageFix"/>
<feBlend mode="normal" in="SourceGraphic" in2="BackgroundImageFix" result="shape"/>
<feGaussianBlur stdDeviation="5.5" result="effect1_foregroundBlur_688_6382"/>
</filter>
<filter id="filter7_f_688_6382" x="243.76" y="319" width="188.48" height="93.9277" filterUnits="userSpaceOnUse" color-interpolation-filters="sRGB">
<feFlood flood-opacity="0" result="BackgroundImageFix"/>
<feBlend mode="normal" in="SourceGraphic" in2="BackgroundImageFix" result="shape"/>
<feGaussianBlur stdDeviation="8" result="effect1_foregroundBlur_688_6382"/>
</filter>
<filter id="filter8_b_688_6382" x="214.379" y="40" width="247.241" height="383.928" filterUnits="userSpaceOnUse" color-interpolation-filters="sRGB">
<feFlood flood-opacity="0" result="BackgroundImageFix"/>
<feGaussianBlur in="BackgroundImageFix" stdDeviation="21"/>
<feComposite in2="SourceAlpha" operator="in" result="effect1_backgroundBlur_688_6382"/>
<feBlend mode="normal" in="SourceGraphic" in2="effect1_backgroundBlur_688_6382" result="shape"/>
</filter>
<filter id="filter9_b_688_6382" x="208.379" y="44" width="247.241" height="383.928" filterUnits="userSpaceOnUse" color-interpolation-filters="sRGB">
<feFlood flood-opacity="0" result="BackgroundImageFix"/>
<feGaussianBlur in="BackgroundImageFix" stdDeviation="21"/>
<feComposite in2="SourceAlpha" operator="in" result="effect1_backgroundBlur_688_6382"/>
<feBlend mode="normal" in="SourceGraphic" in2="effect1_backgroundBlur_688_6382" result="shape"/>
</filter>
<radialGradient id="paint0_radial_688_6382" cx="0" cy="0" r="1" gradientUnits="userSpaceOnUse" gradientTransform="rotate(57.875) scale(304.644 190.659)">
<stop stop-color="white" stop-opacity="0.4"/>
<stop offset="1" stop-color="white" stop-opacity="0"/>
</radialGradient>
<radialGradient id="paint1_radial_688_6382" cx="0" cy="0" r="1" gradientUnits="userSpaceOnUse" gradientTransform="translate(81 129) rotate(90) scale(129 130.884)">
<stop stop-color="#8C4424"/>
<stop offset="1" stop-color="#8C4424" stop-opacity="0"/>
</radialGradient>
<linearGradient id="paint2_linear_688_6382" x1="81" y1="0" x2="81" y2="258" gradientUnits="userSpaceOnUse">
<stop stop-color="white"/>
<stop offset="1" stop-color="white" stop-opacity="0"/>
</linearGradient>
<radialGradient id="paint3_radial_688_6382" cx="0" cy="0" r="1" gradientUnits="userSpaceOnUse" gradientTransform="rotate(57.875) scale(304.644 190.659)">
<stop stop-color="white" stop-opacity="0.4"/>
<stop offset="1" stop-color="white" stop-opacity="0"/>
</radialGradient>
<linearGradient id="paint4_linear_688_6382" x1="39.7373" y1="197.027" x2="152.239" y2="256.035" gradientUnits="userSpaceOnUse">
<stop stop-color="#1C1C1C"/>
<stop offset="0.515193" stop-color="white"/>
<stop offset="1" stop-color="#303030"/>
</linearGradient>
<radialGradient id="paint5_radial_688_6382" cx="0" cy="0" r="1" gradientUnits="userSpaceOnUse" gradientTransform="translate(81 129) rotate(90) scale(129 130.884)">
<stop stop-color="#8C4424"/>
<stop offset="1" stop-color="#8C4424" stop-opacity="0"/>
</radialGradient>
<linearGradient id="paint6_linear_688_6382" x1="81" y1="0" x2="81" y2="258" gradientUnits="userSpaceOnUse">
<stop stop-color="white"/>
<stop offset="1" stop-color="white" stop-opacity="0"/>
</linearGradient>
<radialGradient id="paint7_radial_688_6382" cx="0" cy="0" r="1" gradientUnits="userSpaceOnUse" gradientTransform="rotate(57.875) scale(304.644 190.659)">
<stop stop-color="white" stop-opacity="0.4"/>
<stop offset="1" stop-color="white" stop-opacity="0"/>
</radialGradient>
<radialGradient id="paint8_radial_688_6382" cx="0" cy="0" r="1" gradientUnits="userSpaceOnUse" gradientTransform="translate(81 129) rotate(90) scale(129 130.884)">
<stop stop-color="#8C4424"/>
<stop offset="1" stop-color="#8C4424" stop-opacity="0"/>
</radialGradient>
<linearGradient id="paint9_linear_688_6382" x1="81" y1="0" x2="81" y2="258" gradientUnits="userSpaceOnUse">
<stop stop-color="white"/>
<stop offset="1" stop-color="white" stop-opacity="0"/>
</linearGradient>
<radialGradient id="paint10_radial_688_6382" cx="0" cy="0" r="1" gradientUnits="userSpaceOnUse" gradientTransform="rotate(57.875) scale(304.644 190.659)">
<stop stop-color="white" stop-opacity="0.4"/>
<stop offset="1" stop-color="white" stop-opacity="0"/>
</radialGradient>
<linearGradient id="paint11_linear_688_6382" x1="115.636" y1="232.804" x2="224.425" y2="286.696" gradientUnits="userSpaceOnUse">
<stop offset="0.130208" stop-color="white"/>
<stop offset="0.161458" stop-color="#1C1C1C"/>
<stop offset="1" stop-color="#303030"/>
</linearGradient>
<radialGradient id="paint12_radial_688_6382" cx="0" cy="0" r="1" gradientUnits="userSpaceOnUse" gradientTransform="translate(81 129) rotate(90) scale(129 130.884)">
<stop stop-color="#8C4424"/>
<stop offset="1" stop-color="#8C4424" stop-opacity="0"/>
</radialGradient>
<linearGradient id="paint13_linear_688_6382" x1="81" y1="0" x2="81" y2="258" gradientUnits="userSpaceOnUse">
<stop stop-color="white"/>
<stop offset="1" stop-color="white" stop-opacity="0"/>
</linearGradient>
<radialGradient id="paint14_radial_688_6382" cx="0" cy="0" r="1" gradientUnits="userSpaceOnUse" gradientTransform="rotate(57.875) scale(304.644 190.659)">
<stop stop-color="white" stop-opacity="0.4"/>
<stop offset="1" stop-color="white" stop-opacity="0"/>
</radialGradient>
<radialGradient id="paint15_radial_688_6382" cx="0" cy="0" r="1" gradientUnits="userSpaceOnUse" gradientTransform="translate(81 129) rotate(90) scale(129 130.884)">
<stop stop-color="#8C4424"/>
<stop offset="1" stop-color="#8C4424" stop-opacity="0"/>
</radialGradient>
<linearGradient id="paint16_linear_688_6382" x1="81" y1="0" x2="81" y2="258" gradientUnits="userSpaceOnUse">
<stop stop-color="white"/>
<stop offset="1" stop-color="white" stop-opacity="0"/>
</linearGradient>
<radialGradient id="paint17_radial_688_6382" cx="0" cy="0" r="1" gradientUnits="userSpaceOnUse" gradientTransform="rotate(57.875) scale(304.644 190.659)">
<stop stop-color="white" stop-opacity="0.4"/>
<stop offset="1" stop-color="white" stop-opacity="0"/>
</radialGradient>
<linearGradient id="paint18_linear_688_6382" x1="274.01" y1="280.693" x2="393.192" y2="383.204" gradientUnits="userSpaceOnUse">
<stop offset="0.104167" stop-color="#1C1C1C"/>
<stop offset="0.184226" stop-color="white" stop-opacity="0.69"/>
<stop offset="1" stop-color="#303030"/>
</linearGradient>
<radialGradient id="paint19_radial_688_6382" cx="0" cy="0" r="1" gradientUnits="userSpaceOnUse" gradientTransform="translate(81 129) rotate(90) scale(129 130.884)">
<stop stop-color="#8C4424"/>
<stop offset="1" stop-color="#8C4424" stop-opacity="0"/>
</radialGradient>
<linearGradient id="paint20_linear_688_6382" x1="81" y1="0" x2="81" y2="258" gradientUnits="userSpaceOnUse">
<stop stop-color="white"/>
<stop offset="1" stop-color="white" stop-opacity="0"/>
</linearGradient>
</defs>
</svg>
