<svg width="446" height="292" viewBox="0 0 446 292" fill="none" xmlns="http://www.w3.org/2000/svg">
<g clip-path="url(#clip0_667_7190)">
<path d="M411.501 141H49.8437C44.9961 141 41.0522 137.057 41.0522 132.21V8.78881C41.0522 3.94263 44.9961 0 49.8437 0H411.501C416.348 0 420.292 3.94263 420.292 8.78881V132.21C420.292 137.057 416.348 141 411.501 141ZM49.8437 1.04782C45.5741 1.04782 42.1004 4.52052 42.1004 8.78881V132.21C42.1004 136.479 45.5741 139.952 49.8437 139.952H411.501C415.77 139.952 419.244 136.479 419.244 132.21V8.78881C419.244 4.52052 415.77 1.04782 411.501 1.04782H49.8437Z" fill="#292D32"/>
<path d="M446 288.443H0V289.325H446V288.443Z" fill="#F0F3F1"/>
<path d="M446 243.387H0V244.268H446V243.387Z" fill="#F0F3F1"/>
<path d="M203.254 145.538C203.575 149.562 205.911 152.658 208.472 152.454C211.034 152.249 212.85 148.823 212.529 144.798C212.423 143.188 211.933 141.627 211.099 140.246L209.527 123.215L201.548 124.123L203.945 140.816C203.341 142.312 203.104 143.931 203.254 145.538Z" fill="#FFB6B6"/>
<path d="M193.723 66.0821C193.723 66.0821 201.182 62.135 204.964 68.0334C208.745 73.9318 211.356 137.725 211.356 137.725L200.873 138.843L198.886 93.8904L193.723 66.0821Z" fill="#F0F3F1"/>
<path d="M178.243 240.057L184.315 240.057L187.204 216.641L178.242 216.641L178.243 240.057Z" fill="#FFB6B6"/>
<path d="M199.048 239.92C199.237 240.238 199.337 241.265 199.337 241.636C199.337 242.774 198.414 243.696 197.276 243.696H178.47C177.693 243.696 177.064 243.067 177.064 242.29V241.508C177.064 241.508 176.133 239.155 178.049 236.256C178.049 236.256 180.429 238.526 183.986 234.97L185.035 233.07L192.628 238.622L196.837 239.14C197.758 239.253 198.574 239.122 199.048 239.92Z" fill="#292D32"/>
<path d="M213.384 239.054L219.267 237.551L216.269 214.148L207.585 216.367L213.384 239.054Z" fill="#FFB6B6"/>
<path d="M233.508 233.773C233.77 234.034 234.121 235.005 234.213 235.364C234.495 236.466 233.829 237.588 232.726 237.87L214.505 242.523C213.753 242.715 212.987 242.261 212.795 241.509L212.601 240.751C212.601 240.751 211.117 238.702 212.255 235.418C212.255 235.418 215.124 237.029 217.69 232.704L218.236 230.604L226.967 234.104L231.173 233.564C232.093 233.446 232.852 233.117 233.508 233.773Z" fill="#292D32"/>
<path d="M173.219 61.0491L172.931 58.9603L176.353 50.605L185.755 49.5605L187.786 61.5222L173.219 61.0491Z" fill="#FFB6B6"/>
<path opacity="0.1" d="M173.219 61.0491L172.931 58.9603L176.353 50.605L185.755 49.5605L187.786 61.5222L173.219 61.0491Z" fill="#F0F3F1"/>
<path d="M162.249 120.058L158.07 131.547L161.205 137.813L176.875 228.677H187.294L185.233 148.258L209.262 228.677H219.574L211.282 174.368L205.083 124.236L201.324 121.914L183.144 111.703L162.249 120.058Z" fill="#292D32"/>
<path d="M188.89 127.891L182.621 128.936L174.264 109.092H193.069L188.89 127.891Z" fill="#F0F3F1"/>
<path d="M201.427 122.668L188.89 127.89L184.711 118.491L182.621 128.935L160.682 121.874L163.816 109.091L160.682 67.3143L171.746 59.9407L173.219 58.959L186.8 60.0034L187.991 60.6509L196.203 65.2255L198.292 99.6911L201.427 122.668Z" fill="#292D32"/>
<path d="M187.991 60.6509L182.099 85.5915L171.746 59.9407L173.219 58.959L186.8 60.0034L187.991 60.6509Z" fill="#F0F3F1"/>
<path d="M177.92 58.959L175.831 62.5564L177.92 63.7556L176.875 85.6564L181.054 91.3358L185.233 82.9418L182.099 63.7556L183.144 58.959H177.92Z" fill="#292D32"/>
<path d="M181.054 56.8712C186.536 56.8712 190.979 52.429 190.979 46.9493C190.979 41.4695 186.536 37.0273 181.054 37.0273C175.573 37.0273 171.129 41.4695 171.129 46.9493C171.129 52.429 175.573 56.8712 181.054 56.8712Z" fill="#FFB6B6"/>
<path d="M174.712 47.8195L176.856 48.7552L177.792 43.1414C177.792 43.1414 181.536 41.2702 184.343 42.2058C187.151 43.1414 191.831 42.2058 191.831 42.2058C191.831 42.2058 191.831 32.8496 185.279 32.8496C178.728 32.8496 172.177 33.7852 172.177 36.5921C172.177 39.399 169.369 42.2058 169.369 42.2058C169.369 42.2058 165.625 47.8195 169.369 51.562C173.113 55.3045 174.984 55.3045 174.984 55.3045L174.712 47.8195Z" fill="#292D32"/>
<path d="M155.453 145.244C155.345 149.279 157.339 152.606 159.908 152.675C162.476 152.743 164.646 149.528 164.754 145.492C164.82 143.88 164.498 142.276 163.816 140.815L164.061 123.713L156.031 123.769L156.642 140.622C155.882 142.046 155.475 143.631 155.453 145.244Z" fill="#FFB6B6"/>
<path d="M165.388 65.2073C165.388 65.2073 158.598 63.1184 155.463 69.3849C152.329 75.6514 156.508 139.361 156.508 139.361H167.05L164.252 94.4508L165.388 65.2073Z" fill="#F0F3F1"/>
<path d="M425.888 183.898L400.564 176.148C400.004 175.977 399.416 175.914 398.832 175.964L270.487 186.883C268.657 187.039 268.197 189.507 269.848 190.311L273.959 192.313H273.85V288.163H277.724V194.146L290.608 200.422C291.594 200.902 292.694 201.098 293.785 200.988L295.156 200.849V288.163H299.03V200.458L398.299 190.434V288.163H402.173V190.043L418.637 188.38V288.163H422.511V187.989L425.515 187.686C427.623 187.473 427.914 184.518 425.888 183.898Z" fill="#292D32"/>
<path d="M307.747 186.503C310.168 186.503 346.001 182.146 346.001 182.146L351.328 189.408L314.042 196.669L307.747 186.503Z" fill="white"/>
<path d="M347.075 284.44L340.849 284.429L337.929 260.418L347.117 260.434L347.075 284.44Z" fill="#A0616A"/>
<path d="M325.745 284.263C325.551 284.589 325.446 285.642 325.446 286.022C325.444 287.188 326.388 288.136 327.555 288.138L346.835 288.171C347.631 288.172 348.278 287.528 348.279 286.732L348.281 285.93C348.281 285.93 349.238 283.52 347.28 280.544C347.28 280.544 344.835 282.867 341.195 279.215L340.123 277.266L332.329 282.944L328.013 283.467C327.069 283.582 326.232 283.446 325.745 284.263Z" fill="#292D32"/>
<path d="M380.488 273.274L375.576 276.978L358.948 259.8L366.197 254.334L380.488 273.274Z" fill="#A0616A"/>
<path d="M363.576 285.853C363.617 286.225 364.164 287.117 364.39 287.417C365.084 288.337 366.394 288.52 367.314 287.826L382.525 276.355C383.153 275.881 383.278 274.988 382.805 274.36L382.327 273.727C382.327 273.727 381.643 271.257 378.325 270.08C378.325 270.08 377.785 273.368 372.737 272.662L370.729 271.765L367.976 280.887L364.888 283.873C364.213 284.527 363.472 284.919 363.576 285.853Z" fill="#292D32"/>
<path d="M367.477 149.179C367.477 154.918 362.823 159.571 357.082 159.571C351.341 159.571 346.687 154.918 346.687 149.179C346.687 143.44 351.341 138.787 357.082 138.787C362.823 138.787 367.477 143.44 367.477 149.179Z" fill="#A0616A"/>
<path d="M366.497 209.096C366.497 209.096 328.224 206.93 326.057 211.262C323.891 215.593 337.769 275.092 337.769 275.092L350.151 272.497L344.111 230.754C344.111 230.754 376.049 239.21 380.382 229.103C384.715 218.996 383.468 215.233 383.468 215.233L366.497 209.096Z" fill="#292D32"/>
<path d="M376.303 201.826C376.303 201.826 338.82 209.859 337.877 214.609C336.934 219.36 366.062 273.068 366.062 273.068L377.316 267.292L360.445 228.633C360.445 228.633 393.484 228.341 394.988 217.448C396.492 206.556 394.293 203.256 394.293 203.256L376.303 201.826Z" fill="#292D32"/>
<path d="M380.579 161.088H362.571L350.249 181.302C350.249 181.302 347.361 194.365 350.249 195.775C353.138 197.184 353.138 212.345 353.138 212.345L383.468 215.232C383.468 215.232 387.801 169.751 386.356 165.419C384.912 161.088 380.579 161.088 380.579 161.088Z" fill="#A77700"/>
<path d="M352.054 174.445L350.249 195.776L329.943 187.161L325.096 184.724C324.147 183.487 322.915 182.494 321.504 181.831C317.994 180.121 314.268 180.544 313.179 182.776C312.091 185.008 314.053 188.204 317.562 189.913C318.955 190.615 320.496 190.974 322.057 190.959L336.237 199.01L336.254 198.979L336.316 199.091L358.554 208.376L363.67 180.373L352.054 174.445Z" fill="#A0616A"/>
<path d="M349.888 150.621C349.888 150.621 339.056 152.065 343.389 142.68C343.389 142.68 342.728 137.592 345.947 137.248C349.166 136.904 353.499 131.129 353.499 131.129C353.499 131.129 363.433 126.075 368.576 131.129C373.719 136.182 388.884 165.781 388.884 165.781L378.774 176.61C378.774 176.61 372.696 160.637 365.625 162.487C358.554 164.337 352.055 169.854 352.055 169.854C352.055 169.854 344.879 166.264 348.105 163.135C351.332 160.006 349.888 150.621 349.888 150.621Z" fill="#292D32"/>
<path d="M364.331 166.503C364.331 166.503 359.276 160.006 355.665 165.059C352.055 170.113 349.166 176.61 349.166 176.61L363.609 181.663L364.331 166.503Z" fill="#A77700"/>
<path d="M419.169 286.725L402.389 233.407L402.391 233.407H402.43L402.362 233.32L402.36 233.318L401.165 229.52L401.166 229.519C402.987 227.951 404.226 225.71 404.473 223.129L396.803 180.955C397.331 175.417 393.084 170.576 387.52 170.378L370.213 170.334C365.293 170.16 361.032 173.713 360.315 178.583L359.933 181.168L354.631 217.228C354.437 218.526 354.514 219.804 354.819 220.999L351.004 221.498L349.846 221.653L345.27 222.248L345.256 222.253L344.684 222.326H344.064V237.817H344.103V287.33C344.103 287.649 344.365 287.911 344.684 287.911C345.009 287.911 345.27 287.649 345.27 287.33V237.817H352.059L358.834 287.272C358.877 287.562 359.124 287.775 359.415 287.775C359.439 287.775 359.468 287.775 359.492 287.77C359.812 287.727 360.035 287.431 359.991 287.112L353.241 237.817H385.815C389.05 237.817 392.047 236.791 394.487 235.034L407.403 287.181C407.47 287.445 407.707 287.62 407.968 287.62C408.015 287.62 408.064 287.615 408.112 287.602C408.424 287.523 408.613 287.205 408.533 286.893L395.493 234.242C395.667 234.097 395.84 233.943 396.004 233.784L401.189 233.479L418.056 287.076C418.134 287.324 418.364 287.484 418.612 287.484C418.67 287.484 418.729 287.475 418.787 287.457C419.095 287.36 419.265 287.033 419.169 286.725ZM400.057 230.347C400.1 230.323 400.139 230.294 400.178 230.27L400.303 230.665L400.057 230.347Z" fill="#F0F3F1"/>
<path d="M89.9121 196.348L101.205 189.168L105.797 191.937L89.9121 210.183V196.348Z" fill="#FFB6B6"/>
<path d="M74.4688 168.559C74.4688 168.559 66.9679 170.323 70.4977 180.469C74.0276 190.614 85.4997 211.787 89.0296 210.463C92.5594 209.14 93.0007 195.907 93.0007 195.907C93.0007 195.907 92.5594 196.348 90.7945 194.584C89.0296 192.819 89.0296 193.625 89.0296 191.678C89.0296 189.732 87.586 188.289 87.586 188.289L85.9409 184.88C85.9409 184.88 85.9409 169 79.3224 168.118C72.7039 167.236 74.4688 168.559 74.4688 168.559Z" fill="#A77700"/>
<path d="M109.514 191.462C112.443 188.534 113.351 184.694 111.542 182.885C109.732 181.076 105.891 181.984 102.962 184.912C100.032 187.841 99.1244 191.681 100.934 193.49C102.743 195.299 106.584 194.391 109.514 191.462Z" fill="#FFB6B6"/>
<path d="M45.2524 227.004L52.9584 239.755L97.8654 237.099L85.9079 221.691L45.2524 227.004Z" fill="#F0F3F1"/>
<path d="M58.6705 286.642C58.409 286.642 58.1811 286.449 58.1447 286.182L44.7257 188.207C44.6858 187.917 44.8893 187.649 45.1801 187.609C45.4707 187.567 45.7388 187.772 45.7787 188.063L59.1977 286.038C59.2375 286.329 59.0341 286.597 58.7433 286.637C58.7188 286.64 58.6945 286.642 58.6705 286.642Z" fill="#F0F3F1"/>
<path d="M45.2521 286.766C44.9587 286.766 44.7207 286.528 44.7207 286.235V188.154C44.7207 187.861 44.9587 187.623 45.2521 187.623C45.5456 187.623 45.7836 187.861 45.7836 188.154V286.235C45.7836 286.528 45.5456 286.766 45.2521 286.766Z" fill="#F0F3F1"/>
<path d="M112.613 286.376C112.387 286.376 112.177 286.231 112.106 286.004L80.3523 185.107C80.2642 184.827 80.4197 184.529 80.6997 184.44C80.9796 184.353 81.2782 184.508 81.3661 184.788L113.12 285.685C113.208 285.965 113.052 286.263 112.772 286.351C112.719 286.368 112.666 286.376 112.613 286.376Z" fill="#F0F3F1"/>
<path d="M102.913 286.5C102.676 286.5 102.46 286.34 102.399 286.1L80.3436 197.051C80.2714 196.767 80.4433 196.477 80.7277 196.405C81.013 196.333 81.3014 196.505 81.3738 196.789L103.429 285.838C103.501 286.122 103.329 286.411 103.045 286.484C103.001 286.495 102.957 286.5 102.913 286.5Z" fill="#F0F3F1"/>
<path d="M45.2524 189.716L82.055 189.15L88.8309 227.801H45.7839L45.2524 189.716Z" fill="#F0F3F1"/>
<path d="M101.809 246.551L92.5337 262.875L103.303 265.245L107.792 253.635L101.809 246.551Z" fill="#FFB6B6"/>
<path d="M95.8653 259.792C95.8653 259.792 95.5049 257.129 93.3861 257.974C91.2673 258.819 85.1523 261.959 85.1523 261.959C85.1523 261.959 101.102 287.866 104.129 286.659C107.155 285.453 103.532 278.129 103.532 278.129L104.332 265.184L95.8653 259.792Z" fill="#292D32"/>
<path d="M60.7905 214.874C60.7905 214.874 57.4813 230.092 67.6297 235.385C77.7781 240.679 112.415 227.666 112.415 227.666L96.5305 251.46L107.561 255.897C107.561 255.897 132.712 222.814 130.947 217.521C129.182 212.228 117.269 211.786 117.269 211.786L90.3532 213.11L83.2935 210.904L60.7905 214.874Z" fill="#292D32"/>
<path d="M88.0873 253.795L73.5063 265.626L82.6743 271.751L91.0823 262.57L88.0873 253.795Z" fill="#FFB6B6"/>
<path d="M77.7307 263.968C77.7307 263.968 78.364 261.357 76.083 261.373C73.8019 261.389 66.9634 262.089 66.9634 262.089C66.9634 262.089 72.389 292.023 75.6477 292C78.9063 291.977 78.197 283.837 78.197 283.837L83.6538 272.07L77.7307 263.968Z" fill="#292D32"/>
<path d="M61.4108 209.369C61.4108 209.369 52.7891 222.34 60.3151 230.962C67.8411 239.584 104.84 240.064 104.84 240.064L81.3838 256.448L90.0433 264.593C90.0433 264.593 125.511 242.928 125.794 237.355C126.077 231.783 115.141 227.038 115.141 227.038L89.589 218.48L83.816 213.857L61.4108 209.369Z" fill="#292D32"/>
<path d="M83.559 179.326C83.559 179.326 75.1756 176.238 71.2045 176.238C70.825 176.238 70.45 176.282 70.0749 176.362C67.5334 176.9 65.1949 179.083 64.0741 180.274C63.6373 180.742 63.3858 181.055 63.3858 181.055C63.3858 181.055 63.4123 180.751 63.4652 180.217C63.7256 177.411 64.6874 168.206 66.4127 162.313C67.0304 160.208 67.7408 158.528 68.5571 157.712C70.4588 155.806 71.3368 153.521 71.7428 151.819C72.0869 150.359 72.0869 149.331 72.0869 149.331L68.8704 147.946L68.2747 144.055C68.1688 144.514 67.679 145.41 66.0332 147.125C65.892 147.271 65.7376 147.395 65.5743 147.5C63.2005 148.991 58.3602 146.398 55.7524 144.766C56.8379 140.994 58.8058 137.545 62.3798 136.98C70.7632 135.657 70.7632 130.805 76.0581 136.098C76.4949 136.535 76.9361 136.954 77.3773 137.359C79.0717 140.597 79.6894 144.938 79.91 147.955C80.0689 150.068 80.0292 151.536 80.0292 151.536C80.0292 151.536 82.2353 164.77 85.7652 167.416C89.2951 170.063 83.559 179.326 83.559 179.326Z" fill="#292D32"/>
<path d="M67.2333 158.152L61.2715 166.895L74.7343 170.503V158.152H67.2333Z" fill="#FFB6B6"/>
<path opacity="0.1" d="M67.2333 158.152L61.2715 166.895L74.7343 170.503V158.152H67.2333Z" fill="#F0F3F1"/>
<path d="M75.5717 166.574L62.7759 161.281C62.7759 161.281 45.5678 168.78 46.8915 183.336C48.2152 197.893 60.5697 223.035 60.5697 223.035L85.2789 212.449L82.6315 184.219L75.5717 166.574Z" fill="#A77700"/>
<path d="M70.0854 162.056C76.3201 162.056 81.3743 157.003 81.3743 150.77C81.3743 144.537 76.3201 139.484 70.0854 139.484C63.8506 139.484 58.7964 144.537 58.7964 150.77C58.7964 157.003 63.8506 162.056 70.0854 162.056Z" fill="#FFB6B6"/>
<path d="M85.3243 146.684C83.1181 148.89 81.3532 151.095 81.3532 151.095L80.4707 147.567C80.4707 147.567 80.2677 147.716 79.9103 147.955C78.5116 148.907 74.7567 151.303 71.7431 151.819C70.4017 152.048 69.2104 151.903 68.4338 151.095C66.788 149.379 66.2983 148.484 66.1924 148.025L65.5967 151.916L62.3801 153.301C62.3801 153.301 62.3801 158.144 65.91 161.682C66.0821 161.854 66.2497 162.066 66.413 162.313C68.0985 164.853 69.3075 171.073 70.0752 176.362C70.7547 181.064 71.0812 185.025 71.0812 185.025C71.0812 185.025 67.7411 180.843 64.0744 180.274C63.8715 180.243 63.6685 180.221 63.4655 180.217C63.3993 180.208 63.3288 180.208 63.2626 180.208C59.2915 180.208 50.908 183.296 50.908 183.296C50.908 183.296 45.172 174.033 48.7018 171.386C52.2317 168.739 54.4379 155.506 54.4379 155.506C54.4379 155.506 54.2923 149.843 55.7527 144.766C56.8382 140.994 58.8061 137.545 62.3801 136.98C70.7635 135.657 70.7635 130.805 76.0584 136.098C76.4952 136.535 76.9364 136.954 77.3776 137.359C82.3106 141.894 87.3496 144.66 85.3243 146.684Z" fill="#292D32"/>
<path d="M35.8117 205.896H31.6191V288.674H35.8117V205.896Z" fill="#292D32"/>
<path d="M137.481 205.896H133.289V288.674H137.481V205.896Z" fill="#292D32"/>
<path d="M110.754 170.795H82.978V198.562H110.754V170.795Z" fill="#A77700"/>
<path d="M66.9678 200.316L78.2609 193.137L82.8522 195.905L66.9678 214.152V200.316Z" fill="#FFB6B6"/>
<path d="M51.5245 172.528C51.5245 172.528 44.0235 174.292 47.5534 184.437C51.0833 194.583 62.5554 215.756 66.0852 214.432C69.6151 213.109 70.0563 199.876 70.0563 199.876C70.0563 199.876 69.6151 200.317 67.8502 198.553C66.0852 196.788 66.0852 197.594 66.0852 195.647C66.0852 193.7 64.6417 192.257 64.6417 192.257L62.9966 188.848C62.9966 188.848 62.9966 172.969 56.3781 172.086C49.7596 171.204 51.5245 172.528 51.5245 172.528Z" fill="#A77700"/>
<path d="M86.5694 195.431C89.4987 192.503 90.4066 188.663 88.5974 186.854C86.7881 185.045 82.9467 185.953 80.0174 188.881C77.0881 191.81 76.1801 195.65 77.9894 197.459C79.7987 199.267 83.64 198.36 86.5694 195.431Z" fill="#FFB6B6"/>
<path d="M145.866 202.752H19.0415V212.182H145.866V202.752Z" fill="#292D32"/>
<path d="M274.719 127.311H255.988C254.503 127.311 253.3 128.514 253.3 129.998V137.721C253.3 139.205 254.503 140.408 255.988 140.408H274.719C276.203 140.408 277.407 139.205 277.407 137.721V129.998C277.407 128.514 276.203 127.311 274.719 127.311Z" fill="#292D32"/>
<path d="M314.024 135.033H295.293C293.809 135.033 292.605 136.236 292.605 137.721V137.721C292.605 139.205 293.809 140.408 295.293 140.408H314.024C315.508 140.408 316.712 139.205 316.712 137.721V137.721C316.712 136.236 315.508 135.033 314.024 135.033Z" fill="#A77700"/>
</g>
<defs>
<clipPath id="clip0_667_7190">
<rect width="446" height="292" fill="white"/>
</clipPath>
</defs>
</svg>
