<svg width="87" height="24" viewBox="0 0 87 24" fill="none" xmlns="http://www.w3.org/2000/svg">
<path d="M12.2102 23.3308C18.6795 23.3308 23.9239 18.1316 23.9239 11.7181C23.9239 5.30464 18.6795 0.105469 12.2102 0.105469C5.74096 0.105469 0.496582 5.30464 0.496582 11.7181C0.496582 18.1316 5.74096 23.3308 12.2102 23.3308Z" fill="#A9A9A9"/>
<path d="M13.4581 12.7896V12.7877C13.3771 12.7933 12.959 12.8176 12.0287 12.8176C11.2849 12.8176 10.7632 12.7971 10.5787 12.7877V12.7896C7.71804 12.6645 5.58435 12.1716 5.58435 11.5798C5.58435 10.9898 7.71992 10.4951 10.5787 10.37V12.2986C10.7651 12.3117 11.3018 12.3434 12.0419 12.3434C12.9308 12.3434 13.3752 12.3061 13.4581 12.2986V10.3719C16.3131 10.4988 18.4411 10.9917 18.4411 11.5817C18.4411 12.1716 16.3112 12.6645 13.4581 12.7915V12.7896ZM13.4581 10.1721V8.44699H17.4411V5.81641H6.59752V8.44699H10.5805V10.1721C7.34328 10.3196 4.91016 10.9544 4.91016 11.7161C4.91016 12.4778 7.34516 13.1126 10.5805 13.262V18.792H13.46V13.262C16.6916 13.1145 19.121 12.4797 19.121 11.718C19.121 10.9581 16.6916 10.3214 13.46 10.174" fill="#F0F3F1"/>
<path d="M33.8721 6.53582V9.32511H36.6066V11.418H33.8533V15.6617C33.8533 16.5989 34.375 17.0563 35.1396 17.0563C35.5218 17.0563 35.9644 16.9369 36.326 16.7576L37.0096 18.83C36.3072 19.1082 35.7234 19.2277 34.9795 19.2482C32.8288 19.3285 31.4221 18.1131 31.4221 15.6617V11.418H29.5728V9.32511H31.4221V6.79533L33.8721 6.53582ZM81.0148 9.19442L81.1956 10.3296C81.9602 9.11414 82.9846 8.93491 83.9903 8.93491C85.0148 8.93491 85.9997 9.33258 86.5421 9.87027L85.4366 11.9818C84.9338 11.5636 84.4724 11.3433 83.6683 11.3433C82.382 11.3433 81.1956 12.0211 81.1956 13.8339V19.0148H78.7436V9.19069L81.0148 9.19442ZM75.0054 12.9602C74.8454 11.685 73.8397 11.0465 72.433 11.0465C71.1072 11.0465 70.0206 11.685 69.659 12.9602H75.0054ZM69.6194 14.9728C69.7795 16.1882 70.8454 17.0657 72.5742 17.0657C73.4782 17.0657 74.6646 16.7259 75.2277 16.149L76.7945 17.6837C75.7493 18.759 74.0412 19.2781 72.5328 19.2781C69.1166 19.2781 67.0846 17.1852 67.0846 14.0374C67.0846 11.0483 69.1354 8.8957 72.352 8.8957C75.6683 8.8957 77.7399 10.9289 77.3576 14.9728H69.6194ZM58.806 5.06836V10.5275C59.6911 9.39232 60.7758 9.05253 61.902 9.05253C64.7155 9.05253 65.9622 10.9457 65.9622 13.8358V19.0167H63.5103V13.8563C63.5103 12.0621 62.5649 11.306 61.2579 11.306C59.8097 11.306 58.806 12.5214 58.806 13.9963V19.0186H56.354V5.07023L58.806 5.06836ZM52.2938 6.4238V9.21309H55.0282V11.306H52.275V15.5497C52.275 16.4869 52.7985 16.9443 53.5612 16.9443C53.9435 16.9443 54.3861 16.8248 54.7476 16.6456L55.4312 18.718C54.7288 18.9961 54.145 19.1156 53.4011 19.1362C51.2505 19.2165 49.8437 17.9992 49.8437 15.5497V11.306H47.9944V9.21309H49.8437V6.68331L52.2938 6.4238ZM45.5199 12.9602C45.3598 11.685 44.3542 11.0465 42.9474 11.0465C41.6216 11.0465 40.535 11.685 40.1734 12.9602H45.5199ZM40.1339 14.9728C40.2939 16.1882 41.3598 17.0657 43.0886 17.0657C43.9926 17.0657 45.179 16.7259 45.7421 16.149L47.3089 17.6837C46.2637 18.759 44.5557 19.2781 43.0472 19.2781C39.6292 19.2781 37.599 17.1852 37.599 14.0374C37.599 11.0483 39.6499 8.8957 42.8645 8.8957C46.1809 8.8957 48.2505 10.9289 47.8701 14.9728H40.1339Z" fill="#A9A9A9"/>
</svg>
