<svg width="463" height="538" viewBox="0 0 463 538" fill="none" xmlns="http://www.w3.org/2000/svg">
<path d="M123.919 163.937C120.616 165.196 117.242 166.264 113.816 167.134C109.289 168.238 106.734 168.749 102.365 167.053C102.212 166.994 102.066 166.935 101.927 166.877C93.647 163.354 86.5686 157.499 81.554 150.024C76.5393 142.55 73.8046 133.777 73.6828 124.776C73.6609 124.467 73.6609 124.142 73.6609 123.826C73.6567 122.3 73.7296 120.775 73.8793 119.257C74.0708 117.189 74.4014 115.136 74.869 113.112L74.8254 113.104C71.2884 109.486 69.9275 104.529 70.3787 99.5484C70.6879 96.1718 71.7589 92.9095 73.5112 90.0072C75.2635 87.1049 77.6513 84.6384 80.4947 82.7936C84.9508 79.9904 89.9753 78.216 95.2028 77.5992C96.6065 77.4373 98.0182 77.3553 99.4312 77.3538H112.706C115.447 76.7115 118.232 76.2722 121.039 76.0393H121.06C147.777 73.8223 168.845 91.5431 166.88 113.104C166.866 113.128 166.844 113.152 166.83 113.176C166.262 114.102 165.76 114.981 165.316 115.82C164.886 116.604 164.523 117.356 164.21 118.069C161.772 123.58 173.358 209.084 169.202 210.382C166.837 211.119 157.303 147.493 159.013 159.592C161.168 174.771 136.227 159.385 123.919 163.937Z" fill="#292D32"/>
<path d="M164.166 318.504L201.2 397.443L58.7384 383.007L88.4765 307.227L164.166 318.504Z" fill="#FFB6B6"/>
<path d="M238.509 476.772C213.736 485.022 187.629 488.521 161.559 487.084L150.222 468.69C150.222 468.69 149.747 475.54 149.039 486.013C136.629 484.574 124.381 481.976 112.455 478.253C89.8384 471.177 68.6377 460.213 47.1474 450.102C42.7946 424.141 41.1613 384.108 65.2263 360.803L194.756 384.55C194.756 384.55 215.538 400.103 209.978 405.674C204.419 411.236 203.558 410.375 207.211 414.03C210.863 417.684 218.756 422.571 218.837 425.767C218.869 427.014 227.727 449.643 238.509 476.772Z" fill="#292D32"/>
<path d="M141.547 165.965L110.253 168.149L90.0266 187.705L82.9428 188.97C76.5754 190.106 70.846 193.54 66.841 198.621C62.8359 203.702 60.8338 210.077 61.2142 216.537C62.6713 241.237 65.9337 278.143 72.7525 290.116C83.3256 308.682 92.0588 302.857 83.3256 308.682C74.5924 314.507 68.7292 309.93 72.7525 319.136C76.7758 328.342 67.3148 340.151 67.3148 340.151L63.5486 343.919L67.5431 345.557L194.825 362.128C194.825 362.128 183.819 312.618 190.702 300.456C197.585 288.294 214.273 251.531 199.379 237.146L184.816 185.871L159.767 178.48L141.547 165.965Z" fill="#A77700"/>
<path d="M330.984 369.167C328.889 369.1 326.834 368.58 324.961 367.64C323.088 366.701 321.441 365.366 320.134 363.727C318.827 362.089 317.891 360.186 317.392 358.15C316.893 356.114 316.841 353.993 317.241 351.935L257.536 311.479L264.66 292.205L335.222 340.774C338.634 341.705 341.586 343.857 343.518 346.82C345.451 349.784 346.229 353.354 345.707 356.854C345.185 360.354 343.397 363.54 340.684 365.809C337.97 368.079 334.519 369.273 330.984 369.167Z" fill="#A77700"/>
<path d="M162.346 183.451L153.67 186.888L199.951 277.325L295.76 342.666L309.57 319.312L236.64 256.285L207.442 200.258C203.333 192.373 196.449 186.291 188.121 183.187C179.792 180.083 170.609 180.177 162.346 183.451Z" fill="#A77700"/>
<path d="M124.272 158.011C141.626 158.011 155.695 143.935 155.695 126.571C155.695 109.207 141.626 95.1309 124.272 95.1309C106.917 95.1309 92.848 109.207 92.848 126.571C92.848 143.935 106.917 158.011 124.272 158.011Z" fill="#FFB6B6"/>
<path d="M151.597 113.276C151.073 113.552 150.557 113.807 150.033 114.062C149.487 114.324 148.941 114.586 148.388 114.834C137.872 119.603 129.306 120.135 124.11 113.276C123.968 109.667 123.156 106.116 121.715 102.805C121.97 106.506 120.995 110.187 118.943 113.276H108.477C97.6991 120.433 92.1681 127.009 99.6495 150.506C100.137 152.05 103.478 206.894 104.431 211.11C88.1144 204.848 74.0394 138.36 73.6828 120.841C73.661 120.557 73.661 120.259 73.661 119.967C73.6567 118.564 73.7296 117.161 73.8793 115.766C74.0714 113.861 74.4022 111.972 74.8691 110.116L74.8254 110.108C73.1653 108.52 71.8988 106.566 71.1268 104.402C70.3548 102.238 70.0987 99.9231 70.3788 97.6423C73.1159 94.0565 76.5032 91.0182 80.3637 88.6861C83.8741 86.9853 87.5331 85.6106 91.2947 84.5793C91.3893 84.5575 91.4694 84.5356 91.564 84.5138C92.7139 84.2007 93.8929 83.9167 95.0719 83.6691C97.5015 83.1594 99.958 82.7874 102.43 82.5551C102.611 82.5478 102.786 82.5332 102.946 82.5332C103.935 82.5339 104.905 82.8004 105.755 83.305C105.763 83.305 105.763 83.3123 105.777 83.3123C106.594 83.8008 107.272 84.4914 107.745 85.3178C108.218 86.1442 108.47 87.0785 108.477 88.0307H120.136C120.565 88.0307 120.995 88.0453 121.424 88.0671C137.661 88.7152 150.71 95.6618 151.547 111.63C151.583 112.184 151.597 112.722 151.597 113.276Z" fill="#292D32"/>
<path d="M82.6683 114.541C94.1017 114.541 103.37 105.268 103.37 93.8282C103.37 82.3887 94.1017 73.1152 82.6683 73.1152C71.2349 73.1152 61.9663 82.3887 61.9663 93.8282C61.9663 105.268 71.2349 114.541 82.6683 114.541Z" fill="#292D32"/>
<path d="M111.09 84.2473C108.738 95.4421 97.1345 102.138 86.0336 99.3987C80.7028 98.0835 76.1125 94.7033 73.2726 90.0019C70.4327 85.3004 69.5757 79.6627 70.8903 74.3291C73.6277 63.2224 87.0999 66.4243 95.9466 59.1777C108.462 48.9263 114.262 69.1503 111.09 84.2473Z" fill="#292D32"/>
<path d="M65.0932 395.867C82.7371 323.877 117.697 262.001 175.595 213.522C177.836 209.834 181.447 207.185 185.637 206.158C189.827 205.131 194.253 205.808 197.944 208.042L335.582 291.539C339.269 293.781 341.915 297.394 342.942 301.586C343.969 305.778 343.292 310.206 341.059 313.9C318.961 387.769 285.862 451.868 230.558 496.245C228.317 499.933 224.706 502.581 220.516 503.608C216.326 504.636 211.9 503.958 208.209 501.725L70.5706 418.228C66.8845 415.986 64.2376 412.372 63.2107 408.18C62.1839 403.988 62.8608 399.56 65.0932 395.867Z" fill="#F2F2F2"/>
<path opacity="0.2" d="M89.5571 420.128C85.871 417.886 83.2241 414.273 82.1973 410.081C81.1705 405.889 81.8475 401.461 84.0799 397.768C101.724 325.778 136.684 263.902 194.581 215.422C196.065 213.008 198.159 211.029 200.652 209.685L197.944 208.041C194.253 205.808 189.827 205.131 185.637 206.158C181.447 207.185 177.836 209.833 175.595 213.521C117.697 262.001 82.7373 323.877 65.0934 395.867C62.861 399.56 62.184 403.988 63.2108 408.18C64.2376 412.372 66.8845 415.985 70.5707 418.227L208.209 501.725C210.659 503.2 213.454 504 216.313 504.046C219.172 504.091 221.992 503.379 224.487 501.983L89.5571 420.128Z" fill="black"/>
<path d="M250.972 379.908L158.583 324.211C157.115 323.323 156.059 321.889 155.647 320.223C155.235 318.558 155.501 316.797 156.386 315.327C157.271 313.857 158.703 312.799 160.368 312.385C162.032 311.971 163.792 312.234 165.263 313.118L257.652 368.815C259.116 369.705 260.168 371.138 260.578 372.802C260.988 374.466 260.721 376.225 259.837 377.693C258.953 379.161 257.524 380.218 255.862 380.633C254.2 381.048 252.442 380.788 250.972 379.908Z" fill="white"/>
<path d="M197.225 306.047L176.9 293.794C175.427 292.912 174.364 291.481 173.946 289.816C173.527 288.15 173.787 286.386 174.669 284.913C175.55 283.439 176.98 282.376 178.645 281.957C180.309 281.538 182.072 281.799 183.545 282.68L183.58 282.701L203.906 294.955C205.37 295.844 206.423 297.278 206.833 298.942C207.243 300.606 206.976 302.365 206.092 303.833C205.208 305.301 203.778 306.359 202.116 306.774C200.454 307.189 198.695 306.927 197.225 306.047Z" fill="white"/>
<path d="M236.288 404.29L143.899 348.593C142.429 347.707 141.371 346.274 140.957 344.609C140.543 342.943 140.807 341.182 141.69 339.71C142.574 338.239 144.005 337.179 145.669 336.763C147.333 336.347 149.094 336.61 150.566 337.492L150.579 337.5L242.968 393.197C244.432 394.087 245.484 395.52 245.894 397.184C246.304 398.848 246.037 400.607 245.153 402.075C244.269 403.543 242.84 404.6 241.178 405.015C239.516 405.43 237.758 405.17 236.288 404.29Z" fill="white"/>
<path d="M262.704 274.889C277.608 274.889 289.689 262.801 289.689 247.89C289.689 232.979 277.608 220.891 262.704 220.891C247.801 220.891 235.719 232.979 235.719 247.89C235.719 262.801 247.801 274.889 262.704 274.889Z" fill="#A77700"/>
<path d="M216.189 537.195C248.043 537.195 273.866 511.359 273.866 479.488C273.866 447.617 248.043 421.781 216.189 421.781C184.336 421.781 158.513 447.617 158.513 479.488C158.513 511.359 184.336 537.195 216.189 537.195Z" fill="white"/>
<path d="M216.189 538C204.623 538 193.316 534.569 183.699 528.139C174.082 521.71 166.586 512.572 162.16 501.88C157.734 491.188 156.575 479.424 158.832 468.073C161.088 456.723 166.658 446.297 174.837 438.114C183.015 429.931 193.436 424.359 204.78 422.101C216.124 419.843 227.883 421.002 238.569 425.43C249.255 429.859 258.388 437.358 264.814 446.981C271.24 456.603 274.67 467.915 274.67 479.488C274.653 495.001 268.486 509.874 257.522 520.843C246.559 531.812 231.694 537.983 216.189 538ZM216.189 422.587C204.941 422.587 193.945 425.924 184.593 432.176C175.24 438.429 167.951 447.316 163.646 457.713C159.342 468.111 158.216 479.552 160.41 490.59C162.605 501.627 168.021 511.766 175.975 519.724C183.929 527.682 194.062 533.101 205.094 535.297C216.126 537.493 227.561 536.366 237.953 532.059C248.345 527.752 257.228 520.459 263.477 511.101C269.726 501.744 273.061 490.742 273.061 479.488C273.044 464.402 267.047 449.939 256.385 439.271C245.723 428.604 231.267 422.604 216.189 422.587Z" fill="#3F3D56"/>
<path d="M208.321 509.522C207.325 509.522 206.343 509.29 205.452 508.844C204.561 508.398 203.786 507.751 203.189 506.953L187.454 485.962C186.948 485.288 186.579 484.52 186.369 483.703C186.16 482.886 186.113 482.036 186.232 481.201C186.351 480.366 186.633 479.563 187.062 478.837C187.492 478.111 188.06 477.477 188.734 476.971C189.409 476.465 190.176 476.097 190.993 475.888C191.809 475.679 192.659 475.633 193.494 475.752C194.328 475.872 195.131 476.155 195.856 476.585C196.581 477.016 197.214 477.584 197.719 478.26L208.014 491.992L234.453 452.312C234.921 451.61 235.522 451.008 236.222 450.539C236.922 450.07 237.707 449.743 238.533 449.578C239.36 449.412 240.21 449.412 241.037 449.575C241.863 449.739 242.649 450.064 243.35 450.531C244.052 450.999 244.654 451.6 245.122 452.3C245.591 453.001 245.918 453.787 246.083 454.613C246.248 455.44 246.249 456.291 246.085 457.118C245.922 457.945 245.597 458.732 245.13 459.433L213.66 506.663C213.091 507.517 212.325 508.222 211.427 508.719C210.529 509.216 209.525 509.491 208.5 509.52C208.44 509.521 208.381 509.522 208.321 509.522Z" fill="#A77700"/>
<path d="M402.456 187.057C404.748 186.86 406.495 185.408 406.359 183.813C406.223 182.218 404.254 181.084 401.962 181.28C399.671 181.476 397.923 182.928 398.059 184.523C398.196 186.118 400.164 187.253 402.456 187.057Z" fill="#A77700"/>
<path d="M428.243 178.305C430.535 178.109 432.283 176.656 432.146 175.061C432.01 173.466 430.042 172.332 427.75 172.528C425.458 172.724 423.71 174.176 423.847 175.771C423.983 177.366 425.951 178.501 428.243 178.305Z" fill="#F0F3F1"/>
<path d="M390.233 167.371C392.524 167.175 394.272 165.723 394.136 164.128C393.999 162.532 392.031 161.398 389.739 161.594C387.447 161.79 385.7 163.242 385.836 164.838C385.972 166.433 387.941 167.567 390.233 167.371Z" fill="#A77700"/>
<path d="M379.416 161.029C380.402 160.806 380.942 159.475 380.622 158.056C380.301 156.638 379.242 155.668 378.256 155.891C377.269 156.114 376.729 157.445 377.05 158.864C377.37 160.283 378.429 161.252 379.416 161.029Z" fill="#A77700"/>
<path d="M371.714 145.631C372.701 145.407 373.241 144.077 372.92 142.658C372.6 141.239 371.54 140.27 370.554 140.493C369.568 140.716 369.028 142.047 369.348 143.465C369.668 144.884 370.728 145.854 371.714 145.631Z" fill="#F0F3F1"/>
<path d="M408.664 167.256C409.65 167.032 410.19 165.702 409.87 164.283C409.55 162.864 408.49 161.895 407.504 162.118C406.517 162.341 405.977 163.672 406.298 165.09C406.618 166.509 407.677 167.479 408.664 167.256Z" fill="#A77700"/>
<path d="M397.401 176.611C398.387 176.388 398.927 175.057 398.607 173.638C398.286 172.22 397.227 171.25 396.24 171.473C395.254 171.696 394.714 173.027 395.034 174.446C395.355 175.865 396.414 176.834 397.401 176.611Z" fill="#A77700"/>
<path d="M417.905 184.23C418.892 184.007 419.432 182.676 419.111 181.257C418.791 179.839 417.732 178.869 416.745 179.092C415.759 179.315 415.219 180.646 415.539 182.065C415.86 183.484 416.919 184.453 417.905 184.23Z" fill="#F0F3F1"/>
<path d="M295.989 67.7764C296.382 66.2244 294.894 64.5079 292.664 63.9426C290.434 63.3772 288.308 64.177 287.915 65.729C287.522 67.2809 289.01 68.9974 291.24 69.5628C293.47 70.1281 295.596 69.3283 295.989 67.7764Z" fill="#A77700"/>
<path d="M268.76 67.6005C269.153 66.0486 267.664 64.3321 265.434 63.7667C263.204 63.2014 261.078 64.0012 260.685 65.5531C260.292 67.1051 261.781 68.8216 264.01 69.387C266.24 69.9524 268.366 69.1525 268.76 67.6005Z" fill="#F0F3F1"/>
<path d="M301.099 90.3799C301.492 88.8279 300.003 87.1115 297.774 86.5461C295.544 85.9807 293.418 86.7805 293.025 88.3325C292.631 89.8845 294.12 91.6009 296.35 92.1663C298.58 92.7317 300.706 91.9319 301.099 90.3799Z" fill="#A77700"/>
<path d="M307.447 98.9028C307.608 97.4573 306.924 96.1944 305.919 96.082C304.914 95.9696 303.969 97.0504 303.807 98.4959C303.646 99.9414 304.33 101.204 305.335 101.317C306.34 101.429 307.285 100.348 307.447 98.9028Z" fill="#A77700"/>
<path d="M309.686 115.975C309.847 114.53 309.164 113.267 308.158 113.154C307.153 113.042 306.208 114.123 306.046 115.568C305.885 117.014 306.569 118.277 307.574 118.389C308.579 118.501 309.525 117.421 309.686 115.975Z" fill="#F0F3F1"/>
<path d="M281.847 83.4399C282.009 81.9944 281.325 80.7315 280.32 80.6191C279.315 80.5067 278.369 81.5875 278.208 83.033C278.046 84.4786 278.73 85.7415 279.735 85.8538C280.74 85.9662 281.686 84.8855 281.847 83.4399Z" fill="#A77700"/>
<path d="M295.551 78.2895C295.712 76.844 295.028 75.5811 294.023 75.4687C293.018 75.3563 292.072 76.4371 291.911 77.8826C291.75 79.3282 292.433 80.5911 293.438 80.7035C294.444 80.8158 295.389 79.7351 295.551 78.2895Z" fill="#A77700"/>
<path d="M278.669 64.3735C278.83 62.928 278.146 61.6651 277.141 61.5527C276.136 61.4403 275.19 62.5211 275.029 63.9666C274.868 65.4121 275.551 66.6751 276.557 66.7874C277.562 66.8998 278.507 65.8191 278.669 64.3735Z" fill="#F0F3F1"/>
<path d="M73.6754 396.629C71.6188 395.786 69.7699 394.506 68.2564 392.877C66.7429 391.249 65.601 389.311 64.9096 387.198C64.2183 385.084 63.9941 382.846 64.2524 380.637C64.5107 378.429 65.2455 376.303 66.4058 374.406L22.0691 312.05L36.2926 295.539L88.4108 369.986C91.4562 372.178 93.5923 375.411 94.4143 379.073C95.2363 382.735 94.6871 386.572 92.8708 389.856C91.0545 393.14 88.0972 395.643 84.5594 396.892C81.0215 398.14 77.1489 398.046 73.6754 396.629Z" fill="#FFB6B6"/>
<path d="M74.6941 199.024C72.4511 197.703 69.8111 197.226 67.248 197.678C64.6849 198.129 62.3666 199.48 60.7091 201.487L0.804443 285.312L56.3205 364.202L78.0442 340.857L44.2518 287.727L89.1621 244.944C92.8527 236.855 93.4164 227.684 90.7444 219.203C88.0723 210.723 82.3541 203.533 74.6941 199.024Z" fill="#A77700"/>
</svg>
