<svg width="589" height="408" viewBox="0 0 589 408" fill="none" xmlns="http://www.w3.org/2000/svg">
<g clip-path="url(#clip0_628_5334)">
<path d="M53.2331 178.649C42.3287 187.563 60.1722 265.814 60.1722 265.814C60.1722 265.814 64.1374 385.171 72.5635 390.619C80.9896 396.067 99.8245 390.124 107.259 389.133C114.694 388.143 108.25 314.349 97.3461 287.11C86.4418 259.871 94.8679 220.25 94.8679 220.25L153.851 231.641C153.851 231.641 118.164 261.852 119.651 268.29C121.138 274.729 159.303 296.52 166.242 297.511C173.181 298.501 186.564 257.89 198.459 230.156C210.355 202.421 117.172 184.592 117.172 184.592L104.285 160.324C104.285 160.324 64.1375 169.734 53.2331 178.649Z" fill="#292D32"/>
<path d="M82.8359 392.674C82.8359 392.674 79.2391 405.253 82.8359 405.253C86.4326 405.253 93.0266 408.847 103.217 407.649C113.408 406.451 110.411 393.872 103.217 392.075C96.0239 390.278 97.8223 375.903 97.8223 375.903C95.4244 371.111 84.0347 377.101 84.0347 377.101L82.8359 392.674Z" fill="#292D32"/>
<path d="M133.899 292.648C133.899 292.648 127.728 304.186 131.244 304.944C134.76 305.702 140.447 310.604 150.661 311.581C160.876 312.557 160.601 299.63 153.948 296.358C147.296 293.085 152.088 279.412 152.088 279.412C150.755 274.223 138.358 277.678 138.358 277.678L133.899 292.648Z" fill="#292D32"/>
<path d="M59.9242 71.424C60.9155 73.405 56.4546 98.1679 56.4546 98.1679L60.4198 105.101C60.4198 105.101 83.2199 96.1869 79.7503 94.7011C76.2807 93.2153 76.7764 74.8908 76.7764 74.8908C76.7764 74.8908 58.9329 69.4429 59.9242 71.424Z" fill="#FFB9B9"/>
<path d="M68.5056 79.0584C85.2897 79.0584 98.8959 65.4631 98.8959 48.6923C98.8959 31.9215 85.2897 18.3262 68.5056 18.3262C51.7215 18.3262 38.1152 31.9215 38.1152 48.6923C38.1152 65.4631 51.7215 79.0584 68.5056 79.0584Z" fill="#A77700"/>
<path d="M66.4098 32.8298C73.3549 32.8298 78.9851 27.2041 78.9851 20.2645C78.9851 13.3249 73.3549 7.69922 66.4098 7.69922C59.4646 7.69922 53.8345 13.3249 53.8345 20.2645C53.8345 27.2041 59.4646 32.8298 66.4098 32.8298Z" fill="#A77700"/>
<path d="M71.9116 25.9553C72.3468 26.0004 72.784 26.0231 73.2216 26.0232C74.873 26.0232 76.5082 25.6982 78.0339 25.0667C79.5596 24.4353 80.9459 23.5097 82.1137 22.3429C83.2814 21.1761 84.2077 19.7909 84.8397 18.2664C85.4716 16.7419 85.7969 15.108 85.7969 13.4579C85.7969 11.8078 85.4716 10.1738 84.8397 8.64935C84.2077 7.12486 83.2814 5.73967 82.1137 4.57287C80.9459 3.40608 79.5596 2.48052 78.0339 1.84905C76.5082 1.21759 74.873 0.892578 73.2216 0.892578C72.784 0.892691 72.3468 0.915365 71.9116 0.960514C75.0031 1.28416 77.8651 2.74038 79.9455 5.04821C82.0258 7.35604 83.177 10.3519 83.177 13.4579C83.177 16.5638 82.0258 19.5597 79.9455 21.8676C77.8651 24.1754 75.0031 25.6316 71.9116 25.9553Z" fill="#A77700"/>
<path d="M69.3418 84.3009C80.839 84.3009 90.1592 74.988 90.1592 63.5C90.1592 52.0121 80.839 42.6992 69.3418 42.6992C57.8447 42.6992 48.5244 52.0121 48.5244 63.5C48.5244 74.988 57.8447 84.3009 69.3418 84.3009Z" fill="#FFB9B9"/>
<path d="M39.3547 95.4446C32.9112 96.9304 22.0068 112.779 22.0068 112.779L39.3547 130.113C39.3547 130.113 51.746 176.667 53.233 178.648C62.9746 191.626 106.764 162.8 106.764 162.8C106.764 162.8 105.029 148.685 106.02 141.751C106.973 135.083 102.303 121.693 102.303 121.693C102.303 121.693 118.659 114.76 115.19 107.826C111.72 100.893 90.407 85.0443 81.4852 90.4921C72.5635 95.9399 54.72 90.4921 54.72 90.4921C54.72 90.4921 45.7982 93.9589 39.3547 95.4446Z" fill="#A77700"/>
<path d="M165.994 195.239C165.994 195.239 194.246 219.507 201.185 214.554C208.125 209.602 174.42 192.268 174.42 192.268L165.994 195.239Z" fill="#FFB9B9"/>
<path d="M39.1066 186.821C43.0719 191.278 61.9067 179.887 59.492 174.829C57.0773 169.77 42.0805 179.887 42.0805 179.887C42.0805 179.887 35.1414 182.363 39.1066 186.821Z" fill="#FFB9B9"/>
<path d="M39.3546 119.712L18.5372 158.342C18.5372 158.342 42.3285 178.152 45.3024 178.647C48.2763 179.142 39.3545 192.019 39.3545 192.019C39.3545 192.019 12.5893 173.199 2.18059 163.789C-8.22812 154.38 22.0067 112.778 22.0067 112.778L30.9285 107.33L39.3546 119.712Z" fill="#A77700"/>
<path d="M99.8242 118.226L124.111 155.866C124.111 155.866 161.285 197.468 166.242 199.449C171.198 201.43 177.146 192.02 177.146 192.02L132.537 138.037L115.685 107.826L109.242 105.35L99.8242 118.226Z" fill="#A77700"/>
<path d="M68.5057 51.3513C80.081 51.3513 89.4646 45.7256 89.4646 38.786C89.4646 31.8464 80.081 26.2207 68.5057 26.2207C56.9305 26.2207 47.5469 31.8464 47.5469 38.786C47.5469 45.7256 56.9305 51.3513 68.5057 51.3513Z" fill="#A77700"/>
<path d="M131.204 382.886C131.204 390.618 137.472 396.886 145.204 396.886H410.723C418.455 396.886 424.723 390.618 424.723 382.886V330.385C424.723 322.653 418.455 316.385 410.723 316.385H145.204C137.472 316.385 131.204 322.653 131.204 330.385V382.886Z" fill="white"/>
<path d="M387.674 380.186C387.11 380.185 386.551 380.295 386.03 380.511C385.509 380.726 385.035 381.042 384.636 381.44C384.237 381.838 383.92 382.311 383.704 382.832C383.488 383.352 383.377 383.91 383.377 384.474C383.377 385.038 383.488 385.596 383.704 386.116C383.92 386.637 384.237 387.11 384.636 387.508C385.035 387.906 385.509 388.222 386.03 388.437C386.551 388.653 387.11 388.763 387.674 388.762H404.841C405.979 388.762 407.071 388.311 407.876 387.506C408.681 386.702 409.133 385.611 409.133 384.474C409.133 383.337 408.681 382.246 407.876 381.442C407.071 380.637 405.979 380.186 404.841 380.186H387.674Z" fill="#A77700"/>
<path d="M409.133 371.867H210.958V372.996H409.133V371.867Z" fill="#262626"/>
<path d="M169.534 381.613C183.339 381.613 194.531 370.431 194.531 356.636C194.531 342.841 183.339 331.658 169.534 331.658C155.728 331.658 144.536 342.841 144.536 356.636C144.536 370.431 155.728 381.613 169.534 381.613Z" fill="#A77700"/>
<path d="M211.272 365.567L210.646 364.628L231.238 350.91L245.36 357.683L265.672 344.717L306.077 361.939L338.254 346.145L369.498 358.802L408.759 324.057L409.507 324.901L369.723 360.111L338.298 347.38L306.11 363.179L265.777 345.988L245.438 358.973L231.33 352.206L211.272 365.567Z" fill="#3F3D56"/>
<path d="M214.628 380.775C214.146 380.775 213.668 380.869 213.222 381.053C212.777 381.237 212.371 381.507 212.03 381.848C211.689 382.188 211.418 382.593 211.233 383.038C211.049 383.483 210.954 383.96 210.954 384.442C210.954 384.924 211.049 385.402 211.233 385.847C211.418 386.292 211.689 386.696 212.03 387.037C212.371 387.378 212.777 387.648 213.222 387.832C213.668 388.016 214.146 388.11 214.628 388.109H253.021C253.993 388.108 254.926 387.721 255.613 387.034C256.3 386.346 256.686 385.414 256.686 384.442C256.686 383.471 256.3 382.539 255.613 381.851C254.926 381.164 253.993 380.777 253.021 380.775H214.628Z" fill="#262626"/>
<path d="M179.081 345.461H182.987L174.86 353.498C173.44 354.896 171.526 355.68 169.533 355.68C167.539 355.68 165.626 354.896 164.206 353.498L156.079 345.461H159.985L166.159 351.566C167.059 352.452 168.271 352.949 169.533 352.949C170.796 352.949 172.008 352.452 172.907 351.566L179.081 345.461ZM159.936 367.809H156.03L164.207 359.723C165.627 358.325 167.54 357.541 169.534 357.541C171.527 357.541 173.441 358.325 174.861 359.723L183.038 367.809H179.132L172.907 361.654C172.008 360.769 170.796 360.272 169.533 360.272C168.271 360.272 167.059 360.769 166.159 361.654L159.936 367.809Z" fill="white"/>
<path d="M170.441 86.0576C170.441 99.2569 170.441 105.857 174.542 109.957C178.642 114.058 185.242 114.058 198.441 114.058H435.96C449.16 114.058 455.759 114.058 459.86 109.957C463.96 105.857 463.96 99.2569 463.96 86.0576V61.5566C463.96 48.3573 463.96 41.7577 459.86 37.6571C455.759 33.5566 449.16 33.5566 435.96 33.5566H198.441C185.242 33.5566 178.642 33.5566 174.542 37.6571C170.441 41.7577 170.441 48.3573 170.441 61.5566V86.0576Z" fill="white"/>
<path d="M426.911 97.3574C425.773 97.3574 424.682 97.8092 423.877 98.6135C423.072 99.4177 422.62 100.508 422.62 101.646C422.62 102.783 423.072 103.874 423.877 104.678C424.682 105.482 425.773 105.934 426.911 105.934H444.079C445.217 105.934 446.309 105.482 447.113 104.678C447.918 103.874 448.37 102.783 448.37 101.646C448.37 100.508 447.918 99.4177 447.113 98.6135C446.309 97.8092 445.217 97.3574 444.079 97.3574H426.911Z" fill="#A77700"/>
<path d="M448.37 89.0391H250.196V90.1674H448.37V89.0391Z" fill="#262626"/>
<path d="M208.771 98.7852C222.577 98.7852 233.768 87.6024 233.768 73.8076C233.768 60.0129 222.577 48.8301 208.771 48.8301C194.965 48.8301 183.773 60.0129 183.773 73.8076C183.773 87.6024 194.965 98.7852 208.771 98.7852Z" fill="#A77700"/>
<path d="M250.509 82.7391L249.883 81.8002L270.476 68.0825L284.597 74.8556L304.909 61.889L305.184 62.0055L345.314 79.111L377.491 63.3175L408.736 75.9744L447.996 41.2285L448.745 42.0732L408.961 77.2828L377.535 64.5529L345.348 80.3518L305.015 63.1606L284.676 76.1447L270.567 69.3776L250.509 82.7391Z" fill="#3F3D56"/>
<path d="M253.865 97.9473C252.893 97.9485 251.961 98.3354 251.273 99.023C250.586 99.7105 250.2 100.643 250.2 101.614C250.2 102.586 250.586 103.518 251.273 104.206C251.961 104.893 252.893 105.28 253.865 105.281H292.258C293.232 105.281 294.165 104.895 294.853 104.207C295.541 103.519 295.928 102.587 295.928 101.614C295.928 100.642 295.541 99.709 294.853 99.0213C294.165 98.3336 293.232 97.9473 292.258 97.9473H253.865Z" fill="#262626"/>
<path d="M218.829 70.8923C219.296 67.7666 216.914 66.0864 213.657 64.9654L214.714 60.7313L212.134 60.089L211.105 64.2116C210.428 64.0427 209.731 63.8834 209.039 63.7256L210.075 59.5759L207.497 58.9336L206.44 63.1662C205.879 63.0385 205.328 62.9122 204.793 62.7794L204.796 62.7662L201.239 61.8787L200.553 64.6314C200.553 64.6314 202.466 65.0697 202.426 65.0968C202.783 65.1395 203.109 65.3205 203.334 65.6008C203.558 65.8812 203.664 66.2384 203.628 66.5958L202.425 71.4193C202.516 71.4421 202.605 71.4708 202.693 71.5052L202.421 71.4377L200.733 78.1948C200.696 78.3128 200.636 78.4222 200.557 78.5169C200.477 78.6116 200.38 78.6896 200.27 78.7465C200.16 78.8034 200.04 78.838 199.917 78.8484C199.793 78.8588 199.669 78.8447 199.551 78.807C199.577 78.8445 197.676 78.3394 197.676 78.3394L196.396 81.2904L199.753 82.1265C200.378 82.2829 200.99 82.4466 201.591 82.6007L200.524 86.884L203.1 87.5263L204.158 83.2893C204.861 83.4801 205.545 83.6563 206.213 83.8222L205.16 88.0394L207.739 88.6817L208.807 84.4072C213.205 85.2389 216.513 84.9035 217.904 80.9292C219.026 77.7287 217.849 75.8825 215.534 74.6779C217.22 74.2881 218.489 73.1804 218.828 70.8923L218.829 70.8923ZM212.935 79.1499C212.137 82.3504 206.744 80.6209 204.995 80.1864L206.412 74.5127C208.16 74.9488 213.766 75.8121 212.935 79.1499H212.935ZM213.732 70.8461C213.004 73.7574 208.516 72.2782 207.059 71.9156L208.343 66.7698C209.8 67.1324 214.49 67.8092 213.732 70.8461Z" fill="white"/>
<path d="M288.988 241.472C288.988 249.204 295.256 255.472 302.988 255.472H568.507C576.239 255.472 582.507 249.204 582.507 241.472V188.971C582.507 181.239 576.239 174.971 568.507 174.971H302.988C295.256 174.971 288.988 181.239 288.988 188.971V241.472Z" fill="white"/>
<path d="M545.458 238.771C544.32 238.771 543.228 239.223 542.423 240.028C541.618 240.832 541.166 241.923 541.166 243.06C541.166 244.197 541.618 245.288 542.423 246.092C543.228 246.896 544.32 247.348 545.458 247.348H562.625C563.763 247.348 564.855 246.896 565.66 246.092C566.465 245.288 566.917 244.197 566.917 243.06C566.917 241.923 566.465 240.832 565.66 240.028C564.855 239.223 563.763 238.771 562.625 238.771H545.458Z" fill="#A77700"/>
<path d="M566.917 230.453H368.742V231.581H566.917V230.453Z" fill="#262626"/>
<path d="M327.318 240.199C341.124 240.199 352.315 229.016 352.315 215.222C352.315 201.427 341.124 190.244 327.318 190.244C313.512 190.244 302.32 201.427 302.32 215.222C302.32 229.016 313.512 240.199 327.318 240.199Z" fill="#A77700"/>
<path d="M369.055 224.153L368.429 223.214L389.022 209.497L403.144 216.27L423.455 203.303L423.73 203.42L463.86 220.525L496.038 204.732L527.282 217.388L566.543 182.643L567.291 183.488L527.507 218.697L496.082 205.967L463.894 221.766L423.561 204.575L403.222 217.559L389.114 210.792L369.055 224.153Z" fill="#3F3D56"/>
<path d="M372.412 239.361C371.439 239.361 370.505 239.748 369.817 240.435C369.129 241.123 368.742 242.056 368.742 243.028C368.742 244.001 369.129 244.934 369.817 245.621C370.505 246.309 371.439 246.695 372.412 246.695H410.805C411.778 246.695 412.712 246.309 413.4 245.621C414.088 244.934 414.475 244.001 414.475 243.028C414.475 242.056 414.088 241.123 413.4 240.435C412.712 239.748 411.778 239.361 410.805 239.361H372.412Z" fill="#262626"/>
<path d="M327.315 231.683L337.434 217.443L327.315 223.413L317.201 217.443L327.314 231.683H327.315Z" fill="white"/>
<path d="M327.314 221.5H327.315L337.428 215.527L327.315 198.76H327.314L317.201 215.527L327.314 221.5Z" fill="white"/>
</g>
<defs>
<clipPath id="clip0_628_5334">
<rect width="589" height="407" fill="white" transform="translate(0 0.892578)"/>
</clipPath>
</defs>
</svg>
