<svg width="99" height="18" viewBox="0 0 99 18" fill="none" xmlns="http://www.w3.org/2000/svg">
<path d="M19.9385 4.88838C16.3823 4.88838 13.605 7.56489 13.605 11.147C13.605 14.7292 16.313 17.3815 19.9385 17.3815C23.5641 17.3815 26.3169 14.6847 26.3169 11.1268C26.3169 7.58915 23.6089 4.88838 19.9385 4.88838ZM19.963 14.802C17.9361 14.802 16.4557 13.2414 16.4557 11.147C16.4557 9.03252 17.9116 7.4719 19.9385 7.4719C21.9858 7.4719 23.4703 9.05678 23.4703 11.1511C23.4703 13.2414 21.9858 14.802 19.963 14.802ZM27.0958 7.61341H28.8617V17.155H31.6879V5.11883H27.0958V7.61341ZM6.49261 7.4719C7.97708 7.4719 9.15569 8.37755 9.60022 9.72793H12.5936C12.0512 6.84522 9.64916 4.88838 6.51708 4.88838C2.96087 4.88838 0.183594 7.56489 0.183594 11.147C0.183594 14.7332 2.89154 17.3855 6.51708 17.3855C9.57575 17.3855 12.0268 15.4287 12.5692 12.5217H9.60022C9.4079 13.1834 9.00242 13.7644 8.4457 14.1762C7.88898 14.5879 7.21163 14.8077 6.51708 14.802C4.46981 14.802 3.0302 13.2414 3.0302 11.147C3.0302 9.03252 4.44534 7.4719 6.49669 7.4719H6.49261ZM80.7775 9.98669L78.7057 9.68346C77.7188 9.54195 77.0133 9.21851 77.0133 8.45032C77.0133 7.61341 77.9309 7.19697 79.1747 7.19697C80.545 7.19697 81.4178 7.77513 81.6013 8.7293H84.3337C84.0278 6.3075 82.1437 4.88838 79.2481 4.88838C76.2588 4.88838 74.2809 6.40453 74.2809 8.54331C74.2809 10.5891 75.5737 11.7778 78.1878 12.1497L80.2595 12.453C81.275 12.5904 81.8378 12.9866 81.8378 13.7306C81.8378 14.6847 80.8509 15.081 79.4847 15.081C77.8126 15.081 76.8705 14.4058 76.7278 13.3829H73.9505C74.2115 15.7319 76.0712 17.3855 79.4561 17.3855C82.5434 17.3855 84.5947 15.9866 84.5947 13.5931C84.5947 11.4503 83.1102 10.3344 80.7775 9.98669ZM30.2727 0.166078C30.0351 0.157793 29.7983 0.197613 29.5767 0.283105C29.3551 0.368597 29.1534 0.497965 28.984 0.663314C28.8145 0.828664 28.6808 1.02652 28.5911 1.24481C28.5014 1.46309 28.4574 1.69722 28.462 1.9329C28.462 2.95984 29.2369 3.70376 30.2727 3.70376C30.511 3.71264 30.7487 3.67312 30.971 3.58763C31.1934 3.50214 31.3957 3.37249 31.5657 3.20665C31.7356 3.0408 31.8696 2.84227 31.9594 2.62323C32.0491 2.40418 32.0927 2.16926 32.0876 1.9329C32.0922 1.69687 32.0481 1.46239 31.9581 1.24383C31.8681 1.02526 31.7341 0.827211 31.5642 0.661803C31.3943 0.496395 31.1921 0.367111 30.97 0.281871C30.748 0.196631 30.5107 0.157229 30.2727 0.166078ZM71.7361 9.24276C71.7361 6.63499 70.1374 4.89242 66.7443 4.89242C63.5429 4.89242 61.7526 6.49752 61.4018 8.96379H64.2036C64.3463 8.00963 65.1008 7.21719 66.6994 7.21719C68.135 7.21719 68.8405 7.84386 68.8405 8.61205C68.8405 9.61473 67.5477 9.86944 65.945 10.0312C63.7794 10.2657 61.0919 11.0096 61.0919 13.8033C61.0919 15.9664 62.7232 17.3612 65.3088 17.3612C67.3357 17.3612 68.6081 16.5243 69.2443 15.1982C69.3381 16.3828 70.2312 17.151 71.4791 17.151H73.1267V14.6605H71.7401V9.24276H71.7361ZM68.9629 12.267C68.9629 13.8721 67.5477 15.0567 65.8267 15.0567C64.7664 15.0567 63.8692 14.612 63.8692 13.6821C63.8692 12.4974 65.3088 12.174 66.626 12.0325C67.8984 11.9193 68.604 11.6403 68.9588 11.1026L68.9629 12.267ZM53.9591 4.88838C52.3849 4.88838 51.0635 5.54336 50.1255 6.63498V0.0488281H47.2993V17.151H50.0725V15.5702C51.0187 16.7103 52.3563 17.3855 53.9591 17.3855C57.3522 17.3855 59.9174 14.7332 59.9174 11.147C59.9174 7.56489 57.3073 4.88838 53.9632 4.88838H53.9591ZM53.539 14.802C51.5121 14.802 50.0317 13.2414 50.0317 11.147C50.0317 9.05678 51.5366 7.4719 53.5594 7.4719C55.6108 7.4719 57.0463 9.03253 57.0463 11.1511C57.0463 13.2414 55.5618 14.802 53.539 14.802ZM40.5417 4.88838C38.7065 4.88838 37.5034 5.63231 36.7938 6.67946V5.12288H33.9921V17.151H36.8183V10.6134C36.8183 8.77377 37.9969 7.4719 39.7383 7.4719C41.3614 7.4719 42.3769 8.61205 42.3769 10.2616V17.151H45.199V10.0554C45.199 7.03121 43.6248 4.88838 40.5417 4.88838ZM98.061 10.7508C98.061 7.31018 95.5162 4.88838 92.1068 4.88838C88.4772 4.88838 85.8182 7.58915 85.8182 11.147C85.8182 14.895 88.6648 17.3855 92.1517 17.3855C95.0961 17.3855 97.4003 15.6632 97.9917 13.2211H95.0472C94.6231 14.2885 93.5872 14.895 92.1965 14.895C90.3817 14.895 89.0155 13.7791 88.7137 11.8222H98.061V10.7549V10.7508ZM88.8768 9.82092C89.3254 8.14709 90.5978 7.33444 92.0579 7.33444C93.6565 7.33444 94.8841 8.24008 95.1655 9.82092H88.8768Z" fill="#A9A9A9"/>
</svg>
