<svg width="934" height="539" viewBox="0 0 934 539" fill="none" xmlns="http://www.w3.org/2000/svg">
<a href="/facebook.com"><g clip-path="url(#clip0_688_7635)">
<path d="M86.3904 420.475C85.6504 420.509 84.9177 420.315 84.2917 419.918C83.6658 419.522 83.1768 418.943 82.891 418.259C82.6052 417.576 82.5364 416.821 82.694 416.097C82.8515 415.373 83.2278 414.715 83.7718 414.212C83.8629 413.85 83.9283 413.59 84.0194 413.228C83.9868 413.149 83.954 413.07 83.921 412.992C83.1754 411.231 81.9261 409.729 80.3299 408.676C78.7338 407.623 76.862 407.064 74.9496 407.072C73.0373 407.079 71.1697 407.651 69.5814 408.716C67.9931 409.781 66.755 411.292 66.0225 413.058C63.0951 420.109 59.368 427.171 58.4504 434.626C58.0462 437.921 58.2167 441.261 58.9542 444.498C52.0786 429.5 48.5083 413.199 48.4853 396.699C48.4839 392.559 48.7139 388.422 49.1743 384.307C49.5549 380.934 50.0828 377.585 50.7581 374.26C54.4433 356.219 62.3555 339.308 73.8451 324.919C79.406 321.884 83.9032 317.219 86.7307 311.55C87.755 309.512 88.4789 307.337 88.88 305.091C88.2527 305.174 87.6151 305.225 86.9878 305.266C86.7924 305.276 86.5867 305.287 86.3913 305.297L86.3176 305.3C85.6282 305.331 84.9445 305.162 84.3489 304.814C83.7533 304.465 83.2711 303.952 82.9604 303.336C82.6498 302.719 82.5239 302.026 82.5979 301.34C82.6719 300.654 82.9426 300.004 83.3775 299.468C83.6483 299.135 83.9193 298.802 84.1905 298.469C84.6019 297.954 85.0235 297.451 85.4348 296.936C85.4823 296.888 85.527 296.836 85.5685 296.782C86.0417 296.196 86.5146 295.62 86.9878 295.034C86.1242 293.694 84.9628 292.571 83.5941 291.753C78.8533 288.977 72.3128 290.9 68.8882 295.188C65.4535 299.476 64.8056 305.493 65.9985 310.85C67.1716 315.409 69.1121 319.735 71.7369 323.643C71.4797 323.972 71.2123 324.291 70.9553 324.62C66.2555 330.664 62.1594 337.153 58.7255 343.995C59.5606 336.33 58.564 328.576 55.8176 321.371C53.0341 314.656 47.8169 309.001 43.2226 303.196C37.704 296.223 26.3877 299.266 25.4154 308.105C25.406 308.191 25.3968 308.276 25.3879 308.362C26.0703 308.747 26.7383 309.155 27.3918 309.588C28.2129 310.136 28.8491 310.92 29.2171 311.836C29.5851 312.753 29.6677 313.759 29.4542 314.723C29.2406 315.687 28.7407 316.564 28.0201 317.239C27.2995 317.914 26.3918 318.356 25.4159 318.507L25.3159 318.522C25.559 320.981 25.9887 323.419 26.6014 325.813C28.3765 332.497 31.5134 338.743 35.8154 344.158C40.1173 349.573 45.4916 354.041 51.6012 357.282C52.0023 357.487 52.3931 357.693 52.7942 357.888C49.3442 367.665 47.1802 377.849 46.3565 388.184C45.8902 394.282 45.9177 400.407 46.4388 406.5L46.4079 406.284C45.0915 399.509 41.4772 393.395 36.1755 388.976C28.3011 382.508 17.1761 380.126 8.68106 374.926C7.77824 374.347 6.72848 374.037 5.6556 374.035C4.58272 374.032 3.53146 374.336 2.62583 374.912C1.72019 375.487 0.99794 376.309 0.544269 377.281C0.0905976 378.253 -0.0755822 379.335 0.0653413 380.399C0.0767347 380.474 0.0883189 380.55 0.100086 380.626C1.36644 381.142 2.59945 381.736 3.79193 382.405C4.47435 382.79 5.14235 383.198 5.79593 383.631C6.61701 384.179 7.25322 384.963 7.62122 385.879C7.98921 386.796 8.07183 387.802 7.85823 388.766C7.64464 389.73 7.1448 390.607 6.42421 391.282C5.70362 391.958 4.79588 392.399 3.81993 392.55L3.71993 392.565C3.64793 392.575 3.58624 392.586 3.51436 392.596C5.67811 397.763 8.715 402.518 12.492 406.654C17.1579 411.661 22.7973 415.662 29.0644 418.411C35.3314 421.161 42.0941 422.602 48.9377 422.645H48.9481C50.8058 430.718 53.4975 438.576 56.9797 446.092H85.6714C85.7743 445.773 85.8668 445.444 85.9594 445.126C83.3036 445.293 80.6374 445.134 78.0202 444.653C80.149 442.04 82.2777 439.408 84.4065 436.796C84.454 436.747 84.4986 436.695 84.5402 436.641C85.62 435.305 86.7101 433.978 87.7898 432.641L87.7904 432.639C87.848 428.542 87.3769 424.453 86.3904 420.475Z" fill="black"/>
<path d="M439.755 446.481C439.755 446.637 439.725 446.792 439.665 446.937C439.606 447.082 439.518 447.213 439.408 447.324C439.297 447.434 439.165 447.522 439.021 447.581C438.876 447.641 438.721 447.671 438.565 447.671H1.27496C0.959356 447.671 0.65667 447.546 0.433502 447.323C0.210334 447.099 0.0849609 446.797 0.0849609 446.481C0.0849609 446.165 0.210334 445.863 0.433502 445.64C0.65667 445.416 0.959356 445.291 1.27496 445.291H438.565C438.721 445.291 438.876 445.321 439.021 445.381C439.165 445.44 439.297 445.528 439.408 445.638C439.518 445.749 439.606 445.881 439.665 446.025C439.725 446.17 439.755 446.325 439.755 446.481Z" fill="black"/>
<path d="M206.366 289.511C207.384 289.851 208.314 290.411 209.093 291.15C209.871 291.888 210.478 292.789 210.87 293.788C211.263 294.786 211.432 295.859 211.365 296.93C211.298 298.001 210.997 299.045 210.483 299.987L221.01 313.047L214.634 321.379L200.027 302.727C198.502 301.759 197.384 300.266 196.886 298.529C196.388 296.792 196.545 294.933 197.326 293.304C198.108 291.675 199.459 290.389 201.126 289.69C202.792 288.991 204.656 288.927 206.366 289.511Z" fill="#A0616A"/>
<path d="M211.073 325.085L205.128 310.295L216.126 302.484L221.267 311.698L228.773 316.818L238.745 325.673C241.447 323.453 262.187 306.833 268.821 313.899C269.627 314.693 270.252 315.651 270.653 316.709C271.054 317.767 271.221 318.899 271.143 320.028C270.729 325.407 265.024 329.922 264.809 330.088L252.218 341.911C251.748 342.712 246.8 350.947 241.144 352.38C240.337 352.601 239.494 352.652 238.667 352.53C237.839 352.409 237.046 352.116 236.338 351.672C223.467 343.769 215.238 335.991 212.215 328.933C211.677 327.702 211.293 326.41 211.073 325.085Z" fill="#292D32"/>
<path d="M204.841 518.647L195.157 519.099L188.803 481.963L203.096 481.295L204.841 518.647Z" fill="#A0616A"/>
<path d="M210.033 536.833L203.161 537.154L201.631 530.724L198.793 537.358L180.568 538.21C179.695 538.251 178.831 538.012 178.103 537.527C177.375 537.042 176.821 536.338 176.522 535.516C176.224 534.694 176.195 533.798 176.441 532.959C176.688 532.12 177.196 531.381 177.891 530.851L191.975 520.119L191.668 513.561L207.019 513.758L210.033 536.833Z" fill="#292D32"/>
<path d="M103.735 438.911L100.207 429.882L133.358 411.977L150.104 422.503L103.735 438.911Z" fill="#A0616A"/>
<path d="M88.1686 449.65L85.6651 443.242L91.2674 439.735L84.0737 439.17L77.4337 422.176C77.1154 421.362 77.0657 420.467 77.2921 419.622C77.5184 418.777 78.0089 418.027 78.6918 417.481C79.3747 416.934 80.2144 416.621 81.0883 416.585C81.9621 416.55 82.8243 416.795 83.549 417.285L98.2239 427.193L104.339 424.804L109.065 439.41L88.1686 449.65Z" fill="#292D32"/>
<path d="M294.178 412.036C294.178 412.036 290.156 437.711 271.144 439.612C252.133 441.514 234.608 432.948 234.608 432.948L181.376 416.554C181.376 416.554 124.756 432.642 115.25 435.176C115.25 435.176 108.693 420.294 108.913 419.334C110.934 410.488 113.568 416.472 113.568 416.472L173.771 389.856C173.771 389.856 183.277 387.321 199.754 394.292C216.23 401.263 260.371 418.066 260.371 418.066L294.178 412.036Z" fill="#292D32"/>
<path d="M293.958 410.461C293.958 410.461 297.129 441.219 278.609 445.918C261.005 450.385 236.721 445.803 236.721 445.803L207.772 442.781C207.772 442.781 206.505 479.977 206.505 498.355C200.623 499.154 194.696 499.577 188.761 499.622C187.493 499.622 187.409 498.958 187.409 498.958L184.955 434.671C184.783 431.876 185.197 429.076 186.172 426.451C187.147 423.826 188.661 421.434 190.617 419.429C192.572 417.425 194.925 415.851 197.525 414.811C200.125 413.77 202.914 413.286 205.712 413.388C207.079 413.44 208.512 413.537 210.013 413.678C227.822 415.386 249.931 411.756 249.931 411.756L293.958 410.461Z" fill="#292D32"/>
<path d="M242.59 365.84C242.59 365.84 235.072 411.305 240.152 414.935C245.233 418.564 252.201 418.578 252.201 418.578L253.821 393.475L242.59 365.84Z" fill="#292D32"/>
<path d="M255.13 310.002L245.077 319.554C240.405 323.994 237.308 329.837 236.256 336.195C235.204 342.554 236.254 349.083 239.247 354.791L244.053 363.955L255.13 310.002Z" fill="#292D32"/>
<path d="M257.377 311.609L243.756 327.124C240.767 330.529 238.914 334.782 238.457 339.29C238.249 341.337 238.333 343.403 238.705 345.427L243.838 373.332L247.697 413.631C247.697 413.631 277.483 422.656 280.532 408.72C283.581 394.783 257.377 311.609 257.377 311.609Z" fill="#4168B7"/>
<path d="M249.612 400.443L245.257 390.426L241.561 364.313C241.36 362.793 245.495 337.931 251.483 311.257L258.761 301.069L262.959 297.221L274.917 305.06C279.23 307.341 288.662 337.123 282.856 358.199C280.859 365.449 284.35 374.475 284.888 381.136L293.176 401.5L295.138 413.277L294.839 413.392C294.54 413.506 289.744 414.154 270.163 417.417C253.939 420.12 262.823 406.818 249.612 400.443Z" fill="#292D32"/>
<path d="M211.283 389.502C211.878 388.609 212.662 387.857 213.579 387.3C214.496 386.743 215.524 386.393 216.591 386.276C217.657 386.159 218.737 386.277 219.753 386.622C220.769 386.968 221.697 387.531 222.472 388.274L237.834 381.539L244.204 389.877L222.375 399.083C221.042 400.302 219.307 400.989 217.5 401.014C215.694 401.039 213.941 400.401 212.574 399.22C211.206 398.039 210.32 396.397 210.082 394.606C209.844 392.815 210.271 390.999 211.283 389.502Z" fill="#A0616A"/>
<path d="M246.845 394.284L231.014 396.144L226.359 383.484L236.598 380.938L243.507 375.036L254.666 367.734C253.232 364.544 242.63 340.173 251.188 335.623C252.165 335.053 253.254 334.701 254.38 334.591C255.506 334.482 256.642 334.618 257.711 334.989C262.793 336.798 265.655 343.487 265.759 343.739L273.868 358.988C274.517 359.651 281.168 366.585 281.068 372.419C281.07 373.255 280.899 374.083 280.564 374.849C280.23 375.616 279.74 376.304 279.125 376.871C268.124 387.221 258.462 393.124 250.858 394.19C249.529 394.387 248.181 394.418 246.845 394.284Z" fill="#292D32"/>
<path d="M257.131 295.94C267.595 294.686 275.039 284.998 273.757 274.301C272.475 263.604 262.954 255.949 252.49 257.203C242.026 258.456 234.583 268.144 235.865 278.841C237.146 289.538 246.668 297.193 257.131 295.94Z" fill="#A0616A"/>
<path d="M304.502 262.097C300.832 258.727 298.704 253.928 295.618 249.972C292.533 246.015 287.595 242.735 282.981 244.295C279.801 245.37 277.624 248.551 276.732 251.914C275.84 255.277 276.025 258.845 276.217 262.339C275.442 255.204 269.919 248.858 263.179 247.359C259.765 246.688 256.225 247.119 253.071 248.588C249.917 250.058 247.31 252.49 245.626 255.535C243.655 254.104 241.228 253.446 238.805 253.685C236.381 253.923 234.129 255.043 232.476 256.832C230.899 258.776 230.026 261.198 230.001 263.701C229.975 266.205 230.799 268.644 232.337 270.62C233.921 272.475 236.128 273.689 238.543 274.032C240.958 274.376 243.416 273.826 245.454 272.486L247.122 273.688C246.91 275.211 247.24 276.761 248.054 278.066C248.869 279.37 250.116 280.347 251.578 280.825C253.921 281.46 257.058 280.932 258.175 283.177C258.956 284.746 258.073 286.626 257.062 288.024C256.051 289.423 254.828 290.888 254.897 292.648C255.001 295.302 257.939 296.818 260.475 297.077C263.576 297.32 266.678 296.632 269.385 295.101C272.092 293.57 274.281 291.266 275.671 288.484C275.725 288.375 275.785 288.265 275.851 288.154C277.481 285.461 278.546 282.463 278.979 279.344C279.412 276.225 279.205 273.051 278.369 270.015C278.031 268.823 278.117 267.896 278.92 267.508C282.391 265.831 292.846 267.226 296.198 269.217C299.55 271.208 302.382 274.035 305.639 276.191C308.897 278.348 312.897 279.833 316.569 278.7C318.036 278.157 319.38 277.325 320.521 276.254C321.662 275.183 322.577 273.894 323.211 272.464C324.507 269.544 325.366 266.45 325.76 263.281C322.608 265.524 318.786 266.629 314.924 266.414C311.061 266.199 307.386 264.676 304.502 262.097Z" fill="#292D32"/>
<path d="M307.388 389.054L307.378 389.041L307.388 389.067V389.054Z" fill="#292D32"/>
<path d="M507.552 180.064C506.723 180.189 505.88 179.98 505.205 179.483C504.531 178.986 504.082 178.242 503.956 177.414C503.83 176.586 504.038 175.742 504.534 175.068C505.03 174.393 505.774 173.943 506.601 173.816C507.429 173.689 508.274 173.896 508.949 174.391C509.624 174.887 510.075 175.63 510.203 176.457C510.331 177.285 510.124 178.13 509.63 178.806C509.135 179.481 508.393 179.933 507.565 180.062L507.552 180.064Z" fill="black"/>
<path d="M710.484 427.652L720.526 430.289L735.477 392.808L720.655 388.916L710.484 427.652Z" fill="#FFB6B6"/>
<path d="M707.379 438.036L738.261 446.145L738.364 445.755C739.201 442.567 738.737 439.177 737.075 436.331C735.413 433.484 732.688 431.415 729.5 430.578L724.983 424.816L713.334 426.332L710.638 425.625L707.379 438.036Z" fill="#292D32"/>
<path d="M761.966 435.165H772.348L777.288 395.115L761.964 395.116L761.966 435.165Z" fill="#FFB6B6"/>
<path d="M761.6 445.997L793.529 445.996V445.592C793.529 442.297 792.22 439.136 789.889 436.805C787.559 434.474 784.398 433.165 781.102 433.165L775.269 428.74L764.387 433.166L761.6 433.166L761.6 445.997Z" fill="#292D32"/>
<path d="M735.997 243.515C733.489 246.65 734.743 257.31 734.743 257.31C734.743 257.31 730.353 291.797 732.234 294.932C734.116 298.067 730.98 300.576 729.099 304.965C727.218 309.354 725.337 320.014 725.337 320.014C714.677 328.792 715.304 368.923 715.304 368.923L711.542 404.665C712.796 408.427 730.353 409.054 732.862 408.427C735.37 407.8 759.824 319.387 759.824 319.387C759.824 319.387 758.57 404.665 758.57 408.427C758.57 412.189 775.5 410.308 779.263 410.308C783.025 410.308 806.853 256.682 806.853 256.682V247.904L803.717 243.515C803.717 243.515 738.505 240.379 735.997 243.515Z" fill="#292D32"/>
<path d="M763.586 128.765C774.321 128.765 783.024 120.063 783.024 109.327C783.024 98.5915 774.321 89.8887 763.586 89.8887C752.85 89.8887 744.147 98.5915 744.147 109.327C744.147 120.063 752.85 128.765 763.586 128.765Z" fill="#FFB6B6"/>
<path d="M737.47 257.381L737.364 257.232C731.702 249.305 740.218 230.255 741.502 227.494C739.977 226.999 738.671 225.99 737.805 224.64C736.94 223.29 736.57 221.682 736.757 220.089L737.311 215.382L737.888 210.766L733.753 206.631L733.741 206.528L731.362 185.707L727.902 171.878C726.598 166.65 726.71 161.169 728.224 155.999C729.738 150.828 732.601 146.153 736.519 142.455L744.517 141.185L754.236 131.82H769.909L775.283 136.955C785.848 145.615 788.357 141.853 800.27 158.156L791.74 180.63L796.508 213.778L796.511 219.776L798.994 222.536C799.889 223.53 800.539 224.72 800.893 226.01C801.246 227.299 801.294 228.654 801.032 229.965L800.705 231.598C801.967 232.139 803.081 232.975 803.954 234.035C804.827 235.096 805.432 236.35 805.72 237.693L806.592 241.762C807.338 242.747 812.264 249.315 812.264 251.11C812.264 251.38 812.065 251.64 811.638 251.929C808.281 254.202 789.728 258.836 781.517 255.55C772.77 252.053 738.001 257.299 737.651 257.353L737.47 257.381Z" fill="#4168B7"/>
<path d="M727.596 178.529L743.758 175.365C749.736 184.292 752.944 208.7 752.944 208.7L770.814 245.759C771.912 246.426 772.814 247.373 773.428 248.502C774.041 249.631 774.345 250.903 774.307 252.187C774.269 253.472 773.891 254.724 773.213 255.815C772.534 256.906 771.578 257.798 770.442 258.399C769.306 259.001 768.032 259.291 766.747 259.239C765.463 259.188 764.216 258.797 763.132 258.106C762.048 257.416 761.166 256.451 760.577 255.309C759.988 254.166 759.711 252.889 759.777 251.605L736.47 207.697L727.596 178.529Z" fill="#FFB6B6"/>
<path d="M727.504 182.364L727.045 158.342L734.651 148.166C736.151 146.174 738.179 144.641 740.505 143.741C742.831 142.841 745.362 142.609 747.813 143.072C751.131 143.722 754.078 145.608 756.059 148.347C758.04 151.087 758.906 154.477 758.483 157.831C757.192 168.003 754.261 180.733 747.63 183.613L747.563 183.642L754.436 207.677L728.949 211.237L727.504 182.364Z" fill="#4168B7"/>
<path d="M831.788 162.055C831.788 162.055 807.671 157.112 797.282 159.844L794.99 176.153L824.408 178.764L874.62 169.637C875.813 170.109 877.109 170.257 878.378 170.065C879.647 169.874 880.842 169.35 881.843 168.547C882.844 167.744 883.614 166.691 884.076 165.494C884.539 164.297 884.676 162.999 884.474 161.732C884.272 160.465 883.739 159.274 882.928 158.279C882.117 157.285 881.058 156.523 879.857 156.071C878.656 155.618 877.358 155.491 876.092 155.703C874.827 155.915 873.64 156.458 872.652 157.277L831.788 162.055Z" fill="#FFB6B6"/>
<path d="M802.586 179.974L778.704 177.34L769.591 168.489C767.809 166.745 766.549 164.537 765.956 162.114C765.362 159.692 765.458 157.152 766.232 154.781C767.303 151.574 769.552 148.894 772.524 147.282C775.496 145.67 778.969 145.246 782.241 146.097C792.162 148.686 802.09 146.271 804.094 153.218L807.669 152.047L831.152 156.521L831.405 182.254L802.586 179.974Z" fill="#4168B7"/>
<path d="M741.538 96.5536C743.72 93.1768 747.816 90.9263 751.787 91.5587C752.157 89.0246 753.214 86.6404 754.845 84.6659C756.476 82.6913 758.617 81.202 761.036 80.36C763.454 79.5181 766.057 79.3559 768.562 79.891C771.066 80.4261 773.376 81.638 775.239 83.3948C775.852 82.9634 776.565 82.6975 777.311 82.6229C778.057 82.5482 778.809 82.6674 779.495 82.9688C780.862 83.5902 782.051 84.5446 782.953 85.7444C785.232 88.5859 786.697 91.992 787.193 95.6001C787.69 99.2083 787.198 102.884 785.771 106.235C786.257 104.47 784.489 102.811 782.702 102.415C780.916 102.019 779.042 102.393 777.231 102.136C774.909 101.805 772.822 100.458 770.497 100.155C768.525 100.027 766.547 100.281 764.671 100.904C762.796 101.527 760.821 101.792 758.848 101.686C756.891 101.454 754.37 108.871 754.404 114.095C754.41 115.085 754.206 116.356 753.239 116.566C752.047 116.825 751.357 115.18 750.223 114.732C749.7 114.582 749.14 114.641 748.66 114.896C748.18 115.152 747.817 115.583 747.649 116.1C747.506 116.626 747.491 117.178 747.605 117.711C747.718 118.244 747.958 118.742 748.302 119.164C749 120 749.827 120.717 750.753 121.289L750.286 121.678C749.843 122.146 749.25 122.446 748.61 122.526C747.97 122.605 747.322 122.459 746.778 122.114C745.707 121.388 744.84 120.401 744.259 119.246C742.07 115.861 740.505 112.111 739.639 108.175C738.784 104.2 739.462 100.049 741.538 96.5536Z" fill="#292D32"/>
<path d="M904.619 430.185L896.909 417.795L895.369 424.875C895.099 426.115 894.829 427.375 894.579 428.625C892.389 426.755 890.059 425.025 887.779 423.365C880.779 418.285 873.783 413.199 866.789 408.105L868.979 420.805C870.329 428.625 871.739 436.605 875.079 443.755C875.449 444.565 875.849 445.366 876.279 446.146H908.819C909.081 445.421 909.262 444.67 909.359 443.905C909.367 443.856 909.371 443.806 909.369 443.755C909.879 438.905 907.199 434.335 904.619 430.185Z" fill="black"/>
<path d="M932.16 447.364L656.41 447.671C656.253 447.672 656.098 447.641 655.953 447.581C655.808 447.522 655.677 447.434 655.566 447.324C655.455 447.213 655.367 447.082 655.307 446.937C655.247 446.792 655.216 446.637 655.216 446.48C655.216 446.324 655.247 446.169 655.307 446.024C655.367 445.879 655.455 445.748 655.566 445.637C655.677 445.527 655.808 445.439 655.953 445.379C656.098 445.32 656.253 445.289 656.41 445.29L932.16 444.982C932.476 444.982 932.779 445.108 933.002 445.331C933.225 445.554 933.351 445.857 933.351 446.173C933.351 446.489 933.225 446.792 933.002 447.015C932.779 447.238 932.476 447.364 932.16 447.364Z" fill="black"/>
<path d="M501.029 233.894C492.818 235.153 484.418 233.949 476.891 230.434C469.365 226.919 463.049 221.252 458.744 214.148C454.438 207.044 452.336 198.823 452.703 190.524C453.07 182.225 455.889 174.222 460.805 167.525C465.721 160.829 472.511 155.741 480.319 152.904C488.126 150.067 496.6 149.609 504.667 151.588C512.735 153.567 520.035 157.894 525.643 164.021C531.252 170.149 534.918 177.802 536.177 186.012C537.013 191.464 536.767 197.027 535.453 202.384C534.139 207.741 531.783 212.786 528.519 217.232C525.255 221.679 521.148 225.438 516.431 228.297C511.714 231.156 506.48 233.058 501.029 233.894ZM488.599 152.841C480.779 154.04 473.49 157.531 467.655 162.873C461.819 168.215 457.698 175.167 455.814 182.85C453.929 190.534 454.365 198.604 457.067 206.039C459.769 213.475 464.615 219.942 470.992 224.624C477.37 229.305 484.992 231.99 492.896 232.34C500.799 232.689 508.629 230.687 515.394 226.587C522.16 222.486 527.558 216.472 530.905 209.303C534.253 202.135 535.399 194.135 534.2 186.316C532.592 175.83 526.884 166.412 518.332 160.134C509.78 153.856 499.085 151.233 488.599 152.841Z" fill="black"/>
<path d="M502.82 170.108C505.587 169.692 508.405 170.388 510.661 172.044C512.916 173.699 514.425 176.18 514.857 178.944L518.058 199.815C518.473 202.582 517.778 205.401 516.122 207.656C514.466 209.911 511.986 211.42 509.222 211.852L488.351 215.053C485.584 215.469 482.765 214.773 480.51 213.117C478.255 211.462 476.746 208.981 476.314 206.217L473.113 185.346C472.697 182.579 473.393 179.76 475.049 177.505C476.704 175.25 479.185 173.741 481.949 173.309L502.82 170.108ZM502.18 165.934L481.309 169.135C477.439 169.74 473.966 171.852 471.649 175.009C469.331 178.167 468.357 182.113 468.939 185.986L472.14 206.857C472.745 210.727 474.857 214.2 478.014 216.517C481.171 218.835 485.118 219.809 488.991 219.227L509.862 216.026C513.731 215.421 517.204 213.309 519.522 210.152C521.84 206.994 522.814 203.048 522.231 199.175L519.031 178.304C518.426 174.434 516.314 170.961 513.157 168.644C509.999 166.326 506.053 165.352 502.18 165.934Z" fill="black"/>
<path d="M494.305 184.23C495.956 183.977 497.646 184.219 499.159 184.926C500.673 185.633 501.943 186.773 502.809 188.202C503.675 189.63 504.097 191.284 504.024 192.953C503.95 194.621 503.383 196.231 502.394 197.578C501.406 198.924 500.04 199.948 498.47 200.518C496.9 201.089 495.196 201.181 493.573 200.783C491.951 200.385 490.483 199.515 489.355 198.282C488.227 197.05 487.49 195.511 487.236 193.86C487.068 192.763 487.118 191.645 487.382 190.567C487.646 189.49 488.12 188.475 488.776 187.581C489.433 186.687 490.259 185.931 491.207 185.356C492.156 184.781 493.209 184.399 494.305 184.23ZM493.665 180.057C491.188 180.436 488.88 181.542 487.031 183.234C485.183 184.926 483.878 187.128 483.281 189.561C482.684 191.995 482.822 194.551 483.678 196.906C484.533 199.261 486.068 201.31 488.088 202.792C490.108 204.275 492.522 205.126 495.026 205.236C497.529 205.347 500.009 204.713 502.152 203.414C504.295 202.115 506.004 200.21 507.065 197.94C508.125 195.67 508.488 193.136 508.108 190.659C507.599 187.338 505.791 184.355 503.082 182.367C500.374 180.378 496.986 179.547 493.665 180.057Z" fill="black"/>
<path d="M330.833 138.741C322.622 140 314.223 138.796 306.696 135.282C299.169 131.767 292.854 126.099 288.549 118.995C284.243 111.891 282.141 103.67 282.508 95.3716C282.875 87.0729 285.694 79.0693 290.61 72.373C295.525 65.6767 302.316 60.5885 310.124 57.7516C317.931 54.9148 326.404 54.4568 334.472 56.4357C342.54 58.4145 349.839 62.7412 355.448 68.8687C361.057 74.9962 364.722 82.6492 365.981 90.8601C366.818 96.3119 366.572 101.875 365.258 107.232C363.944 112.588 361.588 117.634 358.324 122.08C355.06 126.526 350.952 130.286 346.236 133.145C341.519 136.004 336.285 137.905 330.833 138.741ZM318.403 57.6888C310.584 58.888 303.295 62.3791 297.459 67.7207C291.624 73.0623 287.503 80.0144 285.618 87.6979C283.734 95.3814 284.17 103.451 286.872 110.887C289.573 118.322 294.419 124.79 300.797 129.471C307.174 134.153 314.797 136.838 322.7 137.188C330.604 137.537 338.433 135.535 345.199 131.434C351.965 127.334 357.363 121.319 360.71 114.151C364.057 106.983 365.204 98.9831 364.005 91.1632C362.396 80.6772 356.689 71.2594 348.137 64.9817C339.585 58.704 328.89 56.0807 318.403 57.6888Z" fill="black"/>
<path d="M346.445 82.219L351.236 80.4726C351.236 80.4726 347.797 85.7549 347.052 86.1727C347.129 87.1711 347.281 88.1623 347.506 89.1381C344.263 131.317 306.513 118.694 306.513 118.694C319.309 117.035 319.593 111.629 319.593 111.629C312.013 111.679 309.788 107.063 309.788 107.063C310.507 107.312 311.292 107.286 311.994 106.992C312.695 106.698 313.264 106.155 313.59 105.468C305.265 104.62 305.155 96.6446 305.155 96.6446C306.74 97.4561 308.507 97.847 310.286 97.7799C309.23 96.829 300.338 88.9862 304.173 83.6432C304.173 83.6432 311.224 92.6788 325.89 91.3401L326.849 90.9908C326.571 90.3047 326.393 89.5828 326.317 88.8466C325.895 86.094 326.584 83.2864 328.232 81.0416C329.88 78.7967 332.352 77.2984 335.104 76.8763C342.024 75.8152 344.113 79.5416 344.113 79.5416L348.6 75.8184C348.501 75.8335 348.765 80.8516 346.445 82.219Z" fill="black"/>
<path d="M894.367 156.718C886.156 157.977 877.756 156.773 870.229 153.258C862.703 149.744 856.387 144.076 852.082 136.972C847.776 129.868 845.674 121.647 846.041 113.348C846.408 105.049 849.227 97.0459 854.143 90.3496C859.058 83.6533 865.849 78.565 873.657 75.7282C881.464 72.8914 889.937 72.4334 898.005 74.4122C906.073 76.3911 913.373 80.7178 918.981 86.8453C924.59 92.9728 928.256 100.626 929.515 108.837C931.203 119.847 928.449 131.077 921.857 140.057C915.265 149.036 905.377 155.029 894.367 156.718ZM881.937 75.6653C874.117 76.8646 866.828 80.3557 860.993 85.6973C855.157 91.0388 851.036 97.9909 849.152 105.674C847.267 113.358 847.703 121.428 850.405 128.863C853.107 136.299 857.953 142.766 864.33 147.448C870.707 152.129 878.33 154.815 886.233 155.164C894.137 155.514 901.967 153.511 908.732 149.411C915.498 145.311 920.896 139.296 924.243 132.128C927.59 124.959 928.737 116.96 927.538 109.14C925.93 98.6537 920.222 89.236 911.67 82.9583C903.118 76.6806 892.423 74.0573 881.937 75.6653Z" fill="black"/>
<g clip-path="url(#clip1_688_7635)">
<path fill-rule="evenodd" clip-rule="evenodd" d="M910.416 115.704C910.416 128.36 900.156 138.62 887.5 138.62C874.843 138.62 864.583 128.36 864.583 115.704C864.583 103.047 874.843 92.7871 887.5 92.7871C900.156 92.7871 910.416 103.047 910.416 115.704ZM888.321 109.705C886.092 110.632 881.637 112.551 874.956 115.462C873.872 115.893 873.303 116.315 873.252 116.728C873.164 117.425 874.037 117.7 875.227 118.074C875.389 118.125 875.556 118.178 875.728 118.233C876.898 118.614 878.472 119.059 879.29 119.076C880.033 119.092 880.861 118.786 881.776 118.158C888.017 113.945 891.24 111.815 891.442 111.769C891.585 111.737 891.782 111.696 891.916 111.815C892.05 111.934 892.037 112.16 892.023 112.22C891.936 112.589 888.508 115.777 886.734 117.426C886.181 117.94 885.789 118.305 885.708 118.388C885.529 118.575 885.346 118.751 885.17 118.921C884.083 119.969 883.268 120.755 885.215 122.038C886.151 122.655 886.899 123.165 887.647 123.673C888.462 124.229 889.276 124.783 890.329 125.473C890.597 125.649 890.854 125.832 891.103 126.01C892.053 126.687 892.906 127.295 893.959 127.198C894.572 127.141 895.204 126.566 895.526 124.848C896.285 120.79 897.777 111.996 898.122 108.372C898.152 108.055 898.114 107.649 898.084 107.47C898.053 107.292 897.989 107.038 897.757 106.85C897.483 106.627 897.059 106.58 896.869 106.583C896.007 106.598 894.685 107.058 888.321 109.705Z" fill="black"/>
</g>
<path d="M183.366 297.718C175.156 298.977 166.756 297.773 159.229 294.258C151.703 290.744 145.387 285.076 141.082 277.972C136.776 270.868 134.674 262.647 135.041 254.348C135.408 246.049 138.227 238.046 143.143 231.35C148.058 224.653 154.849 219.565 162.657 216.728C170.464 213.891 178.937 213.433 187.005 215.412C195.073 217.391 202.372 221.718 207.981 227.845C213.59 233.973 217.256 241.626 218.515 249.837C219.351 255.288 219.105 260.852 217.791 266.208C216.477 271.565 214.121 276.61 210.857 281.057C207.593 285.503 203.486 289.263 198.769 292.121C194.052 294.98 188.818 296.882 183.366 297.718ZM170.937 216.665C163.117 217.865 155.828 221.356 149.993 226.697C144.157 232.039 140.036 238.991 138.152 246.674C136.267 254.358 136.703 262.428 139.405 269.863C142.107 277.299 146.953 283.767 153.33 288.448C159.707 293.129 167.33 295.815 175.233 296.164C183.137 296.514 190.967 294.511 197.732 290.411C204.498 286.311 209.896 280.296 213.243 273.128C216.59 265.959 217.737 257.96 216.538 250.14C215.742 244.948 213.93 239.963 211.208 235.471C208.485 230.979 204.905 227.067 200.67 223.958C196.436 220.85 191.63 218.606 186.529 217.355C181.427 216.103 176.129 215.869 170.937 216.665Z" fill="black"/>
<g clip-path="url(#clip2_688_7635)">
<path d="M179.668 230.476C175.978 231.597 172.378 233.203 168.987 235.302C168.924 235.339 168.893 235.411 168.908 235.485C169.117 236.449 169.46 237.644 169.764 238.552C166.18 240.882 163.033 243.672 160.353 246.891C159.475 246.466 158.329 246.009 157.395 245.687C157.325 245.664 157.25 245.687 157.204 245.743C154.712 248.855 152.685 252.235 151.128 255.766C151.114 255.796 151.109 255.83 151.115 255.863C152.843 268.564 158.272 277.636 165.795 284.681C165.832 284.716 165.885 284.733 165.934 284.73C171.746 284.196 176.548 282.743 180.817 280.818C180.885 280.787 180.925 280.717 180.92 280.642C180.753 278.859 180.449 277.094 179.991 275.359C179.965 275.257 179.857 275.204 179.759 275.241C178.264 275.808 176.739 276.235 175.192 276.555C175.069 276.58 174.96 276.47 174.985 276.348C175.058 275.995 175.124 275.636 175.18 275.283C175.19 275.219 175.236 275.166 175.297 275.147C184.759 272.253 192.053 265.791 195.984 256.816C196.009 256.756 196.067 256.716 196.134 256.713C196.49 256.7 196.857 256.679 197.217 256.648C197.341 256.637 197.439 256.757 197.4 256.877C196.906 258.385 196.288 259.836 195.542 261.252C195.494 261.345 195.536 261.458 195.634 261.497C197.313 262.146 199.03 262.661 200.765 263.054C200.838 263.071 200.914 263.039 200.953 262.975C203.394 258.954 205.414 254.362 206.644 248.656C206.654 248.606 206.643 248.555 206.613 248.514C199.603 238.874 190.473 233.196 179.765 230.477C179.734 230.465 179.7 230.466 179.668 230.476ZM175.237 267.966C173.208 269.763 169.887 269.382 167.861 267.095C165.834 264.809 165.823 261.494 167.884 259.668C169.961 257.828 173.28 258.24 175.26 260.539C177.286 262.826 177.297 266.14 175.237 267.966ZM188.915 255.846C186.886 257.643 183.565 257.262 181.539 254.975C179.512 252.688 179.501 249.374 181.562 247.548C183.639 245.708 186.958 246.12 188.938 248.419C190.964 250.705 190.992 254.005 188.915 255.846Z" fill="black"/>
</g>
<path d="M703.366 83.7178C695.156 84.977 686.756 83.7731 679.229 80.2583C671.703 76.7436 665.387 71.0759 661.082 63.972C656.776 56.868 654.674 48.6469 655.041 40.3482C655.408 32.0495 658.227 24.0459 663.143 17.3496C668.058 10.6533 674.849 5.56502 682.657 2.72819C690.464 -0.108637 698.937 -0.566595 707.005 1.41223C715.073 3.39105 722.373 7.71778 727.981 13.8453C733.59 19.9728 737.256 27.6258 738.515 35.8366C739.351 41.2884 739.105 46.8515 737.791 52.2082C736.477 57.565 734.121 62.6105 730.857 67.0567C727.593 71.5028 723.486 75.2626 718.769 78.1214C714.052 80.9801 708.818 82.8818 703.366 83.7178ZM690.937 2.66536C683.117 3.86457 675.828 7.3557 669.993 12.6973C664.157 18.0389 660.036 24.991 658.152 32.6745C656.267 40.358 656.703 48.4278 659.405 55.8634C662.107 63.299 666.953 69.7665 673.33 74.448C679.707 79.1295 687.33 81.8147 695.233 82.1641C703.137 82.5135 710.967 80.5114 717.732 76.4109C724.498 72.3105 729.896 66.2959 733.243 59.1277C736.59 51.9595 737.737 43.9596 736.538 36.1398C734.93 25.6537 729.222 16.236 720.67 9.95828C712.118 3.6806 701.423 1.05727 690.937 2.66536Z" fill="black"/>
<path d="M716.491 59.3957C715.408 60.6254 713.764 61.2345 711.954 61.0968L706.035 60.6306C705.917 60.6213 705.639 60.7567 705.543 60.8301L704.758 61.7212C698.212 69.1533 692.148 71.9777 682.132 63.1556L673.221 55.3068C665.343 48.3685 664.848 40.5583 671.786 32.6806L684.344 18.4225C691.283 10.5449 699.093 10.0498 706.971 16.9881L715.882 24.8369C723.76 31.7753 724.255 39.5855 717.316 47.4631L716.531 48.3543C716.406 48.4968 716.367 48.6844 716.396 48.8677L717.606 54.6806C717.971 56.458 717.574 58.1659 716.491 59.3957ZM674.46 35.0353C668.84 41.4158 669.195 47.0137 675.575 52.6334L684.487 60.4822C692.543 67.5776 696.277 65.961 702.085 59.3666L702.87 58.4755C703.67 57.5665 705.098 56.988 706.315 57.0791L712.234 57.5453C713.603 57.6436 714.388 56.7524 714.118 55.4065L712.908 49.5936C712.642 48.3148 712.995 46.9799 713.858 45.9996L714.643 45.1085C720.263 38.728 719.908 33.1301 713.527 27.5103L704.616 19.6615C698.235 14.0418 692.638 14.3967 687.018 20.7772L674.46 35.0353Z" fill="black"/>
<path d="M697.224 42.4256C696.345 43.4237 694.852 43.5015 693.872 42.6381C692.892 41.7748 692.796 40.2663 693.66 39.2861C694.523 38.3058 696.031 38.2102 697.012 39.0736C697.992 39.937 698.103 41.4275 697.224 42.4256Z" fill="black"/>
<path d="M703.503 35.2967C702.624 36.2948 701.132 36.3726 700.151 35.5092C699.171 34.6458 699.076 33.1374 699.939 32.1572C700.802 31.1769 702.311 31.0813 703.291 31.9447C704.271 32.8081 704.383 34.2986 703.503 35.2967Z" fill="black"/>
<path d="M690.945 49.5565C690.066 50.5545 688.573 50.6324 687.593 49.769C686.613 48.9056 686.517 47.3972 687.38 46.417C688.244 45.4367 689.752 45.3411 690.732 46.2044C691.713 47.0678 691.824 48.5584 690.945 49.5565Z" fill="black"/>
</g></a>
<defs>
<clipPath id="clip0_688_7635">
<rect width="933.351" height="538.011" fill="white" transform="translate(0 0.203125)"/>
</clipPath>
<clipPath id="clip1_688_7635">
<rect width="55" height="55" fill="white" transform="translate(860 88.2031)"/>
</clipPath>
<clipPath id="clip2_688_7635">
<rect width="66" height="66" fill="white" transform="translate(130.416 253.391) rotate(-41.5451)"/>
</clipPath>
</defs>
</svg>
