<svg width="528" height="398" viewBox="0 0 528 398" fill="none" xmlns="http://www.w3.org/2000/svg">
<g clip-path="url(#clip0_628_7562)">
<path d="M130.888 94.5452H133.07V34.7886C133.07 25.616 136.714 16.819 143.201 10.333C149.687 3.84696 158.485 0.203137 167.659 0.203125H294.273C298.816 0.203113 303.313 1.09768 307.51 2.83575C311.706 4.57383 315.52 7.12136 318.731 10.3329C321.943 13.5445 324.491 17.3571 326.229 21.5532C327.968 25.7493 328.862 30.2467 328.862 34.7885V362.618C328.862 367.159 327.968 371.657 326.229 375.853C324.491 380.049 321.943 383.862 318.731 387.073C315.52 390.285 311.707 392.832 307.51 394.57C303.314 396.309 298.816 397.203 294.273 397.203H167.659C158.485 397.203 149.687 393.559 143.201 387.073C136.714 380.587 133.07 371.79 133.07 362.618V137.081H130.888L130.888 94.5452Z" fill="black"/>
<path d="M166.262 9.20117H182.79C182.03 11.0644 181.74 13.0859 181.945 15.0877C182.15 17.0894 182.845 19.0099 183.967 20.6801C185.09 22.3502 186.606 23.7187 188.382 24.6649C190.158 25.6112 192.139 26.1062 194.152 26.1064H266.688C268.7 26.1062 270.682 25.6112 272.458 24.665C274.234 23.7187 275.75 22.3502 276.873 20.6801C277.995 19.01 278.69 17.0894 278.895 15.0877C279.1 13.0859 278.81 11.0644 278.05 9.20117H293.487C300.337 9.20117 306.908 11.9223 311.752 16.766C316.596 21.6097 319.317 28.1792 319.317 35.0292V362.377C319.317 365.769 318.649 369.128 317.351 372.261C316.053 375.395 314.15 378.242 311.752 380.641C309.353 383.039 306.506 384.941 303.372 386.239C300.238 387.537 296.879 388.205 293.487 388.205H166.262C162.87 388.205 159.511 387.537 156.377 386.239C153.243 384.941 150.396 383.039 147.997 380.641C145.599 378.242 143.696 375.395 142.398 372.261C141.1 369.128 140.432 365.769 140.432 362.377V35.0292C140.432 31.6374 141.1 28.2788 142.398 25.1452C143.696 22.0116 145.599 19.1644 147.997 16.766C150.396 14.3677 153.243 12.4652 156.377 11.1672C159.511 9.86922 162.87 9.20117 166.262 9.20117Z" fill="white"/>
<path d="M203.521 151.145C190.866 151.145 180.607 150.168 180.607 148.963C180.607 147.758 190.866 146.781 203.521 146.781C216.175 146.781 226.434 147.758 226.434 148.963C226.434 150.168 216.175 151.145 203.521 151.145Z" fill="#3C3C3C"/>
<path d="M0.499649 54.6816H211.438V123.922H203.447V142.031L185.337 123.922H0.499649V54.6816Z" fill="#4168B7"/>
<path d="M92.041 78.1289H187.96V81.0395H92.041V78.1289Z" fill="white"/>
<path d="M20.7812 88.1973H187.96V91.1079H20.7812V88.1973Z" fill="#A77700"/>
<path d="M20.945 98.2656H187.96V101.176H20.945V98.2656Z" fill="white"/>
<path d="M54.3887 263.518H222.767V318.788H216.389V333.243L201.932 318.788H54.3887V263.518Z" fill="#4168B7"/>
<path d="M127.461 282.234H204.026V284.558H127.461V282.234Z" fill="white"/>
<path d="M70.5786 290.271H204.026V292.595H70.5786V290.271Z" fill="white"/>
<path d="M70.7092 298.309H204.026V300.632H70.7092V298.309Z" fill="#A77700"/>
<path d="M216.447 340.521C206.346 340.521 198.157 339.741 198.157 338.779C198.157 337.817 206.346 337.037 216.447 337.037C226.549 337.037 234.737 337.817 234.737 338.779C234.737 339.741 226.549 340.521 216.447 340.521Z" fill="#3C3C3C"/>
<path d="M266.805 231.88C254.15 231.88 243.892 230.903 243.892 229.698C243.892 228.493 254.15 227.516 266.805 227.516C279.459 227.516 289.718 228.493 289.718 229.698C289.718 230.903 279.459 231.88 266.805 231.88Z" fill="#3C3C3C"/>
<path d="M407.242 163.248H258.903V211.941H264.523V224.675L277.258 211.941H407.242V163.248Z" fill="#4168B7"/>
<path d="M324.402 179.363H391.855V181.41H324.402V179.363Z" fill="#A77700"/>
<path d="M274.29 186.443H391.855V188.49H274.29V186.443Z" fill="white"/>
<path d="M274.405 193.525H391.855V195.572H274.405V193.525Z" fill="white"/>
<path d="M479.5 282.023C478.789 283.248 477.621 284.14 476.252 284.503C474.883 284.866 473.425 284.67 472.201 283.959C470.976 283.248 470.084 282.079 469.721 280.71C469.358 279.342 469.553 277.885 470.265 276.66C470.414 276.41 470.582 276.171 470.768 275.946L466.275 243.932L466.141 242.972L465.228 236.44L465.094 235.498L465.591 235.521L474.294 235.919L476.628 236.024L476.921 241.984L478.576 275.49C479.441 276.318 480.002 277.412 480.17 278.597C480.338 279.782 480.102 280.988 479.5 282.023Z" fill="#A0616A"/>
<path d="M466.167 243.262L477.218 242.249C477.792 242.194 478.32 241.916 478.689 241.473C479.057 241.031 479.236 240.461 479.186 239.887L477.136 216.907C477.037 215.791 476.715 214.706 476.189 213.717C475.662 212.728 474.943 211.854 474.073 211.147C473.204 210.441 472.201 209.916 471.125 209.603C470.048 209.291 468.92 209.198 467.807 209.329C466.694 209.461 465.619 209.814 464.645 210.368C463.671 210.922 462.818 211.666 462.137 212.556C461.456 213.446 460.96 214.463 460.678 215.548C460.397 216.632 460.336 217.762 460.5 218.871L463.813 241.411C463.89 241.928 464.149 242.4 464.544 242.741C464.939 243.083 465.443 243.271 465.965 243.271C466.032 243.271 466.099 243.269 466.167 243.262Z" fill="#CCCCCC"/>
<path d="M474.542 224.698C475.66 221.532 475.712 218.087 474.69 214.889C473.667 211.691 471.628 208.915 468.881 206.984C464.713 204.133 459.011 203.109 452.869 210.42C440.586 225.041 437.369 241.125 437.369 241.125L462.52 245.219C462.52 245.219 471.074 234.764 474.542 224.698Z" fill="#CCCCCC"/>
<path d="M433.864 389.395H426.693L423.282 361.738L433.865 361.739L433.864 389.395Z" fill="#A0616A"/>
<path d="M412.864 396.053L435.401 396.054L435.402 387.347L419.819 387.346C418.906 387.346 418.001 387.526 417.158 387.876C416.314 388.225 415.547 388.737 414.901 389.383C414.256 390.028 413.743 390.795 413.394 391.639C413.044 392.482 412.864 393.386 412.864 394.3L412.864 396.053Z" fill="black"/>
<path d="M492.82 383.142L486.012 385.392L474.092 360.204L484.14 356.883L492.82 383.142Z" fill="#A0616A"/>
<path d="M474.971 396.053L496.369 388.981L493.636 380.714L478.841 385.604C477.974 385.89 477.172 386.345 476.48 386.941C475.789 387.538 475.222 388.265 474.811 389.081C474.401 389.896 474.155 390.785 474.088 391.696C474.021 392.606 474.134 393.521 474.42 394.388L474.971 396.053Z" fill="black"/>
<path d="M451.865 197.971C444.903 194.165 442.344 185.438 446.15 178.476C449.956 171.515 458.685 168.957 465.646 172.762C472.608 176.568 475.167 185.295 471.361 192.257C467.555 199.218 458.827 201.776 451.865 197.971Z" fill="#A0616A"/>
<path d="M446.177 381.696L452.836 337.747C452.907 337.278 453.139 336.848 453.492 336.531C453.845 336.214 454.297 336.029 454.771 336.009C455.245 335.988 455.712 336.132 456.091 336.418C456.47 336.703 456.738 337.111 456.85 337.572L466.991 379.454C467.151 380.096 467.545 380.655 468.095 381.021C468.646 381.387 469.314 381.535 469.967 381.434L497.941 376.939C498.311 376.879 498.665 376.741 498.978 376.533C499.291 376.325 499.556 376.053 499.755 375.735C499.954 375.416 500.083 375.058 500.132 374.686C500.182 374.314 500.151 373.935 500.042 373.576L463.566 253.332C463.463 252.99 463.45 252.627 463.531 252.279L464.745 247.017C464.879 246.446 464.817 245.847 464.57 245.316C464.324 244.784 463.906 244.351 463.384 244.084C458.417 241.55 445.84 236.282 436.343 242.053C436.035 242.241 435.768 242.489 435.559 242.784C435.35 243.078 435.203 243.412 435.127 243.765L406.632 377.676C406.555 378.04 406.555 378.416 406.634 378.78C406.713 379.144 406.868 379.487 407.089 379.787C407.31 380.086 407.592 380.336 407.917 380.518C408.242 380.7 408.601 380.812 408.972 380.845L443.34 383.922C443.419 383.929 443.498 383.933 443.576 383.933C444.205 383.932 444.813 383.705 445.29 383.295C445.767 382.885 446.082 382.318 446.177 381.696Z" fill="black"/>
<path d="M468.282 175.218C467.199 174.567 466.238 173.731 465.442 172.75C465.049 172.254 464.791 171.666 464.691 171.041C464.592 170.417 464.655 169.777 464.874 169.184C465.6 167.583 467.757 167.076 469.428 167.622C471.099 168.168 472.391 169.477 473.612 170.741C474.688 171.855 475.794 173.017 476.305 174.479C476.815 175.941 476.553 177.794 475.284 178.681C474.038 179.552 472.247 179.195 471.049 178.26C469.851 177.326 469.109 175.938 468.402 174.593L468.282 175.218Z" fill="black"/>
<path d="M473.147 171.125C473.226 167.077 477.84 164.175 481.825 164.892C485.809 165.609 488.872 169.007 490.405 172.753C493.645 180.67 491.213 189.702 488.092 197.666C484.971 205.629 481.108 213.713 481.563 222.255C481.871 226.871 483.42 231.32 486.047 235.129C488.674 238.938 492.281 241.968 496.487 243.897C491.99 245.935 486.615 243.829 482.836 240.652C474.444 233.596 471.204 221.033 475.138 210.799C477.078 205.751 480.498 201.432 483.167 196.729C485.837 192.026 487.795 186.484 486.417 181.254C485.039 176.025 479.174 171.79 474.159 173.816L473.147 171.125Z" fill="black"/>
<path d="M457.893 191.74C459.145 189.624 460.41 186.846 458.12 184.997C457.622 184.613 457.053 184.332 456.445 184.171C455.837 184.011 455.204 183.973 454.581 184.061C452 184.372 449.19 184.5 446.692 183.563C445.755 183.24 444.893 182.733 444.156 182.071C443.419 181.409 442.822 180.605 442.402 179.708C441.112 176.653 442.727 172.94 445.423 171.009C447.073 169.87 449.021 169.244 451.025 169.209C453.029 169.173 454.999 169.73 456.687 170.81C460.179 169.268 464.416 169.953 467.588 172.076C470.76 174.199 472.931 177.599 474.11 181.229C475.197 184.354 475.384 187.72 474.65 190.946C474.06 193.19 472.937 195.259 471.378 196.977C469.818 198.696 467.868 200.013 465.691 200.818C464.843 201.152 463.922 201.257 463.021 201.124C462.119 200.99 461.269 200.622 460.554 200.056C460.554 200.056 458.574 198.327 457.955 196.246C457.479 194.647 457.224 192.871 457.893 191.74Z" fill="black"/>
<path d="M415.276 204.56C415.348 204.875 415.395 205.196 415.416 205.519L440.542 220.013L446.649 216.497L453.16 225.02L442.953 232.294C442.129 232.882 441.136 233.186 440.123 233.161C439.111 233.137 438.134 232.784 437.339 232.157L411.43 211.719C410.26 212.152 408.987 212.218 407.779 211.91C406.571 211.601 405.485 210.932 404.667 209.992C403.848 209.052 403.335 207.884 403.197 206.645C403.058 205.406 403.299 204.155 403.889 203.056C404.479 201.958 405.39 201.065 406.5 200.497C407.609 199.929 408.866 199.712 410.102 199.875C411.338 200.038 412.495 200.574 413.419 201.411C414.344 202.248 414.991 203.346 415.276 204.56Z" fill="#A0616A"/>
<path d="M441.382 220.699L449.503 231.223C449.734 231.522 450.027 231.769 450.362 231.945C450.696 232.121 451.065 232.222 451.443 232.243C451.82 232.264 452.198 232.203 452.55 232.064C452.902 231.926 453.22 231.713 453.483 231.441L462.676 221.895C464.202 220.705 465.193 218.958 465.432 217.037C465.671 215.117 465.139 213.18 463.953 211.651C462.766 210.123 461.021 209.127 459.101 208.883C457.181 208.638 455.243 209.165 453.711 210.348L442.181 216.795C441.851 216.979 441.564 217.233 441.341 217.538C441.118 217.844 440.963 218.194 440.887 218.564C440.812 218.935 440.817 219.317 440.902 219.686C440.987 220.054 441.151 220.4 441.382 220.699Z" fill="#CCCCCC"/>
<path d="M358.776 397.204H526.817C526.998 397.204 527.172 397.132 527.3 397.004C527.428 396.876 527.5 396.702 527.5 396.521C527.5 396.34 527.428 396.166 527.3 396.038C527.172 395.91 526.998 395.838 526.817 395.838H358.776C358.595 395.838 358.421 395.91 358.293 396.038C358.165 396.166 358.093 396.34 358.093 396.521C358.093 396.702 358.165 396.876 358.293 397.004C358.421 397.132 358.595 397.204 358.776 397.204Z" fill="#CCCCCC"/>
</g>
<defs>
<clipPath id="clip0_628_7562">
<rect width="527" height="397" fill="white" transform="matrix(-1 0 0 1 527.5 0.203125)"/>
</clipPath>
</defs>
</svg>
