<svg width="289" height="75" viewBox="0 0 289 75" fill="none" xmlns="http://www.w3.org/2000/svg">
<path d="M6.6875 5.9349V17.8932H20.7708V23.3516H6.6875V35.8307H22.5208V41.2891H0V0.476562H22.5208V5.9349H6.6875Z" fill="#4168B7"/>
<path d="M37.4199 35.8932H51.2116V41.2891H30.7324V0.539062H37.4199V35.8932Z" fill="#4168B7"/>
<path d="M75.3555 41.7064C71.5638 41.7064 68.0742 40.821 64.8971 39.0397C61.7148 37.2637 59.194 34.7845 57.3346 31.6022C55.4701 28.4095 54.543 24.821 54.543 20.8314C54.543 16.8314 55.4701 13.248 57.3346 10.0814C59.194 6.91471 61.7148 4.44596 64.8971 2.66471C68.0742 0.888672 71.5638 -0.00195312 75.3555 -0.00195312C79.1888 -0.00195312 82.694 0.888672 85.8763 2.66471C89.069 4.44596 91.5846 6.91471 93.418 10.0814C95.2617 13.248 96.1888 16.8314 96.1888 20.8314C96.1888 24.821 95.2617 28.4095 93.418 31.6022C91.5846 34.7845 89.069 37.2637 85.8763 39.0397C82.694 40.821 79.1888 41.7064 75.3555 41.7064ZM75.3555 35.8939C78.0638 35.8939 80.4701 35.2845 82.5846 34.0605C84.694 32.8262 86.3398 31.0605 87.5221 28.7689C88.7148 26.4772 89.3138 23.8314 89.3138 20.8314C89.3138 17.821 88.7148 15.1803 87.5221 12.9147C86.3398 10.6387 84.694 8.89388 82.5846 7.68555C80.4701 6.47721 78.0638 5.87305 75.3555 5.87305C72.6576 5.87305 70.2565 6.47721 68.1471 7.68555C66.0326 8.89388 64.3815 10.6387 63.1888 12.9147C62.0065 15.1803 61.418 17.821 61.418 20.8314C61.418 23.8314 62.0065 26.4772 63.1888 28.7689C64.3815 31.0605 66.0326 32.8262 68.1471 34.0605C70.2565 35.2845 72.6576 35.8939 75.3555 35.8939Z" fill="#4168B7"/>
<path d="M134.317 48.6855L127.15 40.9355C125.385 41.446 123.447 41.7064 121.338 41.7064C117.546 41.7064 114.057 40.821 110.88 39.0397C107.697 37.2637 105.176 34.7845 103.317 31.6022C101.452 28.4095 100.525 24.821 100.525 20.8314C100.525 16.8314 101.452 13.248 103.317 10.0814C105.176 6.91471 107.697 4.44596 110.88 2.66471C114.057 0.888672 117.546 -0.00195312 121.338 -0.00195312C125.171 -0.00195312 128.676 0.888672 131.859 2.66471C135.051 4.44596 137.567 6.91471 139.4 10.0814C141.244 13.248 142.171 16.8314 142.171 20.8314C142.171 24.5814 141.359 27.972 139.734 30.998C138.109 34.0293 135.869 36.4564 133.025 38.2897L142.817 48.6855H134.317ZM107.4 20.8314C107.4 23.8314 107.989 26.4772 109.171 28.7689C110.364 31.0605 112.015 32.8262 114.13 34.0605C116.239 35.2845 118.64 35.8939 121.338 35.8939C124.046 35.8939 126.452 35.2845 128.567 34.0605C130.676 32.8262 132.322 31.0605 133.505 28.7689C134.697 26.4772 135.296 23.8314 135.296 20.8314C135.296 17.821 134.697 15.1803 133.505 12.9147C132.322 10.6387 130.676 8.89388 128.567 7.68555C126.452 6.47721 124.046 5.87305 121.338 5.87305C118.64 5.87305 116.239 6.47721 114.13 7.68555C112.015 8.89388 110.364 10.6387 109.171 12.9147C107.989 15.1803 107.4 17.821 107.4 20.8314Z" fill="#4168B7"/>
<path d="M155.537 0.539062V26.5182C155.537 29.6016 156.35 31.9297 157.975 33.4974C159.6 35.0547 161.855 35.8307 164.745 35.8307C167.673 35.8307 169.954 35.0547 171.579 33.4974C173.204 31.9297 174.016 29.6016 174.016 26.5182V0.539062H180.704V26.3932C180.704 29.7161 179.98 32.5286 178.537 34.8307C177.089 37.138 175.152 38.862 172.725 39.9974C170.292 41.138 167.61 41.7057 164.683 41.7057C161.751 41.7057 159.084 41.138 156.683 39.9974C154.277 38.862 152.37 37.138 150.954 34.8307C149.548 32.5286 148.85 29.7161 148.85 26.3932V0.539062H155.537Z" fill="#4168B7"/>
<path d="M196.068 5.9349V17.8932H210.152V23.3516H196.068V35.8307H211.902V41.2891H189.381V0.476562H211.902V5.9349H196.068Z" fill="#4168B7"/>
<path d="M253.592 41.2891H246.926L226.801 10.8516V41.2891H220.113V0.476562H226.801L246.926 30.8516V0.476562H253.592V41.2891Z" fill="#4168B7"/>
<path d="M288.732 0.539062V5.97656H277.878V41.2891H271.191V5.97656H260.295V0.539062H288.732Z" fill="#4168B7"/>
<path d="M28.7715 57.8118V62.666H35.2923V65.7493H28.7715V70.8743H36.1257V74.041H24.8965V54.666H36.1257V57.8118H28.7715Z" fill="#4168B7"/>
<path d="M64.0195 74.0397L59.832 67.5189L56.0404 74.0397H51.6654L57.7487 64.2689L51.582 54.6855H56.0404L60.2279 61.1647L63.9987 54.6855H68.3737L62.3112 64.4147L68.4779 74.0397H64.0195Z" fill="#4168B7"/>
<path d="M83.3086 64.3314C83.3086 62.4303 83.7305 60.7272 84.5794 59.2272C85.4388 57.7168 86.6107 56.5397 88.1003 55.7064C89.6003 54.8626 91.2721 54.4355 93.1211 54.4355C95.2721 54.4355 97.1628 54.9928 98.7878 56.1022C100.423 57.2168 101.564 58.748 102.204 60.7064H97.7461C97.2982 59.7793 96.6732 59.0814 95.8711 58.623C95.0638 58.1647 94.1315 57.9355 93.0794 57.9355C91.9544 57.9355 90.9544 58.2012 90.0794 58.7272C89.2044 59.2585 88.5169 59.998 88.0169 60.9564C87.5273 61.9147 87.2878 63.0397 87.2878 64.3314C87.2878 65.6126 87.5273 66.7376 88.0169 67.7064C88.5169 68.6803 89.2044 69.4303 90.0794 69.9564C90.9544 70.4876 91.9544 70.748 93.0794 70.748C94.1315 70.748 95.0638 70.5137 95.8711 70.0397C96.6732 69.571 97.2982 68.8678 97.7461 67.9355H102.204C101.564 69.9251 100.434 71.4668 98.8086 72.5605C97.194 73.6595 95.2982 74.2064 93.1211 74.2064C91.2721 74.2064 89.6003 73.7897 88.1003 72.9564C86.6107 72.1126 85.4388 70.9355 84.5794 69.4355C83.7305 67.9355 83.3086 66.2376 83.3086 64.3314Z" fill="#4168B7"/>
<path d="M134.372 54.6855V74.0397H130.497V65.8105H122.205V74.0397H118.33V54.6855H122.205V62.6439H130.497V54.6855H134.372Z" fill="#4168B7"/>
<path d="M162.873 70.3535H155.144L153.873 74.041H149.811L156.769 54.666H161.29L168.248 74.041H164.144L162.873 70.3535ZM161.811 67.2493L158.998 59.1452L156.206 67.2493H161.811Z" fill="#4168B7"/>
<path d="M200.182 74.041H196.307L187.516 60.7493V74.041H183.641V54.666H187.516L196.307 67.9785V54.666H200.182V74.041Z" fill="#4168B7"/>
<path d="M230.288 60.498C229.84 59.696 229.23 59.0814 228.454 58.6647C227.673 58.2376 226.767 58.0189 225.725 58.0189C224.585 58.0189 223.569 58.2793 222.684 58.7897C221.793 59.3053 221.1 60.0501 220.6 61.0189C220.1 61.9772 219.85 63.0814 219.85 64.3314C219.85 65.623 220.1 66.7585 220.6 67.7272C221.111 68.6855 221.819 69.4251 222.725 69.9355C223.642 70.4512 224.694 70.7064 225.892 70.7064C227.376 70.7064 228.59 70.321 229.538 69.5397C230.48 68.748 231.1 67.6543 231.392 66.248H224.746V63.2897H235.225V66.6647C234.96 68.0137 234.402 69.2637 233.559 70.4147C232.71 71.5553 231.611 72.472 230.267 73.1647C228.934 73.8626 227.434 74.2064 225.767 74.2064C223.892 74.2064 222.194 73.7897 220.684 72.9564C219.184 72.1126 218.001 70.9355 217.142 69.4355C216.293 67.9355 215.871 66.2376 215.871 64.3314C215.871 62.4303 216.293 60.7272 217.142 59.2272C218.001 57.7168 219.184 56.5397 220.684 55.7064C222.194 54.8626 223.876 54.4355 225.725 54.4355C227.902 54.4355 229.798 54.972 231.413 56.0397C233.022 57.097 234.132 58.5814 234.746 60.498H230.288Z" fill="#4168B7"/>
<path d="M254.768 57.8118V62.666H261.288V65.7493H254.768V70.8743H262.122V74.041H250.893V54.666H262.122V57.8118H254.768Z" fill="#4168B7"/>
</svg>
