<svg width="235" height="284" viewBox="0 0 235 284" fill="none" xmlns="http://www.w3.org/2000/svg">
<mask id="mask0_72_1701" style="mask-type:luminance" maskUnits="userSpaceOnUse" x="120" y="97" width="30" height="30">
<path d="M131.378 97.8994L149.805 108.538L139.166 126.965L120.739 116.326L131.378 97.8994Z" fill="white"/>
</mask>
<g mask="url(#mask0_72_1701)">
<path d="M135.237 119.385C133.742 116.961 134.494 113.809 136.918 112.346C137.08 112.249 137.245 112.161 137.413 112.083C136.066 113.112 135.36 114.715 135.431 116.335C135.793 114.982 137.175 113.729 139.306 114.487C141.497 115.266 143.107 117.732 141.979 118.573C141.979 118.573 146.502 118.419 143.933 114.887C143.587 114.412 143.228 113.958 142.726 113.653C141.938 113.174 142.086 112.52 141.221 111.511C141.221 111.511 143.021 112.384 143.288 113.943C145.434 113.542 143.665 109.495 141.934 107.862C140.536 106.543 139.106 105.797 138.346 105.322C137.928 105.061 137.787 104.771 137.787 104.771C137.447 105.808 138.656 106.992 138.656 106.992C134.188 104.674 130.439 108.12 130.439 108.12C131.309 107.785 132.993 108.096 132.993 108.096C130.511 108.897 128.787 110.135 127.621 111.303C127.817 110.379 128.158 109.472 128.655 108.611C131.214 104.178 136.965 102.678 141.443 105.276C144.269 106.915 145.93 109.787 146.127 112.797C146.191 109.03 144.241 105.326 140.718 103.291C135.57 100.319 128.976 102.062 126.059 107.165C123.817 111.085 124.372 115.854 127.1 119.189C127.148 115.76 128.857 112.656 131.541 110.75C129.235 112.694 127.934 115.725 128.341 118.95C128.424 119.606 128.573 120.237 128.781 120.839C129.187 121.158 129.619 121.452 130.079 121.718C130.927 122.207 131.812 122.569 132.713 122.81C132.114 120.302 132.454 117.673 133.631 115.426C132.623 117.812 132.638 120.587 133.816 123.044C136.279 123.432 138.789 122.95 140.905 121.716C138.776 122.238 136.451 121.355 135.237 119.385Z" fill="#262626"/>
</g>
<path fill-rule="evenodd" clip-rule="evenodd" d="M92.7842 175.177C93.5069 175.595 94.2574 176.004 94.9699 176.439C98.1149 178.279 96.7208 178.414 92.8874 185.46C88.8858 192.88 91.4992 194.459 85.7557 191.096C87.1777 188.674 89.3778 181.037 92.7842 175.177ZM95.175 196.723C97.8869 191.496 100.885 186.67 103.715 181.442L109.377 184.499C108.381 187.12 104.461 190.897 102.777 193.285C99.1561 198.457 99.4386 199.067 97.9647 198.404C97.3247 198.128 95.7688 197.159 95.175 196.723ZM104.506 201.687L99.9925 199.41C101.813 197.03 103.292 194.264 105.191 191.953C107.09 189.641 108.773 187.417 110.664 185.242L114.921 187.394C111.734 192.628 107.684 196.306 104.506 201.687ZM98.0362 178.374C99.3739 179.029 101.457 180.02 102.168 180.947C102.143 182.578 95.283 194.012 93.777 196.009L90.5426 193.837C92.8199 188.712 95.2247 183.285 98.0362 178.374ZM113.94 206.475L111.084 204.826C114.934 198.118 119.369 194.71 122.073 190.677L125.214 192.279C121.975 197.483 117.382 201.694 113.94 206.475ZM74.2896 163.207L78.6446 166.003L75.7253 175.293C75.0798 177.388 73.4952 183.43 72.8235 184.593L69.1443 182.54L69.402 180.221C70.4463 175.888 72.5283 166.42 74.2896 163.207ZM85.914 170.835L91.566 174.357L84.627 189.998C84.5538 190.003 84.486 189.917 84.4101 189.967L79.3029 187.7C80.043 186.458 81.0717 182.234 82.3569 179.357C83.6726 176.427 84.7828 173.731 85.914 170.835ZM79.8018 166.93C80.6201 167.426 84.2919 169.452 84.5255 170.268C84.938 171.752 80.54 180.306 79.678 182.816C79.1717 184.263 78.8492 185.84 77.9042 187.151L73.9822 185.192C75.2712 183.163 76.828 174.849 77.9451 171.733C78.4921 170.216 79.2873 168.513 79.8018 166.93ZM68.9582 160.27L72.9825 162.499C72.6168 165.249 69.9748 172.349 68.7806 176.901C68.3054 178.742 68.3477 180.012 67.6806 181.859L63.7322 179.58C64.4185 175.134 66.9741 164.765 68.9582 160.27ZM109.809 204.185L105.668 202.24C108.88 196.879 112.646 193.084 116.057 187.909L120.851 190.23C116.181 196.324 115.621 195.789 109.809 204.185ZM81.7128 132.357C82.6431 130.379 86.2348 124.321 87.5521 122.732C90.6534 119.07 94.8891 111.245 100.111 105.376C101.06 104.302 102.304 103.164 103.385 102.025C108.765 96.2475 114.577 91.0248 120.281 85.1756C124.763 80.5478 129.739 77.5456 134.419 73.7139C136.444 72.039 137.547 73.0992 142.717 73.2636C144.509 73.3347 149.918 74.0606 151.666 74.5758C159.29 76.839 165.854 84.6009 166.679 91.07C168.028 101.72 171.387 98.4652 165.909 112.717C161.924 123.038 160.982 130.531 155.431 141.122C152.106 147.452 149.648 154.07 146.996 160.577C144.934 165.614 138.716 174.715 135.272 178.767C132.955 181.519 131.048 184.578 128.962 187.416C127.405 189.502 127.735 190.844 125.299 189.813C123.698 189.124 121.831 187.882 120.21 187.228L111.162 182.709C104.451 179.069 87.4185 169.165 81.9093 164.786C80.5257 163.681 74.0107 159.497 72.3536 159.151C69.8388 158.663 68.004 160.823 71.5435 152.291C74.3251 145.601 78.6187 138.937 81.7128 132.357ZM52.3474 135.145C59.2855 124.227 62.8101 120.198 71.1287 111.651C74.0324 108.698 77.9905 105.954 81.6791 104.205C83.0958 103.543 84.1606 103.123 85.4233 102.442L96.5306 96.963C97.4386 96.5707 99.3632 95.8017 100.354 95.5511C104.683 94.5253 105.693 93.3457 108.091 93.3438C106.609 95.2609 104.757 96.6361 103.088 98.305C98.278 103.095 92.8946 110.14 88.8575 115.871C82.0921 125.431 77.6693 135.005 72.0639 144.836L52.3474 135.145ZM154.087 195.271C154.08 195.243 154.001 195.338 153.981 195.374C144.565 189.985 144.082 189.682 134.161 184.965C135.639 182.364 138.008 179.971 139.728 177.603C145.42 169.82 149.998 161.605 153.099 152.49C154.293 148.996 154.535 150.288 155.286 149.311C155.868 148.589 156.625 146.3 157.107 145.262C160.44 138.35 161.705 135.508 164.206 128.327C165.285 125.236 165.122 123.239 166.521 120.286C168.68 122.449 169.187 126.008 169.591 128.686C170.031 131.549 170.561 134.252 170.317 137.566C169.486 149.425 164.052 174.795 158.852 185.918C158.026 187.674 157.19 189.448 156.458 191.164C156.119 191.955 155.746 192.844 155.288 193.638L154.176 195.157C154.166 195.175 154.067 195.306 154.087 195.271ZM139.059 70.8465C141.149 68.6922 152.711 63.8511 156.736 63.0258L162.184 61.8939C165.561 61.5403 166.004 61.1384 168.099 62.3948C171.619 64.521 173.55 63.9439 174.241 68.0797C174.966 72.564 175.135 70.9692 174.604 75.7156L173.482 83.7639C173.021 86.4354 172.712 89.4534 171.546 92.1646C170.833 91.2829 170 90.7314 169.483 91.9131C170.286 92.9643 170.327 92.2829 171.751 92.2589C171.118 94.2909 170.473 97.2796 170.228 98.6418C169.756 97.9934 169.676 98.2531 169.487 97.1566L168.845 91.5921C169.006 86.1852 166.358 82.1417 162.363 78.3548C156.506 72.7873 151.304 71.9462 144.794 71.1724L139.059 70.8465ZM50.0851 135.766C51.3519 137.602 67.3817 145.211 71.0068 146.952L67.8593 155.334C66.9886 157.535 61.2325 176.256 61.7697 178.094C62.1774 179.505 62.8002 178.548 61.9731 180.021C62.5826 180.35 63.0226 180.768 63.2999 180.858L68.6022 183.519C70.1831 184.526 73.884 186.827 75.2574 187.949C77.0132 189.386 75.5315 187.638 78.1849 189.31C79.5896 190.216 80.0528 189.942 81.3957 191.117C86.4154 195.449 95.3742 201.303 101.646 203.914C104.058 204.906 106.21 205.82 108.77 207.369C110.16 208.218 110.609 208.783 112.018 208.256C113.277 207.785 113.111 207.666 114.355 208.36L114.708 208.564C114.743 208.584 114.824 208.607 114.852 208.6C116.187 209.136 131.079 188.756 132.651 187.336C137.604 188.974 150.855 195.332 154.056 198.825C154.622 198.658 154.392 198.69 154.887 198.647C154.971 198.625 155.243 198.641 155.344 198.629C155.39 198.632 155.491 198.619 155.564 198.615C155.61 198.617 155.721 198.588 155.766 198.59C155.822 198.575 155.923 198.563 155.996 198.559L162.733 184.163L165.809 174.682C166.124 173.078 166.901 171.529 167.254 169.899L170.484 156.205C170.803 154.839 171.055 153.221 171.363 151.589C172.915 143.038 173.995 134.167 171.045 125.883L169.54 122.099C169.206 121.131 167.341 118.621 167.28 118.28L170.319 108.824C171.272 105.544 172.318 102.552 173.236 99.4151C173.669 97.973 173.812 96.5043 174.195 94.9862C174.611 93.3698 174.9 91.8917 175.268 90.3181C176.524 84.8858 177.679 77.7969 177.385 72.5268C176.974 65.5446 171.108 57.9978 162.312 59.1477C160.842 59.333 159.39 59.5285 158.078 59.8054C148.458 61.9362 139.349 66.4778 131.481 72.5345C130.247 73.4908 129.068 74.1496 127.801 75.2042C125.442 77.1326 123.183 79.2129 120.779 81.1385L113.946 87.7224C108.058 92.9952 111.31 90.008 106.315 91.4955C105.071 91.8585 103.708 91.7767 102.293 92.1112C101.451 92.3069 101.047 92.3556 100.221 92.6069C97.0402 93.6379 97.8656 93.1039 94.3723 94.6359C87.0217 97.8421 82.8788 99.5631 75.4191 104.587C72.892 106.277 70.7357 108.628 68.4716 110.799C63.748 115.357 52.2792 130.052 50.0851 135.766Z" fill="#262626"/>
<path fill-rule="evenodd" clip-rule="evenodd" d="M64.7756 190.758C64.6511 189.793 64.9319 189.673 63.9828 189.078C63.5345 189.407 59.7264 202.109 59.3522 203.937C58.3668 208.656 58.1254 206.754 58.5027 209.886C58.6563 211.127 58.1934 210.178 59.4618 211.075C59.4618 211.075 59.8089 211.369 59.9397 211.468C60.5569 211.213 60.6159 210.989 61.0533 210.842C61.5741 210.673 61.2621 211.009 62.3241 210.636L64.3241 209.37C64.413 209.256 64.5011 209.307 64.6124 209.277C63.2092 211.993 62.1499 214.601 60.6912 217.331C59.3166 219.875 58.907 222.294 57.59 224.941C56.4894 227.173 55.4761 230.231 54.7919 232.515C54.1409 234.701 52.8908 238.21 54.1713 239.208C55.5778 238.562 54.0737 239.01 56.2095 237.306C57.3497 236.389 57.9762 236.281 58.8309 235.411C60.1929 233.988 62.4094 232.307 64.0274 231.784L64.0456 232.241C63.996 232.612 64.0503 232.314 63.9627 232.71L60.2092 244.503C59.328 247.943 56.9664 253.865 58.9985 256.166C60.982 255.784 61.6548 253.234 64.2905 250.949C69.838 246.184 75.4827 240.56 80.6151 236.026L80.6438 237.523C80.5656 238.065 80.5445 238.265 80.4915 238.845C80.3791 240.261 80.0502 240.423 81.6142 241.256C81.8374 241.032 84.2285 238.112 84.2923 237.961C85.9173 234.739 84.6566 235.539 88.8195 230.445L91.3951 227.49C91.484 227.377 91.5646 227.4 91.6582 227.36C92.0207 228.157 91.9517 227.788 91.718 229.251C91.381 231.219 90.8998 232.704 92.4149 233.743C96.23 230.799 94.0572 231.753 95.0845 229.526C96.0786 227.397 100.427 224.385 100.871 223.819C101.92 222.45 101.824 222.982 102.871 221.942C104.066 220.728 105.955 219.492 105.141 217.847C104.495 217.826 105.032 217.549 104.077 218.102L101.951 219.953C99.984 221.732 94.4064 227.607 93.4536 227.833C93.2012 226.112 94.0281 225.25 92.8391 224.093C92.0904 224.413 91.0146 225.625 90.4286 226.274C89.5379 227.288 89.0142 228.113 88.0856 229.152L84.0177 233.877C83.6195 234.282 83.7667 234.108 83.448 234.253C83.9087 231.135 85.7945 228.887 83.5742 227.44C81.4015 232.343 76.304 235.84 72.8658 239.19C70.9666 241.055 69.0837 242.647 67.2103 244.385C66.2268 245.275 62.5687 249.25 61.6932 249.708L61.874 248.214C62.7895 243.901 65.8881 235.725 66.437 232.658C66.7841 230.673 67.0958 229.278 64.826 228.202C64.2407 228.687 63.6844 229.447 62.9295 230.022C62.3571 230.443 61.4341 230.78 60.8061 231.217L56.7971 234.049C56.771 233.117 57.8757 230.512 58.217 229.839C59.0671 228.285 59.7028 227.266 60.2423 225.721C62.3544 219.701 66.6344 213.265 67.7763 209.13C68.092 207.973 68.0979 208.329 68.0874 207.288C68.0697 205.609 68.488 203.501 67.1682 202.245C65.6627 203.021 63.3693 205.528 61.9541 205.862C62.2165 203.617 63.871 199.449 64.695 196.963C66.1997 192.403 64.9664 192.137 64.7756 190.758Z" fill="#262626"/>
<path fill-rule="evenodd" clip-rule="evenodd" d="M144.22 94.7193C145.308 95.277 150.708 99.1939 151.361 100.017C156.777 106.716 158.97 110.122 152.605 121.065C149.341 126.678 145.641 129.383 141.08 131.38C137.129 133.094 130.164 131.846 126.425 129.734C121.935 127.212 114.263 119.821 114.234 114.823C114.242 113.629 113.98 112.537 114.273 111.296C114.826 108.913 116.127 105.48 118.125 103.484C120.209 101.421 124.863 97.1046 127.702 96.2993L130.327 95.4173C132.72 94.2843 134.376 94.3472 137.219 94.837C138.672 95.0884 139.42 94.7686 140.791 94.8782C142.87 95.0213 142.296 95.3242 144.22 94.7193ZM147.307 93.5642C143.06 92.0053 144.37 92.6675 138.732 92.2561C137.044 92.1274 136.232 91.9875 134.502 92.0934C129.972 92.3686 126.877 92.7209 123.026 95.3621C121.732 96.2601 120.847 97.1827 119.585 98.1465C115.679 101.085 113.702 104.55 112.426 109.854C111.874 112.073 112.185 116.295 112.445 118.208C112.938 121.83 122.388 133.796 127.506 133.437C128.852 133.345 127.6 132.786 129.487 133.711C133.782 135.838 135.454 136.686 140.26 135.771C144.882 134.89 144.145 134.254 145.513 133.187C146.126 132.695 146.56 132.757 147.404 132.069C149.719 130.257 151.935 127.071 153.729 124.37C155.142 122.248 157.435 117.625 158.148 115.17C159.678 110.036 158.075 103.612 154.771 99.5654C152.715 97.062 150.69 94.7885 147.307 93.5642Z" fill="#262626"/>
<path fill-rule="evenodd" clip-rule="evenodd" d="M143.566 102.121C143.682 102.164 143.863 102.175 144.223 102.407L145.49 103.796C147.728 106.757 148.331 106.893 148.746 110C149.264 113.989 148.364 115.914 145.524 119.774C143.033 123.153 140.639 124.286 137.474 125.373C133.292 126.836 132.213 125.367 127.533 122.971C121.853 120.067 121.168 115.066 123.122 110.013C123.444 109.211 123.767 108.082 124.162 107.275C124.738 106.033 130.65 100.352 133.77 100.037C139.697 99.4175 141.816 101.651 143.566 102.121ZM122.661 106.903C120.352 112.409 119.555 118.999 123.153 123.474C125.335 126.167 125.264 125.679 128.307 127.084C130.187 127.981 131.715 128.793 133.603 128.943L137.376 129.124C138.881 129.123 138.522 129.174 139.801 128.385C142.547 126.68 146.807 123.617 148.395 119.809C150.324 115.165 151.555 114.701 150.045 108.118C149.589 106.139 149.372 104.886 147.999 103.153C144.425 98.5979 138.158 97.5652 132.731 98.662C131.937 98.815 132.145 98.6997 131.445 98.8128C127.799 99.3873 124.32 102.972 122.661 106.903Z" fill="#262626"/>
<path fill-rule="evenodd" clip-rule="evenodd" d="M88.0873 214.699C88.4637 214.657 88.279 217.583 88.2584 218.229C88.2335 219.86 87.8088 220.554 89.3639 221.687C90.9562 221.29 93.0471 220.03 94.2701 218.644C95.5236 217.206 95.3023 218.159 96.6385 216.862C97.3737 216.159 98.1713 215.632 98.9614 215.078C97.8257 212.73 99.403 214.557 97.2199 211.581C95.3465 213.32 91.8956 216.122 89.9295 217.125C89.6588 215.559 90.3937 216.077 89.7528 214.297C89.3436 213.215 89.4096 212.571 88.1466 211.584C86.6652 213.173 85.2118 214.143 83.4573 215.269C81.1154 216.761 80.9491 217.252 79.3369 218.742L78.7644 219.164C78.7163 219.206 78.6227 219.246 78.5393 219.269C79.1834 212.942 82.3193 209.465 80.0478 207.049C79.2741 207.331 76.3603 209.691 75.4942 210.295C75.3656 209.704 75.2562 210.463 75.4105 209.26C75.6817 207.325 77.9538 201.069 77.1809 198.907C76.6023 197.304 76.5761 196.372 75.5714 195.792C74.8313 197.033 75.2853 199.951 74.4179 202.553L72.8052 209.824C72.5876 211.625 72.2258 212.944 73.8467 214.045C75.2032 212.713 76.9992 211.352 78.7399 211.065C78.1122 212.559 77.8209 213.918 77.2359 215.461C76.5946 217.182 75.7479 218.527 75.1798 220.243C74.7142 221.62 74.0485 223.139 73.4737 224.664C73.1955 225.349 72.922 226.108 72.7041 226.852C72.645 227.076 72.4807 227.686 72.4338 228.012C72.1756 229.884 72.9088 229.061 73.3869 228.844C73.3917 228.917 73.452 228.976 73.4289 229.056C73.3753 229.19 73.4525 229.422 73.4674 229.478C73.5526 230.185 73.3962 229.601 73.5777 230.223C74.8112 229.878 74.5321 229.059 75.2547 227.807C76.3334 225.939 77.03 225.424 77.956 223.82C79.3475 221.451 79.6008 222.396 81.2051 220.432C82.6316 218.693 87.6541 216.752 87.8066 214.819L88.0873 214.699Z" fill="#262626"/>
<path fill-rule="evenodd" clip-rule="evenodd" d="M130.735 215.608C130.683 214.356 131.236 214.252 131.37 213.084C132.066 207.116 132.38 209.624 133.33 206.554L133.319 205.231C132.239 205.148 132.152 205.38 131.073 206.026C129.787 206.788 130.148 206.855 128.66 207.194C129.304 205.874 129.861 204.95 130.584 203.699C131.441 202.173 131.054 201.785 131.573 200.439C132.41 198.337 132.179 199.144 131.591 197.559C131.339 196.896 131.373 196.023 130.789 195.568C129.343 194.451 130.063 196.582 128.784 199.205C127.028 202.774 125.926 204.276 124.962 208.632C124.581 210.433 124.534 211.369 125.99 212.469C127.042 211.666 127.397 211.213 129.237 211.405C128.001 213.912 123.937 220.543 124.553 223.508C124.758 224.496 124.625 224.278 125.708 224.926C126.545 224.047 127.328 222.242 128.309 221.399L137.067 214.493C137.976 213.772 138.93 212.771 139.911 211.928C142.455 209.801 142.153 209.673 142.728 209.206C144.6 207.631 146.238 204.511 147.895 202.577L147.466 201.366L139.138 208.097C136.324 210.609 133.537 212.831 130.735 215.608Z" fill="#262626"/>
<path fill-rule="evenodd" clip-rule="evenodd" d="M44.6563 162.714C46.6838 160.382 47.4238 159.752 50.5007 158.168C50.5054 158.241 50.5481 158.289 50.5149 158.387L47.4585 167.833C46.8097 169.527 45.0231 173.313 45.1921 175.056C45.2333 175.433 45.3553 175.832 45.5613 176.045C47.3074 177.946 46.9023 174.821 50.161 170.968C51.8107 169.006 52.8629 167.428 54.4813 165.683C57.2793 162.669 59.9071 157.629 63.0127 155.262C62.1022 155.089 62.2235 155.042 61.3493 155.782C59.8869 157.053 58.3728 159.187 56.9192 160.769L51.0146 166.925C50.9754 166.668 50.778 166.765 51.0361 165.504C51.1495 164.982 51.2798 164.634 51.4135 164.077C52.0158 161.487 51.6499 160.899 52.3566 158.088C52.7266 156.633 52.9376 156.308 52.1697 155.277C50.9108 154.527 49.5342 156.952 47.8409 157.361C49.4063 153.917 52.7255 149.511 51.4688 145.989C50.6708 143.789 49.8989 146.469 49.3494 147.421C47.7998 150.145 46.6015 152.791 45.3496 155.57C44.1078 158.331 42.1297 160.902 44.6563 162.714Z" fill="#262626"/>
<path fill-rule="evenodd" clip-rule="evenodd" d="M64.9303 123.161C66.3216 123.683 67.1141 122.025 68.0583 120.878C69.2285 119.462 70.0526 118.645 71.2952 117.388C73.3138 115.357 75.6817 113.129 77.913 111.503C80.8308 109.38 85.0515 106.059 88.293 104.922C88.6572 104.78 91.8859 103.706 91.2704 103.022C90.356 102 82.2995 107.243 80.8183 108.221C76.1467 111.306 75.1627 111.748 70.6534 116.383C69.5552 117.512 64.9747 122.27 64.9303 123.161Z" fill="#262626"/>
<path fill-rule="evenodd" clip-rule="evenodd" d="M129.839 172.505C130.665 171.971 131.035 170.963 131.691 169.908C132.693 168.254 132.782 168.305 132.642 166.837C132.287 163.178 134.755 164.602 135.644 162.248C136.668 159.62 135.088 158.896 137.703 156.81C140.565 154.538 139.217 151.785 138.205 152.846C136.833 154.286 138.961 153.612 137.613 155.418C136.772 156.508 135.735 156.473 135.194 157.124C134.283 158.173 135.381 161.157 133.802 162.548C132.983 163.274 132.224 163.165 131.583 164.275C131.033 165.227 131.317 166.12 131.353 167.198C131.453 169.465 128.752 170.561 129.839 172.505Z" fill="#262626"/>
<path fill-rule="evenodd" clip-rule="evenodd" d="M147.253 141.57C147.522 142.854 148.536 143.581 147.414 145.118C146.619 146.21 145.385 146.556 144.422 148.021C144.294 148.487 145.94 151.13 142.702 153.89C140.885 155.45 141.063 156.728 141.169 159.68C142.132 159.883 141.315 159.834 142.558 159.471C142.662 158.192 141.968 156.992 142.879 155.497C144.084 153.49 144.173 155.209 145.561 151.828C146.406 149.754 145.859 148.545 146.299 147.741C146.861 146.726 148.401 146.299 149.566 144.363C149.154 143.162 149.105 141.253 148.747 140.529C147.914 140.589 147.88 140.687 147.253 141.57Z" fill="#262626"/>
<path fill-rule="evenodd" clip-rule="evenodd" d="M91.6941 125.734C93.5947 125.821 92.9012 123.399 96.8154 118.045C98.1056 116.298 102.941 110.935 102.668 109.414C101.25 109.183 101.56 109.949 99.6027 112.321C97.7448 114.562 91.2771 123.566 91.6941 125.734Z" fill="#262626"/>
<path fill-rule="evenodd" clip-rule="evenodd" d="M151.305 165.204C152.197 165.531 151.547 165.273 152.627 165.52C154.929 161.491 154.4 161.961 155.795 158.771C156.282 157.642 156.553 157.54 155.814 156.784C154.15 157.916 154.422 160.823 151.305 165.204Z" fill="#262626"/>
<path fill-rule="evenodd" clip-rule="evenodd" d="M111.103 153.462C112.926 153.927 112.618 152.386 113.681 150.461C114.549 148.918 115.71 147.355 116.414 145.811C114.944 145.221 115.364 146.122 113.729 148.75C112.751 150.324 111.976 151.827 111.103 153.462Z" fill="#262626"/>
<path fill-rule="evenodd" clip-rule="evenodd" d="M144.659 83.9027C145.794 82.4663 148.693 79.8864 148.389 78.4183C147.233 78.3854 146.533 80.1672 145.382 81.4294C142.837 84.1673 143.507 83.4962 144.659 83.9027Z" fill="#262626"/>
<path fill-rule="evenodd" clip-rule="evenodd" d="M164.199 101.389C164.12 101.649 163.03 107.647 163.072 107.859C164.392 107.446 164.131 106.473 164.735 104.777C165.299 103.27 165.525 102.39 165.046 101.266C164.77 101.296 164.427 101.238 164.199 101.389Z" fill="#262626"/>
<path fill-rule="evenodd" clip-rule="evenodd" d="M143.294 80.365L144.12 80.8888C144.834 80.3845 145.632 79.0829 146.307 78.485C147.424 77.4852 148.329 77.9134 147.886 76.4825C146.372 76.3369 144.283 78.7739 143.294 80.365Z" fill="#262626"/>
<path fill-rule="evenodd" clip-rule="evenodd" d="M148.567 184.845C150.498 185.49 149.121 184.742 151.15 181.471C151.956 180.198 151.86 180.73 151.854 179.763C151.215 179.77 151.518 179.287 150.711 180.278C150.523 180.522 150.011 181.449 149.856 181.758C149.451 182.582 148.843 184.041 148.567 184.845Z" fill="#262626"/>
<path fill-rule="evenodd" clip-rule="evenodd" d="M113.834 156.425C114.943 155.562 116.463 152.115 116.557 150.853C115.396 150.911 115.546 151.75 114.76 153.153C113.032 156.268 112.909 155.586 113.834 156.425Z" fill="#262626"/>
<path fill-rule="evenodd" clip-rule="evenodd" d="M69.6064 217.072C68.2787 217.011 68.4704 217.615 67.5898 219.222C66.8109 220.652 66.3802 220.991 66.7765 222.137C68.0256 221.683 67.5592 221.554 68.3361 220.005C68.927 218.819 69.5789 218.138 69.6064 217.072Z" fill="#262626"/>
<path fill-rule="evenodd" clip-rule="evenodd" d="M97.0567 124.506C97.7603 122.961 98.9888 121.485 98.4766 120.296C97.3895 120.632 97.4285 121.501 96.67 122.896C95.6394 124.722 95.3309 124.849 97.0567 124.506Z" fill="#262626"/>
<path fill-rule="evenodd" clip-rule="evenodd" d="M87.0592 156.313C88.4248 156.35 87.9901 156.451 88.7948 154.895C89.3831 153.754 89.6638 153.634 89.5523 152.606C88.5454 152.518 88.4273 152.967 87.8546 153.999C87.2108 155.155 87.0283 155.309 87.0592 156.313Z" fill="#262626"/>
<path fill-rule="evenodd" clip-rule="evenodd" d="M84.109 208.97C85.6318 209.427 85.2033 209.273 85.9415 207.913C86.527 206.818 87.157 206.5 87.217 205.5C86.4983 205.32 87.3081 204.895 86.3335 205.484C85.8045 205.789 84.4373 208.361 84.109 208.97Z" fill="#262626"/>
<path fill-rule="evenodd" clip-rule="evenodd" d="M151.033 186.597C151.96 186.498 152.188 185.737 152.987 184.271C153.634 183.07 153.966 182.697 153.642 181.711C152.843 182.119 151.145 185.346 151.033 186.597Z" fill="#262626"/>
<path fill-rule="evenodd" clip-rule="evenodd" d="M88.9026 158.576C90.0328 158.735 90.5797 157.829 90.8486 156.386C91.0191 155.521 90.9519 155.881 90.7547 155.368C89.6073 155.646 88.7816 157.402 88.9026 158.576Z" fill="#262626"/>
<path fill-rule="evenodd" clip-rule="evenodd" d="M115.068 160.311C115.718 159.675 117.164 156.397 117.188 155.378C116.824 155.52 117.178 154.784 116.332 156.129L114.915 159.071C114.319 160.795 114.629 159.729 115.068 160.311Z" fill="#262626"/>
<path fill-rule="evenodd" clip-rule="evenodd" d="M83.58 223.237C84.793 223.538 85.3051 223.058 86.1887 220.795C85.2252 220.591 85.2843 220.366 84.5957 221.356C84.3162 221.758 83.8548 222.761 83.58 223.237Z" fill="#262626"/>
<path fill-rule="evenodd" clip-rule="evenodd" d="M71.0357 219.238C70.2156 220.292 69.0255 222.801 69.6042 223.794C70.4224 222.621 71.5616 220.2 71.0357 219.238Z" fill="#262626"/>
<path fill-rule="evenodd" clip-rule="evenodd" d="M145.103 85.1699C146.147 85.2327 146.107 85.3032 146.778 84.3039C147.288 83.5412 147.665 82.8891 147.828 81.9961C146.841 81.873 145.857 84.1483 145.103 85.1699Z" fill="#262626"/>
<path fill-rule="evenodd" clip-rule="evenodd" d="M165.547 64.6583C164.645 64.7956 165.025 64.5449 164.304 65.4682C165.298 66.0659 164.648 65.808 165.65 65.8225C165.881 65.4626 165.862 65.7806 165.933 65.2103C165.946 65.1473 165.947 64.8191 165.943 64.7459L165.874 64.2129C166.706 64.0348 166.498 64.3141 167.037 63.3799L166.341 62.6724C165.979 62.9334 165.762 62.9021 165.612 63.5679C165.589 63.6486 165.594 63.7219 165.588 63.8127C165.575 63.8758 165.577 63.9944 165.565 64.0575C165.559 64.1484 165.551 64.2846 165.556 64.3579C165.56 64.4311 165.552 64.5674 165.547 64.6583Z" fill="#262626"/>
<path fill-rule="evenodd" clip-rule="evenodd" d="M169.162 65.6412L168.801 66.96C169.715 66.9236 169.704 66.9413 170.427 66.1366C171.176 67.0387 171.62 67.0836 172.285 65.7283C171.239 65.2188 171.553 65.6115 170.917 65.7374C169.772 65.9696 170.215 65.5677 169.162 65.6412Z" fill="#262626"/>
<path fill-rule="evenodd" clip-rule="evenodd" d="M57.4267 135.14C58.6918 135.635 59.9572 133.24 59.6138 132.125C58.8271 132.47 59.0644 132.466 58.426 133.531C57.8792 134.437 57.6928 134.353 57.4267 135.14Z" fill="#262626"/>
<path fill-rule="evenodd" clip-rule="evenodd" d="M87.4883 210.24C88.0168 209.488 89.564 207.866 89.3983 206.525C88.3519 206.791 88.7764 206.707 88.3069 207.846C87.7891 209.027 87.3232 209.346 87.4883 210.24Z" fill="#262626"/>
<path fill-rule="evenodd" clip-rule="evenodd" d="M98.8388 126.874C99.5922 126.628 99.582 126.645 100.165 125.595C100.656 124.704 100.822 124.376 100.398 123.685C99.7725 124.687 98.8404 125.935 98.8388 126.874Z" fill="#262626"/>
<path fill-rule="evenodd" clip-rule="evenodd" d="M161.645 71.1717C162.407 71.2357 162.517 71.0873 163.271 70.5125L163.085 69.8174C161.886 69.7363 161.431 69.8732 161.645 71.1717Z" fill="#262626"/>
<path fill-rule="evenodd" clip-rule="evenodd" d="M166.406 68.5847C166.257 69.6974 166.166 69.081 166.536 69.9056C167.343 69.6896 167.463 69.8062 168.013 68.8544C167.263 68.2805 166.995 68.3374 166.406 68.5847Z" fill="#262626"/>
<path fill-rule="evenodd" clip-rule="evenodd" d="M171.999 88.5716C172.087 87.4006 172.301 88.2523 171.234 87.4952C170.815 87.9352 170.078 89.131 171.269 89.1843C171.65 89.2163 171.961 89.0435 171.999 88.5716Z" fill="#262626"/>
<path fill-rule="evenodd" clip-rule="evenodd" d="M168.875 82.7483C169.728 82.6537 169.756 82.6462 170.407 81.6822C168.973 80.5019 168.586 81.7827 168.875 82.7483Z" fill="#262626"/>
<path fill-rule="evenodd" clip-rule="evenodd" d="M167.129 77.3457C167.478 77.1478 167.069 77.7342 167.722 76.8888C168.047 76.4889 167.953 76.5289 168.18 76.0956C166.648 75.3289 165.917 76.2699 167.129 77.3457Z" fill="#262626"/>
<path fill-rule="evenodd" clip-rule="evenodd" d="M159.543 67.608C160.185 68.0021 160.307 68.2375 160.877 67.8613C161.733 67.2744 160.99 66.8924 160.681 66.5729C159.95 66.9029 160.11 66.6663 159.543 67.608Z" fill="#262626"/>
<path fill-rule="evenodd" clip-rule="evenodd" d="M164.759 98.1401L164.425 97.1717C164.193 97.249 164.159 96.9004 163.525 97.5919C162.606 98.6127 163.654 99.0769 164.759 98.1401Z" fill="#262626"/>
<path fill-rule="evenodd" clip-rule="evenodd" d="M90.1169 162.333C90.1491 161.341 90.1418 162.982 91.2823 160.844C91.6032 160.207 91.7593 159.733 91.8348 159.236C90.9896 160.252 89.903 161.035 90.1169 162.333Z" fill="#262626"/>
<path fill-rule="evenodd" clip-rule="evenodd" d="M162.798 76.1378C162.788 77.2132 162.573 76.2429 163 77.1713L164.15 77.0123L164.205 75.9396C163.382 75.8173 163.337 75.8146 162.798 76.1378Z" fill="#262626"/>
<path fill-rule="evenodd" clip-rule="evenodd" d="M163.544 74.4775C164.483 74.6432 164.751 74.5863 165.344 74.1295L164.963 73.3225C164.001 73.4015 163.887 73.4767 163.544 74.4775Z" fill="#262626"/>
<path fill-rule="evenodd" clip-rule="evenodd" d="M151.375 68.4851L151.594 69.246C152.744 69.3697 152.949 68.8531 152.693 67.9532C152.347 67.9416 152.519 67.806 152.099 67.9632C151.586 68.1604 151.821 68.0377 151.375 68.4851Z" fill="#262626"/>
<path fill-rule="evenodd" clip-rule="evenodd" d="M168.594 74.1972C169.592 74.7495 169.218 74.7453 170.079 74.0675C170.079 74.0675 170.058 73.2091 169.338 73.1932C168.647 73.17 168.636 73.7985 168.594 74.1972Z" fill="#262626"/>
<path fill-rule="evenodd" clip-rule="evenodd" d="M169.092 85.224C168.091 85.9391 168.794 85.7806 168.742 86.0329L169.851 86.3912C170.167 85.6807 170.278 85.815 170.027 84.9884C169.797 85.0202 169.216 85.1312 169.092 85.224Z" fill="#262626"/>
<path fill-rule="evenodd" clip-rule="evenodd" d="M169.391 71.5551C170.29 71.6272 170.234 71.6421 170.916 71.0721C170.458 69.5856 169.456 70.182 169.391 71.5551Z" fill="#262626"/>
<path fill-rule="evenodd" clip-rule="evenodd" d="M148.831 70.4485C149.709 70.1091 149.301 70.3673 149.927 69.3653C149.224 69.0769 148.993 68.826 148.513 69.3717C147.985 69.9601 148.442 70.106 148.831 70.4485Z" fill="#262626"/>
<path fill-rule="evenodd" clip-rule="evenodd" d="M165.044 97.2C166.063 97.3888 166.059 97.1515 166.513 96.7319C166.31 95.8626 166.822 96.4404 165.983 95.9798C165.195 96.206 164.993 96.0662 165.044 97.2Z" fill="#262626"/>
<path fill-rule="evenodd" clip-rule="evenodd" d="M156.223 69.8981L156.598 70.796C157.579 70.399 157.55 70.5705 157.689 69.4755C156.766 69.2012 156.92 69.2196 156.223 69.8981Z" fill="#262626"/>
<path fill-rule="evenodd" clip-rule="evenodd" d="M144.259 69.9006C145.713 70.4347 146.007 69.6407 144.967 68.5935C144.267 69.1533 144.231 68.8502 144.259 69.9006Z" fill="#262626"/>
<path fill-rule="evenodd" clip-rule="evenodd" d="M158.415 73.6316C159.464 73.9316 159.703 74.2104 159.882 73.0448C159.857 73.0069 159.834 72.4766 159.104 72.6425C158.391 72.8186 158.592 72.9583 158.415 73.6316Z" fill="#262626"/>
<path fill-rule="evenodd" clip-rule="evenodd" d="M60.6826 129.662C60.8541 129.691 61.6377 130.613 62.0201 128.648C60.0802 128.304 60.6786 129.425 60.6826 129.662Z" fill="#262626"/>
<path fill-rule="evenodd" clip-rule="evenodd" d="M168.942 76.7709C169.916 77.4039 170.098 77.4148 170.673 76.3368C169.769 75.7446 169.449 75.7709 168.942 76.7709Z" fill="#262626"/>
<path fill-rule="evenodd" clip-rule="evenodd" d="M63.0938 127.318C63.9835 127.08 63.8167 127.125 64.3737 126.201C63.0103 125.672 62.5361 126.127 63.0938 127.318Z" fill="#262626"/>
<path fill-rule="evenodd" clip-rule="evenodd" d="M163.121 66.9468C162.593 67.982 162.675 67.2301 163.009 68.1985C163.009 68.1985 164.041 68.3242 164.137 67.6279C164.188 67.0929 163.659 66.7876 163.121 66.9468Z" fill="#262626"/>
<path fill-rule="evenodd" clip-rule="evenodd" d="M171.395 69.1851C172.255 69.2823 172.367 69.5353 172.609 68.5467C172.609 68.5467 172.594 67.4333 171.669 68.0982C171.307 68.3592 171.398 68.9756 171.395 69.1851Z" fill="#262626"/>
<path fill-rule="evenodd" clip-rule="evenodd" d="M171.179 82.3398C171.196 82.35 170.974 83.0205 171.937 82.7774C172.705 82.5864 172.504 82.2826 172.577 81.831C171.672 81.567 171.431 81.3336 171.179 82.3398Z" fill="#262626"/>
<path fill-rule="evenodd" clip-rule="evenodd" d="M171.956 74.3982C172.791 74.4574 172.903 74.4276 173.482 73.587C172.213 72.8543 171.917 73.0827 171.956 74.3982Z" fill="#262626"/>
<path fill-rule="evenodd" clip-rule="evenodd" d="M172.591 76.8804C172.591 76.8804 171.651 76.4319 172.303 78.0303C173.083 78.1045 173.076 78.0767 173.503 77.3364C172.724 76.4872 173.336 76.9342 172.591 76.8804Z" fill="#262626"/>
<path fill-rule="evenodd" clip-rule="evenodd" d="M162.305 64.7369C163.063 64.1167 163.026 64.4245 162.988 63.3918C162.508 63.3265 162.3 63.159 161.947 63.5664C161.389 64.2077 161.908 64.3665 162.305 64.7369Z" fill="#262626"/>
<path fill-rule="evenodd" clip-rule="evenodd" d="M156.969 66.7326C158.436 67.9787 158.628 66.7501 158.079 65.8691C157.384 66.0554 157.44 65.8764 156.969 66.7326Z" fill="#262626"/>
<path fill-rule="evenodd" clip-rule="evenodd" d="M154.4 69.433C155.682 70.1027 155.879 69.5583 155.755 68.4293C154.888 68.587 154.938 68.2161 154.4 69.433Z" fill="#262626"/>
<path fill-rule="evenodd" clip-rule="evenodd" d="M153.929 71.9581C155.155 72.1958 154.385 72.2681 155.2 71.7517C155.316 70.5733 155.437 71.3009 154.924 70.723C154.102 71.0475 154.076 71.1736 153.929 71.9581Z" fill="#262626"/>
<path fill-rule="evenodd" clip-rule="evenodd" d="M165.658 73.136C166.482 72.9301 166.421 73.0359 166.744 72.0704C165.289 71.5363 165.042 72.0047 165.658 73.136Z" fill="#262626"/>
<path fill-rule="evenodd" clip-rule="evenodd" d="M149.478 171.787C150.403 171.569 150.294 171.717 150.556 170.694C149.885 170.471 149.836 170.231 149.439 170.754C149.053 171.26 149.47 171.759 149.478 171.787Z" fill="#262626"/>
<path fill-rule="evenodd" clip-rule="evenodd" d="M169.412 78.194C168.718 78.663 168.846 78.3606 168.812 79.234C169.752 79.5184 170.027 79.4893 170.233 78.6445L169.412 78.194Z" fill="#262626"/>
<path fill-rule="evenodd" clip-rule="evenodd" d="M148.861 68.4433C149.6 68.4239 149.099 68.8862 149.955 68.1351C150.87 67.3238 150.091 67.0855 150.084 67.0577C149.17 67.5409 149.393 67.4813 148.861 68.4433Z" fill="#262626"/>
<path fill-rule="evenodd" clip-rule="evenodd" d="M164.665 79.4965L165.079 80.2052C165.815 79.9485 166.003 80.1513 166.081 79.162C165.168 78.8701 165.439 78.7678 164.665 79.4965Z" fill="#262626"/>
<path fill-rule="evenodd" clip-rule="evenodd" d="M154.852 65.5571L155.821 66.2809L156.155 64.9696C155.313 64.7184 155.362 64.5116 154.852 65.5571Z" fill="#262626"/>
<path fill-rule="evenodd" clip-rule="evenodd" d="M173.035 71.3087C173.195 71.2362 173.717 71.7965 174.073 70.1217C172.302 69.8513 173.031 71.2355 173.035 71.3087Z" fill="#262626"/>
<path fill-rule="evenodd" clip-rule="evenodd" d="M150.811 169.478C152.725 169.337 151.717 168.52 151.717 168.52C151.098 168.492 151.745 167.901 151.017 168.633C150.038 169.595 150.772 169.22 150.811 169.478Z" fill="#262626"/>
<path fill-rule="evenodd" clip-rule="evenodd" d="M174.06 34.2456C175.449 35.0636 176.855 35.4961 178.261 36.2721C178.061 36.4686 177.45 36.8276 177.487 37.3865C177.542 38.1611 178.945 38.0183 178.68 37.34C178.545 37.2859 178.503 37.2972 178.389 37.3654L178.441 37.4192C178.474 37.4703 178.52 37.4807 178.478 37.587C178.342 37.9469 177.451 37.6266 177.783 37.0116C178.192 36.2556 178.534 36.4295 179.26 36.8289C179.46 36.9406 179.678 37.0426 179.867 37.1674C180.266 37.4337 179.953 37.4225 180.261 37.5653L183.573 35.2598C183.735 35.2389 184.573 35.4303 183.817 36.4446C183.171 36.4748 183.538 36.3389 183.265 36.1216C183.104 36.2499 183.108 36.2563 183.219 36.427C183.348 36.6204 183.637 36.6959 183.857 36.5942C184.257 36.4019 184.733 35.3647 183.839 35.0933C184.003 34.8839 184.909 34.2175 185.14 34.0581C185.189 34.3432 185.116 34.989 185.106 35.3074L185.131 37.764C185.147 38.1529 185.105 38.5752 185.137 38.9574C185.149 39.0946 185.17 39.1465 185.183 39.2684C185.202 39.4536 185.168 39.4178 185.167 39.5634L185.404 40.0361C185.53 40.1526 185.785 40.2722 185.977 40.4263C186.932 41.1875 187.834 41.9732 188.816 42.6823C188.631 42.8797 188.087 43.1308 188.255 43.5518C188.338 43.7577 188.692 43.9308 188.917 43.8354L189.03 43.6674C188.84 43.5103 188.741 43.785 188.471 43.459C188.486 43.1241 188.8 42.8546 189.066 42.9212C189.33 42.9907 191.009 44.2447 191.324 44.5687L191.452 44.7374C191.261 44.841 191.231 44.8039 191.027 44.8361C190.857 44.8643 190.76 44.9152 190.627 44.9609C190.364 45.054 190.081 45.0446 189.79 45.0824C188.873 45.1929 187.261 45.4443 186.428 45.3744C185.708 45.3143 185.774 45.2891 185.112 45.3337C184.909 45.343 184.851 45.2582 184.7 45.2461C184.386 45.6935 184.09 46.5973 183.814 47.1221C183.471 47.7854 183.157 48.3831 182.782 49.0399C182.406 49.692 181.997 50.3453 181.656 51.018C181.334 51.6504 181.077 52.253 180.718 52.9031C180.591 52.6839 180.171 50.639 180.149 50.377C180.685 49.7697 181.416 50.0774 181.149 50.7253C181.135 50.7291 181.116 50.7341 181.107 50.7366C180.933 50.7783 180.814 50.785 180.666 50.9049C180.943 50.9583 181.138 50.9286 181.369 50.8443C181.615 50.1092 181.206 49.6829 180.535 49.865C180.37 49.9118 180.23 50.0721 180.074 50.1164C180.038 49.8628 180.025 49.661 179.977 49.3883C179.928 49.1231 179.866 48.9568 179.843 48.7024C179.797 48.2335 179.697 47.7843 179.674 47.2968C179.652 46.7665 179.624 46.3231 179.59 45.8334C179.531 44.9297 179.508 45.2642 179.363 44.8093C179.313 44.6498 179.372 44.6165 179.388 44.4519C179.16 44.3677 179.023 44.4821 178.813 44.5232L176.117 45.2707C175.754 45.3655 175.398 45.4132 175.023 45.5087C174.666 45.5992 173.712 45.795 173.362 45.7985C172.596 45.8032 171.215 46.306 170.531 46.1637L174.267 42.7045C174.842 42.2146 175.316 41.6818 175.845 41.1692C176.076 40.9469 176.141 40.8342 176.175 40.5219C176.199 40.2749 176.208 40.3828 176.095 40.2227C175.964 40.0323 175.753 39.4799 175.846 39.2646C176.076 38.7294 176.923 38.7128 176.926 39.2758C176.927 39.3709 176.892 39.5406 176.798 39.6408C176.692 39.757 176.792 39.6526 176.633 39.7428C176.52 39.8004 176.657 39.6461 176.522 39.8174C176.817 39.924 176.964 39.9022 177.1 39.55C177.393 38.8024 176.492 38.4048 175.987 38.8284C175.877 38.923 175.803 39.0029 175.676 39.0244C175.66 38.8257 175.588 38.602 175.528 38.4175C175.46 38.2079 175.411 38.0255 175.347 37.8147C175.212 37.3772 175.077 37.0302 174.943 36.6173C174.734 35.9868 174.49 35.4584 174.235 34.8527C174.177 34.7204 174.175 34.6758 174.13 34.555C174.077 34.4215 174.045 34.395 174.06 34.2456ZM185.165 33.3572C185.031 33.6789 184.342 34.1191 184.047 34.3283C183.639 34.6182 183.222 34.9504 182.818 35.259C182.011 35.8761 181.145 36.4314 180.347 36.9785C179.875 36.8244 178.303 35.8299 177.496 35.4348C177.141 35.2617 176.821 35.1444 176.498 34.9855C175.914 34.6959 175.195 34.3874 174.571 34.1138C173.531 33.6557 172.895 32.676 174.222 35.8686L175.119 38.5999C175.157 38.7326 175.219 38.8513 175.253 38.9975L175.683 40.6012C175.625 40.7895 173.015 43.1753 172.822 43.3524C172.359 43.777 171.893 44.3379 171.414 44.7293C170.819 45.2119 170.516 45.5663 169.954 46.0325C169.972 46.1655 169.991 46.3184 169.988 46.447C170.418 46.5373 169.909 46.7261 170.973 46.7393L172.498 46.4935C172.671 46.4548 172.851 46.4089 173.053 46.3949C173.648 46.3508 173.545 46.3784 174.166 46.2271C174.349 46.1829 174.526 46.1981 174.723 46.1455L176.322 45.7645C176.518 45.7119 176.64 45.6594 176.861 45.6052L177.948 45.3438C178.118 45.3034 178.315 45.2156 178.485 45.1874C178.583 45.1688 178.662 45.1751 178.765 45.1475C178.986 45.0857 178.814 45.0492 179.058 45.0915C179.202 45.4038 179.217 46.9106 179.23 47.238C179.265 48.0329 179.626 50.0634 179.832 50.8778C179.947 51.3432 180.371 53.2441 180.334 53.4919C180.495 53.5291 180.355 53.4763 180.459 53.5086C180.467 53.5091 180.48 53.5129 180.489 53.5181C180.497 53.5185 180.509 53.5254 180.518 53.5305C180.524 53.5339 180.537 53.5455 180.544 53.5459C180.553 53.551 180.563 53.5609 180.572 53.566C180.644 53.5994 180.624 53.5998 180.702 53.6014C180.821 53.607 180.809 53.5878 180.849 53.5795C181.212 52.9787 181.585 52.2849 181.858 51.668C182.41 50.4176 183.53 48.9146 184.023 47.7603L184.689 46.3541C184.721 46.2779 184.77 46.172 184.808 46.0991C184.815 46.0872 184.88 45.967 184.88 45.967C185.092 45.6699 185.496 45.8797 185.913 45.8633C186.088 45.8539 186.193 45.8709 186.384 45.8747L187.537 45.8489C187.917 45.8425 188.268 45.7685 188.714 45.7968C189.06 45.8191 189.287 45.7009 189.625 45.6828C190.498 45.637 190.322 45.4962 190.969 45.423C191.176 45.4002 191.236 45.3164 191.398 45.2755C191.677 45.2033 191.678 45.3583 191.999 44.9666C192.206 44.7106 192.102 44.7887 192.084 44.7309C192.008 44.4932 189.418 42.5988 188.959 42.2783C188.017 41.6161 186.526 40.2216 185.905 39.8668C185.595 39.6918 185.64 39.4216 185.618 39.1519L185.608 34.5892C185.763 33.5955 185.375 33.9649 185.477 33.3637L185.165 33.3572Z" fill="#262626"/>
<path fill-rule="evenodd" clip-rule="evenodd" d="M177.804 42.9368L177.587 43.0924C177.777 43.1544 177.721 43.0943 177.855 43.2588L177.661 43.6965C176.75 43.8028 176.53 42.8419 177.338 42.2724C177.493 42.1682 177.611 42.0787 177.795 42.2201C177.815 42.2397 178.134 42.6529 178.051 42.2692C177.919 41.6831 176.895 42.0802 176.661 42.862C176.581 43.1317 176.649 43.5544 176.884 43.7143C177.041 43.8203 177.546 44.0683 177.817 43.7902C177.887 43.7162 177.996 43.4038 178.007 43.3232C178.028 43.1772 177.942 43.0524 177.804 42.9368Z" fill="#262626"/>
<path fill-rule="evenodd" clip-rule="evenodd" d="M181.206 41.9677C181.431 42.0027 181.289 41.9804 181.408 41.9185C181.514 41.8651 181.54 41.8406 181.627 41.7998C182.129 42.0385 182.138 42.154 182.049 42.6088C181.956 43.0847 181.852 43.2103 181.5 43.4499C180.822 43.1807 181.176 43.1559 181.177 42.8048C181.077 42.7866 181.095 42.7064 180.974 42.9092C180.944 42.9626 180.912 43.0864 180.919 43.162C180.968 43.625 182.083 44.083 182.304 42.3526C182.393 41.6572 181.29 41.3287 181.206 41.9677Z" fill="#262626"/>
<path fill-rule="evenodd" clip-rule="evenodd" d="M180.943 38.1641C181.178 38.189 181.275 37.8773 181.547 38.2479C181.665 38.4068 181.754 38.7112 181.729 38.8907C181.646 39.5144 181.088 39.8643 180.566 39.4204C180.57 39.229 180.641 39.27 180.576 39.102C180.404 39.0979 180.533 39.0535 180.371 39.1971C180.357 39.549 180.708 39.8583 181.1 39.8036C181.804 39.7002 182.216 38.8003 181.741 38.1308C181.553 37.868 181.374 37.7882 181.105 37.9454C181.099 37.9496 180.994 38.0353 180.994 38.0353L180.943 38.1641Z" fill="#262626"/>
<path fill-rule="evenodd" clip-rule="evenodd" d="M184.393 38.5479C184.082 38.4433 184.116 38.6723 183.858 38.6614C183.125 38.6373 183.408 37.4337 184.014 37.309C184.356 37.2375 184.352 37.4965 184.578 37.2156C183.606 36.6742 182.551 38.3299 183.628 38.8607C183.977 39.0304 184.354 38.6912 184.393 38.5479Z" fill="#262626"/>
<path fill-rule="evenodd" clip-rule="evenodd" d="M181.731 48.9228C181.696 48.9146 181.038 49.0483 181.186 48.4423C181.278 48.0644 181.672 47.8811 181.921 47.847C182.566 48.1126 182.2 48.2609 182.371 48.5533C182.87 48.4621 182.167 47.0919 181.293 47.935C180.261 48.9358 181.764 49.598 181.731 48.9228Z" fill="#262626"/>
<path fill-rule="evenodd" clip-rule="evenodd" d="M178.692 40.181L178.551 40.2538C178.558 40.3923 178.54 40.2394 178.61 40.4061L178.664 40.5443C178.279 41.0886 177.277 40.3598 178.097 39.5687C178.378 39.3004 178.355 39.4293 178.677 39.5637C178.839 39.2222 178.369 39.1326 178.023 39.4032C177.102 40.1209 177.737 41.0208 178.394 40.9299C178.804 40.8701 178.873 40.4557 178.692 40.181Z" fill="#262626"/>
<path fill-rule="evenodd" clip-rule="evenodd" d="M174.999 36.2936C175.275 36.3301 175.226 36.0726 175.417 36.0289C175.882 35.9218 176.761 36.5358 176.12 37.3239C175.688 37.2366 175.851 37.1605 175.705 36.9739L175.506 37.1076C175.713 37.3854 176.091 37.6197 176.343 37.3419C176.648 37.0044 176.625 35.9005 175.648 35.8342C175.165 35.8006 174.94 36.0615 174.999 36.2936Z" fill="#262626"/>
<path fill-rule="evenodd" clip-rule="evenodd" d="M184.684 41.4821C184.28 41.51 184.539 41.6712 184.231 41.6711C183.847 41.6788 183.404 41.206 183.988 40.7365C184.153 40.6069 184.318 40.4925 184.514 40.5028C184.867 40.5285 184.682 40.7107 184.955 40.6151C184.849 39.9846 183.572 40.5045 183.477 41.1766C183.442 41.429 183.643 41.7861 184.01 41.8756C184.268 41.9417 184.694 41.7925 184.684 41.4821Z" fill="#262626"/>
<path fill-rule="evenodd" clip-rule="evenodd" d="M181.206 45.2132C181.45 45.2279 181.351 44.9413 181.624 45.2414C182.046 45.7022 181.159 47.135 180.672 46.1228C180.83 45.8025 180.987 45.9208 180.987 45.6878C180.018 45.8796 180.798 47.1516 181.563 46.4155C182.082 45.913 181.965 45.1224 181.6 44.9547C181.418 44.8733 181.221 44.9887 181.206 45.2132Z" fill="#262626"/>
<path fill-rule="evenodd" clip-rule="evenodd" d="M186.535 43.1236C186.283 43.0057 186.167 43.4527 185.704 42.9679C185.752 42.5966 185.95 42.3555 186.255 42.2864C186.844 42.1561 186.737 42.5806 187.046 42.4228C187.033 41.9175 185.997 41.9397 185.608 42.565C185.386 42.9228 185.436 43.1849 185.825 43.3539C186.029 43.4444 186.091 43.4129 186.253 43.3643C186.439 43.3096 186.536 43.3537 186.535 43.1236Z" fill="#262626"/>
<path fill-rule="evenodd" clip-rule="evenodd" d="M175.228 43.5998C174.997 43.8144 175.265 43.9731 174.849 44.0723C174.402 44.0041 174.302 43.6776 174.61 43.3143C175.017 42.8296 175.321 43.0763 175.462 43.0986L175.52 42.9702C175.23 42.5694 174.15 43.1594 174.213 43.7689C174.238 44.028 174.545 44.3041 174.876 44.2779C175.01 44.2645 175.139 44.1925 175.234 44.0418C175.433 43.7378 175.304 43.6596 175.228 43.5998Z" fill="#262626"/>
<path fill-rule="evenodd" clip-rule="evenodd" d="M173.292 44.4737C173.355 44.5772 173.772 44.6758 173.775 44.9306C173.631 45.3252 173.391 45.412 173.149 45.5294L172.736 45.3267C172.744 45.1217 172.806 45.1929 172.747 45.0406L172.516 45.223C172.805 45.7494 173.272 45.8772 173.752 45.3754C174.462 44.6237 173.375 44.1107 173.292 44.4737Z" fill="#262626"/>
<path fill-rule="evenodd" clip-rule="evenodd" d="M184.497 44.2751C184.497 44.2751 183.494 44.3836 183.914 43.642C184.026 43.4417 184.189 43.3104 184.362 43.3192C184.653 43.3413 184.639 43.6533 184.84 43.374C184.354 42.5321 182.953 43.9723 183.933 44.4513C183.991 44.4809 184.593 44.6504 184.497 44.2751Z" fill="#262626"/>
<path fill-rule="evenodd" clip-rule="evenodd" d="M187.025 44.1814L187.103 44.3134C187.252 44.261 187.335 44.131 187.494 44.0884C187.846 43.9915 188.211 44.3523 187.88 44.7066C187.698 44.9057 187.581 44.7592 187.431 44.7717C187.429 44.9402 187.47 44.9519 187.656 45.0597C187.791 44.9911 188.047 44.8823 188.146 44.718C188.517 44.09 187.746 43.4395 187.025 44.1814Z" fill="#262626"/>
<path fill-rule="evenodd" clip-rule="evenodd" d="M179.789 42.668C179.367 42.5231 179.399 42.4744 179.25 42.171C179.441 41.8067 179.523 41.732 179.815 41.6314C179.993 41.7264 179.997 41.808 180.16 41.7594C180.111 41.0634 178.61 41.8213 179.234 42.5611C179.39 42.7499 179.684 42.9945 179.789 42.668Z" fill="#262626"/>
<path fill-rule="evenodd" clip-rule="evenodd" d="M189.191 44.6696C189.482 44.6794 189.347 44.475 189.61 44.2792C189.811 44.1302 189.958 44.2311 190.038 44.4475C190.023 44.3239 190.055 44.4255 190.099 44.3837C190.19 44.2941 190.148 44.2379 190.135 44.1083C189.583 43.7501 189.208 44.3869 189.191 44.6696Z" fill="#262626"/>
</svg>
