<svg width="546" height="478" viewBox="0 0 546 478" fill="none" xmlns="http://www.w3.org/2000/svg">
<g clip-path="url(#clip0_929_10406)">
<path d="M297.798 461.077C297.36 461.097 296.927 460.982 296.557 460.748C296.187 460.514 295.898 460.172 295.729 459.768C295.56 459.364 295.519 458.918 295.613 458.491C295.706 458.063 295.928 457.674 296.25 457.377L296.396 456.796C296.377 456.749 296.357 456.703 296.338 456.656C295.897 455.616 295.159 454.729 294.215 454.107C293.272 453.485 292.165 453.155 291.035 453.159C289.904 453.164 288.8 453.502 287.861 454.131C286.923 454.76 286.191 455.652 285.758 456.696C284.027 460.86 281.824 465.032 281.282 469.436C281.043 471.382 281.143 473.355 281.579 475.267C277.515 466.408 275.405 456.779 275.391 447.033C275.39 444.587 275.526 442.143 275.798 439.713C276.023 437.72 276.335 435.742 276.735 433.778C278.913 423.121 283.59 413.133 290.382 404.633C293.669 402.84 296.327 400.084 297.999 396.736C298.604 395.532 299.032 394.247 299.269 392.921C298.898 392.97 297.871 387.326 298.151 386.98C297.634 386.197 296.709 385.807 296.145 385.042C293.338 381.24 289.471 381.904 287.452 387.071C283.139 389.246 283.097 392.854 285.744 396.323C287.427 398.53 287.658 401.516 289.136 403.879C288.984 404.074 288.826 404.262 288.674 404.457C285.896 408.026 283.474 411.859 281.444 415.901C281.938 411.373 281.349 406.793 279.725 402.537C278.08 398.571 274.996 395.23 272.28 391.801C269.018 387.683 262.329 389.48 261.754 394.701C261.748 394.752 261.743 394.802 261.738 394.853C262.141 395.08 262.536 395.322 262.922 395.577C263.408 395.901 263.784 396.364 264.001 396.905C264.219 397.446 264.268 398.041 264.141 398.61C264.015 399.18 263.72 399.698 263.294 400.097C262.868 400.495 262.331 400.756 261.754 400.845L261.695 400.854C261.839 402.307 262.093 403.747 262.455 405.161C258.971 418.625 266.493 423.529 277.233 423.749C277.47 423.871 277.701 423.992 277.938 424.108C275.899 429.883 274.62 435.898 274.133 442.003C273.857 445.605 273.873 449.223 274.181 452.822L274.163 452.694C273.385 448.692 271.249 445.081 268.115 442.471C263.46 438.65 256.884 437.243 251.862 434.172C251.328 433.829 250.708 433.646 250.074 433.645C249.439 433.643 248.818 433.823 248.283 434.163C247.747 434.503 247.32 434.988 247.052 435.563C246.784 436.137 246.686 436.776 246.769 437.404C246.776 437.449 246.783 437.494 246.79 437.538C247.538 437.843 248.267 438.194 248.972 438.589C249.375 438.817 249.77 439.058 250.157 439.313C250.642 439.637 251.018 440.1 251.235 440.642C251.453 441.183 251.502 441.777 251.376 442.347C251.249 442.916 250.954 443.434 250.528 443.833C250.102 444.232 249.565 444.493 248.988 444.582L248.929 444.591C248.887 444.597 248.85 444.603 248.808 444.609C250.087 447.661 251.882 450.47 254.115 452.913C256.293 464.666 265.65 465.781 275.659 462.359H275.665C276.763 467.127 278.354 471.769 280.412 476.209H297.373C297.433 476.02 297.488 475.826 297.543 475.637C295.973 475.736 294.397 475.642 292.85 475.358C294.108 473.815 295.367 472.26 296.625 470.717C296.653 470.688 296.679 470.658 296.704 470.626C297.342 469.836 297.987 469.053 298.625 468.263L298.625 468.262C298.659 465.842 298.381 463.426 297.798 461.077Z" fill="black"/>
<path d="M272.67 193.098C253.56 193.098 234.879 187.436 218.99 176.827C203.101 166.218 190.717 151.139 183.404 133.496C176.091 115.854 174.177 96.4411 177.905 77.7122C181.634 58.9833 190.836 41.7797 204.349 28.277C217.861 14.7742 235.077 5.57868 253.82 1.85327C272.563 -1.87213 291.99 0.039879 309.645 7.34753C327.3 14.6552 342.39 27.0303 353.007 42.9078C363.624 58.7854 369.291 77.4524 369.291 96.5482C369.262 122.146 359.073 146.687 340.959 164.787C322.846 182.888 298.286 193.069 272.67 193.098ZM272.67 1.51856C253.861 1.51856 235.474 7.09196 219.835 17.5339C204.196 27.9759 192.007 42.8175 184.809 60.1819C177.612 77.5463 175.728 96.6536 179.398 115.088C183.067 133.522 192.125 150.454 205.424 163.744C218.724 177.034 235.669 186.085 254.117 189.752C272.564 193.419 291.686 191.537 309.063 184.344C326.44 177.152 341.292 164.971 351.742 149.344C362.192 133.716 367.769 115.343 367.769 96.5482C367.741 71.3535 357.712 47.1989 339.884 29.3835C322.055 11.5682 297.883 1.54704 272.67 1.51856Z" fill="#F2F2F2"/>
<path d="M283.271 131.518H262.73C261.721 131.518 260.753 131.118 260.04 130.405C259.327 129.692 258.926 128.725 258.926 127.717C258.926 126.709 259.327 125.742 260.04 125.029C260.753 124.317 261.721 123.916 262.73 123.916H283.271C284.28 123.916 285.248 124.317 285.961 125.029C286.674 125.742 287.075 126.709 287.075 127.717C287.075 128.725 286.674 129.692 285.961 130.405C285.248 131.118 284.28 131.518 283.271 131.518Z" fill="black"/>
<path d="M287.99 241.843H258.011C256.538 241.843 255.126 241.259 254.085 240.219C253.044 239.178 252.459 237.767 252.459 236.296C252.459 234.824 253.044 233.413 254.085 232.373C255.126 231.333 256.538 230.748 258.011 230.748H287.99C289.463 230.748 290.875 231.333 291.916 232.373C292.957 233.413 293.542 234.824 293.542 236.296C293.542 237.767 292.957 239.178 291.916 240.219C290.875 241.259 289.463 241.843 287.99 241.843Z" fill="black"/>
<path d="M373.206 218.59H172.794C171.008 218.588 169.296 217.878 168.034 216.616C166.771 215.354 166.061 213.644 166.059 211.859V152.154C166.061 150.37 166.771 148.659 168.034 147.397C169.296 146.136 171.008 145.426 172.794 145.424H373.206C374.992 145.426 376.704 146.136 377.967 147.397C379.229 148.659 379.94 150.37 379.942 152.154V211.859C379.94 213.644 379.229 215.354 377.967 216.616C376.704 217.878 374.992 218.588 373.206 218.59Z" fill="black"/>
<path d="M353.734 214.049H177.338C175.552 214.047 173.84 213.338 172.578 212.076C171.315 210.814 170.605 209.103 170.603 207.319V156.697C170.605 154.913 171.315 153.202 172.578 151.94C173.84 150.679 175.552 149.969 177.338 149.967H368.663C370.449 149.969 372.161 150.679 373.423 151.94C374.686 153.202 375.396 154.913 375.398 156.697V192.4C375.392 198.14 373.107 203.643 369.046 207.701C364.984 211.76 359.477 214.043 353.734 214.049Z" fill="white"/>
<path d="M292.887 167.97H212.337C211.876 167.97 211.434 167.787 211.108 167.461C210.783 167.136 210.6 166.694 210.6 166.234C210.6 165.773 210.783 165.332 211.108 165.006C211.434 164.681 211.876 164.498 212.337 164.498H292.887C293.348 164.498 293.79 164.681 294.115 165.006C294.441 165.332 294.624 165.773 294.624 166.234C294.624 166.694 294.441 167.136 294.115 167.461C293.79 167.787 293.348 167.97 292.887 167.97Z" fill="#4168B7"/>
<path d="M333.663 175.069H212.337C211.876 175.069 211.434 174.886 211.108 174.561C210.783 174.235 210.6 173.794 210.6 173.333C210.6 172.873 210.783 172.432 211.108 172.106C211.434 171.781 211.876 171.598 212.337 171.598H333.663C334.124 171.598 334.566 171.781 334.892 172.106C335.217 172.432 335.4 172.873 335.4 173.333C335.4 173.794 335.217 174.235 334.892 174.561C334.566 174.886 334.124 175.069 333.663 175.069Z" fill="black"/>
<path d="M333.663 183.22H212.336C212.108 183.22 211.882 183.176 211.671 183.089C211.459 183.002 211.267 182.874 211.106 182.713C210.944 182.551 210.816 182.36 210.728 182.149C210.641 181.938 210.596 181.712 210.596 181.484C210.596 181.256 210.641 181.03 210.728 180.819C210.816 180.608 210.944 180.416 211.106 180.255C211.267 180.094 211.459 179.966 211.671 179.879C211.882 179.792 212.108 179.748 212.336 179.748H333.663C334.123 179.749 334.564 179.932 334.889 180.258C335.214 180.583 335.396 181.024 335.396 181.484C335.396 181.944 335.214 182.385 334.889 182.71C334.564 183.035 334.123 183.219 333.663 183.22Z" fill="black"/>
<path d="M333.663 191.368H212.336C212.108 191.369 211.882 191.324 211.671 191.237C211.459 191.15 211.267 191.022 211.106 190.861C210.944 190.7 210.816 190.508 210.728 190.297C210.641 190.087 210.596 189.861 210.596 189.632C210.596 189.404 210.641 189.178 210.728 188.967C210.816 188.756 210.944 188.565 211.106 188.404C211.267 188.242 211.459 188.115 211.671 188.028C211.882 187.941 212.108 187.896 212.336 187.896H333.663C334.123 187.897 334.564 188.081 334.889 188.406C335.214 188.732 335.396 189.173 335.396 189.632C335.396 190.092 335.214 190.533 334.889 190.858C334.564 191.184 334.123 191.367 333.663 191.368Z" fill="black"/>
<path d="M333.663 199.518H212.336C212.108 199.519 211.882 199.474 211.671 199.387C211.459 199.3 211.267 199.173 211.106 199.011C210.944 198.85 210.816 198.659 210.728 198.448C210.641 198.237 210.596 198.011 210.596 197.783C210.596 197.554 210.641 197.328 210.728 197.118C210.816 196.907 210.944 196.715 211.106 196.554C211.267 196.393 211.459 196.265 211.671 196.178C211.882 196.091 212.108 196.046 212.336 196.047H333.663C334.123 196.048 334.564 196.231 334.889 196.557C335.214 196.882 335.396 197.323 335.396 197.783C335.396 198.242 335.214 198.683 334.889 199.009C334.564 199.334 334.123 199.518 333.663 199.518Z" fill="black"/>
<path d="M440.264 468.18L432.122 468.179L428.249 436.799L440.266 436.8L440.264 468.18Z" fill="#A0616A"/>
<path d="M440.551 476.666L415.515 476.666V476.349C415.515 473.767 416.542 471.29 418.369 469.464C420.197 467.638 422.675 466.612 425.26 466.611L429.833 463.145L438.366 466.612L440.552 466.612L440.551 476.666Z" fill="#4168B7"/>
<path d="M506.826 457.761L499.531 461.373L482.118 434.973L492.886 429.643L506.826 457.761Z" fill="#A0616A"/>
<path d="M510.853 465.24L488.419 476.346L488.278 476.063C487.131 473.748 486.951 471.074 487.777 468.627C488.603 466.18 490.368 464.161 492.684 463.014L495.242 457.878L504.428 457.2L506.387 456.23L510.853 465.24Z" fill="#4168B7"/>
<path d="M416.145 299.504C416.145 299.504 406.877 312.414 413.566 334.718C420.256 357.022 416.501 376.963 418.378 380.962C420.256 384.96 424.036 388.757 420.913 391.789C417.789 394.821 416.145 397.286 418.611 398.107C421.078 398.929 429.301 456.448 429.301 456.448L443.28 457.27C443.28 457.27 448.345 430.551 442.934 408.988C442.934 408.988 444.122 393.334 441.646 388.736C439.169 384.138 439.655 388.286 439.823 382.515C439.916 378.341 440.525 374.194 441.636 370.17C442.458 366.883 442.934 333.756 442.934 333.756L456.543 377.716C457.089 379.231 457.294 380.847 457.143 382.45C456.806 384.714 456.803 388.098 457.216 389.282C457.629 390.466 458.088 390.715 457.858 393.056C457.629 395.396 485.017 444.736 485.017 444.736L498.625 435.613L485.218 392.355C483.887 390.881 482.778 389.22 481.929 387.425C480.284 384.138 480.22 383.957 481.074 381.583C481.929 379.208 481.929 374.582 481.929 373.198C481.929 371.813 482.783 308.955 472.077 299.71C461.371 290.465 416.145 299.504 416.145 299.504Z" fill="#4168B7"/>
<path d="M466.415 199.501L463.629 191.577L456.021 183.975L441.988 182.301L432.852 188.303L424.391 196.638L411.895 300.291C411.895 300.291 470.919 323.031 478.653 303.947L466.415 199.501Z" fill="white"/>
<path d="M471.2 199.501L463.002 191.309C463.002 191.309 459.086 243.667 460.754 247.35C462.422 251.032 464.387 250.093 462.263 252.083C460.14 254.073 457.857 252.098 460.14 255.747C461.485 257.792 462.145 260.212 462.024 262.657C462.024 262.657 473.834 336.939 480.681 336.939C487.528 336.939 491.815 334.936 491.574 332.897C491.332 330.857 487.293 325.779 488.552 324.517C489.811 323.255 492.914 324.208 489.841 321.831C486.768 319.454 485.246 320.214 486.007 317.173C486.768 314.132 480.951 274.711 480.951 274.711L480.384 208.864L471.2 199.501Z" fill="black"/>
<path d="M432.853 188.303L422.235 189.804L409.613 194.618C409.613 194.618 415.378 259.605 414.174 261.781C412.971 263.957 410.832 262.598 412.662 264.798C414.492 266.998 416.139 266.022 414.174 268.031C412.21 270.039 408.903 267.495 410.937 271.048C412.971 274.6 403.17 323.516 405.809 326.139C408.448 328.763 415.247 327.131 415.25 325.193C415.042 323.105 414.253 321.117 412.971 319.454C412.603 319.033 412.4 318.493 412.4 317.934C412.4 317.375 412.603 316.835 412.971 316.413C414.049 315.377 414.789 314.04 415.095 312.577C415.253 311.092 416.415 309.266 416.975 307.898C417.535 306.53 431.643 213.94 431.643 213.94L432.853 188.303Z" fill="black"/>
<path d="M387.55 239.473L392.338 236.975C386.36 231.586 371.525 222.769 371.525 222.769L345.958 205.545C345.583 204.664 344.983 203.898 344.219 203.323C343.454 202.748 342.55 202.384 341.6 202.268C340.65 202.153 339.686 202.289 338.805 202.665C337.924 203.04 337.158 203.64 336.583 204.405C336.009 205.17 335.646 206.073 335.531 207.023C335.417 207.973 335.555 208.936 335.931 209.815C336.308 210.695 336.909 211.46 337.676 212.033C338.442 212.607 339.346 212.968 340.296 213.081L368.949 238.733L387.55 239.473Z" fill="#A0616A"/>
<path d="M422.546 220.467L422.598 199.458L410.919 193.877L381.463 225.028L379.181 223.508H373.855L360.922 238.713C360.922 238.713 367.81 242.792 371.213 241.132C374.616 239.473 374.296 241.857 374.296 241.857C374.801 242.492 375.505 242.938 376.295 243.123C377.084 243.309 377.913 243.223 378.648 242.88C381.463 241.753 386.789 244.794 386.789 244.794L422.546 220.467Z" fill="black"/>
<path d="M450.538 177.475C459.944 177.475 467.57 169.856 467.57 160.456C467.57 151.057 459.944 143.438 450.538 143.438C441.132 143.438 433.507 151.057 433.507 160.456C433.507 169.856 441.132 177.475 450.538 177.475Z" fill="#A0616A"/>
<path d="M471.098 164.778C469.49 167.922 467.332 170.754 464.726 173.138C463.978 173.988 463.023 174.631 461.955 175.006C461.417 175.181 460.836 175.162 460.311 174.953C459.786 174.743 459.351 174.357 459.082 173.86L458.767 173.429C459.679 173.15 460.541 172.725 461.316 172.169C461.702 171.889 462.014 171.522 462.229 171.097C462.443 170.672 462.553 170.202 462.55 169.726C462.522 169.25 462.311 168.804 461.96 168.48C461.61 168.157 461.148 167.982 460.672 167.992C459.608 168.118 458.657 169.36 457.704 168.881C456.933 168.49 457.044 167.37 457.265 166.524C458.45 162.111 457.954 155.271 456.248 155.031C454.552 154.686 452.936 154.025 451.485 153.083C450.031 152.139 448.408 151.487 446.706 151.162C446.583 151.146 446.458 151.138 446.326 151.127C446.278 150.217 446.119 149.316 445.854 148.444C445.669 149.365 445.386 150.263 445.011 151.124C443.536 151.325 442.047 151.4 440.559 151.349C438.974 151.165 434.417 154.857 434.383 154.349C434.335 153.439 434.176 152.538 433.911 151.666C433.726 152.587 433.443 153.485 433.068 154.346C433.051 154.381 433.043 154.411 433.026 154.446C432.541 153.266 432.402 151.946 432.414 152.932C431.397 146.66 433.415 142.884 438.565 139.165C439.594 138.345 440.815 137.799 442.112 137.579C442.76 137.476 443.424 137.541 444.039 137.768C444.655 137.995 445.202 138.377 445.627 138.877C447.604 137.831 449.826 137.334 452.061 137.435C454.296 137.536 456.463 138.233 458.338 139.452C462.043 141.933 464.965 143.583 464.472 148.018C467.984 148.356 470.95 151.174 472.06 154.514C473.16 157.86 472.588 161.593 471.098 164.778Z" fill="#4168B7"/>
<path d="M492.838 253.458L480.619 251.709C476.486 258.614 475.018 276.993 475.018 276.993L463.06 305.394C462.268 305.932 461.631 306.668 461.215 307.53C460.798 308.391 460.616 309.347 460.687 310.301C460.757 311.255 461.078 312.174 461.617 312.964C462.156 313.755 462.894 314.39 463.756 314.805C464.619 315.22 465.575 315.401 466.53 315.33C467.485 315.258 468.404 314.936 469.194 314.397C469.985 313.857 470.619 313.119 471.034 312.257C471.448 311.395 471.628 310.438 471.555 309.485L491.189 276.427L492.838 253.458Z" fill="#A0616A"/>
<path d="M464.704 211.12L469.882 203.994L480.38 208.869L489.112 242.527C489.112 242.527 495.489 246.674 494.129 249.599C492.768 252.524 492.045 254.884 493.451 256.56C494.857 258.236 498.953 258.36 495.902 261.092C492.851 263.825 495.463 270.966 495.463 270.966L492.539 277.485L474.28 276.725L464.704 211.12Z" fill="black"/>
<path d="M42.4054 315.508C43.558 314.604 44.3121 313.287 44.5075 311.836C44.7029 310.385 44.324 308.916 43.4515 307.74C43.2704 307.504 43.07 307.283 42.8525 307.08L50.6492 289.089L42.9056 281.924L34.8916 307.723C34.1182 308.689 33.6869 309.885 33.6649 311.122C33.643 312.36 34.0316 313.57 34.7701 314.563C35.1958 315.125 35.7279 315.597 36.3362 315.952C36.9444 316.308 37.6168 316.541 38.315 316.637C39.0132 316.733 39.7236 316.691 40.4054 316.513C41.0873 316.335 41.7274 316.024 42.2891 315.599C42.3283 315.569 42.3671 315.539 42.4054 315.508Z" fill="#FFB6B6"/>
<path d="M87.701 198.801C87.701 198.801 81.9296 187.837 68.5412 199.677C55.1528 211.517 39.3319 270.781 39.6392 273.009C39.9464 275.237 43.2188 274.356 39.0797 277.564C34.9406 280.772 32.6521 277.89 34.9406 280.772C37.2292 283.654 42.347 286.708 37.8155 287.136C33.2841 287.565 49.8959 294.707 49.8959 294.707C49.8959 294.707 52.5087 294.08 53.3104 288.055C53.7606 284.672 52.2349 282.75 54.9207 282.186C57.6064 281.622 55.089 275.503 55.4756 274.54C55.8622 273.577 77.307 231.526 77.307 231.526L87.701 198.801Z" fill="black"/>
<path d="M114.058 466.561L123.752 466.56L128.365 429.191L114.056 429.192L114.058 466.561Z" fill="#FFB6B6"/>
<path d="M113.715 476.667L143.529 476.666V476.289C143.529 473.213 142.307 470.264 140.13 468.09C137.954 465.915 135.003 464.693 131.925 464.693H131.924L126.478 460.564L116.317 464.694L113.715 464.694L113.715 476.667Z" fill="#4168B7"/>
<path d="M46.1016 448.739L54.0321 454.311L79.3164 426.394L67.61 418.17L46.1016 448.739Z" fill="#FFB6B6"/>
<path d="M40.0049 456.81L64.3938 473.946L64.6107 473.637C66.3807 471.122 67.0783 468.006 66.5498 464.976C66.0214 461.947 64.3103 459.251 61.7929 457.482L59.714 450.974L49.0254 448.511L46.8964 447.016L40.0049 456.81Z" fill="#4168B7"/>
<path d="M75.4285 280.652L74.623 282.371C69.3278 293.676 67.9738 306.312 70.0316 318.623C70.1846 319.103 70.1554 319.623 69.9496 320.084C68.6734 321.579 70.6756 328.078 71.8233 331.707L72.8577 338.123C72.8577 338.123 71.1424 344.083 73.7478 343.645C76.3533 343.207 72.4735 349.563 74.9587 351.156L81.4056 391.147L54.5088 435.444L64.4706 449.878L104.318 398.612L104.816 352.324L110.793 389.653L111.291 448.385L129.414 446.46L136.054 389.519L129.72 310.772L119.759 276.629L75.4285 280.652Z" fill="#4168B7"/>
<path d="M87.8808 178.129L102.542 178.827L109.553 190.93C112.662 191.862 115.522 193.48 117.922 195.664C120.321 197.848 122.2 200.543 123.417 203.55L127.983 214.821L122.789 279.987C122.789 279.987 121.748 283.928 123.665 283.353C125.582 282.777 124.801 287.717 124.801 287.717L131.865 314.869L67.634 309.288L71.2005 280.52C71.2005 280.52 66.2418 280.68 69.7285 277.196C73.2151 273.712 74.9107 274.822 71.5613 270.703C68.212 266.584 67.7139 263.597 67.7139 263.597L66.2196 243.191L63.7562 214.472C63.3653 209.914 64.114 205.332 65.9351 201.135C67.7563 196.939 70.5926 193.261 74.189 190.432L87.8808 178.129Z" fill="black"/>
<path d="M95.484 174.769C105.753 174.769 114.077 166.45 114.077 156.189C114.077 145.928 105.753 137.609 95.484 137.609C85.2152 137.609 76.8906 145.928 76.8906 156.189C76.8906 166.45 85.2152 174.769 95.484 174.769Z" fill="#FFB6B6"/>
<path d="M88.2991 173.246C93.6347 173.071 94.1194 171.663 99.455 171.488C101.154 171.432 103.159 171.199 103.98 169.712C104.219 169.155 104.326 168.55 104.291 167.945C104.257 167.34 104.082 166.751 103.781 166.224C103.172 165.179 102.623 164.101 102.137 162.993C101.845 162.125 101.768 161.198 101.914 160.294C102.059 159.389 102.424 158.533 102.974 157.801C103.525 157.068 104.247 156.481 105.076 156.089C105.905 155.698 106.817 155.514 107.733 155.553C109.357 155.623 110.882 156.386 112.501 156.526C114.721 156.717 119.632 149.39 118.609 147.411C117.614 145.485 115.611 144.031 115.297 141.886C115.091 140.483 115.67 139.089 115.749 137.674C115.867 135.574 110.542 140.308 111.517 138.445C113.909 133.875 91.3656 128.209 87.6542 133.933C86.2671 136.073 83.795 135.927 81.5916 137.212C80.1475 138.054 76.501 140.959 75.672 142.77C74.9103 144.618 74.5503 146.606 74.616 148.603C74.5827 157.892 75.9989 166.436 83.4967 171.927" fill="#4168B7"/>
<path d="M141.083 314.71C139.987 313.74 139.313 312.38 139.204 310.92C139.096 309.46 139.562 308.015 140.503 306.894C140.698 306.669 140.911 306.46 141.141 306.27L134.433 287.847L142.59 281.156L149.049 307.387C149.763 308.398 150.122 309.617 150.07 310.854C150.018 312.09 149.558 313.275 148.762 314.223C148.303 314.758 147.744 315.197 147.115 315.516C146.487 315.835 145.802 316.027 145.099 316.081C144.396 316.136 143.69 316.051 143.02 315.833C142.35 315.614 141.729 315.266 141.194 314.808C141.157 314.776 141.12 314.743 141.083 314.71Z" fill="#FFB6B6"/>
<path d="M102.841 195.507C102.841 195.507 109.257 184.908 121.914 197.525C134.571 210.143 146.824 270.245 146.384 272.451C145.944 274.656 142.73 273.582 146.67 277.031C150.61 280.48 153.067 277.739 150.61 280.48C148.154 283.22 142.863 285.963 147.36 286.661C151.858 287.359 134.849 293.497 134.849 293.497C134.849 293.497 132.279 292.716 131.838 286.654C131.591 283.25 133.229 281.423 130.581 280.7C127.934 279.977 130.813 274.018 130.484 273.034C130.156 272.05 111.261 228.794 111.261 228.794L102.841 195.507Z" fill="black"/>
<path d="M287.848 94.4723C287.848 97.4803 286.957 100.421 285.285 102.922C283.613 105.424 281.237 107.374 278.456 108.526C275.675 109.677 272.615 109.979 269.662 109.393C266.71 108.807 263.998 107.359 261.869 105.233C259.74 103.106 258.289 100.397 257.701 97.4469C257.113 94.4969 257.414 91.4389 258.565 88.6596C259.717 85.8803 261.667 83.5046 264.169 81.8328C266.672 80.1611 269.614 79.2683 272.624 79.2676C274.623 79.2649 276.604 79.6563 278.451 80.4194C280.299 81.1825 281.978 82.3022 283.392 83.7145C284.806 85.1269 285.928 86.804 286.692 88.65C287.457 90.496 287.849 92.4745 287.848 94.4723Z" fill="black"/>
<path d="M272.963 96.6765C275.904 96.6765 278.289 94.2939 278.289 91.3549C278.289 88.4158 275.904 86.0332 272.963 86.0332C270.022 86.0332 267.638 88.4158 267.638 91.3549C267.638 94.2939 270.022 96.6765 272.963 96.6765Z" fill="white"/>
<path d="M278.672 98.5781H267.26C266.554 98.5789 265.878 98.8595 265.378 99.3583C264.879 99.8572 264.598 100.533 264.598 101.239C264.76 103.518 265.116 105.779 265.663 107.997C267.951 109.176 270.502 109.754 273.076 109.679C275.649 109.603 278.161 108.875 280.377 107.564C280.865 105.485 281.186 103.37 281.335 101.239C281.334 100.533 281.054 99.8572 280.554 99.3583C280.055 98.8595 279.378 98.5789 278.672 98.5781Z" fill="white"/>
<path d="M4.00712e-06 477.094C-0.000350576 477.213 0.0228306 477.331 0.0682058 477.441C0.113581 477.551 0.18025 477.651 0.264395 477.735C0.348539 477.819 0.448497 477.885 0.558504 477.931C0.668511 477.976 0.786404 477.999 0.905399 477.999H545.095C545.335 477.999 545.565 477.903 545.735 477.734C545.905 477.564 546 477.334 546 477.094C546 476.854 545.905 476.624 545.735 476.454C545.565 476.285 545.335 476.189 545.095 476.189H0.905399C0.786405 476.189 0.668509 476.212 0.558504 476.258C0.448499 476.303 0.34855 476.37 0.264406 476.454C0.180262 476.538 0.113582 476.638 0.0682058 476.747C0.0228292 476.857 -0.000346537 476.975 4.00712e-06 477.094Z" fill="#CCCCCC"/>
</g>
<defs>
<clipPath id="clip0_929_10406">
<rect width="546" height="478" fill="white" transform="translate(0 -0.00195312)"/>
</clipPath>
</defs>
</svg>
