<svg width="653" height="415" viewBox="0 0 653 415" fill="none" xmlns="http://www.w3.org/2000/svg">
<g clip-path="url(#clip0_929_10538)">
<path d="M112.338 414.261L110.571 414.226C111.254 394.554 113.351 374.958 116.844 355.587C124.486 314.116 137.193 286.879 154.613 274.635L155.628 276.083C114.935 304.686 112.359 413.168 112.338 414.261Z" fill="black"/>
<path d="M134.428 413.837L132.661 413.803C132.699 411.844 133.803 365.667 151.962 352.904L152.977 354.352C135.551 366.6 134.437 413.367 134.428 413.837Z" fill="black"/>
<path d="M165.681 276.243C160.801 276.243 156.845 272.283 156.845 267.397C156.845 262.511 160.801 258.551 165.681 258.551C170.561 258.551 174.518 262.511 174.518 267.397C174.518 272.283 170.561 276.243 165.681 276.243Z" fill="black"/>
<path d="M161.305 352.321C156.425 352.321 152.469 348.361 152.469 343.475C152.469 338.589 156.425 334.629 161.305 334.629C166.185 334.629 170.142 338.589 170.142 343.475C170.142 348.361 166.185 352.321 161.305 352.321Z" fill="black"/>
<path d="M130.31 281.547C131.971 292.166 127.642 301.664 127.642 301.664C127.642 301.664 120.622 293.945 118.961 283.326C117.3 272.707 121.629 263.209 121.629 263.209C121.629 263.209 128.649 270.928 130.31 281.547Z" fill="black"/>
<path d="M159.193 307.337C149.038 310.824 138.942 308.212 138.942 308.212C138.942 308.212 145.311 299.947 155.466 296.459C165.622 292.972 175.718 295.584 175.718 295.584C175.718 295.584 169.349 303.85 159.193 307.337Z" fill="black"/>
<path d="M159.519 374.711C154.923 376.156 150.028 376.368 145.324 375.325C148.311 371.518 152.333 368.657 156.907 367.086C161.48 365.516 166.41 365.303 171.102 366.473C168.028 370.187 164.034 373.027 159.519 374.711Z" fill="black"/>
<path d="M365.736 138.142L422.705 108.484C422.705 108.484 441.837 87.3924 453.851 77.8655C465.866 68.3385 469.565 75.3373 469.565 75.3373L474.615 83.7645L462.409 100.759L429.44 128.71L370.529 151.81C369.607 153.321 368.277 154.538 366.692 155.322C365.106 156.105 363.332 156.422 361.574 156.236C359.816 156.05 358.147 155.368 356.76 154.27C355.374 153.172 354.327 151.703 353.742 150.033C353.156 148.364 353.056 146.562 353.453 144.837C353.849 143.113 354.727 141.536 355.983 140.291C357.239 139.045 358.822 138.182 360.548 137.802C362.275 137.422 364.073 137.54 365.736 138.142Z" fill="#9F616A"/>
<path d="M513.92 112.491L517.293 91.8337L526.817 89.4501C526.817 89.4501 534.375 87.1194 536.142 102.361C537.909 117.603 536.539 146.06 536.539 146.06L555.875 207.36C557.483 208.109 558.846 209.3 559.805 210.794C560.763 212.289 561.278 214.025 561.289 215.801C561.3 217.577 560.807 219.319 559.867 220.825C558.927 222.331 557.579 223.539 555.98 224.308C554.381 225.077 552.597 225.375 550.835 225.168C549.073 224.961 547.406 224.257 546.029 223.139C544.651 222.02 543.619 220.533 543.053 218.85C542.487 217.167 542.41 215.357 542.832 213.632L517.491 155.595L513.92 112.491Z" fill="#9F616A"/>
<path d="M435.147 402.393L422.685 402.392L416.756 354.27L435.149 354.27L435.147 402.393Z" fill="#9F616A"/>
<path d="M438.325 398.317L413.782 398.316H413.781C409.633 398.317 405.655 399.966 402.722 402.903C399.789 405.839 398.141 409.822 398.141 413.974V414.483L438.324 414.485L438.325 398.317Z" fill="black"/>
<path d="M571.073 402.393L558.611 402.392L552.683 354.27L571.075 354.27L571.073 402.393Z" fill="#9F616A"/>
<path d="M574.252 398.317L549.709 398.316H549.708C545.56 398.317 541.582 399.966 538.649 402.903C535.716 405.839 534.068 409.822 534.068 413.974V414.483L574.251 414.485L574.252 398.317Z" fill="black"/>
<path d="M509.549 71.2268L530.22 88.892L513.256 142.635L509.429 154.636C509.429 154.636 532.801 176.209 547.262 236.473C561.723 296.738 585.38 376.814 585.38 376.814L535.444 391.125L494.818 254.8L447.033 361.751L441.516 393.384L398.991 380.831L409.022 301.497L459.177 164.169L453.967 127.765C453.967 127.765 446.143 109.595 459.735 90.3576L463.998 72.2815L479.27 68.5156L509.549 71.2268Z" fill="#4168B7"/>
<path d="M475.209 61.6226H531.095C532.244 61.6213 533.346 61.1636 534.159 60.3498C534.972 59.536 535.429 58.4327 535.431 57.2818V33.1663C535.431 24.5959 532.03 16.3765 525.976 10.3163C519.923 4.25615 511.713 0.851563 503.152 0.851562C494.591 0.851563 486.381 4.25615 480.328 10.3163C474.274 16.3765 470.873 24.5959 470.873 33.1663V57.2818C470.875 58.4327 471.332 59.536 472.145 60.3498C472.958 61.1636 474.06 61.6213 475.209 61.6226Z" fill="black"/>
<path d="M475.753 48.7325C469.484 37.2513 473.699 22.856 485.167 16.5797C496.636 10.3035 511.015 14.523 517.284 26.0043C523.554 37.4855 519.339 51.8809 507.87 58.1571C496.402 64.4333 482.023 60.2138 475.753 48.7325Z" fill="#9F616A"/>
<path d="M463.238 35.5779H497.41L497.761 30.6663L499.513 35.5779H504.775L505.469 25.8432L508.942 35.5779H519.123V35.0956C519.115 28.3184 516.423 21.821 511.636 17.0287C506.849 12.2365 500.359 9.54087 493.589 9.5332H488.772C482.002 9.54085 475.512 12.2365 470.725 17.0287C465.938 21.8209 463.245 28.3184 463.238 35.0956V35.5779Z" fill="black"/>
<path d="M497.689 66.1235C497.947 66.1232 498.203 66.1006 498.457 66.0557L523.479 61.6358V20.2344H495.934L496.616 21.0304C506.104 32.1084 498.956 50.0716 493.851 59.7932C493.475 60.5052 493.307 61.3091 493.367 62.1124C493.427 62.9157 493.712 63.6857 494.19 64.3337C494.591 64.8878 495.116 65.339 495.725 65.6501C496.333 65.9612 497.006 66.1235 497.689 66.1235Z" fill="black"/>
<path d="M290.754 283.172L510.053 360.794C515.475 362.707 521.434 362.388 526.621 359.908C531.809 357.427 535.802 352.988 537.724 347.564L575.397 240.893C577.307 235.465 576.988 229.5 574.511 224.306C572.033 219.113 567.599 215.115 562.181 213.191L342.882 135.569C337.46 133.656 331.501 133.975 326.314 136.456C321.126 138.936 317.133 143.375 315.211 148.799L277.538 255.47C275.628 260.899 275.947 266.864 278.424 272.057C280.902 277.25 285.336 281.248 290.754 283.172Z" fill="#F0F1F3"/>
<path d="M277.538 255.471L277.339 256.035C275.509 261.219 275.811 266.918 278.179 271.879C280.546 276.84 284.786 280.657 289.964 282.489L510.36 360.499C515.537 362.331 521.229 362.029 526.183 359.66C531.138 357.291 534.95 353.048 536.781 347.866L536.98 347.302L277.538 255.471Z" fill="#F2F2F2"/>
<path d="M523.739 237.959C538.275 247.535 556.905 240.328 563.421 229.831L562.382 229.24C550.007 221.518 531.629 225.821 523.739 237.959Z" fill="black"/>
<path d="M341.579 265.125C345.137 266.385 348.34 266.327 351.102 264.953C357.342 261.849 360.271 252.645 362.624 245.248C363.309 243.097 363.955 241.064 364.614 239.403L364.623 239.378C365.769 236.083 365.569 232.468 364.068 229.319C362.567 226.17 359.885 223.741 356.605 222.56L327.108 212.119C323.555 210.861 320.354 210.919 317.595 212.29C311.356 215.39 308.425 224.591 306.07 231.985C305.383 234.141 304.735 236.177 304.074 237.841C302.922 241.14 303.118 244.76 304.619 247.915C306.12 251.07 308.804 253.504 312.089 254.687L341.579 265.125ZM363.387 238.931C362.714 240.632 362.062 242.68 361.372 244.849C359.094 252.009 356.259 260.919 350.517 263.775C348.052 265.001 345.272 265.037 342.017 263.885L312.528 253.447C309.574 252.384 307.159 250.197 305.806 247.361C304.454 244.525 304.274 241.27 305.305 238.302C305.973 236.621 306.628 234.563 307.322 232.384C309.602 225.228 312.439 216.321 318.18 213.468C320.642 212.245 323.42 212.209 326.67 213.359L356.166 223.8C359.116 224.863 361.529 227.047 362.881 229.88C364.233 232.713 364.415 235.965 363.387 238.931Z" fill="#3F3D56"/>
<path d="M529.852 241.405C535.036 243.205 540.619 243.512 545.969 242.292C553.78 240.575 560.87 235.906 564.47 230.107L564.831 229.526L563.21 228.603C550.648 220.77 531.812 225.017 523.682 237.522L523.325 238.071L523.871 238.43C525.737 239.661 527.746 240.66 529.852 241.405ZM562.982 229.987C559.459 235.228 552.903 239.421 545.687 241.007C538.672 242.647 531.295 241.456 525.152 237.69C533.105 226.173 550.725 222.352 562.526 229.727L562.982 229.987Z" fill="#3F3D56"/>
<path d="M522.148 317.968C523.99 318.698 525.995 318.912 527.949 318.587C529.903 318.262 531.731 317.411 533.239 316.125C535.003 314.581 536.34 312.609 537.122 310.398C537.903 308.187 538.103 305.811 537.701 303.501C537.328 301.512 536.413 299.666 535.056 298.167C533.7 296.667 531.955 295.573 530.015 295.006L490.712 281.094C488.847 280.32 486.805 280.077 484.81 280.391C482.815 280.705 480.946 281.565 479.409 282.875C477.645 284.419 476.309 286.392 475.529 288.603C474.748 290.814 474.549 293.189 474.951 295.499C475.727 299.559 478.466 302.551 482.64 303.982L521.943 317.894C522.012 317.919 522.08 317.944 522.148 317.968ZM529.771 296.313C531.448 296.831 532.952 297.797 534.122 299.107C535.292 300.417 536.083 302.021 536.411 303.747C536.772 305.829 536.592 307.969 535.888 309.961C535.184 311.953 533.979 313.73 532.39 315.12C531.027 316.276 529.372 317.031 527.607 317.302C525.842 317.574 524.036 317.35 522.39 316.657L483.068 302.739C481.351 302.243 479.805 301.281 478.6 299.96C477.395 298.638 476.579 297.009 476.242 295.252C475.88 293.17 476.059 291.031 476.762 289.039C477.465 287.047 478.669 285.27 480.258 283.879C481.622 282.724 483.279 281.969 485.044 281.696C486.81 281.423 488.617 281.643 490.265 282.332L529.59 296.251C529.65 296.271 529.711 296.292 529.771 296.313Z" fill="#3F3D56"/>
<path d="M341.316 233.74L353.705 238.125C354.527 238.416 355.43 238.368 356.216 237.992C357.003 237.616 357.608 236.943 357.898 236.12C358.188 235.298 358.141 234.394 357.765 233.607C357.39 232.819 356.717 232.214 355.896 231.923L343.506 227.538C342.684 227.247 341.781 227.295 340.995 227.671C340.209 228.047 339.604 228.72 339.313 229.542C339.023 230.365 339.071 231.269 339.446 232.056C339.822 232.843 340.494 233.449 341.316 233.74Z" fill="black"/>
<path d="M337.812 243.663L350.202 248.049C351.023 248.34 351.926 248.292 352.713 247.916C353.499 247.54 354.104 246.867 354.394 246.044C354.685 245.222 354.637 244.318 354.261 243.53C353.886 242.743 353.213 242.138 352.392 241.847L340.002 237.462C339.181 237.171 338.277 237.219 337.491 237.595C336.705 237.97 336.1 238.644 335.809 239.466C335.519 240.289 335.567 241.193 335.942 241.98C336.318 242.767 336.99 243.373 337.812 243.663Z" fill="black"/>
<path d="M334.307 253.587L346.697 257.973C347.103 258.117 347.535 258.179 347.965 258.156C348.396 258.133 348.818 258.026 349.208 257.84C349.597 257.653 349.946 257.392 350.234 257.071C350.523 256.75 350.745 256.375 350.889 255.968C351.033 255.561 351.095 255.129 351.073 254.698C351.05 254.267 350.942 253.844 350.756 253.454C350.57 253.065 350.31 252.715 349.989 252.426C349.668 252.138 349.294 251.915 348.887 251.771L336.497 247.385C336.09 247.241 335.659 247.179 335.228 247.202C334.798 247.225 334.375 247.332 333.986 247.518C333.597 247.705 333.248 247.966 332.959 248.287C332.671 248.608 332.448 248.983 332.305 249.39C332.161 249.797 332.098 250.229 332.121 250.66C332.144 251.091 332.251 251.514 332.437 251.904C332.623 252.293 332.884 252.643 333.205 252.932C333.526 253.22 333.9 253.443 334.307 253.587Z" fill="black"/>
<path d="M319.634 226.066L332.024 230.451C332.431 230.595 332.862 230.657 333.293 230.635C333.723 230.612 334.145 230.504 334.535 230.318C334.924 230.132 335.273 229.871 335.562 229.55C335.85 229.229 336.073 228.854 336.216 228.447C336.36 228.039 336.423 227.608 336.4 227.176C336.377 226.745 336.269 226.323 336.084 225.933C335.898 225.543 335.637 225.194 335.316 224.905C334.995 224.616 334.621 224.393 334.214 224.249L321.824 219.864C321.003 219.573 320.1 219.621 319.313 219.997C318.527 220.373 317.922 221.046 317.632 221.868C317.341 222.691 317.389 223.595 317.765 224.382C318.14 225.169 318.813 225.775 319.634 226.066Z" fill="black"/>
<path d="M316.129 235.99L328.519 240.375C328.926 240.519 329.357 240.581 329.788 240.558C330.218 240.536 330.641 240.428 331.03 240.242C331.419 240.056 331.768 239.795 332.057 239.474C332.345 239.153 332.568 238.778 332.712 238.37C332.855 237.963 332.918 237.532 332.895 237.1C332.872 236.669 332.765 236.246 332.579 235.857C332.393 235.467 332.132 235.118 331.811 234.829C331.49 234.54 331.116 234.317 330.709 234.173L318.319 229.788C317.913 229.644 317.482 229.581 317.051 229.604C316.62 229.627 316.198 229.735 315.808 229.921C315.419 230.107 315.07 230.368 314.782 230.689C314.493 231.01 314.271 231.385 314.127 231.792C313.983 232.199 313.921 232.631 313.944 233.062C313.966 233.494 314.074 233.916 314.26 234.306C314.446 234.696 314.706 235.045 315.027 235.334C315.348 235.623 315.722 235.846 316.129 235.99Z" fill="black"/>
<path d="M312.624 245.911L325.014 250.297C325.836 250.588 326.739 250.54 327.525 250.164C328.311 249.788 328.916 249.115 329.207 248.292C329.497 247.47 329.449 246.566 329.074 245.779C328.698 244.991 328.026 244.386 327.204 244.095L314.815 239.71C314.408 239.566 313.977 239.503 313.546 239.526C313.115 239.549 312.693 239.656 312.304 239.843C311.914 240.029 311.565 240.29 311.277 240.611C310.988 240.932 310.766 241.307 310.622 241.714C310.478 242.121 310.416 242.553 310.439 242.984C310.461 243.416 310.569 243.838 310.755 244.228C310.941 244.618 311.202 244.967 311.522 245.256C311.843 245.545 312.218 245.767 312.624 245.911Z" fill="black"/>
<path d="M307.008 172.02L566.451 263.852L566.013 265.092L306.57 173.261L307.008 172.02Z" fill="#3F3D56"/>
<path d="M290.754 283.172L510.053 360.794C515.475 362.707 521.434 362.388 526.621 359.908C531.809 357.427 535.802 352.988 537.724 347.564L575.397 240.893C577.307 235.465 576.988 229.5 574.511 224.306C572.033 219.113 567.599 215.115 562.181 213.191L342.882 135.569C337.46 133.656 331.501 133.975 326.314 136.456C321.126 138.936 317.133 143.375 315.211 148.799L277.538 255.47C275.628 260.899 275.947 266.864 278.424 272.057C280.902 277.25 285.336 281.248 290.754 283.172ZM561.743 214.431C566.833 216.239 570.998 219.994 573.325 224.873C575.653 229.751 575.952 235.355 574.158 240.454L536.485 347.126C534.679 352.221 530.928 356.391 526.055 358.721C521.182 361.051 515.585 361.35 510.491 359.554L291.192 281.932C286.102 280.124 281.937 276.369 279.609 271.49C277.282 266.612 276.983 261.008 278.777 255.909L316.45 149.237C318.256 144.142 322.007 139.972 326.88 137.642C331.753 135.312 337.35 135.013 342.444 136.809L561.743 214.431Z" fill="#3F3D56"/>
<path d="M0.883606 414.851H652.116C652.351 414.851 652.575 414.758 652.741 414.592C652.907 414.426 653 414.201 653 413.967C653 413.732 652.907 413.507 652.741 413.341C652.575 413.175 652.351 413.082 652.116 413.082H0.883606C0.649292 413.082 0.424561 413.175 0.25885 413.341C0.0931396 413.507 0 413.732 0 413.967C0 414.201 0.0931396 414.426 0.25885 414.592C0.424561 414.758 0.649292 414.851 0.883606 414.851Z" fill="#CBCBCB"/>
<mask id="mask0_929_10538" style="mask-type:luminance" maskUnits="userSpaceOnUse" x="326" y="145" width="36" height="35">
<path d="M336.417 145.041L361.178 154.544L351.701 179.318L326.939 169.815L336.417 145.041Z" fill="white"/>
</mask>
<g mask="url(#mask0_929_10538)">
<path d="M345.378 170.75C343.063 168.056 343.371 164.028 346.067 161.753C346.247 161.601 346.433 161.461 346.624 161.332C345.168 162.862 344.614 164.974 345.019 166.955C345.2 165.218 346.654 163.406 349.425 163.922C352.274 164.454 354.739 167.176 353.515 168.433C353.515 168.433 359.05 167.359 355.196 163.511C354.679 162.994 354.148 162.505 353.47 162.228C352.406 161.792 352.46 160.957 351.197 159.884C351.197 159.884 353.584 160.606 354.218 162.474C356.78 161.562 353.809 156.923 351.359 155.249C349.38 153.899 347.475 153.259 346.446 152.822C345.881 152.583 345.651 152.253 345.651 152.253C345.436 153.596 347.155 154.818 347.155 154.818C341.203 152.837 337.266 157.813 337.266 157.813C338.27 157.231 340.404 157.285 340.404 157.285C337.506 158.755 335.627 160.618 334.422 162.283C334.482 161.108 334.723 159.923 335.166 158.767C337.446 152.806 344.229 149.836 350.249 152.16C354.047 153.627 356.654 156.84 357.487 160.509C356.827 155.857 353.701 151.675 348.966 149.858C342.049 147.203 334.277 150.637 331.688 157.492C329.698 162.759 331.317 168.523 335.327 172.099C334.714 167.866 336.209 163.709 339.137 160.836C336.681 163.681 335.674 167.669 336.807 171.562C337.038 172.353 337.346 173.101 337.72 173.802C338.281 174.116 338.871 174.394 339.489 174.631C340.628 175.068 341.789 175.341 342.945 175.461C341.716 172.489 341.618 169.185 342.626 166.188C341.854 169.323 342.416 172.738 344.348 175.534C347.455 175.53 350.449 174.447 352.811 172.513C350.293 173.573 347.259 172.939 345.378 170.75Z" fill="#4168B7"/>
</g>
</g>
<defs>
<clipPath id="clip0_929_10538">
<rect width="653" height="414" fill="white" transform="matrix(-1 0 0 1 653 0.851562)"/>
</clipPath>
</defs>
</svg>
