<svg width="236" height="284" viewBox="0 0 236 284" fill="none" xmlns="http://www.w3.org/2000/svg">
<mask id="mask0_72_1701" style="mask-type:luminance" maskUnits="userSpaceOnUse" x="121" y="97" width="30" height="30">
<path d="M132.281 97.666L150.708 108.305L140.069 126.732L121.642 116.093L132.281 97.666Z" fill="white"/>
</mask>
<g mask="url(#mask0_72_1701)">
<path d="M136.14 119.15C134.645 116.726 135.398 113.575 137.821 112.112C137.983 112.015 138.148 111.927 138.316 111.849C136.969 112.878 136.264 114.48 136.334 116.1C136.697 114.748 138.078 113.495 140.209 114.252C142.401 115.032 144.01 117.497 142.882 118.339C142.882 118.339 147.405 118.184 144.836 114.653C144.491 114.178 144.132 113.724 143.629 113.419C142.841 112.94 142.989 112.285 142.124 111.277C142.124 111.277 143.924 112.149 144.191 113.708C146.337 113.308 144.568 109.261 142.837 107.627C141.439 106.309 140.01 105.563 139.249 105.088C138.831 104.827 138.691 104.537 138.691 104.537C138.351 105.573 139.559 106.757 139.559 106.757C135.092 104.44 131.343 107.886 131.343 107.886C132.212 107.551 133.897 107.862 133.897 107.862C131.414 108.662 129.69 109.901 128.525 111.068C128.72 110.145 129.061 109.237 129.558 108.377C132.118 103.944 137.869 102.444 142.347 105.042C145.172 106.681 146.833 109.553 147.031 112.563C147.094 108.796 145.145 105.091 141.621 103.057C136.473 100.085 129.88 101.827 126.962 106.93C124.72 110.851 125.276 115.619 128.003 118.955C128.052 115.526 129.761 112.422 132.445 110.515C130.138 112.459 128.837 115.49 129.244 118.716C129.327 119.372 129.477 120.003 129.685 120.605C130.09 120.924 130.523 121.218 130.983 121.483C131.83 121.973 132.716 122.335 133.617 122.576C133.018 120.067 133.357 117.439 134.535 115.192C133.527 117.577 133.541 120.353 134.72 122.809C137.183 123.197 139.693 122.716 141.809 121.481C139.679 122.004 137.354 121.12 136.14 119.15Z" fill="#262626"/>
</g>
<path fill-rule="evenodd" clip-rule="evenodd" d="M93.6876 174.943C94.4102 175.36 95.1607 175.77 95.8733 176.205C99.0182 178.044 97.6241 178.179 93.7907 185.226C89.7891 192.646 92.4025 194.225 86.659 190.862C88.081 188.44 90.2811 180.802 93.6876 174.943ZM96.0783 196.488C98.7902 191.262 101.788 186.436 104.619 181.207L110.28 184.264C109.284 186.885 105.364 190.662 103.68 193.051C100.059 198.223 100.342 198.832 98.868 198.169C98.228 197.894 96.6722 196.925 96.0783 196.488ZM105.41 201.453L100.896 199.176C102.717 196.795 104.196 194.03 106.094 191.718C107.993 189.407 109.677 187.183 111.567 185.007L115.824 187.159C112.637 192.394 108.587 196.072 105.41 201.453ZM98.9396 178.14C100.277 178.795 102.361 179.786 103.071 180.713C103.046 182.344 96.1863 193.777 94.6804 195.775L91.446 193.602C93.7232 188.477 96.128 183.05 98.9396 178.14ZM114.843 206.241L111.987 204.592C115.837 197.884 120.273 194.475 122.977 190.443L126.118 192.045C122.878 197.249 118.285 201.459 114.843 206.241ZM75.1929 162.973L79.5479 165.769L76.6286 175.059C75.9831 177.154 74.3985 183.196 73.7269 184.359L70.0476 182.305L70.3053 179.986C71.3496 175.654 73.4316 166.186 75.1929 162.973ZM86.8174 170.6L92.4693 174.122L85.5303 189.764C85.4571 189.768 85.3893 189.682 85.3134 189.732L80.2062 187.465C80.9464 186.224 81.975 182 83.2602 179.123C84.5759 176.192 85.6861 173.496 86.8174 170.6ZM80.7051 166.696C81.5234 167.191 85.1952 169.217 85.4289 170.034C85.8413 171.518 81.4433 180.071 80.5814 182.582C80.0751 184.029 79.7525 185.605 78.8075 186.916L74.8855 184.958C76.1745 182.928 77.7313 174.614 78.8484 171.499C79.3954 169.982 80.1906 168.279 80.7051 166.696ZM69.8615 160.035L73.8858 162.265C73.5201 165.015 70.8781 172.115 69.6839 176.666C69.2087 178.507 69.251 179.777 68.5839 181.625L64.6355 179.345C65.3218 174.9 67.8774 164.53 69.8615 160.035ZM110.713 203.95L106.571 202.006C109.783 196.645 113.549 192.85 116.96 187.674L121.754 189.996C117.084 196.089 116.524 195.554 110.713 203.95ZM82.6162 132.123C83.5464 130.145 87.1381 124.087 88.4554 122.497C91.5567 118.835 95.7924 111.01 101.014 105.141C101.963 104.068 103.208 102.929 104.288 101.791C109.669 96.0131 115.481 90.7905 121.184 84.9412C125.666 80.3134 130.643 77.3112 135.322 73.4795C137.347 71.8047 138.451 72.8649 143.62 73.0292C145.412 73.1003 150.822 73.8263 152.569 74.3415C160.193 76.6046 166.758 84.3666 167.582 90.8356C168.931 101.485 172.29 98.2308 166.812 112.483C162.828 122.803 161.885 130.297 156.335 140.888C153.009 147.217 150.551 153.836 147.899 160.343C145.837 165.38 139.619 174.481 136.175 178.533C133.858 181.284 131.951 184.343 129.866 187.182C128.309 189.268 128.638 190.61 126.202 189.579C124.602 188.89 122.734 187.647 121.114 186.994L112.066 182.475C105.354 178.835 88.3219 168.931 82.8126 164.551C81.429 163.447 74.9141 159.263 73.257 158.917C70.7422 158.429 68.9073 160.589 72.4468 152.057C75.2284 145.366 79.522 138.703 82.6162 132.123ZM53.2507 134.91C60.1888 123.992 63.7134 119.963 72.032 111.417C74.9358 108.464 78.8939 105.719 82.5825 103.971C83.9992 103.308 85.0639 102.889 86.3267 102.208L97.4339 96.7286C98.3419 96.3363 100.267 95.5673 101.257 95.3168C105.586 94.2909 106.596 93.1114 108.995 93.1094C107.512 95.0265 105.66 96.4017 103.992 98.0706C99.1813 102.861 93.7979 109.906 89.7609 115.636C82.9954 125.197 78.5726 134.771 72.9673 144.601L53.2507 134.91ZM154.99 195.036C154.983 195.008 154.904 195.104 154.884 195.139C145.468 189.75 144.985 189.448 135.064 184.731C136.543 182.129 138.911 179.737 140.631 177.369C146.323 169.585 150.901 161.371 154.002 152.256C155.196 148.762 155.438 150.053 156.19 149.077C156.771 148.355 157.528 146.066 158.01 145.028C161.343 138.116 162.608 135.273 165.109 128.092C166.188 125.002 166.025 123.004 167.424 120.052C169.583 122.215 170.09 125.774 170.495 128.452C170.934 131.314 171.465 134.018 171.22 137.331C170.39 149.191 164.955 174.561 159.755 185.684C158.93 187.44 158.094 189.213 157.361 190.929C157.022 191.72 156.65 192.61 156.192 193.403L155.079 194.923C155.069 194.941 154.97 195.072 154.99 195.036ZM139.963 70.6121C142.053 68.4579 153.614 63.6167 157.639 62.7915L163.087 61.6595C166.464 61.3059 166.908 60.904 169.003 62.1604C172.522 64.2866 174.454 63.7095 175.145 67.8453C175.869 72.3296 176.038 70.7349 175.507 75.4812L174.386 83.5296C173.924 86.201 173.616 89.219 172.45 91.9302C171.737 91.0485 170.904 90.497 170.386 91.6787C171.189 92.73 171.23 92.0485 172.654 92.0246C172.021 94.0565 171.377 97.0453 171.131 98.4074C170.659 97.759 170.58 98.0187 170.39 96.9222L169.749 91.3578C169.909 85.9509 167.261 81.9074 163.266 78.1204C157.409 72.5529 152.207 71.7118 145.697 70.9381L139.963 70.6121ZM50.9885 135.531C52.2552 137.367 68.2851 144.977 71.9102 146.717L68.7626 155.1C67.8919 157.3 62.1359 176.022 62.673 177.86C63.0807 179.27 63.7035 178.314 62.8765 179.787C63.4859 180.115 63.9259 180.534 64.2032 180.623L69.5055 183.285C71.0865 184.292 74.7873 186.593 76.1607 187.715C77.9165 189.152 76.4348 187.403 79.0882 189.076C80.4929 189.981 80.9561 189.708 82.299 190.883C87.3187 195.215 96.2775 201.069 102.55 203.679C104.961 204.672 107.113 205.585 109.674 207.134C111.063 207.984 111.513 208.549 112.921 208.022C114.181 207.551 114.015 207.431 115.259 208.126L115.611 208.329C115.646 208.35 115.727 208.373 115.755 208.365C117.09 208.902 131.983 188.521 133.554 187.102C138.508 188.74 151.759 195.098 154.959 198.591C155.526 198.424 155.296 198.456 155.791 198.413C155.874 198.39 156.147 198.407 156.248 198.395C156.293 198.397 156.394 198.385 156.467 198.38C156.513 198.383 156.624 198.353 156.67 198.356C156.725 198.341 156.826 198.329 156.899 198.324L163.636 183.929L166.713 174.448C167.028 172.843 167.805 171.294 168.158 169.665L171.387 155.971C171.706 154.604 171.958 152.987 172.266 151.355C173.819 142.804 174.898 133.932 171.949 125.649L170.443 121.865C170.109 120.897 168.245 118.387 168.183 118.045L171.222 108.589C172.176 105.309 173.222 102.317 174.139 99.1807C174.572 97.7386 174.715 96.2699 175.098 94.7519C175.514 93.1355 175.804 91.6574 176.172 90.0837C177.428 84.6514 178.583 77.5625 178.288 72.2924C177.877 65.3102 172.011 57.7634 163.216 58.9133C161.745 59.0987 160.293 59.2941 158.981 59.5711C149.361 61.7019 140.252 66.2434 132.384 72.3001C131.15 73.2565 129.971 73.9152 128.704 74.9699C126.345 76.8982 124.086 78.9785 121.682 80.9041L114.849 87.488C108.961 92.7609 112.213 89.7737 107.218 91.2611C105.974 91.6241 104.612 91.5423 103.196 91.8769C102.355 92.0725 101.951 92.1212 101.124 92.3725C97.9435 93.4035 98.7689 92.8695 95.2756 94.4015C87.925 97.6078 83.7821 99.3287 76.3224 104.352C73.7953 106.043 71.639 108.393 69.3749 110.565C64.6514 115.123 53.1825 129.818 50.9885 135.531Z" fill="#262626"/>
<path fill-rule="evenodd" clip-rule="evenodd" d="M65.6789 190.524C65.5545 189.559 65.8352 189.439 64.8861 188.844C64.4378 189.172 60.6298 201.874 60.2556 203.703C59.2702 208.422 59.0287 206.52 59.4061 209.652C59.5596 210.892 59.0968 209.943 60.3651 210.84C60.3651 210.84 60.7122 211.135 60.8431 211.234C61.4602 210.979 61.5193 210.755 61.9567 210.608C62.4775 210.438 62.1654 210.775 63.2274 210.401L65.2275 209.135C65.3163 209.022 65.4045 209.073 65.5157 209.043C64.1126 211.758 63.0532 214.366 61.5945 217.097C60.2199 219.64 59.8103 222.059 58.4933 224.707C57.3927 226.939 56.3794 229.997 55.6952 232.281C55.0442 234.467 53.7941 237.975 55.0746 238.973C56.4812 238.328 54.9771 238.776 57.1128 237.071C58.253 236.155 58.8796 236.046 59.7342 235.177C61.0962 233.754 63.3127 232.072 64.9307 231.549L64.9489 232.006C64.8993 232.377 64.9536 232.08 64.866 232.476L61.1125 244.269C60.2313 247.708 57.8697 253.631 59.9018 255.932C61.8853 255.549 62.5581 253 65.1938 250.714C70.7413 245.95 76.386 240.325 81.5184 235.791L81.5471 237.288C81.4689 237.831 81.4479 238.03 81.3948 238.611C81.2824 240.026 80.9535 240.189 82.5176 241.022C82.7407 240.798 85.1319 237.878 85.1956 237.726C86.8207 234.505 85.5599 235.304 89.7228 230.211L92.2984 227.256C92.3873 227.143 92.468 227.166 92.5616 227.126C92.9241 227.923 92.855 227.554 92.6213 229.017C92.2843 230.985 91.8031 232.469 93.3183 233.509C97.1334 230.564 94.9605 231.519 95.9878 229.292C96.9819 227.163 101.33 224.15 101.774 223.584C102.823 222.216 102.727 222.748 103.775 221.707C104.969 220.493 106.858 219.257 106.045 217.613C105.398 217.592 105.935 217.314 104.981 217.868L102.854 219.719C100.887 221.498 95.3097 227.373 94.3569 227.598C94.1046 225.878 94.9314 225.016 93.7424 223.859C92.9937 224.179 91.9179 225.391 91.3319 226.04C90.4412 227.053 89.9175 227.879 88.9889 228.917L84.921 233.643C84.5228 234.048 84.67 233.874 84.3513 234.019C84.812 230.901 86.6978 228.652 84.4776 227.206C82.3048 232.109 77.2073 235.605 73.7691 238.955C71.8699 240.82 69.987 242.412 68.1136 244.151C67.1302 245.04 63.472 249.015 62.5965 249.473L62.7774 247.98C63.6928 243.667 66.7915 235.491 67.3403 232.424C67.6875 230.438 67.9991 229.044 65.7293 227.968C65.144 228.453 64.5877 229.213 63.8328 229.787C63.2604 230.209 62.3374 230.546 61.7094 230.982L57.7004 233.815C57.6743 232.883 58.779 230.277 59.1203 229.605C59.9704 228.051 60.6061 227.031 61.1457 225.486C63.2577 219.467 67.5378 213.031 68.6796 208.896C68.9953 207.738 69.0013 208.094 68.9908 207.054C68.973 205.375 69.3914 203.266 68.0715 202.011C66.566 202.787 64.2726 205.294 62.8574 205.628C63.1198 203.382 64.7743 199.214 65.5983 196.729C67.103 192.168 65.8697 191.903 65.6789 190.524Z" fill="#262626"/>
<path fill-rule="evenodd" clip-rule="evenodd" d="M145.123 94.4849C146.211 95.0426 151.611 98.9595 152.264 99.7829C157.68 106.482 159.874 109.887 153.508 120.831C150.244 126.443 146.544 129.148 141.983 131.145C138.032 132.859 131.068 131.612 127.328 129.5C122.838 126.978 115.166 119.587 115.138 114.588C115.146 113.394 114.883 112.302 115.176 111.062C115.73 108.678 117.03 105.246 119.028 103.25C121.112 101.187 125.767 96.8703 128.605 96.0649L131.23 95.1829C133.623 94.05 135.279 94.1129 138.122 94.6027C139.575 94.854 140.324 94.5342 141.694 94.6438C143.774 94.7869 143.199 95.0898 145.123 94.4849ZM148.211 93.3298C143.964 91.7709 145.274 92.4331 139.636 92.0217C137.947 91.893 137.135 91.7531 135.405 91.859C130.875 92.1342 127.781 92.4865 123.929 95.1277C122.635 96.0257 121.75 96.9483 120.488 97.9121C116.582 100.851 114.605 104.316 113.33 109.619C112.777 111.839 113.089 116.061 113.348 117.973C113.842 121.596 123.291 133.561 128.41 133.203C129.756 133.11 128.504 132.552 130.39 133.477C134.685 135.604 136.358 136.452 141.164 135.537C145.785 134.656 145.048 134.019 146.416 132.952C147.029 132.46 147.463 132.523 148.307 131.835C150.622 130.022 152.838 126.836 154.632 124.135C156.045 122.013 158.338 117.391 159.051 114.935C160.581 109.802 158.979 103.378 155.674 99.3311C153.618 96.8276 151.593 94.5541 148.211 93.3298Z" fill="#262626"/>
<path fill-rule="evenodd" clip-rule="evenodd" d="M144.469 101.886C144.585 101.929 144.767 101.94 145.127 102.171L146.393 103.56C148.632 106.521 149.234 106.658 149.65 109.765C150.167 113.754 149.267 115.678 146.428 119.538C143.936 122.918 141.543 124.051 138.377 125.137C134.195 126.601 133.116 125.132 128.436 122.735C122.756 119.832 122.072 114.83 124.025 109.777C124.347 108.976 124.67 107.846 125.065 107.04C125.641 105.798 131.554 100.116 134.673 99.8021C140.601 99.1822 142.719 101.416 144.469 101.886ZM123.565 106.667C121.255 112.173 120.459 118.764 124.056 123.238C126.238 125.932 126.167 125.444 129.211 126.849C131.09 127.746 132.619 128.558 134.506 128.708L138.28 128.888C139.784 128.888 139.426 128.939 140.704 128.149C143.451 126.445 147.711 123.381 149.298 119.574C151.227 114.93 152.459 114.466 150.948 107.882C150.492 105.904 150.276 104.651 148.903 102.918C145.328 98.3626 139.061 97.3299 133.634 98.4266C132.84 98.5796 133.048 98.4644 132.348 98.5774C128.703 99.1519 125.223 102.736 123.565 106.667Z" fill="#262626"/>
<path fill-rule="evenodd" clip-rule="evenodd" d="M88.9906 214.463C89.367 214.422 89.1823 217.347 89.1617 217.993C89.1368 219.624 88.7121 220.319 90.2672 221.452C91.8595 221.055 93.9504 219.795 95.1734 218.409C96.4269 216.971 96.2056 217.924 97.5418 216.627C98.277 215.923 99.0746 215.397 99.8648 214.842C98.7291 212.495 100.306 214.322 98.1232 211.346C96.2498 213.084 92.7989 215.886 90.8329 216.89C90.5621 215.324 91.297 215.842 90.6561 214.062C90.2469 212.979 90.3129 212.336 89.05 211.348C87.5685 212.937 86.1151 213.908 84.3606 215.033C82.0187 216.525 81.8524 217.017 80.2402 218.507L79.6678 218.928C79.6196 218.971 79.526 219.011 79.4426 219.033C80.0868 212.707 83.2226 209.229 80.9512 206.813C80.1774 207.095 77.2636 209.455 76.3976 210.06C76.2689 209.469 76.1595 210.228 76.3138 209.025C76.585 207.089 78.8572 200.834 78.0842 198.672C77.5056 197.068 77.4795 196.137 76.4748 195.557C75.7346 196.798 76.1886 199.716 75.3212 202.317L73.7085 209.589C73.4909 211.39 73.1291 212.709 74.75 213.809C76.1066 212.477 77.9025 211.117 79.6432 210.829C79.0155 212.324 78.7242 213.683 78.1392 215.225C77.4979 216.947 76.6512 218.291 76.0831 220.008C75.6175 221.384 74.9519 222.904 74.377 224.428C74.0988 225.114 73.8253 225.872 73.6074 226.616C73.5483 226.841 73.3841 227.451 73.3372 227.776C73.0789 229.648 73.8122 228.826 74.2903 228.609C74.295 228.682 74.3553 228.74 74.3322 228.821C74.2786 228.954 74.3559 229.187 74.3708 229.243C74.456 229.95 74.2995 229.366 74.481 229.988C75.7146 229.642 75.4355 228.823 76.158 227.572C77.2367 225.703 77.9333 225.189 78.8594 223.585C80.2509 221.215 80.5041 222.161 82.1084 220.196C83.535 218.458 88.5574 216.516 88.7099 214.583L88.9906 214.463Z" fill="#262626"/>
<path fill-rule="evenodd" clip-rule="evenodd" d="M131.639 215.375C131.586 214.122 132.139 214.019 132.273 212.85C132.969 206.883 133.283 209.391 134.234 206.32L134.222 204.997C133.142 204.914 133.055 205.146 131.977 205.793C130.691 206.555 131.051 206.622 129.563 206.961C130.208 205.641 130.765 204.717 131.487 203.466C132.345 201.939 131.958 201.551 132.476 200.206C133.314 198.104 133.083 198.911 132.494 197.325C132.242 196.663 132.276 195.789 131.692 195.335C130.246 194.218 130.966 196.349 129.687 198.971C127.932 202.541 126.829 204.043 125.866 208.399C125.484 210.2 125.437 211.136 126.894 212.236C127.945 211.432 128.301 210.98 130.14 211.172C128.904 213.678 124.841 220.31 125.456 223.274C125.661 224.262 125.528 224.044 126.611 224.693C127.448 223.813 128.231 222.009 129.212 221.165L137.97 214.259C138.88 213.539 139.833 212.538 140.814 211.694C143.358 209.567 143.056 209.44 143.631 208.973C145.504 207.398 147.141 204.277 148.798 202.343L148.369 201.132L140.041 207.864C137.228 210.376 134.441 212.597 131.639 215.375Z" fill="#262626"/>
<path fill-rule="evenodd" clip-rule="evenodd" d="M45.5596 162.48C47.5871 160.149 48.3271 159.519 51.404 157.934C51.4088 158.008 51.4515 158.056 51.4182 158.154L48.3618 167.6C47.713 169.294 45.9265 173.08 46.0954 174.823C46.1367 175.199 46.2586 175.599 46.4647 175.812C48.2108 177.713 47.8056 174.588 51.0643 170.735C52.714 168.773 53.7662 167.195 55.3846 165.45C58.1826 162.436 60.8104 157.396 63.9161 155.029C63.0055 154.856 63.1269 154.808 62.2526 155.549C60.7903 156.82 59.2761 158.954 57.8225 160.535L51.9179 166.692C51.8787 166.434 51.6813 166.532 51.9394 165.271C52.0528 164.749 52.1831 164.401 52.3169 163.843C52.9191 161.253 52.5532 160.666 53.2599 157.854C53.63 156.399 53.8409 156.075 53.073 155.044C51.8141 154.293 50.4375 156.718 48.7442 157.127C50.3096 153.683 53.6289 149.277 52.3722 145.755C51.5741 143.555 50.8023 146.235 50.2527 147.187C48.7031 149.912 47.5048 152.557 46.2529 155.336C45.0111 158.098 43.033 160.669 45.5596 162.48Z" fill="#262626"/>
<path fill-rule="evenodd" clip-rule="evenodd" d="M65.8337 122.926C67.2249 123.447 68.0174 121.79 68.9617 120.643C70.1318 119.226 70.9559 118.41 72.1985 117.153C74.2171 115.122 76.585 112.893 78.8164 111.267C81.7341 109.145 85.9548 105.823 89.1964 104.687C89.5605 104.544 92.7892 103.471 92.1737 102.786C91.2593 101.765 83.2028 107.008 81.7216 107.986C77.0501 111.07 76.066 111.513 71.5567 116.148C70.4586 117.276 65.878 122.035 65.8337 122.926Z" fill="#262626"/>
<path fill-rule="evenodd" clip-rule="evenodd" d="M130.743 172.27C131.568 171.736 131.939 170.728 132.595 169.673C133.597 168.019 133.685 168.069 133.545 166.602C133.19 162.942 135.658 164.367 136.547 162.013C137.571 159.385 135.991 158.661 138.606 156.574C141.469 154.302 140.12 151.55 139.108 152.61C137.736 154.051 139.865 153.376 138.516 155.183C137.676 156.272 136.638 156.237 136.098 156.889C135.187 157.937 136.284 160.921 134.705 162.313C133.886 163.039 133.127 162.929 132.486 164.04C131.936 164.992 132.22 165.884 132.256 166.962C132.357 169.23 129.656 170.326 130.743 172.27Z" fill="#262626"/>
<path fill-rule="evenodd" clip-rule="evenodd" d="M148.156 141.336C148.426 142.62 149.44 143.346 148.317 144.884C147.522 145.976 146.289 146.321 145.325 147.786C145.197 148.253 146.844 150.896 143.605 153.656C141.788 155.215 141.967 156.494 142.072 159.445C143.036 159.649 142.218 159.6 143.462 159.237C143.566 157.957 142.872 156.758 143.782 155.262C144.988 153.255 145.076 154.975 146.464 151.593C147.309 149.519 146.762 148.31 147.202 147.507C147.765 146.492 149.304 146.065 150.469 144.128C150.058 142.927 150.008 141.019 149.65 140.295C148.817 140.354 148.784 140.453 148.156 141.336Z" fill="#262626"/>
<path fill-rule="evenodd" clip-rule="evenodd" d="M92.5974 125.5C94.4981 125.587 93.8045 123.165 97.7187 117.81C99.0089 116.064 103.845 110.701 103.571 109.18C102.153 108.949 102.463 109.715 100.506 112.087C98.6481 114.328 92.1805 123.332 92.5974 125.5Z" fill="#262626"/>
<path fill-rule="evenodd" clip-rule="evenodd" d="M152.209 164.97C153.101 165.297 152.451 165.039 153.53 165.286C155.833 161.257 155.303 161.727 156.698 158.537C157.185 157.408 157.456 157.306 156.717 156.55C155.053 157.681 155.326 160.588 152.209 164.97Z" fill="#262626"/>
<path fill-rule="evenodd" clip-rule="evenodd" d="M112.006 153.227C113.83 153.693 113.521 152.151 114.585 150.227C115.453 148.683 116.613 147.121 117.317 145.576C115.848 144.987 116.268 145.887 114.633 148.516C113.654 150.089 112.88 151.593 112.006 153.227Z" fill="#262626"/>
<path fill-rule="evenodd" clip-rule="evenodd" d="M145.562 83.6684C146.697 82.2319 149.596 79.6521 149.293 78.184C148.136 78.151 147.437 79.9328 146.285 81.195C143.741 83.9329 144.41 83.2618 145.562 83.6684Z" fill="#262626"/>
<path fill-rule="evenodd" clip-rule="evenodd" d="M165.103 101.156C165.023 101.415 163.934 107.414 163.976 107.626C165.295 107.213 165.035 106.24 165.638 104.543C166.203 103.036 166.429 102.156 165.949 101.033C165.674 101.062 165.33 101.005 165.103 101.156Z" fill="#262626"/>
<path fill-rule="evenodd" clip-rule="evenodd" d="M144.197 80.1307L145.023 80.6544C145.737 80.1501 146.536 78.8485 147.21 78.2507C148.328 77.2509 149.232 77.679 148.789 76.2481C147.275 76.1025 145.186 78.5395 144.197 80.1307Z" fill="#262626"/>
<path fill-rule="evenodd" clip-rule="evenodd" d="M149.471 184.611C151.402 185.256 150.024 184.507 152.053 181.237C152.859 179.963 152.763 180.495 152.757 179.529C152.119 179.536 152.421 179.052 151.614 180.043C151.426 180.288 150.915 181.214 150.759 181.524C150.354 182.348 149.747 183.807 149.471 184.611Z" fill="#262626"/>
<path fill-rule="evenodd" clip-rule="evenodd" d="M114.737 156.19C115.847 155.326 117.367 151.88 117.461 150.618C116.299 150.676 116.449 151.515 115.663 152.917C113.935 156.032 113.812 155.35 114.737 156.19Z" fill="#262626"/>
<path fill-rule="evenodd" clip-rule="evenodd" d="M70.5097 216.838C69.182 216.777 69.3737 217.381 68.4931 218.988C67.7142 220.418 67.2835 220.757 67.6798 221.902C68.929 221.448 68.4625 221.32 69.2394 219.771C69.8304 218.585 70.4822 217.903 70.5097 216.838Z" fill="#262626"/>
<path fill-rule="evenodd" clip-rule="evenodd" d="M97.96 124.271C98.6637 122.726 99.8921 121.25 99.3799 120.061C98.2928 120.397 98.3319 121.265 97.5733 122.661C96.5428 124.486 96.2342 124.614 97.96 124.271Z" fill="#262626"/>
<path fill-rule="evenodd" clip-rule="evenodd" d="M87.9625 156.079C89.3281 156.115 88.8935 156.217 89.6982 154.66C90.2864 153.519 90.5672 153.4 90.4556 152.372C89.4487 152.284 89.3306 152.733 88.758 153.765C88.1141 154.921 87.9316 155.074 87.9625 156.079Z" fill="#262626"/>
<path fill-rule="evenodd" clip-rule="evenodd" d="M85.0123 208.735C86.5351 209.191 86.1066 209.038 86.8448 207.678C87.4303 206.582 88.0603 206.264 88.1203 205.265C87.4016 205.085 88.2114 204.66 87.2368 205.248C86.7078 205.554 85.3407 208.126 85.0123 208.735Z" fill="#262626"/>
<path fill-rule="evenodd" clip-rule="evenodd" d="M151.936 186.364C152.863 186.265 153.091 185.503 153.891 184.037C154.537 182.836 154.869 182.464 154.546 181.478C153.746 181.886 152.048 185.112 151.936 186.364Z" fill="#262626"/>
<path fill-rule="evenodd" clip-rule="evenodd" d="M89.8059 158.343C90.9362 158.502 91.483 157.595 91.752 156.152C91.9224 155.287 91.8552 155.648 91.658 155.135C90.5107 155.412 89.6849 157.168 89.8059 158.343Z" fill="#262626"/>
<path fill-rule="evenodd" clip-rule="evenodd" d="M115.972 160.076C116.621 159.44 118.067 156.162 118.092 155.142C117.728 155.284 118.082 154.549 117.235 155.893L115.818 158.836C115.222 160.56 115.533 159.493 115.972 160.076Z" fill="#262626"/>
<path fill-rule="evenodd" clip-rule="evenodd" d="M84.4833 223.002C85.6963 223.303 86.2084 222.823 87.092 220.56C86.1285 220.356 86.1876 220.132 85.499 221.121C85.2195 221.524 84.7581 222.527 84.4833 223.002Z" fill="#262626"/>
<path fill-rule="evenodd" clip-rule="evenodd" d="M71.9391 219.004C71.1189 220.058 69.9288 222.567 70.5075 223.559C71.3257 222.386 72.4649 219.965 71.9391 219.004Z" fill="#262626"/>
<path fill-rule="evenodd" clip-rule="evenodd" d="M146.006 84.9356C147.051 84.9983 147.01 85.0688 147.681 84.0695C148.192 83.3069 148.568 82.6547 148.731 81.7617C147.745 81.6387 146.76 83.914 146.006 84.9356Z" fill="#262626"/>
<path fill-rule="evenodd" clip-rule="evenodd" d="M166.45 64.4229C165.548 64.5603 165.928 64.3095 165.207 65.2328C166.201 65.8305 165.551 65.5726 166.553 65.5872C166.785 65.2272 166.766 65.5452 166.836 64.975C166.849 64.9119 166.851 64.5837 166.846 64.5105L166.778 63.9775C167.609 63.7995 167.401 64.0787 167.94 63.1445L167.244 62.4371C166.882 62.698 166.665 62.6668 166.516 63.3326C166.492 63.4133 166.497 63.4865 166.492 63.5774C166.479 63.6404 166.481 63.7591 166.468 63.8221C166.462 63.913 166.454 64.0493 166.459 64.1225C166.464 64.1958 166.456 64.332 166.45 64.4229Z" fill="#262626"/>
<path fill-rule="evenodd" clip-rule="evenodd" d="M170.066 65.4059L169.704 66.7246C170.618 66.6883 170.608 66.7059 171.331 65.9013C172.079 66.8034 172.523 66.8483 173.188 65.493C172.143 64.9834 172.457 65.3761 171.82 65.5021C170.675 65.7343 171.119 65.3323 170.066 65.4059Z" fill="#262626"/>
<path fill-rule="evenodd" clip-rule="evenodd" d="M58.33 134.905C59.5952 135.401 60.8605 133.006 60.5171 131.891C59.7304 132.236 59.9678 132.232 59.3294 133.297C58.7825 134.203 58.5961 134.119 58.33 134.905Z" fill="#262626"/>
<path fill-rule="evenodd" clip-rule="evenodd" d="M88.3916 210.005C88.9201 209.253 90.4673 207.631 90.3016 206.29C89.2553 206.555 89.6798 206.471 89.2102 207.61C88.6924 208.792 88.2265 209.111 88.3916 210.005Z" fill="#262626"/>
<path fill-rule="evenodd" clip-rule="evenodd" d="M99.7421 126.64C100.496 126.393 100.485 126.411 101.068 125.361C101.559 124.469 101.725 124.142 101.301 123.451C100.676 124.453 99.7437 125.701 99.7421 126.64Z" fill="#262626"/>
<path fill-rule="evenodd" clip-rule="evenodd" d="M162.549 70.9374C163.311 71.0013 163.42 70.8529 164.175 70.2781L163.989 69.583C162.79 69.502 162.335 69.6388 162.549 70.9374Z" fill="#262626"/>
<path fill-rule="evenodd" clip-rule="evenodd" d="M167.309 68.3513C167.16 69.464 167.07 68.8476 167.44 69.6722C168.246 69.4562 168.367 69.5729 168.916 68.621C168.166 68.0471 167.898 68.104 167.309 68.3513Z" fill="#262626"/>
<path fill-rule="evenodd" clip-rule="evenodd" d="M172.902 88.3382C172.991 87.1672 173.204 88.0189 172.137 87.2618C171.718 87.7018 170.981 88.8977 172.172 88.9509C172.553 88.9829 172.865 88.8101 172.902 88.3382Z" fill="#262626"/>
<path fill-rule="evenodd" clip-rule="evenodd" d="M169.778 82.514C170.632 82.4193 170.659 82.4119 171.31 81.4478C169.876 80.2675 169.489 81.5483 169.778 82.514Z" fill="#262626"/>
<path fill-rule="evenodd" clip-rule="evenodd" d="M168.032 77.1123C168.381 76.9144 167.972 77.5008 168.625 76.6554C168.95 76.2555 168.856 76.2955 169.083 75.8622C167.551 75.0955 166.82 76.0365 168.032 77.1123Z" fill="#262626"/>
<path fill-rule="evenodd" clip-rule="evenodd" d="M160.446 67.3726C161.088 67.7668 161.211 68.0021 161.78 67.626C162.636 67.039 161.893 66.6571 161.584 66.3376C160.853 66.6676 161.013 66.431 160.446 67.3726Z" fill="#262626"/>
<path fill-rule="evenodd" clip-rule="evenodd" d="M165.662 97.9067L165.328 96.9384C165.096 97.0156 165.062 96.667 164.428 97.3585C163.509 98.3793 164.558 98.8435 165.662 97.9067Z" fill="#262626"/>
<path fill-rule="evenodd" clip-rule="evenodd" d="M91.0202 162.099C91.0524 161.107 91.0451 162.748 92.1856 160.61C92.5065 159.972 92.6626 159.498 92.7381 159.001C91.8929 160.017 90.8064 160.8 91.0202 162.099Z" fill="#262626"/>
<path fill-rule="evenodd" clip-rule="evenodd" d="M163.701 75.9025C163.691 76.9779 163.476 76.0075 163.903 76.9359L165.053 76.7769L165.108 75.7043C164.286 75.5819 164.24 75.5792 163.701 75.9025Z" fill="#262626"/>
<path fill-rule="evenodd" clip-rule="evenodd" d="M164.448 74.2431C165.386 74.4088 165.654 74.352 166.247 73.8951L165.867 73.0881C164.904 73.1671 164.791 73.2424 164.448 74.2431Z" fill="#262626"/>
<path fill-rule="evenodd" clip-rule="evenodd" d="M152.278 68.2507L152.497 69.0116C153.648 69.1354 153.852 68.6187 153.596 67.7188C153.25 67.7072 153.422 67.5717 153.003 67.7288C152.489 67.926 152.724 67.8033 152.278 68.2507Z" fill="#262626"/>
<path fill-rule="evenodd" clip-rule="evenodd" d="M169.498 73.9619C170.495 74.5141 170.121 74.5099 170.983 73.8321C170.983 73.8321 170.961 72.9737 170.242 72.9579C169.55 72.9346 169.54 73.5632 169.498 73.9619Z" fill="#262626"/>
<path fill-rule="evenodd" clip-rule="evenodd" d="M169.995 84.9897C168.994 85.7047 169.697 85.5463 169.645 85.7985L170.755 86.1569C171.071 85.4463 171.181 85.5806 170.93 84.754C170.7 84.7858 170.119 84.8968 169.995 84.9897Z" fill="#262626"/>
<path fill-rule="evenodd" clip-rule="evenodd" d="M170.295 71.3197C171.193 71.3919 171.138 71.4068 171.819 70.8367C171.361 69.3502 170.359 69.9466 170.295 71.3197Z" fill="#262626"/>
<path fill-rule="evenodd" clip-rule="evenodd" d="M149.735 70.2142C150.612 69.8747 150.205 70.133 150.83 69.131C150.127 68.8426 149.896 68.5916 149.416 69.1373C148.889 69.7257 149.345 69.8716 149.735 70.2142Z" fill="#262626"/>
<path fill-rule="evenodd" clip-rule="evenodd" d="M165.947 96.9656C166.966 97.1544 166.962 96.9171 167.416 96.4975C167.213 95.6282 167.725 96.2061 166.887 95.7454C166.098 95.9716 165.897 95.8319 165.947 96.9656Z" fill="#262626"/>
<path fill-rule="evenodd" clip-rule="evenodd" d="M157.126 69.6628L157.501 70.5607C158.482 70.1636 158.454 70.3352 158.592 69.2401C157.67 68.9659 157.824 68.9842 157.126 69.6628Z" fill="#262626"/>
<path fill-rule="evenodd" clip-rule="evenodd" d="M145.162 69.6652C146.617 70.1993 146.911 69.4054 145.87 68.3581C145.171 68.918 145.134 68.6149 145.162 69.6652Z" fill="#262626"/>
<path fill-rule="evenodd" clip-rule="evenodd" d="M159.319 73.3962C160.367 73.6963 160.606 73.975 160.785 72.8095C160.76 72.7715 160.737 72.2413 160.007 72.4071C159.294 72.5832 159.496 72.723 159.319 73.3962Z" fill="#262626"/>
<path fill-rule="evenodd" clip-rule="evenodd" d="M61.5859 129.428C61.7575 129.457 62.541 130.379 62.9234 128.414C60.9836 128.07 61.5819 129.191 61.5859 129.428Z" fill="#262626"/>
<path fill-rule="evenodd" clip-rule="evenodd" d="M169.845 76.5356C170.819 77.1685 171.001 77.1794 171.576 76.1015C170.673 75.5092 170.352 75.5356 169.845 76.5356Z" fill="#262626"/>
<path fill-rule="evenodd" clip-rule="evenodd" d="M63.9971 127.084C64.8868 126.846 64.72 126.89 65.277 125.966C63.9136 125.438 63.4395 125.892 63.9971 127.084Z" fill="#262626"/>
<path fill-rule="evenodd" clip-rule="evenodd" d="M164.024 66.7124C163.497 67.7477 163.578 66.9957 163.912 67.9641C163.912 67.9641 164.944 68.0899 165.041 67.3935C165.091 66.8585 164.562 66.5532 164.024 66.7124Z" fill="#262626"/>
<path fill-rule="evenodd" clip-rule="evenodd" d="M172.298 68.9517C173.158 69.0489 173.271 69.3019 173.512 68.3133C173.512 68.3133 173.497 67.1999 172.573 67.8648C172.211 68.1258 172.301 68.7422 172.298 68.9517Z" fill="#262626"/>
<path fill-rule="evenodd" clip-rule="evenodd" d="M172.082 82.1054C172.1 82.1156 171.877 82.7862 172.84 82.543C173.608 82.3521 173.408 82.0482 173.48 81.5967C172.575 81.3326 172.334 81.0993 172.082 82.1054Z" fill="#262626"/>
<path fill-rule="evenodd" clip-rule="evenodd" d="M172.859 74.1648C173.695 74.224 173.806 74.1942 174.385 73.3536C173.116 72.6209 172.82 72.8493 172.859 74.1648Z" fill="#262626"/>
<path fill-rule="evenodd" clip-rule="evenodd" d="M173.494 76.647C173.494 76.647 172.555 76.1985 173.207 77.7969C173.986 77.8711 173.979 77.8433 174.406 77.103C173.627 76.2538 174.239 76.7008 173.494 76.647Z" fill="#262626"/>
<path fill-rule="evenodd" clip-rule="evenodd" d="M163.209 64.5035C163.966 63.8833 163.929 64.1911 163.891 63.1584C163.412 63.0931 163.203 62.9256 162.85 63.333C162.292 63.9743 162.811 64.1331 163.209 64.5035Z" fill="#262626"/>
<path fill-rule="evenodd" clip-rule="evenodd" d="M157.873 66.4992C159.339 67.7453 159.531 66.5167 158.982 65.6357C158.287 65.822 158.344 65.643 157.873 66.4992Z" fill="#262626"/>
<path fill-rule="evenodd" clip-rule="evenodd" d="M155.303 69.1987C156.585 69.8683 156.782 69.3239 156.658 68.1949C155.792 68.3526 155.841 67.9817 155.303 69.1987Z" fill="#262626"/>
<path fill-rule="evenodd" clip-rule="evenodd" d="M154.832 71.7228C156.058 71.9605 155.288 72.0328 156.103 71.5164C156.219 70.3379 156.34 71.0655 155.827 70.4876C155.006 70.8122 154.98 70.9383 154.832 71.7228Z" fill="#262626"/>
<path fill-rule="evenodd" clip-rule="evenodd" d="M166.562 72.9026C167.386 72.6967 167.324 72.8025 167.647 71.837C166.193 71.3029 165.946 71.7713 166.562 72.9026Z" fill="#262626"/>
<path fill-rule="evenodd" clip-rule="evenodd" d="M150.381 171.552C151.306 171.334 151.197 171.482 151.459 170.458C150.788 170.236 150.739 169.996 150.343 170.519C149.957 171.025 150.374 171.524 150.381 171.552Z" fill="#262626"/>
<path fill-rule="evenodd" clip-rule="evenodd" d="M170.315 77.9596C169.622 78.4286 169.749 78.1262 169.715 78.9996C170.655 79.284 170.931 79.2549 171.136 78.4101L170.315 77.9596Z" fill="#262626"/>
<path fill-rule="evenodd" clip-rule="evenodd" d="M149.764 68.2089C150.504 68.1895 150.002 68.6518 150.859 67.9008C151.773 67.0894 150.994 66.8511 150.987 66.8233C150.073 67.3065 150.296 67.2469 149.764 68.2089Z" fill="#262626"/>
<path fill-rule="evenodd" clip-rule="evenodd" d="M165.569 79.2621L165.982 79.9709C166.718 79.7141 166.906 79.9169 166.984 78.9276C166.071 78.6358 166.342 78.5335 165.569 79.2621Z" fill="#262626"/>
<path fill-rule="evenodd" clip-rule="evenodd" d="M155.755 65.3227L156.724 66.0465L157.058 64.7352C156.216 64.4841 156.265 64.2773 155.755 65.3227Z" fill="#262626"/>
<path fill-rule="evenodd" clip-rule="evenodd" d="M173.939 71.0743C174.098 71.0018 174.621 71.5621 174.976 69.8874C173.205 69.6169 173.934 71.0011 173.939 71.0743Z" fill="#262626"/>
<path fill-rule="evenodd" clip-rule="evenodd" d="M151.714 169.244C153.629 169.104 152.62 168.286 152.62 168.286C152.002 168.258 152.648 167.668 151.92 168.399C150.941 169.362 151.675 168.987 151.714 169.244Z" fill="#262626"/>
<path fill-rule="evenodd" clip-rule="evenodd" d="M174.963 34.0103C176.352 34.8282 177.759 35.2607 179.164 36.0367C178.964 36.2332 178.354 36.5922 178.391 37.1511C178.445 37.9258 179.848 37.783 179.583 37.1046C179.449 37.0505 179.407 37.0618 179.292 37.1301L179.344 37.1838C179.378 37.2349 179.423 37.2453 179.381 37.3517C179.245 37.7115 178.355 37.3913 178.686 36.7763C179.095 36.0203 179.437 36.1942 180.163 36.5935C180.363 36.7052 180.581 36.8072 180.77 36.932C181.17 37.1983 180.856 37.1872 181.165 37.3299L184.476 35.0245C184.638 35.0035 185.476 35.1949 184.721 36.2092C184.075 36.2394 184.442 36.1035 184.168 35.8862C184.007 36.0146 184.011 36.0209 184.122 36.1917C184.252 36.385 184.54 36.4606 184.761 36.3588C185.16 36.1666 185.637 35.1294 184.742 34.8579C184.906 34.6485 185.813 33.9822 186.043 33.8227C186.092 34.1078 186.019 34.7537 186.01 35.072L186.034 37.5286C186.05 37.9176 186.008 38.3398 186.04 38.7221C186.052 38.8593 186.074 38.9112 186.086 39.0331C186.106 39.2182 186.071 39.1824 186.07 39.328L186.307 39.8008C186.433 39.9172 186.688 40.0368 186.88 40.191C187.836 40.9522 188.738 41.7378 189.72 42.4469C189.534 42.6444 188.99 42.8954 189.158 43.3165C189.241 43.5223 189.596 43.6954 189.821 43.6001L189.933 43.432C189.744 43.2749 189.644 43.5496 189.374 43.2236C189.389 42.8887 189.703 42.6192 189.969 42.6858C190.233 42.7553 191.912 44.0093 192.227 44.3334L192.355 44.5021C192.165 44.6057 192.135 44.5686 191.93 44.6008C191.76 44.6289 191.663 44.6798 191.53 44.7255C191.267 44.8186 190.984 44.8093 190.693 44.847C189.776 44.9576 188.164 45.209 187.331 45.139C186.611 45.0789 186.677 45.0538 186.015 45.0984C185.812 45.1076 185.754 45.0229 185.603 45.0108C185.29 45.4581 184.993 46.3619 184.718 46.8867C184.374 47.5501 184.061 48.1477 183.686 48.8045C183.309 49.4567 182.9 50.1099 182.559 50.7826C182.238 51.415 181.981 52.0176 181.621 52.6677C181.495 52.4485 181.075 50.4037 181.052 50.1416C181.588 49.5343 182.32 49.842 182.052 50.49C182.038 50.4937 182.02 50.4987 182.01 50.5012C181.836 50.5429 181.718 50.5496 181.569 50.6695C181.847 50.723 182.042 50.6933 182.272 50.609C182.519 49.8739 182.109 49.4475 181.439 49.6296C181.273 49.6764 181.133 49.8367 180.977 49.881C180.942 49.6274 180.928 49.4257 180.88 49.1529C180.831 48.8878 180.769 48.7215 180.746 48.4671C180.701 47.9982 180.6 47.549 180.578 47.0615C180.556 46.5311 180.527 46.0878 180.494 45.5981C180.434 44.6944 180.411 45.0288 180.267 44.5739C180.217 44.4145 180.275 44.3812 180.291 44.2165C180.063 44.1323 179.926 44.2468 179.717 44.2879L177.02 45.0354C176.657 45.1301 176.302 45.1778 175.926 45.2734C175.57 45.3639 174.615 45.5596 174.265 45.5631C173.5 45.5678 172.118 46.0707 171.434 45.9284L175.17 42.4692C175.745 41.9793 176.219 41.4464 176.748 40.9338C176.979 40.7115 177.044 40.5989 177.078 40.2866C177.102 40.0396 177.111 40.1475 176.998 39.9873C176.867 39.797 176.656 39.2445 176.749 39.0293C176.979 38.4941 177.826 38.4775 177.829 39.0404C177.83 39.1355 177.795 39.3052 177.702 39.4054C177.595 39.5217 177.695 39.4173 177.536 39.5074C177.424 39.5651 177.56 39.4107 177.426 39.5821C177.72 39.6887 177.867 39.6668 178.003 39.3146C178.296 38.567 177.396 38.1694 176.89 38.593C176.78 38.6876 176.706 38.7675 176.579 38.7891C176.564 38.5903 176.491 38.3667 176.432 38.1821C176.363 37.9725 176.314 37.7902 176.25 37.5793C176.115 37.1418 175.98 36.7948 175.847 36.382C175.638 35.7514 175.393 35.223 175.138 34.6173C175.08 34.485 175.078 34.4405 175.034 34.3197C174.98 34.1861 174.948 34.1597 174.963 34.0103ZM186.068 33.1219C185.934 33.4435 185.245 33.8837 184.95 34.093C184.542 34.3828 184.125 34.7151 183.721 35.0236C182.915 35.6407 182.049 36.196 181.251 36.7431C180.778 36.589 179.206 35.5945 178.399 35.1995C178.044 35.0264 177.725 34.9091 177.401 34.7501C176.818 34.4605 176.099 34.1521 175.474 33.8784C174.434 33.4204 173.798 32.4406 175.125 35.6332L176.022 38.3646C176.06 38.4972 176.122 38.6159 176.156 38.7621L176.586 40.3659C176.529 40.5541 173.918 42.94 173.725 43.117C173.262 43.5416 172.796 44.1025 172.317 44.4939C171.723 44.9765 171.419 45.331 170.857 45.7972C170.876 45.9301 170.894 46.0831 170.891 46.2117C171.321 46.3019 170.813 46.4907 171.876 46.5039L173.401 46.2581C173.574 46.2194 173.755 46.1735 173.956 46.1595C174.551 46.1155 174.448 46.1431 175.069 45.9917C175.253 45.9475 175.43 45.9627 175.626 45.9101L177.225 45.5292C177.422 45.4766 177.543 45.424 177.764 45.3698L178.851 45.1085C179.021 45.0681 179.218 44.9802 179.388 44.9521C179.486 44.9334 179.565 44.9397 179.668 44.9122C179.89 44.8503 179.717 44.8139 179.962 44.8562C180.105 45.1684 180.121 46.6752 180.133 47.0026C180.168 47.7975 180.53 49.8281 180.735 50.6425C180.85 51.1079 181.274 53.0088 181.238 53.2566C181.398 53.2938 181.259 53.2409 181.362 53.2732C181.37 53.2737 181.384 53.2776 181.393 53.2827C181.4 53.2832 181.412 53.29 181.421 53.2952C181.427 53.2986 181.44 53.3101 181.448 53.3106C181.457 53.3157 181.467 53.3255 181.476 53.3306C181.547 53.3641 181.527 53.3644 181.605 53.366C181.725 53.3717 181.712 53.3525 181.752 53.3442C182.115 52.7434 182.488 52.0496 182.761 51.4327C183.313 50.1823 184.434 48.6792 184.926 47.5249L185.592 46.1188C185.624 46.0425 185.673 45.9366 185.711 45.8637C185.718 45.8519 185.784 45.7316 185.784 45.7316C185.995 45.4345 186.399 45.6443 186.816 45.6279C186.991 45.6185 187.096 45.6356 187.288 45.6394L188.441 45.6135C188.82 45.6071 189.171 45.5331 189.617 45.5614C189.964 45.5838 190.19 45.4655 190.529 45.4475C191.401 45.4017 191.225 45.2608 191.872 45.1877C192.079 45.1648 192.139 45.081 192.301 45.0402C192.58 44.968 192.582 45.1229 192.903 44.7312C193.11 44.4753 193.005 44.5534 192.987 44.4955C192.911 44.2579 190.321 42.3634 189.862 42.043C188.92 41.3807 187.429 39.9862 186.808 39.6315C186.498 39.4565 186.543 39.1862 186.521 38.9165L186.511 34.3538C186.666 33.3602 186.279 33.7295 186.381 33.1284L186.068 33.1219Z" fill="#262626"/>
<path fill-rule="evenodd" clip-rule="evenodd" d="M178.707 42.7024L178.491 42.8581C178.68 42.9201 178.624 42.8599 178.758 43.0244L178.565 43.4621C177.654 43.5684 177.434 42.6076 178.241 42.038C178.396 41.9338 178.515 41.8443 178.698 41.9857C178.718 42.0053 179.037 42.4185 178.954 42.0348C178.822 41.4488 177.798 41.8458 177.564 42.6277C177.484 42.8973 177.552 43.3201 177.788 43.4799C177.944 43.5859 178.449 43.8339 178.72 43.5558C178.791 43.4818 178.9 43.1694 178.911 43.0888C178.932 42.9428 178.846 42.818 178.707 42.7024Z" fill="#262626"/>
<path fill-rule="evenodd" clip-rule="evenodd" d="M182.109 41.7324C182.334 41.7674 182.193 41.7451 182.311 41.6832C182.417 41.6297 182.443 41.6052 182.53 41.5644C183.033 41.8032 183.041 41.9187 182.952 42.3734C182.859 42.8493 182.755 42.975 182.403 43.2145C181.725 42.9453 182.079 42.9206 182.08 42.5695C181.98 42.5512 181.999 42.471 181.878 42.6739C181.847 42.7272 181.815 42.8511 181.823 42.9267C181.872 43.3896 182.987 43.8476 183.207 42.1173C183.296 41.4218 182.193 41.0934 182.109 41.7324Z" fill="#262626"/>
<path fill-rule="evenodd" clip-rule="evenodd" d="M181.847 37.9288C182.081 37.9536 182.178 37.642 182.451 38.0126C182.568 38.1715 182.657 38.4758 182.633 38.6553C182.549 39.279 181.992 39.6289 181.469 39.1851C181.473 38.9936 181.544 39.0347 181.479 38.8667C181.308 38.8625 181.436 38.8181 181.274 38.9617C181.261 39.3136 181.612 39.623 182.003 39.5683C182.707 39.4648 183.12 38.5649 182.645 37.8954C182.456 37.6326 182.277 37.5529 182.009 37.71C182.002 37.7142 181.897 37.8 181.897 37.8L181.847 37.9288Z" fill="#262626"/>
<path fill-rule="evenodd" clip-rule="evenodd" d="M185.297 38.3125C184.986 38.208 185.019 38.4369 184.761 38.426C184.028 38.402 184.312 37.1983 184.917 37.0737C185.259 37.0022 185.256 37.2611 185.481 36.9802C184.509 36.4388 183.454 38.0946 184.531 38.6254C184.88 38.7951 185.258 38.4558 185.297 38.3125Z" fill="#262626"/>
<path fill-rule="evenodd" clip-rule="evenodd" d="M182.634 48.6874C182.599 48.6792 181.941 48.813 182.089 48.207C182.181 47.8291 182.575 47.6457 182.824 47.6116C183.469 47.8773 183.103 48.0255 183.274 48.318C183.773 48.2268 183.07 46.8566 182.196 47.6997C181.164 48.7004 182.667 49.3626 182.634 48.6874Z" fill="#262626"/>
<path fill-rule="evenodd" clip-rule="evenodd" d="M179.595 39.9457L179.455 40.0185C179.462 40.1569 179.443 40.004 179.513 40.1707L179.567 40.309C179.182 40.8532 178.18 40.1245 179 39.3334C179.282 39.065 179.259 39.194 179.58 39.3283C179.742 38.9868 179.272 38.8973 178.926 39.1679C178.006 39.8855 178.64 40.7854 179.297 40.6945C179.707 40.6348 179.777 40.2203 179.595 39.9457Z" fill="#262626"/>
<path fill-rule="evenodd" clip-rule="evenodd" d="M175.903 36.0583C176.178 36.0947 176.129 35.8372 176.32 35.7935C176.785 35.6865 177.664 36.3005 177.023 37.0886C176.591 37.0013 176.754 36.9252 176.609 36.7386L176.409 36.8723C176.616 37.15 176.995 37.3843 177.246 37.1065C177.551 36.7691 177.529 35.6652 176.551 35.5988C176.069 35.5652 175.843 35.8262 175.903 36.0583Z" fill="#262626"/>
<path fill-rule="evenodd" clip-rule="evenodd" d="M185.587 41.2458C185.183 41.2737 185.442 41.4349 185.134 41.4348C184.75 41.4424 184.308 40.9696 184.891 40.5001C185.057 40.3705 185.222 40.2562 185.417 40.2664C185.77 40.2922 185.586 40.4744 185.858 40.3788C185.752 39.7483 184.476 40.2682 184.38 40.9402C184.345 41.1927 184.546 41.5498 184.913 41.6393C185.171 41.7054 185.597 41.5562 185.587 41.2458Z" fill="#262626"/>
<path fill-rule="evenodd" clip-rule="evenodd" d="M182.109 44.9779C182.353 44.9926 182.254 44.706 182.527 45.0061C182.949 45.4669 182.063 46.8996 181.576 45.8874C181.733 45.5672 181.89 45.6855 181.89 45.4524C180.922 45.6442 181.701 46.9163 182.466 46.1801C182.985 45.6776 182.869 44.887 182.503 44.7194C182.321 44.6379 182.124 44.7534 182.109 44.9779Z" fill="#262626"/>
<path fill-rule="evenodd" clip-rule="evenodd" d="M187.438 42.8882C187.186 42.7704 187.07 43.2173 186.607 42.7326C186.655 42.3613 186.854 42.1202 187.158 42.0511C187.747 41.9208 187.641 42.3453 187.949 42.1875C187.937 41.6822 186.9 41.7043 186.511 42.3297C186.289 42.6874 186.339 42.9496 186.728 43.1186C186.933 43.2091 186.994 43.1775 187.157 43.129C187.342 43.0742 187.439 43.1184 187.438 42.8882Z" fill="#262626"/>
<path fill-rule="evenodd" clip-rule="evenodd" d="M176.131 43.3635C175.901 43.5781 176.169 43.7368 175.752 43.836C175.305 43.7678 175.205 43.4413 175.514 43.078C175.92 42.5932 176.224 42.84 176.365 42.8623L176.424 42.7339C176.133 42.3331 175.054 42.9231 175.117 43.5326C175.141 43.7917 175.448 44.0677 175.779 44.0416C175.914 44.0282 176.042 43.9562 176.137 43.8055C176.336 43.5015 176.208 43.4232 176.131 43.3635Z" fill="#262626"/>
<path fill-rule="evenodd" clip-rule="evenodd" d="M174.195 44.2384C174.258 44.3418 174.676 44.4405 174.679 44.6952C174.534 45.0898 174.294 45.1766 174.052 45.294L173.64 45.0914C173.647 44.8863 173.709 44.9575 173.651 44.8053L173.419 44.9876C173.708 45.5141 174.176 45.6418 174.655 45.14C175.366 44.3883 174.279 43.8753 174.195 44.2384Z" fill="#262626"/>
<path fill-rule="evenodd" clip-rule="evenodd" d="M185.401 44.0397C185.401 44.0397 184.397 44.1482 184.818 43.4067C184.929 43.2064 185.092 43.0751 185.265 43.0839C185.556 43.106 185.542 43.418 185.743 43.1387C185.257 42.2967 183.856 43.7369 184.837 44.216C184.895 44.2455 185.496 44.415 185.401 44.0397Z" fill="#262626"/>
<path fill-rule="evenodd" clip-rule="evenodd" d="M187.928 43.9461L188.006 44.078C188.155 44.0256 188.238 43.8957 188.397 43.8531C188.75 43.7561 189.114 44.1169 188.783 44.4712C188.601 44.6704 188.484 44.5238 188.335 44.5363C188.332 44.7049 188.373 44.7165 188.56 44.8243C188.694 44.7557 188.951 44.6469 189.049 44.4826C189.42 43.8546 188.649 43.2042 187.928 43.9461Z" fill="#262626"/>
<path fill-rule="evenodd" clip-rule="evenodd" d="M180.693 42.4327C180.27 42.2877 180.303 42.239 180.154 41.9357C180.344 41.5714 180.427 41.4966 180.718 41.396C180.896 41.4911 180.901 41.5726 181.063 41.5241C181.014 40.828 179.514 41.586 180.138 42.3258C180.294 42.5145 180.587 42.7591 180.693 42.4327Z" fill="#262626"/>
<path fill-rule="evenodd" clip-rule="evenodd" d="M190.094 44.4333C190.385 44.4431 190.25 44.2387 190.513 44.0429C190.714 43.8939 190.861 43.9947 190.942 44.2112C190.926 44.0876 190.958 44.1892 191.002 44.1474C191.094 44.0578 191.051 44.0015 191.039 43.872C190.487 43.5138 190.111 44.1506 190.094 44.4333Z" fill="#262626"/>
</svg>
