<svg width="134" height="277" viewBox="0 0 134 277" fill="none" xmlns="http://www.w3.org/2000/svg">
<mask id="mask0_599_6512" style="mask-type:luminance" maskUnits="userSpaceOnUse" x="55" y="89" width="24" height="24">
<path d="M55.8711 89.6758H78.8769V112.682H55.8711V89.6758Z" fill="white"/>
</mask>
<g mask="url(#mask0_599_6512)">
<path d="M71.099 107.708C68.3888 106.246 67.3898 102.889 68.8683 100.209C68.967 100.03 69.0744 99.8586 69.1897 99.6947C68.4841 101.386 68.6902 103.268 69.6321 104.747C69.24 103.284 69.8561 101.365 72.2615 100.922C74.7344 100.467 77.5749 101.905 76.973 103.303C76.973 103.303 81.1246 100.713 76.8098 98.7954C76.23 98.5377 75.6485 98.3067 75.0129 98.2927C74.016 98.27 73.8012 97.577 72.4455 97.1006C72.4455 97.1006 74.6029 96.9442 75.696 98.2597C77.4887 96.7247 73.6439 93.8914 71.1402 93.298C69.1185 92.8192 67.3769 92.8933 66.4075 92.8595C65.8755 92.841 65.5871 92.6458 65.5871 92.6458C65.8289 93.8 67.6008 94.255 67.6008 94.255C62.1647 94.5004 60.5172 99.7536 60.5172 99.7536C61.1503 98.97 62.8956 98.3507 62.8956 98.3507C61.0038 100.442 60.0589 102.534 59.599 104.257C59.283 103.287 59.1115 102.253 59.1115 101.178C59.1115 95.6434 63.6856 91.1301 69.2833 91.1416C72.8151 91.1491 75.9228 92.9402 77.7352 95.6521C75.7584 92.0903 71.9302 89.6758 67.5309 89.6758C61.1037 89.6758 55.8719 94.8718 55.8985 101.227C55.9189 106.11 59.017 110.275 63.3739 111.924C61.5657 108.687 61.4883 104.857 62.9705 101.62C61.8621 104.687 62.2821 108.229 64.407 111.029C64.8391 111.598 65.3202 112.108 65.8405 112.56C66.3925 112.639 66.9569 112.681 67.5309 112.681C68.589 112.681 69.6138 112.541 70.5878 112.279C68.671 110.254 67.568 107.61 67.4556 104.869C67.8015 107.648 69.3154 110.239 71.7471 111.902C74.2628 110.934 76.3532 109.126 77.6669 106.826C75.9557 108.466 73.3009 108.896 71.099 107.708Z" fill="#262626"/>
</g>
<path fill-rule="evenodd" clip-rule="evenodd" d="M61.5108 182.9C62.4131 182.9 63.3374 182.878 64.2396 182.9C68.1788 182.922 66.9464 183.803 67.1665 192.473C67.4306 201.584 70.7316 201.65 63.5354 201.606C63.5574 198.569 61.4888 190.229 61.5108 182.9ZM75.3969 201.782C75.1108 195.422 75.3089 189.282 75.1329 182.856L82.0869 182.658C82.571 185.651 80.9426 191.307 80.6565 194.454C80.0623 201.254 80.6565 201.672 78.918 201.848C78.1697 201.936 76.1892 201.87 75.3969 201.782ZM86.8183 201.386L81.3607 201.694C81.7788 198.481 81.6688 195.092 82.1969 191.901C82.7251 188.71 83.0992 185.717 83.6934 182.658L88.8429 182.372C88.6889 188.996 86.8843 194.63 86.8183 201.386ZM68.1568 183.055C69.7633 182.945 72.25 182.746 73.4163 183.231C74.2746 184.771 74.0325 199.185 73.7024 201.87L69.4992 201.584C68.861 195.554 68.1788 189.172 68.1568 183.055ZM98.2397 200.77H94.6746C94.6526 192.407 96.9633 186.818 97.3154 181.58L101.123 181.382C100.902 188.006 98.8779 194.432 98.2397 200.77ZM37.7218 181.69L43.3115 181.954L45.6001 192.231C46.1283 194.542 47.9108 201.056 47.9108 202.508L43.3555 202.574L42.3432 200.264C40.9788 195.642 37.8098 185.651 37.7218 181.69ZM52.7302 182.548L59.9264 182.79L61.8849 201.188C61.8189 201.232 61.7089 201.188 61.6649 201.276L55.6571 201.914C55.6791 200.352 54.3587 195.84 54.0066 192.451C53.6545 188.996 53.2364 185.871 52.7302 182.548ZM44.8959 182.196C45.9302 182.218 50.4636 182.13 51.1238 182.768C52.3121 183.935 52.8183 194.322 53.3684 197.139C53.6765 198.767 54.2267 200.418 54.0506 202.156L49.3192 202.442C49.4293 199.845 46.3924 191.219 45.7542 187.698C45.4461 185.981 45.27 183.957 44.8959 182.196ZM31.1419 181.822L36.1153 181.734C37.2597 184.507 38.6241 192.583 39.9665 197.491C40.5166 199.471 41.2428 200.638 41.617 202.728H36.6875C34.927 198.195 31.714 187.104 31.1419 181.822ZM93.1342 200.858L88.2047 201.276C88.3147 194.52 89.7892 188.93 90.1853 182.24L95.929 181.822C94.8507 190.053 94.0364 189.855 93.1342 200.858ZM27.9949 148.79C27.7969 146.436 27.8849 138.821 28.259 136.621C29.1833 131.515 28.9192 121.898 30.6357 113.58C30.9438 112.062 31.494 110.323 31.8901 108.673C33.8046 100.354 36.4234 92.3218 38.6021 83.7612C40.2966 77.0052 43.3335 71.5036 45.6441 65.3858C46.6344 62.723 48.2409 63.1191 53.1704 60.4784C54.8869 59.5761 60.3445 57.3314 62.259 56.8693C70.6215 54.8667 80.9646 58.5858 85.2338 64.1974C92.2539 73.4402 93.6403 68.5767 96.2151 84.8836C98.0636 96.701 101.233 104.227 101.761 117.145C102.069 124.869 103.345 132.396 104.379 139.922C105.172 145.754 104.269 157.637 103.235 163.293C102.553 167.122 102.421 171.017 102.003 174.802C101.673 177.597 102.707 178.675 99.8681 179.027C97.9976 179.247 95.5769 179.093 93.7063 179.357L82.7911 180.018C74.5387 180.238 53.2364 180.172 45.7102 179.049C43.8176 178.763 35.4551 178.367 33.7166 178.939C31.0979 179.842 30.5477 182.856 29.2493 172.954C28.237 165.185 28.6551 156.625 27.9949 148.79ZM2.00526 167.276C2.59944 153.302 3.72177 147.624 6.89071 135.124C8.01304 130.789 10.2357 126.08 12.7444 122.449C13.7127 121.062 14.4829 120.094 15.2972 118.774L22.7354 107.638C23.3736 106.78 24.76 105.02 25.5522 104.249C29.0512 100.948 29.3593 99.2978 31.604 97.9994C31.2519 100.596 30.2616 102.885 29.6014 105.35C27.6868 112.436 26.4545 121.942 25.7723 129.491C24.6059 142.1 25.6402 153.456 25.7063 165.691L2.00526 167.276ZM129.775 168.574C129.753 168.552 129.731 168.684 129.731 168.728C118.002 168.772 117.385 168.75 105.546 169.697C105.524 166.462 106.448 162.941 106.778 159.794C107.901 149.429 107.746 139.262 105.722 129.051C104.952 125.133 105.876 126.212 106.052 124.891C106.206 123.901 105.678 121.348 105.568 120.116C104.952 111.842 104.6 108.497 103.059 100.42C102.399 96.9431 101.167 95.1606 100.88 91.6395C104.071 92.4978 106.47 95.5567 108.297 97.8454C110.255 100.288 112.214 102.533 113.776 105.768C119.41 117.321 128.036 144.015 129.181 157.241C129.357 159.332 129.533 161.444 129.775 163.447C129.885 164.371 130.017 165.405 130.017 166.396L129.797 168.42C129.797 168.442 129.775 168.618 129.775 168.574ZM48.439 60.1923C49.2312 57.0453 57.4396 46.2622 60.7626 43.3133L65.2519 39.3081C68.2228 37.1515 68.4209 36.5353 71.0616 36.5793C75.507 36.6673 77.0034 35.0829 79.8863 38.5819C82.9892 42.389 82.285 40.8045 84.3536 45.5359L87.6545 53.6783C88.6668 56.4292 90.0092 59.422 90.3833 62.591C89.239 62.1508 88.1607 62.0848 88.3147 63.4712C89.6351 64.0214 89.305 63.3612 90.6254 62.569C91.1316 64.8136 92.1439 67.9606 92.65 69.369C91.8578 69.0169 91.9238 69.303 91.1536 68.3787L87.5445 63.5152C84.7717 58.3657 80.1063 56.011 74.3186 54.6246C65.8241 52.578 60.4985 54.6026 53.9846 57.3974L48.439 60.1923ZM0.222738 169.08C2.40138 170.115 21.525 168.574 25.8603 168.244L27.4448 177.795C27.8189 180.326 32.5503 200.968 34.0467 202.398C35.1911 203.499 35.2571 202.266 35.2791 204.093C36.0273 204.071 36.6655 204.225 36.9736 204.159L43.3775 203.785C45.4021 203.873 50.1115 204.027 52.004 204.335C54.4247 204.731 52.092 203.895 55.481 204.027C57.2856 204.115 57.5717 203.609 59.4642 203.983C66.5063 205.325 78.0597 205.963 85.3439 205.017C88.1387 204.643 90.6474 204.335 93.8824 204.401C95.6429 204.445 96.3691 204.731 97.4034 203.477C98.3277 202.354 98.1076 202.332 99.6481 202.31H100.088C100.132 202.31 100.22 202.288 100.242 202.266C101.783 202.046 104.71 174.912 105.414 172.733C110.937 171.589 126.782 170.379 131.668 171.919C132.108 171.457 131.91 171.611 132.35 171.303C132.416 171.237 132.68 171.105 132.768 171.039C132.812 171.017 132.9 170.951 132.966 170.907C133.01 170.885 133.098 170.797 133.142 170.775C133.186 170.731 133.274 170.665 133.34 170.621L131.866 153.5L129.621 142.959C129.049 141.286 128.939 139.416 128.389 137.699L124.009 123.131C123.569 121.678 122.931 120.028 122.337 118.333C119.168 109.487 115.383 100.596 108.143 94.4344L104.688 91.7056C103.851 90.9794 100.748 89.637 100.506 89.3509L98.2397 78.8538C97.3594 75.2667 96.7212 71.8997 95.885 68.4667C95.5109 66.8822 94.8507 65.4298 94.3885 63.8013C93.9044 62.0628 93.3762 60.5224 92.8701 58.8499C91.1096 53.0842 88.3587 45.822 85.2338 41.0466C81.0746 34.7308 71.5018 30.8356 63.8875 36.6673C62.6112 37.6356 61.3568 38.6039 60.2785 39.5722C52.4221 46.7683 46.3484 55.945 42.2551 65.8699C41.617 67.4324 40.8687 68.6868 40.2526 70.3593C39.0862 73.4402 38.0959 76.6091 36.8856 79.712L34.0467 89.5709C31.3839 97.6913 32.8144 93.136 28.9412 97.2292C27.9729 98.2415 26.6525 98.9017 25.5082 99.98C24.826 100.618 24.4739 100.882 23.8357 101.564C21.415 104.249 21.8991 103.303 19.4564 106.626C14.3069 113.602 11.358 117.453 7.08876 126.19C5.63634 129.139 4.88811 132.506 3.94184 135.763C1.98326 142.585 -0.811567 162.544 0.222738 169.08Z" fill="#262626"/>
<path fill-rule="evenodd" clip-rule="evenodd" d="M43.7071 212.631C43.0689 211.794 43.267 211.53 42.0566 211.486C41.8145 212.036 45.1155 225.989 45.7537 227.903C47.3822 232.855 46.1278 231.204 48.1744 233.933C48.9887 235.011 48.0424 234.373 49.7149 234.527C49.7149 234.527 50.199 234.615 50.3751 234.637C50.8152 234.065 50.7492 233.823 51.0793 233.449C51.4754 233.009 51.3654 233.493 52.1576 232.569L53.3459 230.302C53.3679 230.148 53.478 230.148 53.566 230.06C53.72 233.361 54.1382 236.376 54.2482 239.721C54.3362 242.846 55.2605 245.332 55.4586 248.523C55.6346 251.208 56.3388 254.619 56.933 257.128C57.5052 259.527 58.2314 263.488 59.9699 263.73C60.9382 262.365 59.7718 263.598 60.8502 260.847C61.4223 259.372 61.9505 258.932 62.2806 257.656C62.7867 255.587 63.9531 252.815 65.1854 251.45L65.4495 251.868C65.6036 252.242 65.4935 251.934 65.6256 252.352L68.4864 265.424C69.5207 269.121 70.511 275.943 73.6579 277C75.3084 275.569 74.5602 272.818 75.7926 269.253C78.4113 261.793 80.656 253.475 83.0107 246.455L83.8469 247.841C84.067 248.391 84.155 248.589 84.4191 249.161C85.0793 250.548 84.8592 250.878 86.7738 250.812C86.8618 250.482 87.522 246.455 87.5 246.279C87.28 242.383 86.5317 243.814 87.6761 236.794L88.4903 232.635C88.5123 232.481 88.6003 232.459 88.6664 232.37C89.4366 232.921 89.1725 232.613 89.7447 234.109C90.4929 236.134 90.845 237.784 92.8256 237.938C94.8062 233.119 93.2877 235.187 93.0457 232.547C92.8256 230.016 95.2683 224.844 95.3783 224.074C95.6204 222.225 95.8185 222.776 96.2366 221.235C96.6987 219.453 97.7991 217.274 96.1486 216.174C95.5324 216.504 95.8845 215.954 95.2903 216.988L94.3 219.871C93.4198 222.6 91.3732 231.116 90.6029 231.842C89.4366 230.368 89.7447 229.114 88.0062 228.673C87.478 229.378 87.1259 231.094 86.9278 232.018C86.6418 233.449 86.5978 234.505 86.2897 235.98L85.0353 242.604C84.8812 243.198 84.9253 242.956 84.7052 243.264C83.4508 240.095 84.001 236.97 81.1401 236.816C81.7563 242.582 78.8735 248.611 77.4651 253.607C76.6948 256.38 75.7926 258.888 74.9783 261.529C74.5382 262.894 73.2618 268.593 72.6896 269.495L72.0515 267.999C70.577 263.466 69.0586 254.135 67.9142 250.966C67.166 248.919 66.7039 247.445 63.9971 247.665C63.711 248.435 63.601 249.448 63.2048 250.394C62.8968 251.098 62.2146 251.912 61.8625 252.66L59.6398 257.48C59.1116 256.622 58.7375 253.585 58.6935 252.771C58.6495 250.856 58.6935 249.558 58.3634 247.819C57.087 241.041 57.6152 232.701 56.4489 228.211C56.1188 226.957 56.3168 227.287 55.7446 226.319C54.8204 224.756 54.0722 222.556 52.1576 222.093C51.1673 223.634 50.3751 227.221 49.2307 228.299C48.2624 226.055 47.5582 221.257 46.9861 218.484C45.9298 213.401 44.6314 213.819 43.7071 212.631Z" fill="#262626"/>
<path fill-rule="evenodd" clip-rule="evenodd" d="M66.1765 79.7551C67.4969 79.6891 74.671 80.4373 75.7273 80.8554C84.4199 84.2004 88.315 86.203 88.271 99.891C88.249 106.911 86.2464 111.444 83.0555 115.78C80.2826 119.521 73.0865 122.118 68.4432 122.162C62.8755 122.228 51.6962 119.455 48.9674 114.789C48.3292 113.667 47.493 112.787 47.0969 111.466C46.3266 108.936 45.6884 105.019 46.4807 102.07C47.3169 99.0108 49.3415 92.4529 51.5642 90.1642L53.5448 87.9195C55.1732 85.5648 56.7577 84.7286 59.6846 83.6503C61.181 83.1001 61.7092 82.3959 63.0516 81.7577C65.0762 80.7674 64.702 81.3616 66.1765 79.7551ZM68.4432 77.0043C63.6237 77.8405 65.2082 77.7525 59.7066 80.4153C58.0561 81.2075 57.2198 81.5156 55.6574 82.5499C51.5642 85.2567 48.8574 87.2593 46.6787 91.8147C45.9525 93.3551 45.6224 94.6975 44.9622 96.282C42.8936 101.145 42.9156 105.459 44.5881 111.114C45.2703 113.491 47.8451 117.276 49.1215 118.927C51.5422 122.052 66.8587 128.147 71.458 125.044C72.6684 124.23 71.194 124.384 73.4606 124.23C78.6322 123.9 80.6568 123.79 84.6619 120.335C88.5131 117.012 87.4788 116.814 88.183 115.076C88.4911 114.283 88.9312 114.107 89.3493 113.007C90.5377 110.058 90.8898 105.877 91.1098 102.378C91.2859 99.627 90.9338 94.0593 90.2736 91.3745C88.9312 85.7409 83.9577 80.5914 78.6762 78.5888C75.3972 77.3564 72.2723 76.3221 68.4432 77.0043Z" fill="#262626"/>
<path fill-rule="evenodd" clip-rule="evenodd" d="M69.5654 87.0408C69.6975 87.0188 69.8735 86.9308 70.3356 86.9528L72.2722 87.569C75.9693 89.1315 76.6075 88.9334 78.6761 91.6182C81.3169 95.0732 81.5149 97.3619 80.9428 102.511C80.4366 107.023 78.8081 109.377 76.4314 112.106C73.3065 115.737 71.502 114.945 65.8243 115.231C58.9363 115.583 55.5913 111.27 54.689 105.482C54.557 104.558 54.2489 103.326 54.1829 102.357C54.0508 100.883 56.5156 92.3664 59.2664 90.3858C64.4819 86.6007 67.6729 87.547 69.5654 87.0408ZM52.5764 102.819C53.3906 109.223 56.2075 115.825 61.9952 118.07C65.4942 119.412 65.1641 118.994 68.7732 118.664C71.0179 118.488 72.8884 118.422 74.7369 117.542L78.368 115.671C79.7764 114.857 79.4683 115.099 80.2386 113.669C81.8891 110.588 84.2217 105.416 83.6496 100.993C82.9454 95.6014 83.8476 94.501 78.8742 89.1535C77.3777 87.547 76.4975 86.4907 74.2748 85.6104C68.4651 83.2777 62.0392 85.6984 57.5499 89.6596C56.8897 90.2318 57.0217 90.0117 56.4275 90.4959C53.3246 93.0046 52.0042 98.2421 52.5764 102.819Z" fill="#262626"/>
<path fill-rule="evenodd" clip-rule="evenodd" d="M78.4778 222.445C78.8079 222.203 80.2163 225.042 80.5464 225.658C81.4046 227.198 81.3826 228.079 83.4512 228.299C84.7276 227.066 86.004 224.756 86.4001 222.797C86.7962 220.773 87.1043 221.785 87.6545 219.848C87.9626 218.792 88.4247 217.868 88.8648 216.921C86.5321 215.337 88.9969 216.195 85.3438 214.589C84.5296 217.23 82.813 221.719 81.5147 223.721C80.4143 222.401 81.3826 222.489 79.8202 221.169C78.8519 220.376 78.5658 219.738 76.8493 219.496C76.3211 221.785 75.4849 223.479 74.4506 225.482C73.0642 228.145 73.1742 228.695 72.47 230.962L72.1619 231.666C72.1399 231.732 72.0739 231.82 72.0079 231.886C69.191 225.614 70.2473 220.663 66.8143 219.628C66.2422 220.31 64.7897 224.096 64.3056 225.13C63.8655 224.646 64.1735 225.416 63.6674 224.206C62.8752 222.247 61.6208 215.161 59.7282 213.554C58.3198 212.366 57.7917 211.508 56.5373 211.508C56.5153 213.07 58.5179 215.557 59.112 218.462L61.5328 226.142C62.303 227.947 62.6771 229.377 64.7897 229.531C65.3399 227.551 66.2862 225.306 67.7606 224.096C67.9807 225.834 68.4428 227.264 68.7289 229.025C69.059 230.984 68.993 232.7 69.3891 234.615C69.6972 236.155 69.8952 237.938 70.1813 239.676C70.2913 240.468 70.4454 241.327 70.6435 242.141C70.7095 242.383 70.8855 243.043 71.0176 243.373C71.7878 245.266 72.0299 244.099 72.36 243.637C72.404 243.703 72.492 243.725 72.514 243.813C72.536 243.967 72.7341 244.143 72.7781 244.187C73.2402 244.804 72.7781 244.341 73.2842 244.826C74.2525 243.835 73.5483 243.219 73.5483 241.657C73.5483 239.324 73.9224 238.466 73.9224 236.463C73.9444 233.492 74.6926 234.241 75.1328 231.534C75.5289 229.135 79.182 224.602 78.2797 222.709L78.4778 222.445Z" fill="#262626"/>
<path fill-rule="evenodd" clip-rule="evenodd" d="M118.904 200.242C118.178 199.098 118.64 198.701 118.134 197.535C115.559 191.571 117.209 193.75 116.439 190.361L115.713 189.129C114.657 189.635 114.701 189.899 114.04 191.087C113.248 192.496 113.622 192.364 112.412 193.486C112.302 191.901 112.324 190.735 112.324 189.173C112.302 187.28 111.73 187.126 111.488 185.586C111.136 183.165 111.356 184.045 109.947 182.879C109.353 182.395 108.913 181.558 108.121 181.448C106.162 181.184 107.989 182.791 108.209 185.938C108.495 190.229 108.275 192.232 109.727 196.831C110.343 198.723 110.805 199.626 112.764 199.868C113.314 198.547 113.402 197.931 115.229 197.117C115.427 200.132 115.207 208.538 117.385 210.981C118.112 211.795 117.87 211.663 119.234 211.685C119.542 210.409 119.3 208.296 119.762 206.976L124.229 195.775C124.692 194.608 125.044 193.156 125.506 191.835C126.738 188.468 126.386 188.512 126.672 187.764C127.574 185.278 127.42 181.47 127.926 178.764L126.87 177.861L122.711 188.667C121.435 192.54 120.026 196.127 118.904 200.242Z" fill="#262626"/>
<path fill-rule="evenodd" clip-rule="evenodd" d="M9.7077 197.249C10.3459 193.97 10.698 192.98 12.7226 189.833C12.7666 189.899 12.8326 189.921 12.8546 190.031L15.0993 200.528C15.4074 202.465 15.7815 206.976 16.8818 208.516C17.1239 208.847 17.454 209.155 17.7621 209.243C20.4249 210.079 18.3563 207.372 19.3245 202.003C19.8087 199.274 19.9407 197.227 20.5129 194.718C21.5032 190.383 21.2391 184.243 22.8676 180.348C21.9213 180.678 22.0093 180.568 21.5912 181.735C20.909 183.715 20.6449 186.532 20.1388 188.799L17.9381 197.755C17.7621 197.535 17.63 197.733 17.1899 196.413C17.0139 195.863 16.9478 195.467 16.7718 194.872C15.9355 192.122 15.2753 191.769 14.4171 188.755C13.977 187.192 13.999 186.774 12.7226 186.224C11.1381 186.202 11.1601 189.217 9.79573 190.515C9.39961 186.444 10.1258 180.524 7.04492 177.905C5.10834 176.277 5.83456 179.204 5.83456 180.392C5.85656 183.781 6.16466 186.906 6.49475 190.185C6.82485 193.442 6.36271 196.919 9.7077 197.249Z" fill="#262626"/>
<path fill-rule="evenodd" clip-rule="evenodd" d="M7.30888 149.253C8.89335 148.989 8.73931 147.008 9.00338 145.424C9.33348 143.465 9.66358 142.255 10.1477 140.407C10.94 137.414 11.9523 134.047 13.1626 131.318C14.7471 127.753 16.9037 122.361 19.3244 119.544C19.5885 119.214 22.0312 116.463 21.0849 116.155C19.6765 115.693 14.9671 124.958 14.1089 126.674C11.4021 132.088 10.7199 133.034 9.00338 139.812C8.58526 141.463 6.86875 148.395 7.30888 149.253Z" fill="#262626"/>
<path fill-rule="evenodd" clip-rule="evenodd" d="M94.7622 160.367C95.2463 159.42 95.0483 158.276 95.0923 156.933C95.1363 154.843 95.2463 154.843 94.3221 153.544C92.0114 150.31 95.0923 150.31 94.6522 147.625C94.19 144.61 92.3195 144.786 93.6399 141.419C95.0923 137.744 92.3415 135.895 91.9674 137.436C91.4612 139.526 93.0897 137.744 92.8036 140.165C92.6056 141.639 91.6153 142.167 91.4612 143.069C91.1751 144.544 93.8159 146.744 93.0897 148.901C92.7156 150.023 91.9454 150.332 91.9454 151.718C91.9454 152.906 92.6936 153.589 93.3098 154.579C94.6302 156.647 92.6936 159.134 94.7622 160.367Z" fill="#262626"/>
<path fill-rule="evenodd" clip-rule="evenodd" d="M94.3447 121.986C95.291 123.042 96.6334 123.174 96.4133 125.221C96.2593 126.673 95.291 127.663 95.181 129.556C95.313 130.062 98.2839 131.647 96.7434 135.982C95.8852 138.425 96.7434 139.525 98.4379 142.232C99.4502 141.902 98.658 142.298 99.6263 141.285C99.0321 140.031 97.7337 139.283 97.7777 137.39C97.8218 134.859 98.8341 136.422 98.3059 132.505C97.9758 130.106 96.8095 129.27 96.7874 128.28C96.7654 127.025 97.9758 125.793 98.0198 123.35C96.9855 122.448 95.9072 120.687 95.181 120.203C94.4328 120.709 94.4548 120.819 94.3447 121.986Z" fill="#262626"/>
<path fill-rule="evenodd" clip-rule="evenodd" d="M33.7608 137.193C35.5873 136.246 33.6287 134.354 34.399 127.224C34.663 124.891 36.2915 117.255 35.2132 115.979C33.7608 116.529 34.465 117.079 33.9148 120.358C33.3867 123.461 32.1983 135.388 33.7608 137.193Z" fill="#262626"/>
<path fill-rule="evenodd" clip-rule="evenodd" d="M110.916 141.925C111.928 141.749 111.18 141.859 112.324 141.506C112.302 136.489 112.06 137.215 111.642 133.474C111.488 132.154 111.686 131.912 110.586 131.604C109.639 133.562 111.466 136.137 110.916 141.925Z" fill="#262626"/>
<path fill-rule="evenodd" clip-rule="evenodd" d="M66.9243 152.664C68.8829 152.114 67.7605 150.837 67.7165 148.461C67.6945 146.546 67.9366 144.455 67.7605 142.629C66.066 142.871 66.9463 143.487 66.8363 146.832C66.7702 148.835 66.8583 150.661 66.9243 152.664Z" fill="#262626"/>
<path fill-rule="evenodd" clip-rule="evenodd" d="M60.7404 69.3904C61.0265 67.4318 62.3469 63.4486 61.2686 62.2383C60.1682 62.8325 60.4763 64.8791 60.0802 66.6836C59.1779 70.6228 59.442 69.6325 60.7404 69.3904Z" fill="#262626"/>
<path fill-rule="evenodd" clip-rule="evenodd" d="M88.4912 75.2011C88.5572 75.4872 90.7799 81.693 90.9339 81.869C91.9462 80.7687 91.176 79.9985 90.8239 78.0839C90.5378 76.3674 90.2737 75.4211 89.2174 74.6289C88.9754 74.805 88.6232 74.937 88.4912 75.2011Z" fill="#262626"/>
<path fill-rule="evenodd" clip-rule="evenodd" d="M57.5498 66.817L58.6061 66.861C59.0022 66.0028 59.0462 64.3523 59.3543 63.428C59.8605 61.8876 60.9388 61.7995 59.7505 60.6992C58.254 61.3814 57.6158 64.7924 57.5498 66.817Z" fill="#262626"/>
<path fill-rule="evenodd" clip-rule="evenodd" d="M118.97 161.796C121.127 161.356 119.432 161.4 119.564 157.24C119.63 155.612 119.828 156.162 119.3 155.26C118.706 155.612 118.728 154.996 118.508 156.36C118.464 156.69 118.486 157.835 118.508 158.209C118.574 159.199 118.794 160.893 118.97 161.796Z" fill="#262626"/>
<path fill-rule="evenodd" clip-rule="evenodd" d="M71.0837 153.961C71.6558 152.553 71.2157 148.504 70.6215 147.271C69.5652 147.954 70.1594 148.658 70.1814 150.396C70.2474 154.248 69.7633 153.675 71.0837 153.961Z" fill="#262626"/>
<path fill-rule="evenodd" clip-rule="evenodd" d="M62.4576 234.66C61.1812 235.32 61.6874 235.782 61.7314 237.763C61.7754 239.524 61.5553 240.074 62.5456 240.932C63.4699 239.832 62.9637 239.964 62.8537 238.093C62.7657 236.663 63.0077 235.672 62.4576 234.66Z" fill="#262626"/>
<path fill-rule="evenodd" clip-rule="evenodd" d="M38.1176 133.143C37.9415 131.316 38.2936 129.27 37.1713 128.434C36.335 129.336 36.8412 130.128 36.8852 131.845C36.9072 134.111 36.6871 134.397 38.1176 133.143Z" fill="#262626"/>
<path fill-rule="evenodd" clip-rule="evenodd" d="M45.9518 168.331C47.2501 167.627 46.898 167.957 46.81 166.064C46.744 164.678 46.9421 164.414 46.2819 163.512C45.2916 163.974 45.4236 164.458 45.4456 165.734C45.4676 167.165 45.3796 167.407 45.9518 168.331Z" fill="#262626"/>
<path fill-rule="evenodd" clip-rule="evenodd" d="M71.6553 219.234C73.3278 218.838 72.8437 218.926 72.7997 217.254C72.7557 215.911 73.1738 215.273 72.6896 214.305C71.9194 214.525 72.4476 213.688 71.8534 214.767C71.5233 215.339 71.6333 218.486 71.6553 219.234Z" fill="#262626"/>
<path fill-rule="evenodd" clip-rule="evenodd" d="M122.227 162.105C123.041 161.511 122.843 160.674 122.799 158.87C122.755 157.396 122.865 156.867 122.029 156.119C121.501 156.933 121.655 160.873 122.227 162.105Z" fill="#262626"/>
<path fill-rule="evenodd" clip-rule="evenodd" d="M48.9014 169.454C50.0457 168.992 50.0677 167.848 49.5396 166.351C49.2315 165.449 49.3635 165.823 48.9014 165.449C47.9771 166.329 48.1532 168.42 48.9014 169.454Z" fill="#262626"/>
<path fill-rule="evenodd" clip-rule="evenodd" d="M74.341 156.932C74.6051 155.985 74.187 152.134 73.6588 151.166C73.3947 151.496 73.3287 150.616 73.2627 152.332L73.5268 155.853C73.9009 157.79 73.6148 156.624 74.341 156.932Z" fill="#262626"/>
<path fill-rule="evenodd" clip-rule="evenodd" d="M78.8743 232.877C80.1726 232.503 80.3927 231.776 79.9966 229.18C78.9843 229.51 78.9183 229.268 78.8082 230.566C78.7642 231.094 78.8743 232.283 78.8743 232.877Z" fill="#262626"/>
<path fill-rule="evenodd" clip-rule="evenodd" d="M64.9662 235.914C64.7682 237.344 65.0102 240.337 66.0886 240.954C66.2206 239.413 65.9785 236.53 64.9662 235.914Z" fill="#262626"/>
<path fill-rule="evenodd" clip-rule="evenodd" d="M61.8408 70.3379C62.8531 69.8317 62.8531 69.9198 62.9411 68.6214C63.0072 67.6311 63.0072 66.8169 62.6771 65.8926C61.6868 66.3107 61.9949 68.9735 61.8408 70.3379Z" fill="#262626"/>
<path fill-rule="evenodd" clip-rule="evenodd" d="M69.8952 40.0777C69.1249 40.6939 69.345 40.2538 69.1689 41.5082C70.4233 41.5302 69.6751 41.6402 70.6214 41.112C70.6434 40.6499 70.7974 40.958 70.5554 40.3858C70.5333 40.3198 70.3573 40.0117 70.3133 39.9457L69.9612 39.4836C70.6434 38.8674 70.5994 39.2415 70.5994 38.0751L69.5651 37.7891C69.367 38.2292 69.1469 38.3172 69.367 39.0214C69.389 39.1095 69.433 39.1755 69.477 39.2635C69.499 39.3295 69.5651 39.4395 69.5871 39.5056C69.6311 39.5936 69.6971 39.7256 69.7411 39.7917C69.7851 39.8577 69.8511 39.9897 69.8952 40.0777Z" fill="#262626"/>
<path fill-rule="evenodd" clip-rule="evenodd" d="M73.8125 39.044L74.1866 40.4744C75.0229 39.9462 75.0229 39.9682 75.2649 38.8239C76.4533 39.264 76.8934 39.066 76.7834 37.4375C75.529 37.5255 76.0352 37.7236 75.507 38.1857C74.5607 39.022 74.7588 38.4058 73.8125 39.044Z" fill="#262626"/>
<path fill-rule="evenodd" clip-rule="evenodd" d="M6.75819 164.525C8.21062 164.305 8.10059 161.378 7.17632 160.52C6.62615 161.268 6.84622 161.136 6.82421 162.478C6.80221 163.622 6.58214 163.644 6.75819 164.525Z" fill="#262626"/>
<path fill-rule="evenodd" clip-rule="evenodd" d="M75.5068 218.595C75.5949 217.605 76.167 215.25 75.2868 214.084C74.4505 214.898 74.8026 214.59 74.9787 215.911C75.1327 217.297 74.8686 217.847 75.5068 218.595Z" fill="#262626"/>
<path fill-rule="evenodd" clip-rule="evenodd" d="M41.0667 134.397C41.6388 133.759 41.6388 133.781 41.6168 132.483C41.5948 131.383 41.5728 130.986 40.8026 130.568C40.7586 131.845 40.5605 133.517 41.0667 134.397Z" fill="#262626"/>
<path fill-rule="evenodd" clip-rule="evenodd" d="M69.7634 48.2868C70.5116 47.9347 70.5336 47.7367 70.9297 46.7904L70.3795 46.2402C69.2132 46.8124 68.8611 47.1865 69.7634 48.2868Z" fill="#262626"/>
<path fill-rule="evenodd" clip-rule="evenodd" d="M72.8223 43.2904C73.2844 44.4127 72.8663 43.8846 73.6585 44.4567C74.2967 43.8185 74.4728 43.8626 74.4728 42.6742C73.4605 42.5422 73.2404 42.7402 72.8223 43.2904Z" fill="#262626"/>
<path fill-rule="evenodd" clip-rule="evenodd" d="M88.8647 58.9821C88.3145 57.8377 88.9747 58.5199 87.5663 58.3879C87.4122 59.0261 87.3682 60.5445 88.5126 59.9504C88.8867 59.7743 89.0847 59.4442 88.8647 58.9821Z" fill="#262626"/>
<path fill-rule="evenodd" clip-rule="evenodd" d="M82.7912 55.2196C83.5394 54.6694 83.5614 54.6474 83.6495 53.393C81.6689 53.0629 81.999 54.4714 82.7912 55.2196Z" fill="#262626"/>
<path fill-rule="evenodd" clip-rule="evenodd" d="M78.2359 51.1037C78.4559 50.7296 78.3899 51.4999 78.544 50.3555C78.632 49.8054 78.566 49.8934 78.544 49.3652C76.6954 49.4753 76.5194 50.7516 78.2359 51.1037Z" fill="#262626"/>
<path fill-rule="evenodd" clip-rule="evenodd" d="M65.8682 46.0864C66.6824 46.1084 66.9245 46.2625 67.2546 45.6023C67.7387 44.59 66.8364 44.634 66.3743 44.502C65.8682 45.2062 65.8902 44.8981 65.8682 46.0864Z" fill="#262626"/>
<path fill-rule="evenodd" clip-rule="evenodd" d="M87.258 71.8551L86.4218 71.1289C86.2457 71.327 86.0256 71.0189 85.8056 72.0092C85.4975 73.4616 86.7299 73.3296 87.258 71.8551Z" fill="#262626"/>
<path fill-rule="evenodd" clip-rule="evenodd" d="M52.0696 172.315C51.5635 171.369 52.4438 172.91 52.3557 170.291C52.3117 169.521 52.2017 168.992 52.0036 168.486C51.7616 169.895 51.1674 171.215 52.0696 172.315Z" fill="#262626"/>
<path fill-rule="evenodd" clip-rule="evenodd" d="M73.5264 52.3135C74.0985 53.3258 73.3723 52.5335 74.2746 53.1717L75.2649 52.4015L74.7367 51.3672C73.9005 51.6973 73.8565 51.7193 73.5264 52.3135Z" fill="#262626"/>
<path fill-rule="evenodd" clip-rule="evenodd" d="M73.3279 50.3544C74.2962 50.0023 74.5162 49.8042 74.8243 49.056L74.0321 48.5059C73.1738 49.1 73.1078 49.2321 73.3279 50.3544Z" fill="#262626"/>
<path fill-rule="evenodd" clip-rule="evenodd" d="M58.6943 51.3236L59.3105 51.9178C60.4549 51.4117 60.3668 50.8175 59.6406 50.1133C59.3105 50.2893 59.3985 50.0693 59.0905 50.4434C58.7163 50.9055 58.8704 50.6634 58.6943 51.3236Z" fill="#262626"/>
<path fill-rule="evenodd" clip-rule="evenodd" d="M77.9059 47.3627C79.1383 47.3407 78.7862 47.5387 79.2263 46.4384C79.2263 46.4384 78.7422 45.6462 78.06 46.0203C77.3998 46.3724 77.7299 46.9666 77.9059 47.3627Z" fill="#262626"/>
<path fill-rule="evenodd" clip-rule="evenodd" d="M84.3317 57.4196C83.7816 58.6299 84.3537 58.1018 84.4418 58.3659L85.6741 58.1018C85.5861 57.2655 85.7622 57.3315 85.08 56.6934C84.8819 56.8474 84.3978 57.2655 84.3317 57.4196Z" fill="#262626"/>
<path fill-rule="evenodd" clip-rule="evenodd" d="M77.2231 44.4582C78.1034 44.0401 78.0594 44.0841 78.3895 43.1818C77.1571 42.0375 76.5409 43.1378 77.2231 44.4582Z" fill="#262626"/>
<path fill-rule="evenodd" clip-rule="evenodd" d="M57.3739 54.5362C58.012 53.7439 57.77 54.2061 57.814 52.9297C56.9997 53.0397 56.6476 52.9297 56.4936 53.6999C56.3175 54.5362 56.8237 54.4261 57.3739 54.5362Z" fill="#262626"/>
<path fill-rule="evenodd" clip-rule="evenodd" d="M87.0162 70.8205C88.0725 70.4464 87.9405 70.2264 88.1386 69.5882C87.4784 68.884 88.2706 69.1481 87.2363 69.1701C86.6201 69.8082 86.356 69.7862 87.0162 70.8205Z" fill="#262626"/>
<path fill-rule="evenodd" clip-rule="evenodd" d="M63.9971 50.0243L64.8333 50.6625C65.5375 49.7602 65.6035 49.9363 65.1414 48.8359C64.1291 49.078 64.2832 49.012 63.9971 50.0243Z" fill="#262626"/>
<path fill-rule="evenodd" clip-rule="evenodd" d="M52.7962 56.4951C54.4467 56.2091 54.2926 55.3068 52.7522 54.8887C52.4 55.7909 52.202 55.5269 52.7962 56.4951Z" fill="#262626"/>
<path fill-rule="evenodd" clip-rule="evenodd" d="M68.0686 52.3356C69.213 52.0495 69.5871 52.1816 69.1249 50.9932C69.0809 50.9712 68.7728 50.4871 68.1787 51.0372C67.6065 51.5874 67.8706 51.6094 68.0686 52.3356Z" fill="#262626"/>
<path fill-rule="evenodd" clip-rule="evenodd" d="M6.84683 157.637C7.02288 157.571 8.25525 158.011 7.55104 155.965C5.54845 156.691 6.71479 157.417 6.84683 157.637Z" fill="#262626"/>
<path fill-rule="evenodd" clip-rule="evenodd" d="M79.6222 49.586C80.8765 49.652 81.0526 49.564 81.0086 48.2436C79.8422 48.1776 79.5562 48.3757 79.6222 49.586Z" fill="#262626"/>
<path fill-rule="evenodd" clip-rule="evenodd" d="M7.83664 154.137C8.54085 153.433 8.40881 153.565 8.43082 152.398C6.86836 152.641 6.6703 153.323 7.83664 154.137Z" fill="#262626"/>
<path fill-rule="evenodd" clip-rule="evenodd" d="M68.8605 43.5327C68.9265 44.7871 68.5964 44.0389 69.4327 44.7651C69.4327 44.7651 70.467 44.325 70.1809 43.6208C69.9388 43.0926 69.2787 43.0926 68.8605 43.5327Z" fill="#262626"/>
<path fill-rule="evenodd" clip-rule="evenodd" d="M77.8182 41.1558C78.6764 40.7817 78.9185 40.9578 78.6104 39.9015C78.6104 39.9015 77.9942 38.8672 77.4881 39.9895C77.29 40.4296 77.7081 40.9578 77.8182 41.1558Z" fill="#262626"/>
<path fill-rule="evenodd" clip-rule="evenodd" d="M84.7273 53.5898C84.7493 53.5898 84.9033 54.338 85.6735 53.5898C86.2897 52.9956 85.9376 52.8196 85.7616 52.3574C84.7713 52.5995 84.4192 52.5115 84.7273 53.5898Z" fill="#262626"/>
<path fill-rule="evenodd" clip-rule="evenodd" d="M81.1628 45.7329C81.977 45.3368 82.065 45.2488 82.153 44.1484C80.5686 44.1484 80.4145 44.5225 81.1628 45.7329Z" fill="#262626"/>
<path fill-rule="evenodd" clip-rule="evenodd" d="M83.0993 47.7146C83.0993 47.7146 81.9769 47.8027 83.4514 48.947C84.2216 48.5949 84.1996 48.5729 84.1996 47.6486C83.0112 47.2745 83.8255 47.3625 83.0993 47.7146Z" fill="#262626"/>
<path fill-rule="evenodd" clip-rule="evenodd" d="M66.9021 41.9039C67.2762 40.9136 67.4082 41.2217 66.814 40.2754C66.3299 40.4734 66.0438 40.4294 65.9338 41.0016C65.7577 41.9039 66.3299 41.7718 66.9021 41.9039Z" fill="#262626"/>
<path fill-rule="evenodd" clip-rule="evenodd" d="M62.9848 46.6584C65.0314 47.0325 64.5472 45.7782 63.5569 45.25C63.0068 45.8002 62.9628 45.6021 62.9848 46.6584Z" fill="#262626"/>
<path fill-rule="evenodd" clip-rule="evenodd" d="M62.0386 50.5748C63.601 50.5088 63.491 49.8926 62.7648 48.9023C62.0386 49.5185 61.8845 49.1444 62.0386 50.5748Z" fill="#262626"/>
<path fill-rule="evenodd" clip-rule="evenodd" d="M62.9631 53.1945C64.2395 52.7544 63.5573 53.2385 64.0414 52.3142C63.5132 51.1479 64.0194 51.7641 63.2272 51.5C62.633 52.2482 62.677 52.3803 62.9631 53.1945Z" fill="#262626"/>
<path fill-rule="evenodd" clip-rule="evenodd" d="M74.5827 47.9556C75.2429 47.3174 75.2429 47.4494 75.0229 46.3711C73.3724 46.6572 73.3944 47.2293 74.5827 47.9556Z" fill="#262626"/>
<path fill-rule="evenodd" clip-rule="evenodd" d="M112.764 149.077C113.513 148.373 113.491 148.571 113.182 147.471C112.434 147.625 112.258 147.427 112.17 148.131C112.082 148.813 112.742 149.055 112.764 149.077Z" fill="#262626"/>
<path fill-rule="evenodd" clip-rule="evenodd" d="M80.8324 50.6626C80.4362 51.4769 80.3922 51.1248 80.8324 51.961C81.8667 51.7189 82.1087 51.5429 81.8447 50.6406L80.8324 50.6626Z" fill="#262626"/>
<path fill-rule="evenodd" clip-rule="evenodd" d="M56.3176 52.6441C56.9998 52.226 56.7797 52.9302 57.1758 51.7639C57.594 50.5095 56.7357 50.7076 56.7137 50.6855C56.1195 51.6318 56.2956 51.4558 56.3176 52.6441Z" fill="#262626"/>
<path fill-rule="evenodd" clip-rule="evenodd" d="M77.0918 54.4494L77.862 54.8895C78.4122 54.2514 78.6983 54.3394 78.2361 53.3711C77.2238 53.5912 77.4219 53.3491 77.0918 54.4494Z" fill="#262626"/>
<path fill-rule="evenodd" clip-rule="evenodd" d="M60.3666 46.7016L61.665 46.8557L61.2689 45.4473C60.3446 45.6673 60.2786 45.4473 60.3666 46.7016Z" fill="#262626"/>
<path fill-rule="evenodd" clip-rule="evenodd" d="M80.5022 42.2565C80.6122 42.1024 81.4045 42.3445 80.8323 40.584C79.0278 41.2882 80.4582 42.1905 80.5022 42.2565Z" fill="#262626"/>
<path fill-rule="evenodd" clip-rule="evenodd" d="M112.764 146.194C114.48 145.028 113.094 144.808 113.094 144.808C112.499 145.116 112.786 144.213 112.499 145.292C112.103 146.722 112.587 145.974 112.764 146.194Z" fill="#262626"/>
<path fill-rule="evenodd" clip-rule="evenodd" d="M61.425 6.99827C63.1681 7.01307 64.7188 6.65779 66.4544 6.62449C66.373 6.91685 65.9955 7.583 66.3323 8.08631C66.8023 8.78207 68.0384 7.89017 67.4241 7.39796C67.2686 7.42016 67.2353 7.45347 67.165 7.5793L67.2427 7.6015C67.3019 7.63111 67.35 7.61631 67.3685 7.73844C67.4352 8.14923 66.4285 8.33057 66.4063 7.5756C66.3804 6.64669 66.7949 6.62449 67.6905 6.60598C67.9385 6.60228 68.1975 6.58008 68.4418 6.59488C68.9599 6.62819 68.6601 6.78732 69.0265 6.75401L70.8806 2.80523C71.0213 2.69791 71.9095 2.42404 71.7503 3.78225C71.1619 4.15973 71.4321 3.83406 71.0583 3.77855C70.9769 3.98579 70.9843 3.98949 71.1804 4.08942C71.4062 4.20044 71.717 4.11532 71.8688 3.90067C72.1389 3.50469 72.0242 2.27601 71.0398 2.50546C71.0805 2.2205 71.569 1.10655 71.6985 0.832687C71.8984 1.07324 72.1796 1.71719 72.3425 2.02065L73.6933 4.30777C73.919 4.66305 74.1078 5.08124 74.3446 5.42172C74.4297 5.54384 74.4778 5.58085 74.5556 5.68818C74.674 5.85101 74.6222 5.83621 74.6999 5.97314L75.1773 6.28771C75.3586 6.32842 75.6621 6.30251 75.9249 6.34322C77.2313 6.53937 78.5006 6.78732 79.8033 6.92055C79.7367 7.20552 79.3629 7.73474 79.7478 8.0382C79.9366 8.18624 80.3622 8.15663 80.5213 7.94568L80.5361 7.72733C80.2733 7.68292 80.3289 7.99379 79.8996 7.83466C79.733 7.51268 79.8811 7.09079 80.166 7.00937C80.451 6.93165 82.7011 7.19811 83.1711 7.33134L83.382 7.42016C83.2599 7.62001 83.2118 7.6015 83.0379 7.74214C82.8935 7.86056 82.8306 7.96049 82.7307 8.07521C82.5345 8.30466 82.2644 8.44899 82.0127 8.64144C81.2134 9.24097 79.8403 10.3475 79.0225 10.7324C78.3156 11.0655 78.3637 11.0063 77.7679 11.406C77.5828 11.5244 77.4829 11.4763 77.3349 11.5466C77.2831 12.135 77.494 13.1416 77.5199 13.7819C77.5569 14.5887 77.5865 15.3177 77.5902 16.1356C77.5902 16.9498 77.5606 17.7825 77.605 18.5967C77.6458 19.3627 77.7309 20.0659 77.7457 20.869C77.5088 20.732 76.01 19.0445 75.8471 18.8113C76.0211 17.9527 76.8723 17.8454 76.9722 18.5967C76.9611 18.6078 76.9463 18.6226 76.9389 18.63C76.7983 18.7632 76.6909 18.8335 76.6169 19.026C76.9056 18.926 77.0721 18.7928 77.2424 18.5893C77.0758 17.7677 76.4615 17.59 75.9323 18.123C75.8027 18.2562 75.7583 18.4819 75.6362 18.6078C75.466 18.3894 75.3438 18.2081 75.1514 17.9786C74.9626 17.7566 74.8146 17.6345 74.6555 17.4087C74.3594 16.9942 74.0226 16.6278 73.7377 16.1837C73.4305 15.6989 73.164 15.2992 72.868 14.8588C72.324 14.0447 72.4831 14.3703 72.1019 14.0224C71.9687 13.9003 72.0057 13.8374 71.9317 13.6746C71.6726 13.719 71.606 13.9003 71.4321 14.0521L69.3115 16.2096C69.0228 16.4946 68.7156 16.7315 68.4159 17.0238C68.1309 17.3014 67.3426 18.0008 67.017 18.1933C66.3027 18.6115 65.2813 19.829 64.5633 20.0659L66.1917 14.807C66.4655 14.0372 66.621 13.2823 66.8393 12.5162C66.9355 12.1831 66.9355 12.0425 66.7986 11.7316C66.6876 11.4874 66.7542 11.5836 66.5618 11.4948C66.336 11.3875 65.8401 10.9841 65.8105 10.7324C65.7365 10.107 66.5211 9.63326 66.8282 10.1588C66.88 10.2476 66.9392 10.4252 66.9059 10.5696C66.8689 10.7361 66.9059 10.5844 66.806 10.7546C66.732 10.8693 66.7764 10.651 66.7431 10.8841C67.0762 10.8249 67.202 10.725 67.1391 10.3216C67.0096 9.46302 65.9511 9.57775 65.7069 10.2476C65.6551 10.3956 65.6292 10.5104 65.5218 10.5992C65.3997 10.4215 65.211 10.2513 65.0555 10.1107C64.8779 9.95153 64.7336 9.8072 64.5596 9.64436C64.1969 9.30759 63.8824 9.05593 63.5345 8.74136C62.9979 8.26395 62.4834 7.90127 61.9172 7.47198C61.7914 7.37946 61.7655 7.33875 61.6582 7.24993C61.536 7.1537 61.4916 7.1463 61.425 6.99827ZM71.3432 0.162837C71.3913 0.53662 70.9843 1.3212 70.8214 1.67648C70.5957 2.16869 70.3847 2.70531 70.1738 3.21232C69.7519 4.22635 69.2412 5.21447 68.7897 6.15818C68.2641 6.26921 66.2546 6.18779 65.285 6.2544C64.8594 6.28401 64.4967 6.34692 64.1081 6.37283C63.405 6.41724 62.5649 6.51716 61.8321 6.59858C60.6108 6.73181 59.4858 6.15818 62.4538 8.43049L64.7706 10.503C64.8779 10.6066 65 10.6843 65.111 10.8027L66.3804 12.0721C66.4285 12.2794 65.2739 15.9247 65.1888 16.1948C64.9852 16.8425 64.852 17.6197 64.6151 18.2451C64.3191 19.0186 64.2265 19.5145 63.9527 20.2546C64.0415 20.3694 64.1414 20.5026 64.208 20.6247C64.6595 20.4767 64.2858 20.9282 65.2887 20.3657L66.584 19.3109C66.7246 19.1814 66.8689 19.0408 67.0503 18.9186C67.5832 18.556 67.5018 18.6374 68.0014 18.16C68.1494 18.0193 68.3234 17.9379 68.4788 17.7825L69.7704 16.5612C69.9258 16.4058 70.0109 16.2911 70.1886 16.1208L71.0657 15.2881C71.2026 15.1586 71.3395 14.9699 71.4839 14.8514C71.5653 14.7811 71.643 14.7441 71.7244 14.6627C71.8984 14.485 71.717 14.5443 71.9687 14.4517C72.2721 14.6664 73.1011 16.069 73.2899 16.3688C73.7525 17.0941 75.1884 18.8002 75.8212 19.4516C76.1802 19.8253 77.605 21.376 77.705 21.6277C77.8752 21.5758 77.7161 21.6017 77.8308 21.5758C77.8382 21.5721 77.853 21.5684 77.8641 21.5684C77.8715 21.5647 77.8863 21.5647 77.8974 21.5647C77.9048 21.5647 77.9233 21.5684 77.9307 21.5647C77.9418 21.5647 77.9566 21.5684 77.9677 21.5684C78.0528 21.561 78.0343 21.5721 78.1084 21.5314C78.2231 21.4722 78.2009 21.4611 78.2342 21.4315C78.249 20.6728 78.2231 19.8216 78.1454 19.0963C77.9862 17.6271 78.2231 15.6138 78.0602 14.2667L77.9233 12.5902C77.9122 12.5014 77.9011 12.3756 77.8974 12.2868C77.8974 12.272 77.8937 12.1239 77.8937 12.1239C77.9307 11.7316 78.4229 11.7094 78.8041 11.4689C78.9632 11.3652 79.0706 11.3245 79.2519 11.2246L80.3178 10.577C80.6693 10.366 80.958 10.107 81.391 9.89232C81.7278 9.72578 81.8758 9.49263 82.183 9.29278C82.9749 8.77837 82.7344 8.74136 83.3006 8.32317C83.482 8.18994 83.4931 8.07891 83.6226 7.95308C83.8446 7.73474 83.9298 7.87907 84.0186 7.33875C84.0741 6.98717 84.0186 7.1167 83.9705 7.07229C83.7706 6.89095 80.3215 6.51716 79.7182 6.46535C78.4784 6.35433 76.3283 5.85471 75.5548 5.85841C75.1699 5.86211 75.0663 5.58455 74.8997 5.344L72.4239 1.07694C72.0316 0.0629141 71.8688 0.618039 71.6393 0L71.3432 0.162837Z" fill="#262626"/>
<path fill-rule="evenodd" clip-rule="evenodd" d="M69.6301 13.1116L69.5117 13.3744C69.7227 13.33 69.6375 13.3041 69.8522 13.3855L69.9077 13.8999C69.112 14.492 68.3867 13.7112 68.8345 12.7415C68.9233 12.5602 68.9862 12.4122 69.2342 12.4455C69.2638 12.4529 69.7856 12.6675 69.5006 12.353C69.0602 11.8755 68.3163 12.8008 68.5199 13.6593C68.5902 13.9554 68.8826 14.3144 69.1897 14.3366C69.3933 14.3514 70.0002 14.3107 70.1038 13.9036C70.1298 13.7963 70.0631 13.4447 70.0298 13.3633C69.9706 13.2153 69.8226 13.1449 69.6301 13.1116Z" fill="#262626"/>
<path fill-rule="evenodd" clip-rule="evenodd" d="M72.291 10.3654C72.5204 10.2766 72.3761 10.3321 72.4538 10.2099C72.5241 10.1026 72.5352 10.0656 72.5944 9.98049C73.194 9.93238 73.2643 10.036 73.4271 10.5097C73.5974 11.0056 73.5678 11.1796 73.3679 11.594C72.587 11.7088 72.9053 11.4941 72.7166 11.1648C72.6129 11.2018 72.587 11.1166 72.5833 11.372C72.5833 11.4386 72.6204 11.5718 72.6685 11.6385C72.9645 12.0456 74.2561 11.8716 73.5271 10.1322C73.2347 9.43276 72.0245 9.72143 72.291 10.3654Z" fill="#262626"/>
<path fill-rule="evenodd" clip-rule="evenodd" d="M69.989 6.94583C70.2222 6.8422 70.1444 6.49803 70.5996 6.69787C70.7958 6.78299 71.0437 7.01984 71.1178 7.20118C71.3768 7.83032 71.0437 8.45947 70.3147 8.32624C70.2148 8.14489 70.3036 8.14489 70.1518 8.02277C69.989 8.11159 70.0852 8.00056 70.0112 8.22261C70.1888 8.55939 70.6848 8.65931 71.0215 8.39655C71.6248 7.91914 71.5248 6.8533 70.7181 6.48322C70.3998 6.33889 70.1888 6.36109 70.0223 6.65346C70.0186 6.66086 69.9668 6.79779 69.9668 6.79779L69.989 6.94583Z" fill="#262626"/>
<path fill-rule="evenodd" clip-rule="evenodd" d="M73.4272 5.44085C73.0793 5.51117 73.2348 5.70731 72.9868 5.83684C72.2873 6.21062 71.9025 4.93014 72.4021 4.48604C72.6833 4.23438 72.8203 4.47864 72.8795 4.09375C71.6767 4.11225 71.5842 6.23283 72.8795 6.14771C73.2977 6.1181 73.4679 5.59629 73.4272 5.44085Z" fill="#262626"/>
<path fill-rule="evenodd" clip-rule="evenodd" d="M76.5427 16.5939C76.5056 16.605 75.9616 17.0861 75.7729 16.4385C75.6545 16.0351 75.9246 15.6502 76.1393 15.4837C76.8868 15.3837 76.6241 15.7205 76.9423 15.9018C77.3605 15.5466 75.9616 14.6436 75.5989 15.9055C75.1733 17.4007 76.9386 17.2082 76.5427 16.5939Z" fill="#262626"/>
<path fill-rule="evenodd" clip-rule="evenodd" d="M68.971 10.051L68.8785 10.1954C68.9599 10.3212 68.86 10.188 69.0154 10.3064L69.1412 10.4063C69.0746 11.1243 67.7423 10.9836 68.0828 9.79937C68.2012 9.39598 68.2493 9.52921 68.6231 9.4811C68.5898 9.07401 68.1013 9.24425 67.9236 9.68465C67.4499 10.8541 68.5306 11.3537 69.0968 10.9133C69.4484 10.6358 69.2893 10.2102 68.971 10.051Z" fill="#262626"/>
<path fill-rule="evenodd" clip-rule="evenodd" d="M63.4123 8.40772C63.6899 8.29299 63.5048 8.07835 63.6603 7.93401C64.0377 7.58244 65.1924 7.68236 65.0185 8.7667C64.567 8.91844 64.678 8.7593 64.4411 8.66308L64.3264 8.89623C64.6706 9.04426 65.1517 9.05907 65.2368 8.66308C65.3404 8.18197 64.7224 7.16054 63.7713 7.62685C63.3013 7.8563 63.231 8.22268 63.4123 8.40772Z" fill="#262626"/>
<path fill-rule="evenodd" clip-rule="evenodd" d="M75.285 8.03053C74.9223 8.27479 75.2517 8.28589 74.963 8.45243C74.6078 8.66708 73.9379 8.46353 74.2303 7.70856C74.3154 7.49762 74.4079 7.30147 74.5967 7.20525C74.9408 7.03871 74.8668 7.30887 75.0704 7.07202C74.63 6.5391 73.7159 7.71596 73.9897 8.39692C74.0933 8.65227 74.4745 8.87803 74.8668 8.7633C75.1444 8.68558 75.4626 8.3155 75.285 8.03053Z" fill="#262626"/>
<path fill-rule="evenodd" clip-rule="evenodd" d="M74.0448 13.4042C74.2816 13.2858 74.0337 13.0711 74.4518 13.2044C75.0958 13.4079 75.0403 15.2287 74.0374 14.5441C74.0114 14.1592 74.2224 14.1851 74.0966 13.9667C73.2935 14.6699 74.7109 15.4397 75.0292 14.3368C75.2438 13.5856 74.7072 12.9083 74.2742 12.949C74.0596 12.9712 73.9374 13.1859 74.0448 13.4042Z" fill="#262626"/>
<path fill-rule="evenodd" clip-rule="evenodd" d="M77.9046 8.56775C77.6049 8.59365 77.7381 9.07476 77.0423 8.87122C76.8869 8.49743 76.9424 8.16436 77.1904 7.93491C77.6715 7.49451 77.801 7.94971 78.0046 7.63514C77.7196 7.16883 76.7611 7.74986 76.7352 8.54554C76.7204 9.00075 76.9091 9.21909 77.3643 9.16728C77.6049 9.14138 77.6456 9.07846 77.7714 8.94523C77.9157 8.7935 78.0305 8.7824 77.9046 8.56775Z" fill="#262626"/>
<path fill-rule="evenodd" clip-rule="evenodd" d="M67.5759 15.1247C67.476 15.4504 67.8128 15.4541 67.476 15.7723C67.0208 15.95 66.7506 15.6983 66.8431 15.1913C66.9616 14.5178 67.3798 14.5844 67.5241 14.5289L67.5093 14.3771C67.0208 14.1588 66.3287 15.2949 66.7173 15.8316C66.8802 16.061 67.3169 16.1535 67.6129 15.95C67.7313 15.8649 67.8128 15.7279 67.8202 15.5355C67.8424 15.1432 67.6795 15.1395 67.5759 15.1247Z" fill="#262626"/>
<path fill-rule="evenodd" clip-rule="evenodd" d="M66.236 16.9909C66.3508 17.0538 66.7949 16.9206 66.9355 17.1574C67.0132 17.6052 66.8356 17.8162 66.6727 18.0567L66.1768 18.09C66.0732 17.8939 66.1694 17.9272 66.0325 17.8162L65.9141 18.1122C66.4692 18.449 66.9762 18.3158 67.1538 17.5867C67.4129 16.4987 66.1176 16.606 66.236 16.9909Z" fill="#262626"/>
<path fill-rule="evenodd" clip-rule="evenodd" d="M76.6209 10.7479C76.6209 10.7479 75.7401 11.3919 75.7327 10.4704C75.729 10.2224 75.8104 10.0115 75.9769 9.92634C76.2619 9.78941 76.4173 10.0892 76.4543 9.71909C75.5439 9.19357 75.011 11.2993 76.1879 11.2179C76.2582 11.2142 76.9132 11.0477 76.6209 10.7479Z" fill="#262626"/>
<path fill-rule="evenodd" clip-rule="evenodd" d="M78.9375 9.2935L79.0818 9.37492C79.1929 9.24539 79.2003 9.07885 79.3261 8.95302C79.6036 8.67176 80.1403 8.81239 80.0218 9.32311C79.9589 9.60807 79.7702 9.53405 79.637 9.62658C79.7258 9.78571 79.7702 9.77461 80.0033 9.77461C80.0922 9.63768 80.2735 9.39712 80.2772 9.18988C80.2846 8.4016 79.2114 8.20916 78.9375 9.2935Z" fill="#262626"/>
<path fill-rule="evenodd" clip-rule="evenodd" d="M71.3428 11.7881C70.8691 11.8806 70.8728 11.8177 70.5694 11.6142C70.5508 11.1701 70.5879 11.0553 70.8062 10.8037C71.0246 10.7963 71.0727 10.8703 71.1985 10.7371C70.7766 10.1116 69.7811 11.6327 70.7655 11.988C71.0135 12.0805 71.4205 12.1508 71.3428 11.7881Z" fill="#262626"/>
<path fill-rule="evenodd" clip-rule="evenodd" d="M81.2284 8.57849C81.5059 8.43046 81.2691 8.31203 81.4097 7.98636C81.517 7.7384 81.7095 7.75321 81.9019 7.91234C81.8205 7.80502 81.9056 7.88274 81.9241 7.81982C81.9611 7.68659 81.8908 7.65698 81.8094 7.54226C81.0988 7.50525 81.0914 8.30463 81.2284 8.57849Z" fill="#262626"/>
</svg>
