<svg width="30" height="30" viewBox="0 0 30 30" fill="none" xmlns="http://www.w3.org/2000/svg">
<path d="M19.4552 23.661C16.0756 21.8183 14.8299 17.5859 16.6736 14.2073C16.7966 13.982 16.9305 13.7661 17.0743 13.5595C16.1945 15.6918 16.4514 18.0644 17.6261 19.9284C17.1371 18.0847 17.9053 15.6648 20.905 15.1063C23.9887 14.5327 27.5308 16.3464 26.7802 18.108C26.7802 18.108 31.9574 14.8437 26.5768 12.4259C25.8537 12.1009 25.1286 11.8097 24.336 11.7921C23.0928 11.7636 22.825 10.89 21.1344 10.2894C21.1344 10.2894 23.8247 10.0922 25.1878 11.7506C27.4234 9.81551 22.6288 6.24385 19.5066 5.49588C16.9855 4.89221 14.8138 4.98564 13.6049 4.94308C12.9415 4.91972 12.5818 4.67368 12.5818 4.67368C12.8834 6.12861 15.093 6.70218 15.093 6.70218C8.31409 7.01154 6.25964 13.6337 6.25964 13.6337C7.04913 12.646 9.22556 11.8653 9.22556 11.8653C6.86642 14.5016 5.68815 17.1384 5.11459 19.3107C4.72062 18.0878 4.50677 16.7839 4.50677 15.4297C4.50677 8.45245 10.2107 2.76301 17.1911 2.77755C21.5953 2.78689 25.4706 5.04481 27.7306 8.46336C25.2656 3.97347 20.4918 0.929688 15.0058 0.929688C6.991 0.929688 0.466906 7.47973 0.500126 15.4915C0.52556 21.647 4.38894 26.8968 9.82196 28.9757C7.56716 24.8948 7.47061 20.0665 9.31899 15.9866C7.93673 19.8531 8.46046 24.3176 11.1103 27.8477C11.6491 28.5651 12.2491 29.2082 12.8979 29.7771C13.5862 29.8773 14.29 29.9297 15.0058 29.9297C16.3253 29.9297 17.6032 29.7532 18.8178 29.4236C16.4275 26.8709 15.052 23.5369 14.9119 20.082C15.3432 23.5852 17.2311 26.8511 20.2634 28.9476C23.4006 27.7273 26.0074 25.4486 27.6455 22.5491C25.5117 24.6171 22.2011 25.1585 19.4552 23.661Z" fill="#4168B7"/>
</svg>
