<svg width="30" height="30" viewBox="0 0 30 30" fill="none" xmlns="http://www.w3.org/2000/svg">
<path d="M19.4552 23.4422C16.0756 21.5996 14.8299 17.3671 16.6736 13.9885C16.7966 13.7633 16.9305 13.5473 17.0743 13.3408C16.1945 15.4731 16.4514 17.8457 17.6261 19.7096C17.1371 17.8659 17.9053 15.4461 20.905 14.8876C23.9887 14.314 27.5308 16.1276 26.7802 17.8893C26.7802 17.8893 31.9574 14.6249 26.5768 12.2071C25.8537 11.8822 25.1286 11.591 24.336 11.5733C23.0928 11.5448 22.825 10.6712 21.1344 10.0707C21.1344 10.0707 23.8247 9.87342 25.1878 11.5318C27.4234 9.59676 22.6288 6.0251 19.5066 5.27713C16.9855 4.67346 14.8138 4.76689 13.6049 4.72433C12.9415 4.70097 12.5818 4.45493 12.5818 4.45493C12.8834 5.90986 15.093 6.48343 15.093 6.48343C8.31409 6.79279 6.25964 13.415 6.25964 13.415C7.04913 12.4272 9.22556 11.6465 9.22556 11.6465C6.86642 14.2829 5.68815 16.9197 5.11459 19.092C4.72062 17.8691 4.50677 16.5652 4.50677 15.2109C4.50677 8.2337 10.2107 2.54426 17.1911 2.5588C21.5953 2.56814 25.4706 4.82606 27.7306 8.24461C25.2656 3.75472 20.4918 0.710938 15.0058 0.710938C6.991 0.710938 0.466906 7.26098 0.500126 15.2727C0.52556 21.4283 4.38894 26.6781 9.82196 28.7569C7.56716 24.676 7.47061 19.8477 9.31899 15.7679C7.93673 19.6344 8.46046 24.0988 11.1103 27.629C11.6491 28.3463 12.2491 28.9894 12.8979 29.5583C13.5862 29.6585 14.29 29.7109 15.0058 29.7109C16.3253 29.7109 17.6032 29.5345 18.8178 29.2049C16.4275 26.6521 15.052 23.3182 14.9119 19.8633C15.3432 23.3664 17.2311 26.6324 20.2634 28.7289C23.4006 27.5086 26.0074 25.2299 27.6455 22.3304C25.5117 24.3983 22.2011 24.9397 19.4552 23.4422Z" fill="#A77700"/>
</svg>
